<?xml version="1.0" encoding="utf-8"?>
<svg xmlns="http://www.w3.org/2000/svg" xmlns:xlink="http://www.w3.org/1999/xlink" width="600" height="400" viewBox="0 0 2400 1600">
<defs>
  <clipPath id="clip020">
    <rect x="0" y="0" width="2400" height="1600"/>
  </clipPath>
</defs>
<path clip-path="url(#clip020)" d="
M0 1600 L2400 1600 L2400 0 L0 0  Z
  " fill="#ffffff" fill-rule="evenodd" fill-opacity="1"/>
<defs>
  <clipPath id="clip021">
    <rect x="480" y="0" width="1681" height="1600"/>
  </clipPath>
</defs>
<path clip-path="url(#clip020)" d="
M219.866 1423.18 L912.756 1423.18 L912.756 123.472 L219.866 123.472  Z
  " fill="#ffffff" fill-rule="evenodd" fill-opacity="1"/>
<defs>
  <clipPath id="clip022">
    <rect x="219" y="123" width="694" height="1301"/>
  </clipPath>
</defs>
<polyline clip-path="url(#clip022)" style="stroke:#000000; stroke-linecap:butt; stroke-linejoin:round; stroke-width:2; stroke-opacity:0.1; fill:none" points="
  358.028,1423.18 358.028,123.472 
  "/>
<polyline clip-path="url(#clip022)" style="stroke:#000000; stroke-linecap:butt; stroke-linejoin:round; stroke-width:2; stroke-opacity:0.1; fill:none" points="
  496.883,1423.18 496.883,123.472 
  "/>
<polyline clip-path="url(#clip022)" style="stroke:#000000; stroke-linecap:butt; stroke-linejoin:round; stroke-width:2; stroke-opacity:0.1; fill:none" points="
  635.739,1423.18 635.739,123.472 
  "/>
<polyline clip-path="url(#clip022)" style="stroke:#000000; stroke-linecap:butt; stroke-linejoin:round; stroke-width:2; stroke-opacity:0.1; fill:none" points="
  774.595,1423.18 774.595,123.472 
  "/>
<polyline clip-path="url(#clip020)" style="stroke:#000000; stroke-linecap:butt; stroke-linejoin:round; stroke-width:4; stroke-opacity:1; fill:none" points="
  219.866,1423.18 912.756,1423.18 
  "/>
<polyline clip-path="url(#clip020)" style="stroke:#000000; stroke-linecap:butt; stroke-linejoin:round; stroke-width:4; stroke-opacity:1; fill:none" points="
  358.028,1423.18 358.028,1404.28 
  "/>
<polyline clip-path="url(#clip020)" style="stroke:#000000; stroke-linecap:butt; stroke-linejoin:round; stroke-width:4; stroke-opacity:1; fill:none" points="
  496.883,1423.18 496.883,1404.28 
  "/>
<polyline clip-path="url(#clip020)" style="stroke:#000000; stroke-linecap:butt; stroke-linejoin:round; stroke-width:4; stroke-opacity:1; fill:none" points="
  635.739,1423.18 635.739,1404.28 
  "/>
<polyline clip-path="url(#clip020)" style="stroke:#000000; stroke-linecap:butt; stroke-linejoin:round; stroke-width:4; stroke-opacity:1; fill:none" points="
  774.595,1423.18 774.595,1404.28 
  "/>
<path clip-path="url(#clip020)" d="M336.211 1452.37 Q332.6 1452.37 330.771 1455.94 Q328.965 1459.48 328.965 1466.61 Q328.965 1473.71 330.771 1477.28 Q332.6 1480.82 336.211 1480.82 Q339.845 1480.82 341.65 1477.28 Q343.479 1473.71 343.479 1466.61 Q343.479 1459.48 341.65 1455.94 Q339.845 1452.37 336.211 1452.37 M336.211 1448.67 Q342.021 1448.67 345.076 1453.27 Q348.155 1457.86 348.155 1466.61 Q348.155 1475.33 345.076 1479.94 Q342.021 1484.52 336.211 1484.52 Q330.4 1484.52 327.322 1479.94 Q324.266 1475.33 324.266 1466.61 Q324.266 1457.86 327.322 1453.27 Q330.4 1448.67 336.211 1448.67 Z" fill="#000000" fill-rule="evenodd" fill-opacity="1" /><path clip-path="url(#clip020)" d="M356.373 1477.97 L361.257 1477.97 L361.257 1483.85 L356.373 1483.85 L356.373 1477.97 Z" fill="#000000" fill-rule="evenodd" fill-opacity="1" /><path clip-path="url(#clip020)" d="M375.47 1479.92 L391.789 1479.92 L391.789 1483.85 L369.845 1483.85 L369.845 1479.92 Q372.507 1477.16 377.09 1472.53 Q381.696 1467.88 382.877 1466.54 Q385.122 1464.01 386.002 1462.28 Q386.905 1460.52 386.905 1458.83 Q386.905 1456.07 384.96 1454.34 Q383.039 1452.6 379.937 1452.6 Q377.738 1452.6 375.284 1453.37 Q372.854 1454.13 370.076 1455.68 L370.076 1450.96 Q372.9 1449.82 375.354 1449.25 Q377.808 1448.67 379.845 1448.67 Q385.215 1448.67 388.409 1451.35 Q391.604 1454.04 391.604 1458.53 Q391.604 1460.66 390.794 1462.58 Q390.007 1464.48 387.9 1467.07 Q387.321 1467.74 384.22 1470.96 Q381.118 1474.15 375.47 1479.92 Z" fill="#000000" fill-rule="evenodd" fill-opacity="1" /><path clip-path="url(#clip020)" d="M474.025 1452.37 Q470.414 1452.37 468.585 1455.94 Q466.779 1459.48 466.779 1466.61 Q466.779 1473.71 468.585 1477.28 Q470.414 1480.82 474.025 1480.82 Q477.659 1480.82 479.464 1477.28 Q481.293 1473.71 481.293 1466.61 Q481.293 1459.48 479.464 1455.94 Q477.659 1452.37 474.025 1452.37 M474.025 1448.67 Q479.835 1448.67 482.89 1453.27 Q485.969 1457.86 485.969 1466.61 Q485.969 1475.33 482.89 1479.94 Q479.835 1484.52 474.025 1484.52 Q468.214 1484.52 465.136 1479.94 Q462.08 1475.33 462.08 1466.61 Q462.08 1457.86 465.136 1453.27 Q468.214 1448.67 474.025 1448.67 Z" fill="#000000" fill-rule="evenodd" fill-opacity="1" /><path clip-path="url(#clip020)" d="M494.187 1477.97 L499.071 1477.97 L499.071 1483.85 L494.187 1483.85 L494.187 1477.97 Z" fill="#000000" fill-rule="evenodd" fill-opacity="1" /><path clip-path="url(#clip020)" d="M522.103 1453.37 L510.298 1471.81 L522.103 1471.81 L522.103 1453.37 M520.876 1449.29 L526.756 1449.29 L526.756 1471.81 L531.686 1471.81 L531.686 1475.7 L526.756 1475.7 L526.756 1483.85 L522.103 1483.85 L522.103 1475.7 L506.501 1475.7 L506.501 1471.19 L520.876 1449.29 Z" fill="#000000" fill-rule="evenodd" fill-opacity="1" /><path clip-path="url(#clip020)" d="M613.042 1452.37 Q609.431 1452.37 607.602 1455.94 Q605.797 1459.48 605.797 1466.61 Q605.797 1473.71 607.602 1477.28 Q609.431 1480.82 613.042 1480.82 Q616.677 1480.82 618.482 1477.28 Q620.311 1473.71 620.311 1466.61 Q620.311 1459.48 618.482 1455.94 Q616.677 1452.37 613.042 1452.37 M613.042 1448.67 Q618.852 1448.67 621.908 1453.27 Q624.987 1457.86 624.987 1466.61 Q624.987 1475.33 621.908 1479.94 Q618.852 1484.52 613.042 1484.52 Q607.232 1484.52 604.153 1479.94 Q601.098 1475.33 601.098 1466.61 Q601.098 1457.86 604.153 1453.27 Q607.232 1448.67 613.042 1448.67 Z" fill="#000000" fill-rule="evenodd" fill-opacity="1" /><path clip-path="url(#clip020)" d="M633.204 1477.97 L638.088 1477.97 L638.088 1483.85 L633.204 1483.85 L633.204 1477.97 Z" fill="#000000" fill-rule="evenodd" fill-opacity="1" /><path clip-path="url(#clip020)" d="M658.852 1464.71 Q655.704 1464.71 653.852 1466.86 Q652.024 1469.01 652.024 1472.76 Q652.024 1476.49 653.852 1478.67 Q655.704 1480.82 658.852 1480.82 Q662 1480.82 663.829 1478.67 Q665.681 1476.49 665.681 1472.76 Q665.681 1469.01 663.829 1466.86 Q662 1464.71 658.852 1464.71 M668.135 1450.06 L668.135 1454.31 Q666.375 1453.48 664.57 1453.04 Q662.787 1452.6 661.028 1452.6 Q656.399 1452.6 653.945 1455.73 Q651.514 1458.85 651.167 1465.17 Q652.533 1463.16 654.593 1462.09 Q656.653 1461 659.13 1461 Q664.338 1461 667.348 1464.18 Q670.38 1467.32 670.38 1472.76 Q670.38 1478.09 667.232 1481.31 Q664.084 1484.52 658.852 1484.52 Q652.857 1484.52 649.686 1479.94 Q646.514 1475.33 646.514 1466.61 Q646.514 1458.41 650.403 1453.55 Q654.292 1448.67 660.843 1448.67 Q662.602 1448.67 664.385 1449.01 Q666.19 1449.36 668.135 1450.06 Z" fill="#000000" fill-rule="evenodd" fill-opacity="1" /><path clip-path="url(#clip020)" d="M752.025 1452.37 Q748.414 1452.37 746.585 1455.94 Q744.78 1459.48 744.78 1466.61 Q744.78 1473.71 746.585 1477.28 Q748.414 1480.82 752.025 1480.82 Q755.659 1480.82 757.465 1477.28 Q759.294 1473.71 759.294 1466.61 Q759.294 1459.48 757.465 1455.94 Q755.659 1452.37 752.025 1452.37 M752.025 1448.67 Q757.835 1448.67 760.891 1453.27 Q763.97 1457.86 763.97 1466.61 Q763.97 1475.33 760.891 1479.94 Q757.835 1484.52 752.025 1484.52 Q746.215 1484.52 743.136 1479.94 Q740.081 1475.33 740.081 1466.61 Q740.081 1457.86 743.136 1453.27 Q746.215 1448.67 752.025 1448.67 Z" fill="#000000" fill-rule="evenodd" fill-opacity="1" /><path clip-path="url(#clip020)" d="M772.187 1477.97 L777.071 1477.97 L777.071 1483.85 L772.187 1483.85 L772.187 1477.97 Z" fill="#000000" fill-rule="evenodd" fill-opacity="1" /><path clip-path="url(#clip020)" d="M797.256 1467.44 Q793.923 1467.44 792.002 1469.22 Q790.104 1471 790.104 1474.13 Q790.104 1477.25 792.002 1479.04 Q793.923 1480.82 797.256 1480.82 Q800.59 1480.82 802.511 1479.04 Q804.432 1477.23 804.432 1474.13 Q804.432 1471 802.511 1469.22 Q800.613 1467.44 797.256 1467.44 M792.581 1465.45 Q789.571 1464.71 787.882 1462.65 Q786.215 1460.59 786.215 1457.63 Q786.215 1453.48 789.155 1451.07 Q792.118 1448.67 797.256 1448.67 Q802.418 1448.67 805.358 1451.07 Q808.298 1453.48 808.298 1457.63 Q808.298 1460.59 806.608 1462.65 Q804.942 1464.71 801.956 1465.45 Q805.335 1466.24 807.21 1468.53 Q809.108 1470.82 809.108 1474.13 Q809.108 1479.15 806.03 1481.84 Q802.974 1484.52 797.256 1484.52 Q791.539 1484.52 788.46 1481.84 Q785.405 1479.15 785.405 1474.13 Q785.405 1470.82 787.303 1468.53 Q789.201 1466.24 792.581 1465.45 M790.868 1458.06 Q790.868 1460.75 792.534 1462.25 Q794.224 1463.76 797.256 1463.76 Q800.266 1463.76 801.956 1462.25 Q803.668 1460.75 803.668 1458.06 Q803.668 1455.38 801.956 1453.88 Q800.266 1452.37 797.256 1452.37 Q794.224 1452.37 792.534 1453.88 Q790.868 1455.38 790.868 1458.06 Z" fill="#000000" fill-rule="evenodd" fill-opacity="1" /><path clip-path="url(#clip020)" d="M582.926 1532.4 L570.035 1549.74 L583.594 1568.04 L576.687 1568.04 L566.311 1554.04 L555.935 1568.04 L549.028 1568.04 L562.874 1549.39 L550.206 1532.4 L557.113 1532.4 L566.566 1545.1 L576.019 1532.4 L582.926 1532.4 Z" fill="#000000" fill-rule="evenodd" fill-opacity="1" /><polyline clip-path="url(#clip022)" style="stroke:#000000; stroke-linecap:butt; stroke-linejoin:round; stroke-width:2; stroke-opacity:0.1; fill:none" points="
  219.866,1164.02 912.756,1164.02 
  "/>
<polyline clip-path="url(#clip022)" style="stroke:#000000; stroke-linecap:butt; stroke-linejoin:round; stroke-width:2; stroke-opacity:0.1; fill:none" points="
  219.866,903.557 912.756,903.557 
  "/>
<polyline clip-path="url(#clip022)" style="stroke:#000000; stroke-linecap:butt; stroke-linejoin:round; stroke-width:2; stroke-opacity:0.1; fill:none" points="
  219.866,643.095 912.756,643.095 
  "/>
<polyline clip-path="url(#clip022)" style="stroke:#000000; stroke-linecap:butt; stroke-linejoin:round; stroke-width:2; stroke-opacity:0.1; fill:none" points="
  219.866,382.632 912.756,382.632 
  "/>
<polyline clip-path="url(#clip020)" style="stroke:#000000; stroke-linecap:butt; stroke-linejoin:round; stroke-width:4; stroke-opacity:1; fill:none" points="
  219.866,1423.18 219.866,123.472 
  "/>
<polyline clip-path="url(#clip020)" style="stroke:#000000; stroke-linecap:butt; stroke-linejoin:round; stroke-width:4; stroke-opacity:1; fill:none" points="
  219.866,1164.02 233.902,1164.02 
  "/>
<polyline clip-path="url(#clip020)" style="stroke:#000000; stroke-linecap:butt; stroke-linejoin:round; stroke-width:4; stroke-opacity:1; fill:none" points="
  219.866,903.557 233.902,903.557 
  "/>
<polyline clip-path="url(#clip020)" style="stroke:#000000; stroke-linecap:butt; stroke-linejoin:round; stroke-width:4; stroke-opacity:1; fill:none" points="
  219.866,643.095 233.902,643.095 
  "/>
<polyline clip-path="url(#clip020)" style="stroke:#000000; stroke-linecap:butt; stroke-linejoin:round; stroke-width:4; stroke-opacity:1; fill:none" points="
  219.866,382.632 233.902,382.632 
  "/>
<path clip-path="url(#clip020)" d="M128.288 1149.82 Q124.677 1149.82 122.848 1153.38 Q121.043 1156.92 121.043 1164.05 Q121.043 1171.16 122.848 1174.73 Q124.677 1178.27 128.288 1178.27 Q131.922 1178.27 133.728 1174.73 Q135.556 1171.16 135.556 1164.05 Q135.556 1156.92 133.728 1153.38 Q131.922 1149.82 128.288 1149.82 M128.288 1146.11 Q134.098 1146.11 137.154 1150.72 Q140.232 1155.3 140.232 1164.05 Q140.232 1172.78 137.154 1177.39 Q134.098 1181.97 128.288 1181.97 Q122.478 1181.97 119.399 1177.39 Q116.343 1172.78 116.343 1164.05 Q116.343 1155.3 119.399 1150.72 Q122.478 1146.11 128.288 1146.11 Z" fill="#000000" fill-rule="evenodd" fill-opacity="1" /><path clip-path="url(#clip020)" d="M148.45 1175.42 L153.334 1175.42 L153.334 1181.3 L148.45 1181.3 L148.45 1175.42 Z" fill="#000000" fill-rule="evenodd" fill-opacity="1" /><path clip-path="url(#clip020)" d="M167.547 1177.36 L183.866 1177.36 L183.866 1181.3 L161.922 1181.3 L161.922 1177.36 Q164.584 1174.61 169.167 1169.98 Q173.774 1165.33 174.954 1163.98 Q177.2 1161.46 178.079 1159.73 Q178.982 1157.97 178.982 1156.28 Q178.982 1153.52 177.038 1151.79 Q175.116 1150.05 172.014 1150.05 Q169.815 1150.05 167.362 1150.81 Q164.931 1151.58 162.153 1153.13 L162.153 1148.41 Q164.977 1147.27 167.431 1146.69 Q169.885 1146.11 171.922 1146.11 Q177.292 1146.11 180.487 1148.8 Q183.681 1151.49 183.681 1155.98 Q183.681 1158.11 182.871 1160.03 Q182.084 1161.92 179.977 1164.52 Q179.399 1165.19 176.297 1168.41 Q173.195 1171.6 167.547 1177.36 Z" fill="#000000" fill-rule="evenodd" fill-opacity="1" /><path clip-path="url(#clip020)" d="M126.205 889.356 Q122.593 889.356 120.765 892.921 Q118.959 896.462 118.959 903.592 Q118.959 910.698 120.765 914.263 Q122.593 917.805 126.205 917.805 Q129.839 917.805 131.644 914.263 Q133.473 910.698 133.473 903.592 Q133.473 896.462 131.644 892.921 Q129.839 889.356 126.205 889.356 M126.205 885.652 Q132.015 885.652 135.07 890.259 Q138.149 894.842 138.149 903.592 Q138.149 912.319 135.07 916.925 Q132.015 921.509 126.205 921.509 Q120.394 921.509 117.316 916.925 Q114.26 912.319 114.26 903.592 Q114.26 894.842 117.316 890.259 Q120.394 885.652 126.205 885.652 Z" fill="#000000" fill-rule="evenodd" fill-opacity="1" /><path clip-path="url(#clip020)" d="M146.366 914.958 L151.251 914.958 L151.251 920.837 L146.366 920.837 L146.366 914.958 Z" fill="#000000" fill-rule="evenodd" fill-opacity="1" /><path clip-path="url(#clip020)" d="M174.283 890.351 L162.477 908.8 L174.283 908.8 L174.283 890.351 M173.056 886.277 L178.936 886.277 L178.936 908.8 L183.866 908.8 L183.866 912.689 L178.936 912.689 L178.936 920.837 L174.283 920.837 L174.283 912.689 L158.681 912.689 L158.681 908.175 L173.056 886.277 Z" fill="#000000" fill-rule="evenodd" fill-opacity="1" /><path clip-path="url(#clip020)" d="M126.529 628.893 Q122.918 628.893 121.089 632.458 Q119.283 636 119.283 643.129 Q119.283 650.236 121.089 653.801 Q122.918 657.342 126.529 657.342 Q130.163 657.342 131.968 653.801 Q133.797 650.236 133.797 643.129 Q133.797 636 131.968 632.458 Q130.163 628.893 126.529 628.893 M126.529 625.19 Q132.339 625.19 135.394 629.796 Q138.473 634.38 138.473 643.129 Q138.473 651.856 135.394 656.463 Q132.339 661.046 126.529 661.046 Q120.718 661.046 117.64 656.463 Q114.584 651.856 114.584 643.129 Q114.584 634.38 117.64 629.796 Q120.718 625.19 126.529 625.19 Z" fill="#000000" fill-rule="evenodd" fill-opacity="1" /><path clip-path="url(#clip020)" d="M146.691 654.495 L151.575 654.495 L151.575 660.375 L146.691 660.375 L146.691 654.495 Z" fill="#000000" fill-rule="evenodd" fill-opacity="1" /><path clip-path="url(#clip020)" d="M172.339 641.231 Q169.19 641.231 167.339 643.384 Q165.51 645.537 165.51 649.287 Q165.51 653.014 167.339 655.19 Q169.19 657.342 172.339 657.342 Q175.487 657.342 177.315 655.19 Q179.167 653.014 179.167 649.287 Q179.167 645.537 177.315 643.384 Q175.487 641.231 172.339 641.231 M181.621 626.579 L181.621 630.838 Q179.862 630.005 178.056 629.565 Q176.274 629.125 174.514 629.125 Q169.885 629.125 167.431 632.25 Q165.001 635.375 164.653 641.694 Q166.019 639.68 168.079 638.616 Q170.139 637.528 172.616 637.528 Q177.825 637.528 180.834 640.699 Q183.866 643.847 183.866 649.287 Q183.866 654.611 180.718 657.828 Q177.57 661.046 172.339 661.046 Q166.343 661.046 163.172 656.463 Q160.001 651.856 160.001 643.129 Q160.001 634.935 163.89 630.074 Q167.778 625.19 174.329 625.19 Q176.089 625.19 177.871 625.537 Q179.676 625.884 181.621 626.579 Z" fill="#000000" fill-rule="evenodd" fill-opacity="1" /><path clip-path="url(#clip020)" d="M126.783 368.431 Q123.172 368.431 121.343 371.996 Q119.538 375.537 119.538 382.667 Q119.538 389.773 121.343 393.338 Q123.172 396.88 126.783 396.88 Q130.417 396.88 132.223 393.338 Q134.052 389.773 134.052 382.667 Q134.052 375.537 132.223 371.996 Q130.417 368.431 126.783 368.431 M126.783 364.727 Q132.593 364.727 135.649 369.334 Q138.728 373.917 138.728 382.667 Q138.728 391.394 135.649 396 Q132.593 400.584 126.783 400.584 Q120.973 400.584 117.894 396 Q114.839 391.394 114.839 382.667 Q114.839 373.917 117.894 369.334 Q120.973 364.727 126.783 364.727 Z" fill="#000000" fill-rule="evenodd" fill-opacity="1" /><path clip-path="url(#clip020)" d="M146.945 394.033 L151.829 394.033 L151.829 399.912 L146.945 399.912 L146.945 394.033 Z" fill="#000000" fill-rule="evenodd" fill-opacity="1" /><path clip-path="url(#clip020)" d="M172.014 383.5 Q168.681 383.5 166.76 385.283 Q164.862 387.065 164.862 390.19 Q164.862 393.315 166.76 395.097 Q168.681 396.88 172.014 396.88 Q175.348 396.88 177.269 395.097 Q179.19 393.292 179.19 390.19 Q179.19 387.065 177.269 385.283 Q175.371 383.5 172.014 383.5 M167.339 381.51 Q164.329 380.769 162.64 378.709 Q160.973 376.649 160.973 373.686 Q160.973 369.542 163.913 367.135 Q166.876 364.727 172.014 364.727 Q177.176 364.727 180.116 367.135 Q183.056 369.542 183.056 373.686 Q183.056 376.649 181.366 378.709 Q179.7 380.769 176.714 381.51 Q180.093 382.297 181.968 384.588 Q183.866 386.88 183.866 390.19 Q183.866 395.213 180.788 397.898 Q177.732 400.584 172.014 400.584 Q166.297 400.584 163.218 397.898 Q160.163 395.213 160.163 390.19 Q160.163 386.88 162.061 384.588 Q163.959 382.297 167.339 381.51 M165.626 374.125 Q165.626 376.811 167.292 378.315 Q168.982 379.82 172.014 379.82 Q175.024 379.82 176.714 378.315 Q178.426 376.811 178.426 374.125 Q178.426 371.44 176.714 369.936 Q175.024 368.431 172.014 368.431 Q168.982 368.431 167.292 369.936 Q165.626 371.44 165.626 374.125 Z" fill="#000000" fill-rule="evenodd" fill-opacity="1" /><path clip-path="url(#clip020)" d="M67.3143 771.639 Q73.68 774.122 75.6216 776.477 Q77.5631 778.832 77.5631 782.779 L77.5631 787.458 L72.6615 787.458 L72.6615 784.02 Q72.6615 781.601 71.5157 780.265 Q70.3699 778.928 66.1048 777.305 L63.4312 776.254 L28.3562 790.673 L28.3562 784.466 L56.238 773.326 L28.3562 762.186 L28.3562 755.979 L67.3143 771.639 Z" fill="#000000" fill-rule="evenodd" fill-opacity="1" /><path clip-path="url(#clip020)" d="M507.978 20.1573 L496.879 50.2555 L519.118 50.2555 L507.978 20.1573 M503.36 12.096 L512.637 12.096 L535.686 72.576 L527.179 72.576 L521.67 57.061 L494.408 57.061 L488.898 72.576 L480.27 72.576 L503.36 12.096 Z" fill="#000000" fill-rule="evenodd" fill-opacity="1" /><path clip-path="url(#clip020)" d="M544.517 12.096 L555.536 12.096 L582.353 62.6918 L582.353 12.096 L590.292 12.096 L590.292 72.576 L579.274 72.576 L552.457 21.9802 L552.457 72.576 L544.517 72.576 L544.517 12.096 Z" fill="#000000" fill-rule="evenodd" fill-opacity="1" /><path clip-path="url(#clip020)" d="M606.577 12.096 L617.596 12.096 L644.413 62.6918 L644.413 12.096 L652.352 12.096 L652.352 72.576 L641.334 72.576 L614.517 21.9802 L614.517 72.576 L606.577 72.576 L606.577 12.096 Z" fill="#000000" fill-rule="evenodd" fill-opacity="1" /><polyline clip-path="url(#clip022)" style="stroke:#f1e864; stroke-linecap:butt; stroke-linejoin:round; stroke-width:4; stroke-opacity:1; fill:none" points="
  878.582,188.458 902.667,253.443 912.756,274.208 
  "/>
<polyline clip-path="url(#clip022)" style="stroke:#f1e864; stroke-linecap:butt; stroke-linejoin:round; stroke-width:4; stroke-opacity:1; fill:none" points="
  878.111,186.655 865.93,123.472 
  "/>
<polyline clip-path="url(#clip022)" style="stroke:#f8c931; stroke-linecap:butt; stroke-linejoin:round; stroke-width:4; stroke-opacity:1; fill:none" points="
  826.293,123.472 835.769,188.458 843.467,229.811 848.811,253.443 868.905,318.428 878.111,342.344 907.061,383.414 912.756,389.966 
  "/>
<polyline clip-path="url(#clip022)" style="stroke:#fbaa0e; stroke-linecap:butt; stroke-linejoin:round; stroke-width:4; stroke-opacity:1; fill:none" points="
  912.756,498.271 878.111,461.295 870.396,448.399 843.467,392.028 840.452,383.414 820.827,318.428 808.822,264.535 806.72,253.443 797.35,188.458 791.212,123.472 
  
  "/>
<polyline clip-path="url(#clip022)" style="stroke:#f98c09; stroke-linecap:butt; stroke-linejoin:round; stroke-width:4; stroke-opacity:1; fill:none" points="
  759.103,123.472 763.205,188.458 769.259,253.443 774.178,288.06 779.32,318.428 794.628,383.414 808.822,431.132 814.733,448.399 841.348,513.384 843.467,517.614 
  878.111,568.064 889.245,578.37 912.756,596.898 
  "/>
<polyline clip-path="url(#clip022)" style="stroke:#f0701e; stroke-linecap:butt; stroke-linejoin:round; stroke-width:4; stroke-opacity:1; fill:none" points="
  912.756,682.992 878.111,662.364 858.844,643.355 843.467,625.485 815.671,578.37 808.822,564.586 789.178,513.384 774.178,468.401 768.36,448.399 753.333,383.414 
  742.308,318.428 739.533,293.43 735.743,253.443 731.589,188.458 729.48,123.472 
  "/>
<polyline clip-path="url(#clip022)" style="stroke:#e35832; stroke-linecap:butt; stroke-linejoin:round; stroke-width:4; stroke-opacity:1; fill:none" points="
  700.74,123.472 701.256,188.458 704.512,253.443 704.889,258.224 709.35,318.428 716.19,383.414 727.303,448.399 739.533,502.449 742.437,513.384 764.462,578.37 
  774.178,605.244 791.257,643.355 808.822,676.436 832.32,708.341 843.467,721.299 878.111,748.939 912.756,762.158 
  "/>
<polyline clip-path="url(#clip022)" style="stroke:#d04544; stroke-linecap:butt; stroke-linejoin:round; stroke-width:4; stroke-opacity:1; fill:none" points="
  912.756,838.169 878.111,827.256 843.467,808.073 810.144,773.326 808.822,771.824 774.178,717.704 769.787,708.341 743.035,643.355 739.533,633.578 718.309,578.37 
  704.889,530.102 700.435,513.384 686.744,448.399 678.185,383.414 672.665,318.428 670.245,265.244 669.743,253.443 668.676,188.458 668.56,123.472 
  "/>
<polyline clip-path="url(#clip022)" style="stroke:#ba3655; stroke-linecap:butt; stroke-linejoin:round; stroke-width:4; stroke-opacity:1; fill:none" points="
  637.62,123.472 635.6,188.204 635.593,188.458 634.953,253.443 635.6,270.739 637.595,318.428 641.947,383.414 648.501,448.399 656.809,513.384 669.2,578.37 
  670.245,582.604 689.812,643.355 704.889,679.375 717.648,708.341 739.533,750.62 750.081,773.326 774.178,815.804 791.024,838.311 808.822,860.643 843.467,887.552 
  878.111,901.698 884.067,903.297 912.756,910.231 
  "/>
<polyline clip-path="url(#clip022)" style="stroke:#a12b61; stroke-linecap:butt; stroke-linejoin:round; stroke-width:4; stroke-opacity:1; fill:none" points="
  912.756,976.839 878.111,971.37 865.59,968.282 843.467,962.198 808.822,942.275 774.178,905.092 772.514,903.297 739.533,860.664 724.309,838.311 704.889,805.719 
  688.132,773.326 670.245,734.24 660.452,708.341 640.659,643.355 635.6,620.449 627.255,578.37 618.747,513.384 612.594,448.399 607.646,383.414 603.935,318.428 
  603.709,253.443 606.093,188.458 609.257,123.472 
  "/>
<polyline clip-path="url(#clip022)" style="stroke:#88216a; stroke-linecap:butt; stroke-linejoin:round; stroke-width:4; stroke-opacity:1; fill:none" points="
  578.964,123.472 575.075,188.458 572.676,253.443 570.822,318.428 571.917,383.414 574.253,448.399 578.943,513.384 584.636,578.37 591.907,643.355 600.956,689.411 
  605.645,708.341 630.887,773.326 635.6,781.941 659.127,838.311 670.245,860.985 694.943,903.297 704.889,918.479 739.533,962.691 745.466,968.282 774.178,990.239 
  808.822,1015.94 843.467,1030.94 854.993,1033.27 878.111,1037.79 912.756,1042.41 
  "/>
<polyline clip-path="url(#clip022)" style="stroke:#6e186e; stroke-linecap:butt; stroke-linejoin:round; stroke-width:4; stroke-opacity:1; fill:none" points="
  912.756,1107.79 878.111,1104.08 843.467,1098.65 842.42,1098.25 808.822,1085.03 774.178,1068.58 739.533,1055.64 716.037,1033.27 704.889,1020.6 670.245,973.332 
  666.462,968.282 635.6,917.195 625.016,903.297 600.956,868.653 585.985,838.311 566.311,781.04 564.471,773.326 553.524,708.341 546.725,643.355 541.764,578.37 
  538.007,513.384 536.358,448.399 536.912,383.414 538.634,318.428 541.55,253.443 544.879,188.458 548.784,123.472 
  "/>
<polyline clip-path="url(#clip022)" style="stroke:#550f6d; stroke-linecap:butt; stroke-linejoin:round; stroke-width:4; stroke-opacity:1; fill:none" points="
  520.034,123.472 515.66,188.458 510.858,253.443 507.199,318.428 503.818,383.414 502.566,448.399 502.235,513.384 503.363,578.37 505.739,643.355 510.664,708.341 
  517.812,773.326 526.676,838.311 531.667,861.659 544.574,903.297 566.311,949.478 577.964,968.282 600.956,1001.79 629.186,1033.27 635.6,1039.4 670.245,1076.15 
  688.65,1098.25 704.889,1113.91 739.533,1134.52 774.178,1141.16 808.822,1152.16 840.625,1163.24 843.467,1164.21 878.111,1169.98 912.756,1173.72 
  "/>
<polyline clip-path="url(#clip022)" style="stroke:#3b0964; stroke-linecap:butt; stroke-linejoin:round; stroke-width:4; stroke-opacity:1; fill:none" points="
  912.756,1239.66 878.111,1235.78 843.467,1229.89 838.426,1228.22 808.822,1218.36 774.178,1210.77 739.533,1205.49 704.889,1193.13 670.245,1171.22 657.879,1163.24 
  635.6,1145.33 600.956,1118.07 580.616,1098.25 566.311,1081.52 533.721,1033.27 531.667,1029.8 504.943,968.282 497.022,939.593 490.073,903.297 482.1,838.311 
  475.506,773.326 470.854,708.341 468.944,643.355 468.886,578.37 469.209,513.384 470.629,448.399 473.014,383.414 477.615,318.428 482.038,253.443 487.374,188.458 
  492.185,123.472 
  "/>
<polyline clip-path="url(#clip022)" style="stroke:#1f0c47; stroke-linecap:butt; stroke-linejoin:round; stroke-width:4; stroke-opacity:1; fill:none" points="
  463.677,123.472 462.378,145.936 458.489,188.458 451.226,253.443 445.798,318.428 441.539,383.414 438.228,448.399 435.834,513.384 434.599,578.37 433.711,643.355 
  433.667,708.341 435.218,773.326 438.202,838.311 444.246,903.297 452.438,968.282 462.378,1018.51 465.657,1033.27 489.501,1098.25 497.022,1111.83 531.667,1161.72 
  532.966,1163.24 566.311,1196.51 600.956,1221.28 612.951,1228.22 635.6,1240.53 670.245,1254.08 704.889,1265.43 739.533,1274.97 774.178,1279.53 808.822,1284.42 
  836.298,1293.21 843.467,1295.9 878.111,1303.64 912.756,1306.81 
  "/>
<polyline clip-path="url(#clip022)" style="stroke:#090621; stroke-linecap:butt; stroke-linejoin:round; stroke-width:4; stroke-opacity:1; fill:none" points="
  912.756,1400.19 878.111,1397.16 843.467,1389.8 808.822,1381.59 774.178,1381.28 739.533,1377.34 704.889,1368.83 670.245,1361.08 635.6,1361.83 611.32,1358.19 
  600.956,1356.78 566.311,1346.9 531.667,1332.85 497.022,1314.69 466.96,1293.21 462.378,1289.01 427.733,1243.95 419.072,1228.22 398.565,1163.24 393.089,1132.16 
  388.068,1098.25 380.638,1033.27 376.162,968.282 373.858,903.297 373.249,838.311 374.593,773.326 376.751,708.341 379.305,643.355 382.068,578.37 385.35,513.384 
  389.087,448.399 393.089,390.638 393.572,383.414 398.149,318.428 402.899,253.443 407.805,188.458 412.405,123.472 
  "/>
<defs>
  <clipPath id="clip023">
    <rect x="960" y="123" width="73" height="1301"/>
  </clipPath>
</defs>
<polyline clip-path="url(#clip023)" style="stroke:#0a0723; stroke-linecap:butt; stroke-linejoin:round; stroke-width:4; stroke-opacity:1; fill:none" points="
  960.756,1341.95 1032.76,1341.95 
  "/>
<polyline clip-path="url(#clip023)" style="stroke:#200c4a; stroke-linecap:butt; stroke-linejoin:round; stroke-width:4; stroke-opacity:1; fill:none" points="
  960.756,1260.72 1032.76,1260.72 
  "/>
<polyline clip-path="url(#clip023)" style="stroke:#3c0965; stroke-linecap:butt; stroke-linejoin:round; stroke-width:4; stroke-opacity:1; fill:none" points="
  960.756,1179.48 1032.76,1179.48 
  "/>
<polyline clip-path="url(#clip023)" style="stroke:#570f6d; stroke-linecap:butt; stroke-linejoin:round; stroke-width:4; stroke-opacity:1; fill:none" points="
  960.756,1098.25 1032.76,1098.25 
  "/>
<polyline clip-path="url(#clip023)" style="stroke:#70196e; stroke-linecap:butt; stroke-linejoin:round; stroke-width:4; stroke-opacity:1; fill:none" points="
  960.756,1017.02 1032.76,1017.02 
  "/>
<polyline clip-path="url(#clip023)" style="stroke:#892269; stroke-linecap:butt; stroke-linejoin:round; stroke-width:4; stroke-opacity:1; fill:none" points="
  960.756,935.789 1032.76,935.789 
  "/>
<polyline clip-path="url(#clip023)" style="stroke:#a32b61; stroke-linecap:butt; stroke-linejoin:round; stroke-width:4; stroke-opacity:1; fill:none" points="
  960.756,854.558 1032.76,854.558 
  "/>
<polyline clip-path="url(#clip023)" style="stroke:#bb3754; stroke-linecap:butt; stroke-linejoin:round; stroke-width:4; stroke-opacity:1; fill:none" points="
  960.756,773.326 1032.76,773.326 
  "/>
<polyline clip-path="url(#clip023)" style="stroke:#d04544; stroke-linecap:butt; stroke-linejoin:round; stroke-width:4; stroke-opacity:1; fill:none" points="
  960.756,692.094 1032.76,692.094 
  "/>
<polyline clip-path="url(#clip023)" style="stroke:#e35832; stroke-linecap:butt; stroke-linejoin:round; stroke-width:4; stroke-opacity:1; fill:none" points="
  960.756,610.863 1032.76,610.863 
  "/>
<polyline clip-path="url(#clip023)" style="stroke:#f0701e; stroke-linecap:butt; stroke-linejoin:round; stroke-width:4; stroke-opacity:1; fill:none" points="
  960.756,529.631 1032.76,529.631 
  "/>
<polyline clip-path="url(#clip023)" style="stroke:#f98c09; stroke-linecap:butt; stroke-linejoin:round; stroke-width:4; stroke-opacity:1; fill:none" points="
  960.756,448.399 1032.76,448.399 
  "/>
<polyline clip-path="url(#clip023)" style="stroke:#fbaa0e; stroke-linecap:butt; stroke-linejoin:round; stroke-width:4; stroke-opacity:1; fill:none" points="
  960.756,367.167 1032.76,367.167 
  "/>
<polyline clip-path="url(#clip023)" style="stroke:#f8c931; stroke-linecap:butt; stroke-linejoin:round; stroke-width:4; stroke-opacity:1; fill:none" points="
  960.756,285.936 1032.76,285.936 
  "/>
<polyline clip-path="url(#clip023)" style="stroke:#f1e864; stroke-linecap:butt; stroke-linejoin:round; stroke-width:4; stroke-opacity:1; fill:none" points="
  960.756,204.704 1032.76,204.704 
  "/>
<path clip-path="url(#clip020)" d="M1080.7 1397.19 Q1077.09 1397.19 1075.26 1400.76 Q1073.45 1404.3 1073.45 1411.43 Q1073.45 1418.53 1075.26 1422.1 Q1077.09 1425.64 1080.7 1425.64 Q1084.33 1425.64 1086.14 1422.1 Q1087.97 1418.53 1087.97 1411.43 Q1087.97 1404.3 1086.14 1400.76 Q1084.33 1397.19 1080.7 1397.19 M1080.7 1393.49 Q1086.51 1393.49 1089.57 1398.09 Q1092.64 1402.68 1092.64 1411.43 Q1092.64 1420.15 1089.57 1424.76 Q1086.51 1429.34 1080.7 1429.34 Q1074.89 1429.34 1071.81 1424.76 Q1068.76 1420.15 1068.76 1411.43 Q1068.76 1402.68 1071.81 1398.09 Q1074.89 1393.49 1080.7 1393.49 Z" fill="#000000" fill-rule="evenodd" fill-opacity="1" /><path clip-path="url(#clip020)" d="M1070.21 1216.97 L1088.57 1216.97 L1088.57 1220.91 L1074.5 1220.91 L1074.5 1229.38 Q1075.52 1229.03 1076.53 1228.87 Q1077.55 1228.68 1078.57 1228.68 Q1084.36 1228.68 1087.74 1231.85 Q1091.12 1235.03 1091.12 1240.44 Q1091.12 1246.02 1087.64 1249.12 Q1084.17 1252.2 1077.85 1252.2 Q1075.68 1252.2 1073.41 1251.83 Q1071.16 1251.46 1068.76 1250.72 L1068.76 1246.02 Q1070.84 1247.15 1073.06 1247.71 Q1075.28 1248.27 1077.76 1248.27 Q1081.77 1248.27 1084.1 1246.16 Q1086.44 1244.05 1086.44 1240.44 Q1086.44 1236.83 1084.1 1234.72 Q1081.77 1232.62 1077.76 1232.62 Q1075.89 1232.62 1074.01 1233.03 Q1072.16 1233.45 1070.21 1234.33 L1070.21 1216.97 Z" fill="#000000" fill-rule="evenodd" fill-opacity="1" /><path clip-path="url(#clip020)" d="M1069.43 1070.45 L1077.07 1070.45 L1077.07 1044.09 L1068.76 1045.75 L1068.76 1041.49 L1077.02 1039.83 L1081.7 1039.83 L1081.7 1070.45 L1089.33 1070.45 L1089.33 1074.39 L1069.43 1074.39 L1069.43 1070.45 Z" fill="#000000" fill-rule="evenodd" fill-opacity="1" /><path clip-path="url(#clip020)" d="M1108.78 1042.91 Q1105.17 1042.91 1103.34 1046.47 Q1101.53 1050.01 1101.53 1057.14 Q1101.53 1064.25 1103.34 1067.81 Q1105.17 1071.36 1108.78 1071.36 Q1112.41 1071.36 1114.22 1067.81 Q1116.05 1064.25 1116.05 1057.14 Q1116.05 1050.01 1114.22 1046.47 Q1112.41 1042.91 1108.78 1042.91 M1108.78 1039.2 Q1114.59 1039.2 1117.64 1043.81 Q1120.72 1048.39 1120.72 1057.14 Q1120.72 1065.87 1117.64 1070.48 Q1114.59 1075.06 1108.78 1075.06 Q1102.97 1075.06 1099.89 1070.48 Q1096.83 1065.87 1096.83 1057.14 Q1096.83 1048.39 1099.89 1043.81 Q1102.97 1039.2 1108.78 1039.2 Z" fill="#000000" fill-rule="evenodd" fill-opacity="1" /><path clip-path="url(#clip020)" d="M1069.43 893.311 L1077.07 893.311 L1077.07 866.946 L1068.76 868.612 L1068.76 864.353 L1077.02 862.686 L1081.7 862.686 L1081.7 893.311 L1089.33 893.311 L1089.33 897.246 L1069.43 897.246 L1069.43 893.311 Z" fill="#000000" fill-rule="evenodd" fill-opacity="1" /><path clip-path="url(#clip020)" d="M1098.83 862.686 L1117.18 862.686 L1117.18 866.622 L1103.11 866.622 L1103.11 875.094 Q1104.13 874.746 1105.14 874.584 Q1106.16 874.399 1107.18 874.399 Q1112.97 874.399 1116.35 877.571 Q1119.73 880.742 1119.73 886.158 Q1119.73 891.737 1116.26 894.839 Q1112.78 897.918 1106.46 897.918 Q1104.29 897.918 1102.02 897.547 Q1099.77 897.177 1097.37 896.436 L1097.37 891.737 Q1099.45 892.871 1101.67 893.427 Q1103.89 893.982 1106.37 893.982 Q1110.38 893.982 1112.71 891.876 Q1115.05 889.77 1115.05 886.158 Q1115.05 882.547 1112.71 880.441 Q1110.38 878.334 1106.37 878.334 Q1104.5 878.334 1102.62 878.751 Q1100.77 879.168 1098.83 880.047 L1098.83 862.686 Z" fill="#000000" fill-rule="evenodd" fill-opacity="1" /><path clip-path="url(#clip020)" d="M1074.38 716.169 L1090.7 716.169 L1090.7 720.105 L1068.76 720.105 L1068.76 716.169 Q1071.42 713.415 1076 708.785 Q1080.61 704.132 1081.79 702.79 Q1084.03 700.267 1084.91 698.531 Q1085.82 696.771 1085.82 695.082 Q1085.82 692.327 1083.87 690.591 Q1081.95 688.855 1078.85 688.855 Q1076.65 688.855 1074.2 689.619 Q1071.77 690.383 1068.99 691.933 L1068.99 687.211 Q1071.81 686.077 1074.27 685.498 Q1076.72 684.92 1078.76 684.92 Q1084.13 684.92 1087.32 687.605 Q1090.52 690.29 1090.52 694.781 Q1090.52 696.91 1089.7 698.832 Q1088.92 700.73 1086.81 703.322 Q1086.23 703.994 1083.13 707.211 Q1080.03 710.406 1074.38 716.169 Z" fill="#000000" fill-rule="evenodd" fill-opacity="1" /><path clip-path="url(#clip020)" d="M1110.51 688.623 Q1106.9 688.623 1105.08 692.188 Q1103.27 695.73 1103.27 702.859 Q1103.27 709.966 1105.08 713.531 Q1106.9 717.072 1110.51 717.072 Q1114.15 717.072 1115.95 713.531 Q1117.78 709.966 1117.78 702.859 Q1117.78 695.73 1115.95 692.188 Q1114.15 688.623 1110.51 688.623 M1110.51 684.92 Q1116.33 684.92 1119.38 689.526 Q1122.46 694.109 1122.46 702.859 Q1122.46 711.586 1119.38 716.193 Q1116.33 720.776 1110.51 720.776 Q1104.7 720.776 1101.63 716.193 Q1098.57 711.586 1098.57 702.859 Q1098.57 694.109 1101.63 689.526 Q1104.7 684.92 1110.51 684.92 Z" fill="#000000" fill-rule="evenodd" fill-opacity="1" /><path clip-path="url(#clip020)" d="M1074.38 539.028 L1090.7 539.028 L1090.7 542.963 L1068.76 542.963 L1068.76 539.028 Q1071.42 536.273 1076 531.643 Q1080.61 526.991 1081.79 525.648 Q1084.03 523.125 1084.91 521.389 Q1085.82 519.63 1085.82 517.94 Q1085.82 515.185 1083.87 513.449 Q1081.95 511.713 1078.85 511.713 Q1076.65 511.713 1074.2 512.477 Q1071.77 513.241 1068.99 514.792 L1068.99 510.069 Q1071.81 508.935 1074.27 508.357 Q1076.72 507.778 1078.76 507.778 Q1084.13 507.778 1087.32 510.463 Q1090.52 513.148 1090.52 517.639 Q1090.52 519.768 1089.7 521.69 Q1088.92 523.588 1086.81 526.18 Q1086.23 526.852 1083.13 530.069 Q1080.03 533.264 1074.38 539.028 Z" fill="#000000" fill-rule="evenodd" fill-opacity="1" /><path clip-path="url(#clip020)" d="M1100.56 508.403 L1118.92 508.403 L1118.92 512.338 L1104.84 512.338 L1104.84 520.81 Q1105.86 520.463 1106.88 520.301 Q1107.9 520.116 1108.92 520.116 Q1114.7 520.116 1118.08 523.287 Q1121.46 526.458 1121.46 531.875 Q1121.46 537.454 1117.99 540.555 Q1114.52 543.634 1108.2 543.634 Q1106.02 543.634 1103.76 543.264 Q1101.51 542.893 1099.1 542.153 L1099.1 537.454 Q1101.19 538.588 1103.41 539.143 Q1105.63 539.699 1108.11 539.699 Q1112.11 539.699 1114.45 537.592 Q1116.79 535.486 1116.79 531.875 Q1116.79 528.264 1114.45 526.157 Q1112.11 524.051 1108.11 524.051 Q1106.23 524.051 1104.36 524.468 Q1102.51 524.884 1100.56 525.764 L1100.56 508.403 Z" fill="#000000" fill-rule="evenodd" fill-opacity="1" /><path clip-path="url(#clip020)" d="M1084.38 347.187 Q1087.74 347.904 1089.61 350.173 Q1091.51 352.441 1091.51 355.775 Q1091.51 360.89 1087.99 363.691 Q1084.47 366.492 1077.99 366.492 Q1075.82 366.492 1073.5 366.052 Q1071.21 365.636 1068.76 364.779 L1068.76 360.265 Q1070.7 361.4 1073.02 361.978 Q1075.33 362.557 1077.85 362.557 Q1082.25 362.557 1084.54 360.821 Q1086.86 359.085 1086.86 355.775 Q1086.86 352.719 1084.7 351.006 Q1082.58 349.27 1078.76 349.27 L1074.73 349.27 L1074.73 345.428 L1078.94 345.428 Q1082.39 345.428 1084.22 344.062 Q1086.05 342.673 1086.05 340.08 Q1086.05 337.418 1084.15 336.006 Q1082.27 334.571 1078.76 334.571 Q1076.83 334.571 1074.64 334.988 Q1072.44 335.405 1069.8 336.284 L1069.8 332.117 Q1072.46 331.377 1074.77 331.006 Q1077.11 330.636 1079.17 330.636 Q1084.5 330.636 1087.6 333.067 Q1090.7 335.474 1090.7 339.594 Q1090.7 342.465 1089.06 344.455 Q1087.41 346.423 1084.38 347.187 Z" fill="#000000" fill-rule="evenodd" fill-opacity="1" /><path clip-path="url(#clip020)" d="M1110.38 334.34 Q1106.76 334.34 1104.94 337.904 Q1103.13 341.446 1103.13 348.576 Q1103.13 355.682 1104.94 359.247 Q1106.76 362.789 1110.38 362.789 Q1114.01 362.789 1115.82 359.247 Q1117.64 355.682 1117.64 348.576 Q1117.64 341.446 1115.82 337.904 Q1114.01 334.34 1110.38 334.34 M1110.38 330.636 Q1116.19 330.636 1119.24 335.242 Q1122.32 339.826 1122.32 348.576 Q1122.32 357.303 1119.24 361.909 Q1116.19 366.492 1110.38 366.492 Q1104.57 366.492 1101.49 361.909 Q1098.43 357.303 1098.43 348.576 Q1098.43 339.826 1101.49 335.242 Q1104.57 330.636 1110.38 330.636 Z" fill="#000000" fill-rule="evenodd" fill-opacity="1" /><path clip-path="url(#clip020)" d="M1084.38 170.045 Q1087.74 170.763 1089.61 173.031 Q1091.51 175.3 1091.51 178.633 Q1091.51 183.749 1087.99 186.55 Q1084.47 189.351 1077.99 189.351 Q1075.82 189.351 1073.5 188.911 Q1071.21 188.494 1068.76 187.638 L1068.76 183.124 Q1070.7 184.258 1073.02 184.837 Q1075.33 185.415 1077.85 185.415 Q1082.25 185.415 1084.54 183.679 Q1086.86 181.943 1086.86 178.633 Q1086.86 175.577 1084.7 173.864 Q1082.58 172.128 1078.76 172.128 L1074.73 172.128 L1074.73 168.286 L1078.94 168.286 Q1082.39 168.286 1084.22 166.92 Q1086.05 165.531 1086.05 162.939 Q1086.05 160.277 1084.15 158.865 Q1082.27 157.429 1078.76 157.429 Q1076.83 157.429 1074.64 157.846 Q1072.44 158.263 1069.8 159.142 L1069.8 154.976 Q1072.46 154.235 1074.77 153.865 Q1077.11 153.494 1079.17 153.494 Q1084.5 153.494 1087.6 155.925 Q1090.7 158.332 1090.7 162.453 Q1090.7 165.323 1089.06 167.314 Q1087.41 169.281 1084.38 170.045 Z" fill="#000000" fill-rule="evenodd" fill-opacity="1" /><path clip-path="url(#clip020)" d="M1100.42 154.119 L1118.78 154.119 L1118.78 158.054 L1104.7 158.054 L1104.7 166.527 Q1105.72 166.179 1106.74 166.017 Q1107.76 165.832 1108.78 165.832 Q1114.57 165.832 1117.95 169.003 Q1121.33 172.175 1121.33 177.591 Q1121.33 183.17 1117.85 186.272 Q1114.38 189.351 1108.06 189.351 Q1105.89 189.351 1103.62 188.98 Q1101.37 188.61 1098.96 187.869 L1098.96 183.17 Q1101.05 184.304 1103.27 184.86 Q1105.49 185.415 1107.97 185.415 Q1111.97 185.415 1114.31 183.309 Q1116.65 181.202 1116.65 177.591 Q1116.65 173.98 1114.31 171.874 Q1111.97 169.767 1107.97 169.767 Q1106.09 169.767 1104.22 170.184 Q1102.37 170.601 1100.42 171.48 L1100.42 154.119 Z" fill="#000000" fill-rule="evenodd" fill-opacity="1" /><polyline clip-path="url(#clip020)" style="stroke:#000000; stroke-linecap:butt; stroke-linejoin:round; stroke-width:4; stroke-opacity:1; fill:none" points="
  1032.76,1423.18 1032.76,1415.02 1056.76,1415.02 1032.76,1415.02 1032.76,1237.88 1056.76,1237.88 1032.76,1237.88 1032.76,1060.74 1056.76,1060.74 1032.76,1060.74 
  1032.76,883.595 1056.76,883.595 1032.76,883.595 1032.76,706.453 1056.76,706.453 1032.76,706.453 1032.76,529.312 1056.76,529.312 1032.76,529.312 1032.76,352.17 
  1056.76,352.17 1032.76,352.17 1032.76,175.028 1056.76,175.028 1032.76,175.028 1032.76,123.472 
  "/>
<path clip-path="url(#clip020)" d="
M1419.87 1423.18 L2112.76 1423.18 L2112.76 123.472 L1419.87 123.472  Z
  " fill="#ffffff" fill-rule="evenodd" fill-opacity="1"/>
<defs>
  <clipPath id="clip024">
    <rect x="1419" y="123" width="694" height="1301"/>
  </clipPath>
</defs>
<polyline clip-path="url(#clip024)" style="stroke:#000000; stroke-linecap:butt; stroke-linejoin:round; stroke-width:2; stroke-opacity:0.1; fill:none" points="
  1558.03,1423.18 1558.03,123.472 
  "/>
<polyline clip-path="url(#clip024)" style="stroke:#000000; stroke-linecap:butt; stroke-linejoin:round; stroke-width:2; stroke-opacity:0.1; fill:none" points="
  1696.88,1423.18 1696.88,123.472 
  "/>
<polyline clip-path="url(#clip024)" style="stroke:#000000; stroke-linecap:butt; stroke-linejoin:round; stroke-width:2; stroke-opacity:0.1; fill:none" points="
  1835.74,1423.18 1835.74,123.472 
  "/>
<polyline clip-path="url(#clip024)" style="stroke:#000000; stroke-linecap:butt; stroke-linejoin:round; stroke-width:2; stroke-opacity:0.1; fill:none" points="
  1974.59,1423.18 1974.59,123.472 
  "/>
<polyline clip-path="url(#clip020)" style="stroke:#000000; stroke-linecap:butt; stroke-linejoin:round; stroke-width:4; stroke-opacity:1; fill:none" points="
  1419.87,1423.18 2112.76,1423.18 
  "/>
<polyline clip-path="url(#clip020)" style="stroke:#000000; stroke-linecap:butt; stroke-linejoin:round; stroke-width:4; stroke-opacity:1; fill:none" points="
  1558.03,1423.18 1558.03,1404.28 
  "/>
<polyline clip-path="url(#clip020)" style="stroke:#000000; stroke-linecap:butt; stroke-linejoin:round; stroke-width:4; stroke-opacity:1; fill:none" points="
  1696.88,1423.18 1696.88,1404.28 
  "/>
<polyline clip-path="url(#clip020)" style="stroke:#000000; stroke-linecap:butt; stroke-linejoin:round; stroke-width:4; stroke-opacity:1; fill:none" points="
  1835.74,1423.18 1835.74,1404.28 
  "/>
<polyline clip-path="url(#clip020)" style="stroke:#000000; stroke-linecap:butt; stroke-linejoin:round; stroke-width:4; stroke-opacity:1; fill:none" points="
  1974.59,1423.18 1974.59,1404.28 
  "/>
<path clip-path="url(#clip020)" d="M1536.21 1452.37 Q1532.6 1452.37 1530.77 1455.94 Q1528.97 1459.48 1528.97 1466.61 Q1528.97 1473.71 1530.77 1477.28 Q1532.6 1480.82 1536.21 1480.82 Q1539.84 1480.82 1541.65 1477.28 Q1543.48 1473.71 1543.48 1466.61 Q1543.48 1459.48 1541.65 1455.94 Q1539.84 1452.37 1536.21 1452.37 M1536.21 1448.67 Q1542.02 1448.67 1545.08 1453.27 Q1548.15 1457.86 1548.15 1466.61 Q1548.15 1475.33 1545.08 1479.94 Q1542.02 1484.52 1536.21 1484.52 Q1530.4 1484.52 1527.32 1479.94 Q1524.27 1475.33 1524.27 1466.61 Q1524.27 1457.86 1527.32 1453.27 Q1530.4 1448.67 1536.21 1448.67 Z" fill="#000000" fill-rule="evenodd" fill-opacity="1" /><path clip-path="url(#clip020)" d="M1556.37 1477.97 L1561.26 1477.97 L1561.26 1483.85 L1556.37 1483.85 L1556.37 1477.97 Z" fill="#000000" fill-rule="evenodd" fill-opacity="1" /><path clip-path="url(#clip020)" d="M1575.47 1479.92 L1591.79 1479.92 L1591.79 1483.85 L1569.84 1483.85 L1569.84 1479.92 Q1572.51 1477.16 1577.09 1472.53 Q1581.7 1467.88 1582.88 1466.54 Q1585.12 1464.01 1586 1462.28 Q1586.9 1460.52 1586.9 1458.83 Q1586.9 1456.07 1584.96 1454.34 Q1583.04 1452.6 1579.94 1452.6 Q1577.74 1452.6 1575.28 1453.37 Q1572.85 1454.13 1570.08 1455.68 L1570.08 1450.96 Q1572.9 1449.82 1575.35 1449.25 Q1577.81 1448.67 1579.84 1448.67 Q1585.21 1448.67 1588.41 1451.35 Q1591.6 1454.04 1591.6 1458.53 Q1591.6 1460.66 1590.79 1462.58 Q1590.01 1464.48 1587.9 1467.07 Q1587.32 1467.74 1584.22 1470.96 Q1581.12 1474.15 1575.47 1479.92 Z" fill="#000000" fill-rule="evenodd" fill-opacity="1" /><path clip-path="url(#clip020)" d="M1674.02 1452.37 Q1670.41 1452.37 1668.58 1455.94 Q1666.78 1459.48 1666.78 1466.61 Q1666.78 1473.71 1668.58 1477.28 Q1670.41 1480.82 1674.02 1480.82 Q1677.66 1480.82 1679.46 1477.28 Q1681.29 1473.71 1681.29 1466.61 Q1681.29 1459.48 1679.46 1455.94 Q1677.66 1452.37 1674.02 1452.37 M1674.02 1448.67 Q1679.83 1448.67 1682.89 1453.27 Q1685.97 1457.86 1685.97 1466.61 Q1685.97 1475.33 1682.89 1479.94 Q1679.83 1484.52 1674.02 1484.52 Q1668.21 1484.52 1665.14 1479.94 Q1662.08 1475.33 1662.08 1466.61 Q1662.08 1457.86 1665.14 1453.27 Q1668.21 1448.67 1674.02 1448.67 Z" fill="#000000" fill-rule="evenodd" fill-opacity="1" /><path clip-path="url(#clip020)" d="M1694.19 1477.97 L1699.07 1477.97 L1699.07 1483.85 L1694.19 1483.85 L1694.19 1477.97 Z" fill="#000000" fill-rule="evenodd" fill-opacity="1" /><path clip-path="url(#clip020)" d="M1722.1 1453.37 L1710.3 1471.81 L1722.1 1471.81 L1722.1 1453.37 M1720.88 1449.29 L1726.76 1449.29 L1726.76 1471.81 L1731.69 1471.81 L1731.69 1475.7 L1726.76 1475.7 L1726.76 1483.85 L1722.1 1483.85 L1722.1 1475.7 L1706.5 1475.7 L1706.5 1471.19 L1720.88 1449.29 Z" fill="#000000" fill-rule="evenodd" fill-opacity="1" /><path clip-path="url(#clip020)" d="M1813.04 1452.37 Q1809.43 1452.37 1807.6 1455.94 Q1805.8 1459.48 1805.8 1466.61 Q1805.8 1473.71 1807.6 1477.28 Q1809.43 1480.82 1813.04 1480.82 Q1816.68 1480.82 1818.48 1477.28 Q1820.31 1473.71 1820.31 1466.61 Q1820.31 1459.48 1818.48 1455.94 Q1816.68 1452.37 1813.04 1452.37 M1813.04 1448.67 Q1818.85 1448.67 1821.91 1453.27 Q1824.99 1457.86 1824.99 1466.61 Q1824.99 1475.33 1821.91 1479.94 Q1818.85 1484.52 1813.04 1484.52 Q1807.23 1484.52 1804.15 1479.94 Q1801.1 1475.33 1801.1 1466.61 Q1801.1 1457.86 1804.15 1453.27 Q1807.23 1448.67 1813.04 1448.67 Z" fill="#000000" fill-rule="evenodd" fill-opacity="1" /><path clip-path="url(#clip020)" d="M1833.2 1477.97 L1838.09 1477.97 L1838.09 1483.85 L1833.2 1483.85 L1833.2 1477.97 Z" fill="#000000" fill-rule="evenodd" fill-opacity="1" /><path clip-path="url(#clip020)" d="M1858.85 1464.71 Q1855.7 1464.71 1853.85 1466.86 Q1852.02 1469.01 1852.02 1472.76 Q1852.02 1476.49 1853.85 1478.67 Q1855.7 1480.82 1858.85 1480.82 Q1862 1480.82 1863.83 1478.67 Q1865.68 1476.49 1865.68 1472.76 Q1865.68 1469.01 1863.83 1466.86 Q1862 1464.71 1858.85 1464.71 M1868.13 1450.06 L1868.13 1454.31 Q1866.38 1453.48 1864.57 1453.04 Q1862.79 1452.6 1861.03 1452.6 Q1856.4 1452.6 1853.94 1455.73 Q1851.51 1458.85 1851.17 1465.17 Q1852.53 1463.16 1854.59 1462.09 Q1856.65 1461 1859.13 1461 Q1864.34 1461 1867.35 1464.18 Q1870.38 1467.32 1870.38 1472.76 Q1870.38 1478.09 1867.23 1481.31 Q1864.08 1484.52 1858.85 1484.52 Q1852.86 1484.52 1849.69 1479.94 Q1846.51 1475.33 1846.51 1466.61 Q1846.51 1458.41 1850.4 1453.55 Q1854.29 1448.67 1860.84 1448.67 Q1862.6 1448.67 1864.38 1449.01 Q1866.19 1449.36 1868.13 1450.06 Z" fill="#000000" fill-rule="evenodd" fill-opacity="1" /><path clip-path="url(#clip020)" d="M1952.03 1452.37 Q1948.41 1452.37 1946.59 1455.94 Q1944.78 1459.48 1944.78 1466.61 Q1944.78 1473.71 1946.59 1477.28 Q1948.41 1480.82 1952.03 1480.82 Q1955.66 1480.82 1957.47 1477.28 Q1959.29 1473.71 1959.29 1466.61 Q1959.29 1459.48 1957.47 1455.94 Q1955.66 1452.37 1952.03 1452.37 M1952.03 1448.67 Q1957.84 1448.67 1960.89 1453.27 Q1963.97 1457.86 1963.97 1466.61 Q1963.97 1475.33 1960.89 1479.94 Q1957.84 1484.52 1952.03 1484.52 Q1946.22 1484.52 1943.14 1479.94 Q1940.08 1475.33 1940.08 1466.61 Q1940.08 1457.86 1943.14 1453.27 Q1946.22 1448.67 1952.03 1448.67 Z" fill="#000000" fill-rule="evenodd" fill-opacity="1" /><path clip-path="url(#clip020)" d="M1972.19 1477.97 L1977.07 1477.97 L1977.07 1483.85 L1972.19 1483.85 L1972.19 1477.97 Z" fill="#000000" fill-rule="evenodd" fill-opacity="1" /><path clip-path="url(#clip020)" d="M1997.26 1467.44 Q1993.92 1467.44 1992 1469.22 Q1990.1 1471 1990.1 1474.13 Q1990.1 1477.25 1992 1479.04 Q1993.92 1480.82 1997.26 1480.82 Q2000.59 1480.82 2002.51 1479.04 Q2004.43 1477.23 2004.43 1474.13 Q2004.43 1471 2002.51 1469.22 Q2000.61 1467.44 1997.26 1467.44 M1992.58 1465.45 Q1989.57 1464.71 1987.88 1462.65 Q1986.21 1460.59 1986.21 1457.63 Q1986.21 1453.48 1989.15 1451.07 Q1992.12 1448.67 1997.26 1448.67 Q2002.42 1448.67 2005.36 1451.07 Q2008.3 1453.48 2008.3 1457.63 Q2008.3 1460.59 2006.61 1462.65 Q2004.94 1464.71 2001.96 1465.45 Q2005.34 1466.24 2007.21 1468.53 Q2009.11 1470.82 2009.11 1474.13 Q2009.11 1479.15 2006.03 1481.84 Q2002.97 1484.52 1997.26 1484.52 Q1991.54 1484.52 1988.46 1481.84 Q1985.4 1479.15 1985.4 1474.13 Q1985.4 1470.82 1987.3 1468.53 Q1989.2 1466.24 1992.58 1465.45 M1990.87 1458.06 Q1990.87 1460.75 1992.53 1462.25 Q1994.22 1463.76 1997.26 1463.76 Q2000.27 1463.76 2001.96 1462.25 Q2003.67 1460.75 2003.67 1458.06 Q2003.67 1455.38 2001.96 1453.88 Q2000.27 1452.37 1997.26 1452.37 Q1994.22 1452.37 1992.53 1453.88 Q1990.87 1455.38 1990.87 1458.06 Z" fill="#000000" fill-rule="evenodd" fill-opacity="1" /><path clip-path="url(#clip020)" d="M1782.93 1532.4 L1770.04 1549.74 L1783.59 1568.04 L1776.69 1568.04 L1766.31 1554.04 L1755.93 1568.04 L1749.03 1568.04 L1762.87 1549.39 L1750.21 1532.4 L1757.11 1532.4 L1766.57 1545.1 L1776.02 1532.4 L1782.93 1532.4 Z" fill="#000000" fill-rule="evenodd" fill-opacity="1" /><polyline clip-path="url(#clip024)" style="stroke:#000000; stroke-linecap:butt; stroke-linejoin:round; stroke-width:2; stroke-opacity:0.1; fill:none" points="
  1419.87,1164.02 2112.76,1164.02 
  "/>
<polyline clip-path="url(#clip024)" style="stroke:#000000; stroke-linecap:butt; stroke-linejoin:round; stroke-width:2; stroke-opacity:0.1; fill:none" points="
  1419.87,903.557 2112.76,903.557 
  "/>
<polyline clip-path="url(#clip024)" style="stroke:#000000; stroke-linecap:butt; stroke-linejoin:round; stroke-width:2; stroke-opacity:0.1; fill:none" points="
  1419.87,643.095 2112.76,643.095 
  "/>
<polyline clip-path="url(#clip024)" style="stroke:#000000; stroke-linecap:butt; stroke-linejoin:round; stroke-width:2; stroke-opacity:0.1; fill:none" points="
  1419.87,382.632 2112.76,382.632 
  "/>
<polyline clip-path="url(#clip020)" style="stroke:#000000; stroke-linecap:butt; stroke-linejoin:round; stroke-width:4; stroke-opacity:1; fill:none" points="
  1419.87,1423.18 1419.87,123.472 
  "/>
<polyline clip-path="url(#clip020)" style="stroke:#000000; stroke-linecap:butt; stroke-linejoin:round; stroke-width:4; stroke-opacity:1; fill:none" points="
  1419.87,1164.02 1433.9,1164.02 
  "/>
<polyline clip-path="url(#clip020)" style="stroke:#000000; stroke-linecap:butt; stroke-linejoin:round; stroke-width:4; stroke-opacity:1; fill:none" points="
  1419.87,903.557 1433.9,903.557 
  "/>
<polyline clip-path="url(#clip020)" style="stroke:#000000; stroke-linecap:butt; stroke-linejoin:round; stroke-width:4; stroke-opacity:1; fill:none" points="
  1419.87,643.095 1433.9,643.095 
  "/>
<polyline clip-path="url(#clip020)" style="stroke:#000000; stroke-linecap:butt; stroke-linejoin:round; stroke-width:4; stroke-opacity:1; fill:none" points="
  1419.87,382.632 1433.9,382.632 
  "/>
<path clip-path="url(#clip020)" d="M1328.29 1149.82 Q1324.68 1149.82 1322.85 1153.38 Q1321.04 1156.92 1321.04 1164.05 Q1321.04 1171.16 1322.85 1174.73 Q1324.68 1178.27 1328.29 1178.27 Q1331.92 1178.27 1333.73 1174.73 Q1335.56 1171.16 1335.56 1164.05 Q1335.56 1156.92 1333.73 1153.38 Q1331.92 1149.82 1328.29 1149.82 M1328.29 1146.11 Q1334.1 1146.11 1337.15 1150.72 Q1340.23 1155.3 1340.23 1164.05 Q1340.23 1172.78 1337.15 1177.39 Q1334.1 1181.97 1328.29 1181.97 Q1322.48 1181.97 1319.4 1177.39 Q1316.34 1172.78 1316.34 1164.05 Q1316.34 1155.3 1319.4 1150.72 Q1322.48 1146.11 1328.29 1146.11 Z" fill="#000000" fill-rule="evenodd" fill-opacity="1" /><path clip-path="url(#clip020)" d="M1348.45 1175.42 L1353.33 1175.42 L1353.33 1181.3 L1348.45 1181.3 L1348.45 1175.42 Z" fill="#000000" fill-rule="evenodd" fill-opacity="1" /><path clip-path="url(#clip020)" d="M1367.55 1177.36 L1383.87 1177.36 L1383.87 1181.3 L1361.92 1181.3 L1361.92 1177.36 Q1364.58 1174.61 1369.17 1169.98 Q1373.77 1165.33 1374.95 1163.98 Q1377.2 1161.46 1378.08 1159.73 Q1378.98 1157.97 1378.98 1156.28 Q1378.98 1153.52 1377.04 1151.79 Q1375.12 1150.05 1372.01 1150.05 Q1369.82 1150.05 1367.36 1150.81 Q1364.93 1151.58 1362.15 1153.13 L1362.15 1148.41 Q1364.98 1147.27 1367.43 1146.69 Q1369.88 1146.11 1371.92 1146.11 Q1377.29 1146.11 1380.49 1148.8 Q1383.68 1151.49 1383.68 1155.98 Q1383.68 1158.11 1382.87 1160.03 Q1382.08 1161.92 1379.98 1164.52 Q1379.4 1165.19 1376.3 1168.41 Q1373.2 1171.6 1367.55 1177.36 Z" fill="#000000" fill-rule="evenodd" fill-opacity="1" /><path clip-path="url(#clip020)" d="M1326.2 889.356 Q1322.59 889.356 1320.76 892.921 Q1318.96 896.462 1318.96 903.592 Q1318.96 910.698 1320.76 914.263 Q1322.59 917.805 1326.2 917.805 Q1329.84 917.805 1331.64 914.263 Q1333.47 910.698 1333.47 903.592 Q1333.47 896.462 1331.64 892.921 Q1329.84 889.356 1326.2 889.356 M1326.2 885.652 Q1332.01 885.652 1335.07 890.259 Q1338.15 894.842 1338.15 903.592 Q1338.15 912.319 1335.07 916.925 Q1332.01 921.509 1326.2 921.509 Q1320.39 921.509 1317.32 916.925 Q1314.26 912.319 1314.26 903.592 Q1314.26 894.842 1317.32 890.259 Q1320.39 885.652 1326.2 885.652 Z" fill="#000000" fill-rule="evenodd" fill-opacity="1" /><path clip-path="url(#clip020)" d="M1346.37 914.958 L1351.25 914.958 L1351.25 920.837 L1346.37 920.837 L1346.37 914.958 Z" fill="#000000" fill-rule="evenodd" fill-opacity="1" /><path clip-path="url(#clip020)" d="M1374.28 890.351 L1362.48 908.8 L1374.28 908.8 L1374.28 890.351 M1373.06 886.277 L1378.94 886.277 L1378.94 908.8 L1383.87 908.8 L1383.87 912.689 L1378.94 912.689 L1378.94 920.837 L1374.28 920.837 L1374.28 912.689 L1358.68 912.689 L1358.68 908.175 L1373.06 886.277 Z" fill="#000000" fill-rule="evenodd" fill-opacity="1" /><path clip-path="url(#clip020)" d="M1326.53 628.893 Q1322.92 628.893 1321.09 632.458 Q1319.28 636 1319.28 643.129 Q1319.28 650.236 1321.09 653.801 Q1322.92 657.342 1326.53 657.342 Q1330.16 657.342 1331.97 653.801 Q1333.8 650.236 1333.8 643.129 Q1333.8 636 1331.97 632.458 Q1330.16 628.893 1326.53 628.893 M1326.53 625.19 Q1332.34 625.19 1335.39 629.796 Q1338.47 634.38 1338.47 643.129 Q1338.47 651.856 1335.39 656.463 Q1332.34 661.046 1326.53 661.046 Q1320.72 661.046 1317.64 656.463 Q1314.58 651.856 1314.58 643.129 Q1314.58 634.38 1317.64 629.796 Q1320.72 625.19 1326.53 625.19 Z" fill="#000000" fill-rule="evenodd" fill-opacity="1" /><path clip-path="url(#clip020)" d="M1346.69 654.495 L1351.57 654.495 L1351.57 660.375 L1346.69 660.375 L1346.69 654.495 Z" fill="#000000" fill-rule="evenodd" fill-opacity="1" /><path clip-path="url(#clip020)" d="M1372.34 641.231 Q1369.19 641.231 1367.34 643.384 Q1365.51 645.537 1365.51 649.287 Q1365.51 653.014 1367.34 655.19 Q1369.19 657.342 1372.34 657.342 Q1375.49 657.342 1377.32 655.19 Q1379.17 653.014 1379.17 649.287 Q1379.17 645.537 1377.32 643.384 Q1375.49 641.231 1372.34 641.231 M1381.62 626.579 L1381.62 630.838 Q1379.86 630.005 1378.06 629.565 Q1376.27 629.125 1374.51 629.125 Q1369.88 629.125 1367.43 632.25 Q1365 635.375 1364.65 641.694 Q1366.02 639.68 1368.08 638.616 Q1370.14 637.528 1372.62 637.528 Q1377.82 637.528 1380.83 640.699 Q1383.87 643.847 1383.87 649.287 Q1383.87 654.611 1380.72 657.828 Q1377.57 661.046 1372.34 661.046 Q1366.34 661.046 1363.17 656.463 Q1360 651.856 1360 643.129 Q1360 634.935 1363.89 630.074 Q1367.78 625.19 1374.33 625.19 Q1376.09 625.19 1377.87 625.537 Q1379.68 625.884 1381.62 626.579 Z" fill="#000000" fill-rule="evenodd" fill-opacity="1" /><path clip-path="url(#clip020)" d="M1326.78 368.431 Q1323.17 368.431 1321.34 371.996 Q1319.54 375.537 1319.54 382.667 Q1319.54 389.773 1321.34 393.338 Q1323.17 396.88 1326.78 396.88 Q1330.42 396.88 1332.22 393.338 Q1334.05 389.773 1334.05 382.667 Q1334.05 375.537 1332.22 371.996 Q1330.42 368.431 1326.78 368.431 M1326.78 364.727 Q1332.59 364.727 1335.65 369.334 Q1338.73 373.917 1338.73 382.667 Q1338.73 391.394 1335.65 396 Q1332.59 400.584 1326.78 400.584 Q1320.97 400.584 1317.89 396 Q1314.84 391.394 1314.84 382.667 Q1314.84 373.917 1317.89 369.334 Q1320.97 364.727 1326.78 364.727 Z" fill="#000000" fill-rule="evenodd" fill-opacity="1" /><path clip-path="url(#clip020)" d="M1346.95 394.033 L1351.83 394.033 L1351.83 399.912 L1346.95 399.912 L1346.95 394.033 Z" fill="#000000" fill-rule="evenodd" fill-opacity="1" /><path clip-path="url(#clip020)" d="M1372.01 383.5 Q1368.68 383.5 1366.76 385.283 Q1364.86 387.065 1364.86 390.19 Q1364.86 393.315 1366.76 395.097 Q1368.68 396.88 1372.01 396.88 Q1375.35 396.88 1377.27 395.097 Q1379.19 393.292 1379.19 390.19 Q1379.19 387.065 1377.27 385.283 Q1375.37 383.5 1372.01 383.5 M1367.34 381.51 Q1364.33 380.769 1362.64 378.709 Q1360.97 376.649 1360.97 373.686 Q1360.97 369.542 1363.91 367.135 Q1366.88 364.727 1372.01 364.727 Q1377.18 364.727 1380.12 367.135 Q1383.06 369.542 1383.06 373.686 Q1383.06 376.649 1381.37 378.709 Q1379.7 380.769 1376.71 381.51 Q1380.09 382.297 1381.97 384.588 Q1383.87 386.88 1383.87 390.19 Q1383.87 395.213 1380.79 397.898 Q1377.73 400.584 1372.01 400.584 Q1366.3 400.584 1363.22 397.898 Q1360.16 395.213 1360.16 390.19 Q1360.16 386.88 1362.06 384.588 Q1363.96 382.297 1367.34 381.51 M1365.63 374.125 Q1365.63 376.811 1367.29 378.315 Q1368.98 379.82 1372.01 379.82 Q1375.02 379.82 1376.71 378.315 Q1378.43 376.811 1378.43 374.125 Q1378.43 371.44 1376.71 369.936 Q1375.02 368.431 1372.01 368.431 Q1368.98 368.431 1367.29 369.936 Q1365.63 371.44 1365.63 374.125 Z" fill="#000000" fill-rule="evenodd" fill-opacity="1" /><path clip-path="url(#clip020)" d="M1267.31 771.639 Q1273.68 774.122 1275.62 776.477 Q1277.56 778.832 1277.56 782.779 L1277.56 787.458 L1272.66 787.458 L1272.66 784.02 Q1272.66 781.601 1271.52 780.265 Q1270.37 778.928 1266.1 777.305 L1263.43 776.254 L1228.36 790.673 L1228.36 784.466 L1256.24 773.326 L1228.36 762.186 L1228.36 755.979 L1267.31 771.639 Z" fill="#000000" fill-rule="evenodd" fill-opacity="1" /><path clip-path="url(#clip020)" d="M1729.33 72.576 L1706.24 12.096 L1714.78 12.096 L1733.94 63.0159 L1753.15 12.096 L1761.65 12.096 L1738.6 72.576 L1729.33 72.576 Z" fill="#000000" fill-rule="evenodd" fill-opacity="1" /><path clip-path="url(#clip020)" d="M1770.48 12.096 L1805.24 12.096 L1805.24 18.9825 L1778.67 18.9825 L1778.67 36.8065 L1802.65 36.8065 L1802.65 43.6931 L1778.67 43.6931 L1778.67 72.576 L1770.48 72.576 L1770.48 12.096 Z" fill="#000000" fill-rule="evenodd" fill-opacity="1" /><path clip-path="url(#clip020)" d="M1818.2 12.096 L1826.39 12.096 L1826.39 72.576 L1818.2 72.576 L1818.2 12.096 Z" fill="#000000" fill-rule="evenodd" fill-opacity="1" /><polyline clip-path="url(#clip024)" style="stroke:#f1e864; stroke-linecap:butt; stroke-linejoin:round; stroke-width:4; stroke-opacity:1; fill:none" points="
  2095.34,188.458 2112.76,249.603 
  "/>
<polyline clip-path="url(#clip024)" style="stroke:#f1e864; stroke-linecap:butt; stroke-linejoin:round; stroke-width:4; stroke-opacity:1; fill:none" points="
  2078.92,123.472 2095.34,188.458 
  "/>
<polyline clip-path="url(#clip024)" style="stroke:#f8c931; stroke-linecap:butt; stroke-linejoin:round; stroke-width:4; stroke-opacity:1; fill:none" points="
  2045.09,123.472 2059.42,188.458 2075.63,253.443 2078.11,261.588 2096.63,318.428 2112.76,361.628 
  "/>
<polyline clip-path="url(#clip024)" style="stroke:#fbaa0e; stroke-linecap:butt; stroke-linejoin:round; stroke-width:4; stroke-opacity:1; fill:none" points="
  2112.76,464.55 2104.83,448.399 2078.11,385.205 2077.41,383.414 2055.64,318.428 2043.47,276.186 2037.53,253.443 2024.05,188.458 2012.1,123.472 
  "/>
<polyline clip-path="url(#clip024)" style="stroke:#f98c09; stroke-linecap:butt; stroke-linejoin:round; stroke-width:4; stroke-opacity:1; fill:none" points="
  1979.37,123.472 1989.28,188.458 2000.44,253.443 2008.82,290.616 2015.57,318.428 2033.66,383.414 2043.47,412.389 2057.12,448.399 2078.11,495.352 2086.9,513.384 
  2112.76,559.928 
  "/>
<polyline clip-path="url(#clip024)" style="stroke:#f0701e; stroke-linecap:butt; stroke-linejoin:round; stroke-width:4; stroke-opacity:1; fill:none" points="
  2112.76,648.314 2109.11,643.355 2078.11,596.931 2066.93,578.37 2043.47,531.951 2035.26,513.384 2010.66,448.399 2008.82,442.71 1991.23,383.414 1976.16,318.428 
  1974.18,308.741 1963.8,253.443 1954.99,188.458 1947.16,123.472 
  "/>
<polyline clip-path="url(#clip024)" style="stroke:#e35832; stroke-linecap:butt; stroke-linejoin:round; stroke-width:4; stroke-opacity:1; fill:none" points="
  1915.39,123.472 1921.28,188.458 1927.89,253.443 1937.66,318.428 1939.53,329.368 1949.61,383.414 1965.36,448.399 1974.18,478.428 1985.61,513.384 2008.82,572.588 
  2011.33,578.37 2043.47,639.483 2045.83,643.355 2078.11,691.091 2091.2,708.341 2112.76,732.336 
  "/>
<polyline clip-path="url(#clip024)" style="stroke:#d04544; stroke-linecap:butt; stroke-linejoin:round; stroke-width:4; stroke-opacity:1; fill:none" points="
  2112.76,811.391 2078.11,777.861 2073.81,773.326 2043.47,738.648 2021.44,708.341 2008.82,687.122 1985.78,643.355 1974.18,618.365 1957.84,578.37 1939.53,521.091 
  1937.32,513.384 1921.35,448.399 1908.95,383.414 1904.89,355.611 1899.88,318.428 1892.5,253.443 1887.98,188.458 1883.95,123.472 
  "/>
<polyline clip-path="url(#clip024)" style="stroke:#ba3655; stroke-linecap:butt; stroke-linejoin:round; stroke-width:4; stroke-opacity:1; fill:none" points="
  1852.98,123.472 1855.2,188.458 1857.69,253.443 1862.7,318.428 1869,383.414 1870.24,392.934 1878.24,448.399 1890.52,513.384 1904.89,573.195 1906.26,578.37 
  1928.16,643.355 1939.53,672.231 1955.71,708.341 1974.18,740.542 1996.2,773.326 2008.82,790.38 2043.47,831.102 2050.79,838.311 2078.11,861.064 2112.76,886.463 
  
  "/>
<polyline clip-path="url(#clip024)" style="stroke:#a12b61; stroke-linecap:butt; stroke-linejoin:round; stroke-width:4; stroke-opacity:1; fill:none" points="
  2112.76,958.935 2078.11,938.943 2043.47,915.895 2027.93,903.297 2008.82,886.32 1974.18,850.45 1964.22,838.311 1939.53,800.889 1924.08,773.326 1904.89,734.719 
  1893.42,708.341 1872.68,643.355 1870.24,634.611 1856.42,578.37 1845.02,513.384 1836.34,448.399 1835.6,441.182 1830.13,383.414 1826.28,318.428 1823.43,253.443 
  1822.86,188.458 1822.34,123.472 
  "/>
<polyline clip-path="url(#clip024)" style="stroke:#88216a; stroke-linecap:butt; stroke-linejoin:round; stroke-width:4; stroke-opacity:1; fill:none" points="
  1792.01,123.472 1790.87,188.458 1789.61,253.443 1790.33,318.428 1791.73,383.414 1795.07,448.399 1800.33,513.384 1800.96,519.383 1807.92,578.37 1819.59,643.355 
  1834.1,708.341 1835.6,713.195 1856.36,773.326 1870.24,807.611 1884.95,838.311 1904.89,869.954 1929.86,903.297 1939.53,914.754 1974.18,949.541 1997.36,968.282 
  2008.82,976.222 2043.47,997.377 2078.11,1013.75 2112.76,1028.12 
  "/>
<polyline clip-path="url(#clip024)" style="stroke:#6e186e; stroke-linecap:butt; stroke-linejoin:round; stroke-width:4; stroke-opacity:1; fill:none" points="
  2112.76,1095.27 2078.11,1085.49 2043.47,1074.4 2008.82,1059.65 1974.18,1041.95 1960.25,1033.27 1939.53,1018.66 1904.89,988.635 1885.52,968.282 1870.24,948.563 
  1842.18,903.297 1835.6,890.932 1811.32,838.311 1800.96,805.817 1792.24,773.326 1777.3,708.341 1768.36,643.355 1766.31,625.663 1761.26,578.37 1757.38,513.384 
  1755.08,448.399 1754.31,383.414 1755.17,318.428 1756.45,253.443 1759.51,188.458 1762.25,123.472 
  "/>
<polyline clip-path="url(#clip024)" style="stroke:#550f6d; stroke-linecap:butt; stroke-linejoin:round; stroke-width:4; stroke-opacity:1; fill:none" points="
  1732.49,123.472 1731.67,136.296 1728.24,188.458 1723.54,253.443 1720.37,318.428 1717.37,383.414 1715.66,448.399 1715.07,513.384 1715.56,578.37 1718.57,643.355 
  1722.58,708.341 1731.31,773.326 1731.67,775.709 1742.61,838.311 1762.16,903.297 1766.31,914.834 1788.47,968.282 1800.96,990.371 1832.55,1033.27 1835.6,1036.69 
  1870.24,1070.67 1904.89,1095.67 1909.14,1098.25 1939.53,1114.46 1974.18,1129.04 2008.82,1140.03 2043.47,1149.17 2078.11,1155.64 2112.76,1161.41 
  "/>
<polyline clip-path="url(#clip024)" style="stroke:#3b0964; stroke-linecap:butt; stroke-linejoin:round; stroke-width:4; stroke-opacity:1; fill:none" points="
  2112.76,1226.38 2078.11,1224.15 2043.47,1221.68 2008.82,1217.39 1974.18,1212.12 1939.53,1204.44 1904.89,1194.18 1870.24,1181.01 1836.39,1163.24 1835.6,1162.75 
  1800.96,1137.84 1766.31,1100.97 1764.1,1098.25 1731.67,1046.85 1725.25,1033.27 1701.94,968.282 1697.02,947.167 1688.14,903.297 1677.95,838.311 1673.68,773.326 
  1670.17,708.341 1670.5,643.355 1671.17,578.37 1673.83,513.384 1677.14,448.399 1681.23,383.414 1686.32,318.428 1691.36,253.443 1697.02,196.012 1697.73,188.458 
  1703.48,123.472 
  "/>
<polyline clip-path="url(#clip024)" style="stroke:#1f0c47; stroke-linecap:butt; stroke-linejoin:round; stroke-width:4; stroke-opacity:1; fill:none" points="
  1674.57,123.472 1667.33,188.458 1662.38,229.27 1658.46,253.443 1650.96,318.428 1644.59,383.414 1639.03,448.399 1633.33,513.384 1627.9,578.37 1627.73,581.157 
  1623.86,643.355 1619.56,708.341 1618.15,773.326 1616.45,838.311 1618.9,903.297 1622.64,968.282 1627.73,1006.35 1632,1033.27 1647.68,1098.25 1662.38,1136.93 
  1675.73,1163.24 1697.02,1192.36 1731.67,1227.63 1732.49,1228.22 1766.31,1248.73 1800.96,1265.17 1835.6,1275.36 1870.24,1283.44 1904.89,1288.55 1939.53,1292.14 
  1956.49,1293.21 1974.18,1294.29 2008.82,1294.97 2043.47,1295.27 2078.11,1294.24 2112.76,1293.26 
  "/>
<polyline clip-path="url(#clip024)" style="stroke:#090621; stroke-linecap:butt; stroke-linejoin:round; stroke-width:4; stroke-opacity:1; fill:none" points="
  2112.76,1369.14 2078.11,1372.01 2043.47,1375.03 2008.82,1377.1 1974.18,1378.98 1939.53,1380.55 1904.89,1381.9 1870.24,1382.8 1835.6,1382.52 1800.96,1381.94 
  1766.31,1379.04 1731.67,1375.49 1697.02,1366.98 1670.38,1358.19 1662.38,1355.14 1627.73,1333.99 1593.09,1299.26 1588.81,1293.21 1564.37,1228.22 1558.44,1201.68 
  1552.02,1163.24 1547.91,1098.25 1547.57,1033.27 1548.6,968.282 1551.89,903.297 1555.11,838.311 1558.44,799.323 1560.51,773.326 1565.51,708.341 1573.78,643.355 
  1582.51,578.37 1593.09,516.733 1593.48,513.384 1601.34,448.399 1606.95,383.414 1610.99,318.428 1616.3,253.443 1625.21,188.458 1627.73,173.779 1635,123.472 
  
  "/>
<defs>
  <clipPath id="clip025">
    <rect x="2160" y="123" width="73" height="1301"/>
  </clipPath>
</defs>
<polyline clip-path="url(#clip025)" style="stroke:#0a0723; stroke-linecap:butt; stroke-linejoin:round; stroke-width:4; stroke-opacity:1; fill:none" points="
  2160.76,1341.95 2232.76,1341.95 
  "/>
<polyline clip-path="url(#clip025)" style="stroke:#200c4a; stroke-linecap:butt; stroke-linejoin:round; stroke-width:4; stroke-opacity:1; fill:none" points="
  2160.76,1260.72 2232.76,1260.72 
  "/>
<polyline clip-path="url(#clip025)" style="stroke:#3c0965; stroke-linecap:butt; stroke-linejoin:round; stroke-width:4; stroke-opacity:1; fill:none" points="
  2160.76,1179.48 2232.76,1179.48 
  "/>
<polyline clip-path="url(#clip025)" style="stroke:#570f6d; stroke-linecap:butt; stroke-linejoin:round; stroke-width:4; stroke-opacity:1; fill:none" points="
  2160.76,1098.25 2232.76,1098.25 
  "/>
<polyline clip-path="url(#clip025)" style="stroke:#70196e; stroke-linecap:butt; stroke-linejoin:round; stroke-width:4; stroke-opacity:1; fill:none" points="
  2160.76,1017.02 2232.76,1017.02 
  "/>
<polyline clip-path="url(#clip025)" style="stroke:#892269; stroke-linecap:butt; stroke-linejoin:round; stroke-width:4; stroke-opacity:1; fill:none" points="
  2160.76,935.789 2232.76,935.789 
  "/>
<polyline clip-path="url(#clip025)" style="stroke:#a32b61; stroke-linecap:butt; stroke-linejoin:round; stroke-width:4; stroke-opacity:1; fill:none" points="
  2160.76,854.558 2232.76,854.558 
  "/>
<polyline clip-path="url(#clip025)" style="stroke:#bb3754; stroke-linecap:butt; stroke-linejoin:round; stroke-width:4; stroke-opacity:1; fill:none" points="
  2160.76,773.326 2232.76,773.326 
  "/>
<polyline clip-path="url(#clip025)" style="stroke:#d04544; stroke-linecap:butt; stroke-linejoin:round; stroke-width:4; stroke-opacity:1; fill:none" points="
  2160.76,692.094 2232.76,692.094 
  "/>
<polyline clip-path="url(#clip025)" style="stroke:#e35832; stroke-linecap:butt; stroke-linejoin:round; stroke-width:4; stroke-opacity:1; fill:none" points="
  2160.76,610.863 2232.76,610.863 
  "/>
<polyline clip-path="url(#clip025)" style="stroke:#f0701e; stroke-linecap:butt; stroke-linejoin:round; stroke-width:4; stroke-opacity:1; fill:none" points="
  2160.76,529.631 2232.76,529.631 
  "/>
<polyline clip-path="url(#clip025)" style="stroke:#f98c09; stroke-linecap:butt; stroke-linejoin:round; stroke-width:4; stroke-opacity:1; fill:none" points="
  2160.76,448.399 2232.76,448.399 
  "/>
<polyline clip-path="url(#clip025)" style="stroke:#fbaa0e; stroke-linecap:butt; stroke-linejoin:round; stroke-width:4; stroke-opacity:1; fill:none" points="
  2160.76,367.167 2232.76,367.167 
  "/>
<polyline clip-path="url(#clip025)" style="stroke:#f8c931; stroke-linecap:butt; stroke-linejoin:round; stroke-width:4; stroke-opacity:1; fill:none" points="
  2160.76,285.936 2232.76,285.936 
  "/>
<polyline clip-path="url(#clip025)" style="stroke:#f1e864; stroke-linecap:butt; stroke-linejoin:round; stroke-width:4; stroke-opacity:1; fill:none" points="
  2160.76,204.704 2232.76,204.704 
  "/>
<path clip-path="url(#clip020)" d="M2280.7 1397.18 Q2277.09 1397.18 2275.26 1400.74 Q2273.45 1404.29 2273.45 1411.41 Q2273.45 1418.52 2275.26 1422.09 Q2277.09 1425.63 2280.7 1425.63 Q2284.33 1425.63 2286.14 1422.09 Q2287.97 1418.52 2287.97 1411.41 Q2287.97 1404.29 2286.14 1400.74 Q2284.33 1397.18 2280.7 1397.18 M2280.7 1393.47 Q2286.51 1393.47 2289.57 1398.08 Q2292.64 1402.66 2292.64 1411.41 Q2292.64 1420.14 2289.57 1424.75 Q2286.51 1429.33 2280.7 1429.33 Q2274.89 1429.33 2271.81 1424.75 Q2268.76 1420.14 2268.76 1411.41 Q2268.76 1402.66 2271.81 1398.08 Q2274.89 1393.47 2280.7 1393.47 Z" fill="#000000" fill-rule="evenodd" fill-opacity="1" /><path clip-path="url(#clip020)" d="M2270.21 1222.64 L2288.57 1222.64 L2288.57 1226.58 L2274.5 1226.58 L2274.5 1235.05 Q2275.52 1234.7 2276.53 1234.54 Q2277.55 1234.36 2278.57 1234.36 Q2284.36 1234.36 2287.74 1237.53 Q2291.12 1240.7 2291.12 1246.12 Q2291.12 1251.7 2287.64 1254.8 Q2284.17 1257.88 2277.85 1257.88 Q2275.68 1257.88 2273.41 1257.51 Q2271.16 1257.14 2268.76 1256.39 L2268.76 1251.7 Q2270.84 1252.83 2273.06 1253.39 Q2275.28 1253.94 2277.76 1253.94 Q2281.77 1253.94 2284.1 1251.83 Q2286.44 1249.73 2286.44 1246.12 Q2286.44 1242.51 2284.1 1240.4 Q2281.77 1238.29 2277.76 1238.29 Q2275.89 1238.29 2274.01 1238.71 Q2272.16 1239.13 2270.21 1240.01 L2270.21 1222.64 Z" fill="#000000" fill-rule="evenodd" fill-opacity="1" /><path clip-path="url(#clip020)" d="M2269.43 1081.81 L2277.07 1081.81 L2277.07 1055.45 L2268.76 1057.12 L2268.76 1052.86 L2277.02 1051.19 L2281.7 1051.19 L2281.7 1081.81 L2289.33 1081.81 L2289.33 1085.75 L2269.43 1085.75 L2269.43 1081.81 Z" fill="#000000" fill-rule="evenodd" fill-opacity="1" /><path clip-path="url(#clip020)" d="M2308.78 1054.27 Q2305.17 1054.27 2303.34 1057.83 Q2301.53 1061.37 2301.53 1068.5 Q2301.53 1075.61 2303.34 1079.18 Q2305.17 1082.72 2308.78 1082.72 Q2312.41 1082.72 2314.22 1079.18 Q2316.05 1075.61 2316.05 1068.5 Q2316.05 1061.37 2314.22 1057.83 Q2312.41 1054.27 2308.78 1054.27 M2308.78 1050.56 Q2314.59 1050.56 2317.64 1055.17 Q2320.72 1059.75 2320.72 1068.5 Q2320.72 1077.23 2317.64 1081.84 Q2314.59 1086.42 2308.78 1086.42 Q2302.97 1086.42 2299.89 1081.84 Q2296.83 1077.23 2296.83 1068.5 Q2296.83 1059.75 2299.89 1055.17 Q2302.97 1050.56 2308.78 1050.56 Z" fill="#000000" fill-rule="evenodd" fill-opacity="1" /><path clip-path="url(#clip020)" d="M2269.43 910.359 L2277.07 910.359 L2277.07 883.993 L2268.76 885.66 L2268.76 881.401 L2277.02 879.734 L2281.7 879.734 L2281.7 910.359 L2289.33 910.359 L2289.33 914.294 L2269.43 914.294 L2269.43 910.359 Z" fill="#000000" fill-rule="evenodd" fill-opacity="1" /><path clip-path="url(#clip020)" d="M2298.83 879.734 L2317.18 879.734 L2317.18 883.669 L2303.11 883.669 L2303.11 892.141 Q2304.13 891.794 2305.14 891.632 Q2306.16 891.447 2307.18 891.447 Q2312.97 891.447 2316.35 894.618 Q2319.73 897.789 2319.73 903.206 Q2319.73 908.785 2316.26 911.886 Q2312.78 914.965 2306.46 914.965 Q2304.29 914.965 2302.02 914.595 Q2299.77 914.224 2297.37 913.484 L2297.37 908.785 Q2299.45 909.919 2301.67 910.474 Q2303.89 911.03 2306.37 911.03 Q2310.38 911.03 2312.71 908.924 Q2315.05 906.817 2315.05 903.206 Q2315.05 899.595 2312.71 897.488 Q2310.38 895.382 2306.37 895.382 Q2304.5 895.382 2302.62 895.799 Q2300.77 896.215 2298.83 897.095 L2298.83 879.734 Z" fill="#000000" fill-rule="evenodd" fill-opacity="1" /><path clip-path="url(#clip020)" d="M2274.38 738.903 L2290.7 738.903 L2290.7 742.838 L2268.76 742.838 L2268.76 738.903 Q2271.42 736.149 2276 731.519 Q2280.61 726.866 2281.79 725.524 Q2284.03 723.001 2284.91 721.265 Q2285.82 719.505 2285.82 717.815 Q2285.82 715.061 2283.87 713.325 Q2281.95 711.589 2278.85 711.589 Q2276.65 711.589 2274.2 712.353 Q2271.77 713.116 2268.99 714.667 L2268.99 709.945 Q2271.81 708.811 2274.27 708.232 Q2276.72 707.654 2278.76 707.654 Q2284.13 707.654 2287.32 710.339 Q2290.52 713.024 2290.52 717.515 Q2290.52 719.644 2289.7 721.565 Q2288.92 723.464 2286.81 726.056 Q2286.23 726.727 2283.13 729.945 Q2280.03 733.139 2274.38 738.903 Z" fill="#000000" fill-rule="evenodd" fill-opacity="1" /><path clip-path="url(#clip020)" d="M2310.51 711.357 Q2306.9 711.357 2305.08 714.922 Q2303.27 718.464 2303.27 725.593 Q2303.27 732.7 2305.08 736.264 Q2306.9 739.806 2310.51 739.806 Q2314.15 739.806 2315.95 736.264 Q2317.78 732.7 2317.78 725.593 Q2317.78 718.464 2315.95 714.922 Q2314.15 711.357 2310.51 711.357 M2310.51 707.654 Q2316.33 707.654 2319.38 712.26 Q2322.46 716.843 2322.46 725.593 Q2322.46 734.32 2319.38 738.926 Q2316.33 743.51 2310.51 743.51 Q2304.7 743.51 2301.63 738.926 Q2298.57 734.32 2298.57 725.593 Q2298.57 716.843 2301.63 712.26 Q2304.7 707.654 2310.51 707.654 Z" fill="#000000" fill-rule="evenodd" fill-opacity="1" /><path clip-path="url(#clip020)" d="M2274.38 567.448 L2290.7 567.448 L2290.7 571.383 L2268.76 571.383 L2268.76 567.448 Q2271.42 564.693 2276 560.064 Q2280.61 555.411 2281.79 554.068 Q2284.03 551.545 2284.91 549.809 Q2285.82 548.05 2285.82 546.36 Q2285.82 543.606 2283.87 541.869 Q2281.95 540.133 2278.85 540.133 Q2276.65 540.133 2274.2 540.897 Q2271.77 541.661 2268.99 543.212 L2268.99 538.49 Q2271.81 537.356 2274.27 536.777 Q2276.72 536.198 2278.76 536.198 Q2284.13 536.198 2287.32 538.883 Q2290.52 541.568 2290.52 546.059 Q2290.52 548.189 2289.7 550.11 Q2288.92 552.008 2286.81 554.601 Q2286.23 555.272 2283.13 558.49 Q2280.03 561.684 2274.38 567.448 Z" fill="#000000" fill-rule="evenodd" fill-opacity="1" /><path clip-path="url(#clip020)" d="M2300.56 536.823 L2318.92 536.823 L2318.92 540.758 L2304.84 540.758 L2304.84 549.23 Q2305.86 548.883 2306.88 548.721 Q2307.9 548.536 2308.92 548.536 Q2314.7 548.536 2318.08 551.707 Q2321.46 554.879 2321.46 560.295 Q2321.46 565.874 2317.99 568.976 Q2314.52 572.054 2308.2 572.054 Q2306.02 572.054 2303.76 571.684 Q2301.51 571.314 2299.1 570.573 L2299.1 565.874 Q2301.19 567.008 2303.41 567.564 Q2305.63 568.119 2308.11 568.119 Q2312.11 568.119 2314.45 566.013 Q2316.79 563.906 2316.79 560.295 Q2316.79 556.684 2314.45 554.578 Q2312.11 552.471 2308.11 552.471 Q2306.23 552.471 2304.36 552.888 Q2302.51 553.305 2300.56 554.184 L2300.56 536.823 Z" fill="#000000" fill-rule="evenodd" fill-opacity="1" /><path clip-path="url(#clip020)" d="M2284.38 381.294 Q2287.74 382.011 2289.61 384.28 Q2291.51 386.548 2291.51 389.882 Q2291.51 394.997 2287.99 397.798 Q2284.47 400.599 2277.99 400.599 Q2275.82 400.599 2273.5 400.159 Q2271.21 399.743 2268.76 398.886 L2268.76 394.372 Q2270.7 395.507 2273.02 396.085 Q2275.33 396.664 2277.85 396.664 Q2282.25 396.664 2284.54 394.928 Q2286.86 393.192 2286.86 389.882 Q2286.86 386.826 2284.7 385.113 Q2282.58 383.377 2278.76 383.377 L2274.73 383.377 L2274.73 379.534 L2278.94 379.534 Q2282.39 379.534 2284.22 378.169 Q2286.05 376.78 2286.05 374.187 Q2286.05 371.525 2284.15 370.113 Q2282.27 368.678 2278.76 368.678 Q2276.83 368.678 2274.64 369.095 Q2272.44 369.511 2269.8 370.391 L2269.8 366.224 Q2272.46 365.484 2274.77 365.113 Q2277.11 364.743 2279.17 364.743 Q2284.5 364.743 2287.6 367.173 Q2290.7 369.581 2290.7 373.701 Q2290.7 376.571 2289.06 378.562 Q2287.41 380.53 2284.38 381.294 Z" fill="#000000" fill-rule="evenodd" fill-opacity="1" /><path clip-path="url(#clip020)" d="M2310.38 368.446 Q2306.76 368.446 2304.94 372.011 Q2303.13 375.553 2303.13 382.683 Q2303.13 389.789 2304.94 393.354 Q2306.76 396.895 2310.38 396.895 Q2314.01 396.895 2315.82 393.354 Q2317.64 389.789 2317.64 382.683 Q2317.64 375.553 2315.82 372.011 Q2314.01 368.446 2310.38 368.446 M2310.38 364.743 Q2316.19 364.743 2319.24 369.349 Q2322.32 373.933 2322.32 382.683 Q2322.32 391.409 2319.24 396.016 Q2316.19 400.599 2310.38 400.599 Q2304.57 400.599 2301.49 396.016 Q2298.43 391.409 2298.43 382.683 Q2298.43 373.933 2301.49 369.349 Q2304.57 364.743 2310.38 364.743 Z" fill="#000000" fill-rule="evenodd" fill-opacity="1" /><path clip-path="url(#clip020)" d="M2284.38 209.838 Q2287.74 210.556 2289.61 212.824 Q2291.51 215.093 2291.51 218.426 Q2291.51 223.542 2287.99 226.343 Q2284.47 229.144 2277.99 229.144 Q2275.82 229.144 2273.5 228.704 Q2271.21 228.287 2268.76 227.431 L2268.76 222.917 Q2270.7 224.051 2273.02 224.63 Q2275.33 225.209 2277.85 225.209 Q2282.25 225.209 2284.54 223.472 Q2286.86 221.736 2286.86 218.426 Q2286.86 215.371 2284.7 213.658 Q2282.58 211.922 2278.76 211.922 L2274.73 211.922 L2274.73 208.079 L2278.94 208.079 Q2282.39 208.079 2284.22 206.713 Q2286.05 205.324 2286.05 202.732 Q2286.05 200.07 2284.15 198.658 Q2282.27 197.223 2278.76 197.223 Q2276.83 197.223 2274.64 197.639 Q2272.44 198.056 2269.8 198.936 L2269.8 194.769 Q2272.46 194.028 2274.77 193.658 Q2277.11 193.287 2279.17 193.287 Q2284.5 193.287 2287.6 195.718 Q2290.7 198.125 2290.7 202.246 Q2290.7 205.116 2289.06 207.107 Q2287.41 209.074 2284.38 209.838 Z" fill="#000000" fill-rule="evenodd" fill-opacity="1" /><path clip-path="url(#clip020)" d="M2300.42 193.912 L2318.78 193.912 L2318.78 197.848 L2304.7 197.848 L2304.7 206.32 Q2305.72 205.973 2306.74 205.811 Q2307.76 205.625 2308.78 205.625 Q2314.57 205.625 2317.95 208.797 Q2321.33 211.968 2321.33 217.385 Q2321.33 222.963 2317.85 226.065 Q2314.38 229.144 2308.06 229.144 Q2305.89 229.144 2303.62 228.773 Q2301.37 228.403 2298.96 227.662 L2298.96 222.963 Q2301.05 224.097 2303.27 224.653 Q2305.49 225.209 2307.97 225.209 Q2311.97 225.209 2314.31 223.102 Q2316.65 220.996 2316.65 217.385 Q2316.65 213.773 2314.31 211.667 Q2311.97 209.561 2307.97 209.561 Q2306.09 209.561 2304.22 209.977 Q2302.37 210.394 2300.42 211.273 L2300.42 193.912 Z" fill="#000000" fill-rule="evenodd" fill-opacity="1" /><polyline clip-path="url(#clip020)" style="stroke:#000000; stroke-linecap:butt; stroke-linejoin:round; stroke-width:4; stroke-opacity:1; fill:none" points="
  2232.76,1423.18 2232.76,1415.01 2256.76,1415.01 2232.76,1415.01 2232.76,1243.55 2256.76,1243.55 2232.76,1243.55 2232.76,1072.1 2256.76,1072.1 2232.76,1072.1 
  2232.76,900.643 2256.76,900.643 2232.76,900.643 2232.76,729.187 2256.76,729.187 2232.76,729.187 2232.76,557.732 2256.76,557.732 2232.76,557.732 2232.76,386.277 
  2256.76,386.277 2232.76,386.277 2232.76,214.821 2256.76,214.821 2232.76,214.821 2232.76,123.472 
  "/>
</svg>
