<?xml version="1.0" encoding="utf-8"?>
<svg xmlns="http://www.w3.org/2000/svg" xmlns:xlink="http://www.w3.org/1999/xlink" width="600" height="400" viewBox="0 0 2400 1600">
<defs>
  <clipPath id="clip860">
    <rect x="0" y="0" width="2400" height="1600"/>
  </clipPath>
</defs>
<path clip-path="url(#clip860)" d="
M0 1600 L2400 1600 L2400 0 L0 0  Z
  " fill="#ffffff" fill-rule="evenodd" fill-opacity="1"/>
<defs>
  <clipPath id="clip861">
    <rect x="480" y="0" width="1681" height="1600"/>
  </clipPath>
</defs>
<path clip-path="url(#clip860)" d="
M112.177 1486.45 L2352.76 1486.45 L2352.76 47.2441 L112.177 47.2441  Z
  " fill="#ffffff" fill-rule="evenodd" fill-opacity="1"/>
<defs>
  <clipPath id="clip862">
    <rect x="112" y="47" width="2242" height="1440"/>
  </clipPath>
</defs>
<polyline clip-path="url(#clip862)" style="stroke:#000000; stroke-linecap:butt; stroke-linejoin:round; stroke-width:2; stroke-opacity:0.1; fill:none" points="
  450.506,1486.45 450.506,47.2441 
  "/>
<polyline clip-path="url(#clip862)" style="stroke:#000000; stroke-linecap:butt; stroke-linejoin:round; stroke-width:2; stroke-opacity:0.1; fill:none" points="
  980.709,1486.45 980.709,47.2441 
  "/>
<polyline clip-path="url(#clip862)" style="stroke:#000000; stroke-linecap:butt; stroke-linejoin:round; stroke-width:2; stroke-opacity:0.1; fill:none" points="
  1510.91,1486.45 1510.91,47.2441 
  "/>
<polyline clip-path="url(#clip862)" style="stroke:#000000; stroke-linecap:butt; stroke-linejoin:round; stroke-width:2; stroke-opacity:0.1; fill:none" points="
  2041.12,1486.45 2041.12,47.2441 
  "/>
<polyline clip-path="url(#clip860)" style="stroke:#000000; stroke-linecap:butt; stroke-linejoin:round; stroke-width:4; stroke-opacity:1; fill:none" points="
  112.177,1486.45 2352.76,1486.45 
  "/>
<polyline clip-path="url(#clip860)" style="stroke:#000000; stroke-linecap:butt; stroke-linejoin:round; stroke-width:4; stroke-opacity:1; fill:none" points="
  450.506,1486.45 450.506,1467.55 
  "/>
<polyline clip-path="url(#clip860)" style="stroke:#000000; stroke-linecap:butt; stroke-linejoin:round; stroke-width:4; stroke-opacity:1; fill:none" points="
  980.709,1486.45 980.709,1467.55 
  "/>
<polyline clip-path="url(#clip860)" style="stroke:#000000; stroke-linecap:butt; stroke-linejoin:round; stroke-width:4; stroke-opacity:1; fill:none" points="
  1510.91,1486.45 1510.91,1467.55 
  "/>
<polyline clip-path="url(#clip860)" style="stroke:#000000; stroke-linecap:butt; stroke-linejoin:round; stroke-width:4; stroke-opacity:1; fill:none" points="
  2041.12,1486.45 2041.12,1467.55 
  "/>
<path clip-path="url(#clip860)" d="M417.659 1543.18 L425.298 1543.18 L425.298 1516.82 L416.988 1518.49 L416.988 1514.23 L425.251 1512.56 L429.927 1512.56 L429.927 1543.18 L437.566 1543.18 L437.566 1547.12 L417.659 1547.12 L417.659 1543.18 Z" fill="#000000" fill-rule="evenodd" fill-opacity="1" /><path clip-path="url(#clip860)" d="M447.011 1541.24 L451.895 1541.24 L451.895 1547.12 L447.011 1547.12 L447.011 1541.24 Z" fill="#000000" fill-rule="evenodd" fill-opacity="1" /><path clip-path="url(#clip860)" d="M472.08 1515.64 Q468.469 1515.64 466.64 1519.2 Q464.835 1522.75 464.835 1529.87 Q464.835 1536.98 466.64 1540.55 Q468.469 1544.09 472.08 1544.09 Q475.714 1544.09 477.52 1540.55 Q479.348 1536.98 479.348 1529.87 Q479.348 1522.75 477.52 1519.2 Q475.714 1515.64 472.08 1515.64 M472.08 1511.93 Q477.89 1511.93 480.946 1516.54 Q484.024 1521.12 484.024 1529.87 Q484.024 1538.6 480.946 1543.21 Q477.89 1547.79 472.08 1547.79 Q466.27 1547.79 463.191 1543.21 Q460.136 1538.6 460.136 1529.87 Q460.136 1521.12 463.191 1516.54 Q466.27 1511.93 472.08 1511.93 Z" fill="#000000" fill-rule="evenodd" fill-opacity="1" /><path clip-path="url(#clip860)" d="M948.36 1543.18 L955.999 1543.18 L955.999 1516.82 L947.689 1518.49 L947.689 1514.23 L955.952 1512.56 L960.628 1512.56 L960.628 1543.18 L968.267 1543.18 L968.267 1547.12 L948.36 1547.12 L948.36 1543.18 Z" fill="#000000" fill-rule="evenodd" fill-opacity="1" /><path clip-path="url(#clip860)" d="M977.712 1541.24 L982.596 1541.24 L982.596 1547.12 L977.712 1547.12 L977.712 1541.24 Z" fill="#000000" fill-rule="evenodd" fill-opacity="1" /><path clip-path="url(#clip860)" d="M992.827 1512.56 L1011.18 1512.56 L1011.18 1516.5 L997.11 1516.5 L997.11 1524.97 Q998.128 1524.62 999.147 1524.46 Q1000.17 1524.27 1001.18 1524.27 Q1006.97 1524.27 1010.35 1527.44 Q1013.73 1530.62 1013.73 1536.03 Q1013.73 1541.61 1010.26 1544.71 Q1006.79 1547.79 1000.47 1547.79 Q998.29 1547.79 996.022 1547.42 Q993.776 1547.05 991.369 1546.31 L991.369 1541.61 Q993.452 1542.74 995.675 1543.3 Q997.897 1543.86 1000.37 1543.86 Q1004.38 1543.86 1006.72 1541.75 Q1009.05 1539.64 1009.05 1536.03 Q1009.05 1532.42 1006.72 1530.31 Q1004.38 1528.21 1000.37 1528.21 Q998.499 1528.21 996.624 1528.62 Q994.772 1529.04 992.827 1529.92 L992.827 1512.56 Z" fill="#000000" fill-rule="evenodd" fill-opacity="1" /><path clip-path="url(#clip860)" d="M1482.15 1543.18 L1498.47 1543.18 L1498.47 1547.12 L1476.53 1547.12 L1476.53 1543.18 Q1479.19 1540.43 1483.77 1535.8 Q1488.38 1531.15 1489.56 1529.81 Q1491.8 1527.28 1492.68 1525.55 Q1493.59 1523.79 1493.59 1522.1 Q1493.59 1519.34 1491.64 1517.61 Q1489.72 1515.87 1486.62 1515.87 Q1484.42 1515.87 1481.97 1516.63 Q1479.54 1517.4 1476.76 1518.95 L1476.76 1514.23 Q1479.58 1513.09 1482.04 1512.51 Q1484.49 1511.93 1486.53 1511.93 Q1491.9 1511.93 1495.09 1514.62 Q1498.29 1517.31 1498.29 1521.8 Q1498.29 1523.93 1497.48 1525.85 Q1496.69 1527.74 1494.58 1530.34 Q1494 1531.01 1490.9 1534.23 Q1487.8 1537.42 1482.15 1543.18 Z" fill="#000000" fill-rule="evenodd" fill-opacity="1" /><path clip-path="url(#clip860)" d="M1508.29 1541.24 L1513.17 1541.24 L1513.17 1547.12 L1508.29 1547.12 L1508.29 1541.24 Z" fill="#000000" fill-rule="evenodd" fill-opacity="1" /><path clip-path="url(#clip860)" d="M1533.35 1515.64 Q1529.74 1515.64 1527.91 1519.2 Q1526.11 1522.75 1526.11 1529.87 Q1526.11 1536.98 1527.91 1540.55 Q1529.74 1544.09 1533.35 1544.09 Q1536.99 1544.09 1538.79 1540.55 Q1540.62 1536.98 1540.62 1529.87 Q1540.62 1522.75 1538.79 1519.2 Q1536.99 1515.64 1533.35 1515.64 M1533.35 1511.93 Q1539.16 1511.93 1542.22 1516.54 Q1545.3 1521.12 1545.3 1529.87 Q1545.3 1538.6 1542.22 1543.21 Q1539.16 1547.79 1533.35 1547.79 Q1527.54 1547.79 1524.47 1543.21 Q1521.41 1538.6 1521.41 1529.87 Q1521.41 1521.12 1524.47 1516.54 Q1527.54 1511.93 1533.35 1511.93 Z" fill="#000000" fill-rule="evenodd" fill-opacity="1" /><path clip-path="url(#clip860)" d="M2012.85 1543.18 L2029.17 1543.18 L2029.17 1547.12 L2007.23 1547.12 L2007.23 1543.18 Q2009.89 1540.43 2014.47 1535.8 Q2019.08 1531.15 2020.26 1529.81 Q2022.51 1527.28 2023.38 1525.55 Q2024.29 1523.79 2024.29 1522.1 Q2024.29 1519.34 2022.34 1517.61 Q2020.42 1515.87 2017.32 1515.87 Q2015.12 1515.87 2012.67 1516.63 Q2010.24 1517.4 2007.46 1518.95 L2007.46 1514.23 Q2010.28 1513.09 2012.74 1512.51 Q2015.19 1511.93 2017.23 1511.93 Q2022.6 1511.93 2025.79 1514.62 Q2028.99 1517.31 2028.99 1521.8 Q2028.99 1523.93 2028.18 1525.85 Q2027.39 1527.74 2025.28 1530.34 Q2024.7 1531.01 2021.6 1534.23 Q2018.5 1537.42 2012.85 1543.18 Z" fill="#000000" fill-rule="evenodd" fill-opacity="1" /><path clip-path="url(#clip860)" d="M2038.99 1541.24 L2043.87 1541.24 L2043.87 1547.12 L2038.99 1547.12 L2038.99 1541.24 Z" fill="#000000" fill-rule="evenodd" fill-opacity="1" /><path clip-path="url(#clip860)" d="M2054.1 1512.56 L2072.46 1512.56 L2072.46 1516.5 L2058.38 1516.5 L2058.38 1524.97 Q2059.4 1524.62 2060.42 1524.46 Q2061.44 1524.27 2062.46 1524.27 Q2068.25 1524.27 2071.63 1527.44 Q2075 1530.62 2075 1536.03 Q2075 1541.61 2071.53 1544.71 Q2068.06 1547.79 2061.74 1547.79 Q2059.57 1547.79 2057.3 1547.42 Q2055.05 1547.05 2052.64 1546.31 L2052.64 1541.61 Q2054.73 1542.74 2056.95 1543.3 Q2059.17 1543.86 2061.65 1543.86 Q2065.65 1543.86 2067.99 1541.75 Q2070.33 1539.64 2070.33 1536.03 Q2070.33 1532.42 2067.99 1530.31 Q2065.65 1528.21 2061.65 1528.21 Q2059.77 1528.21 2057.9 1528.62 Q2056.05 1529.04 2054.1 1529.92 L2054.1 1512.56 Z" fill="#000000" fill-rule="evenodd" fill-opacity="1" /><polyline clip-path="url(#clip862)" style="stroke:#000000; stroke-linecap:butt; stroke-linejoin:round; stroke-width:2; stroke-opacity:0.1; fill:none" points="
  112.177,1445.72 2352.76,1445.72 
  "/>
<polyline clip-path="url(#clip862)" style="stroke:#000000; stroke-linecap:butt; stroke-linejoin:round; stroke-width:2; stroke-opacity:0.1; fill:none" points="
  112.177,1208.62 2352.76,1208.62 
  "/>
<polyline clip-path="url(#clip862)" style="stroke:#000000; stroke-linecap:butt; stroke-linejoin:round; stroke-width:2; stroke-opacity:0.1; fill:none" points="
  112.177,971.527 2352.76,971.527 
  "/>
<polyline clip-path="url(#clip862)" style="stroke:#000000; stroke-linecap:butt; stroke-linejoin:round; stroke-width:2; stroke-opacity:0.1; fill:none" points="
  112.177,734.432 2352.76,734.432 
  "/>
<polyline clip-path="url(#clip862)" style="stroke:#000000; stroke-linecap:butt; stroke-linejoin:round; stroke-width:2; stroke-opacity:0.1; fill:none" points="
  112.177,497.338 2352.76,497.338 
  "/>
<polyline clip-path="url(#clip862)" style="stroke:#000000; stroke-linecap:butt; stroke-linejoin:round; stroke-width:2; stroke-opacity:0.1; fill:none" points="
  112.177,260.243 2352.76,260.243 
  "/>
<polyline clip-path="url(#clip860)" style="stroke:#000000; stroke-linecap:butt; stroke-linejoin:round; stroke-width:4; stroke-opacity:1; fill:none" points="
  112.177,1486.45 112.177,47.2441 
  "/>
<polyline clip-path="url(#clip860)" style="stroke:#000000; stroke-linecap:butt; stroke-linejoin:round; stroke-width:4; stroke-opacity:1; fill:none" points="
  112.177,1445.72 131.075,1445.72 
  "/>
<polyline clip-path="url(#clip860)" style="stroke:#000000; stroke-linecap:butt; stroke-linejoin:round; stroke-width:4; stroke-opacity:1; fill:none" points="
  112.177,1208.62 131.075,1208.62 
  "/>
<polyline clip-path="url(#clip860)" style="stroke:#000000; stroke-linecap:butt; stroke-linejoin:round; stroke-width:4; stroke-opacity:1; fill:none" points="
  112.177,971.527 131.075,971.527 
  "/>
<polyline clip-path="url(#clip860)" style="stroke:#000000; stroke-linecap:butt; stroke-linejoin:round; stroke-width:4; stroke-opacity:1; fill:none" points="
  112.177,734.432 131.075,734.432 
  "/>
<polyline clip-path="url(#clip860)" style="stroke:#000000; stroke-linecap:butt; stroke-linejoin:round; stroke-width:4; stroke-opacity:1; fill:none" points="
  112.177,497.338 131.075,497.338 
  "/>
<polyline clip-path="url(#clip860)" style="stroke:#000000; stroke-linecap:butt; stroke-linejoin:round; stroke-width:4; stroke-opacity:1; fill:none" points="
  112.177,260.243 131.075,260.243 
  "/>
<path clip-path="url(#clip860)" d="M64.2328 1431.51 Q60.6217 1431.51 58.793 1435.08 Q56.9875 1438.62 56.9875 1445.75 Q56.9875 1452.86 58.793 1456.42 Q60.6217 1459.96 64.2328 1459.96 Q67.867 1459.96 69.6726 1456.42 Q71.5013 1452.86 71.5013 1445.75 Q71.5013 1438.62 69.6726 1435.08 Q67.867 1431.51 64.2328 1431.51 M64.2328 1427.81 Q70.0429 1427.81 73.0985 1432.42 Q76.1772 1437 76.1772 1445.75 Q76.1772 1454.48 73.0985 1459.08 Q70.0429 1463.67 64.2328 1463.67 Q58.4226 1463.67 55.344 1459.08 Q52.2884 1454.48 52.2884 1445.75 Q52.2884 1437 55.344 1432.42 Q58.4226 1427.81 64.2328 1427.81 Z" fill="#000000" fill-rule="evenodd" fill-opacity="1" /><path clip-path="url(#clip860)" d="M56.2699 1221.97 L63.9087 1221.97 L63.9087 1195.6 L55.5986 1197.27 L55.5986 1193.01 L63.8624 1191.34 L68.5383 1191.34 L68.5383 1221.97 L76.1772 1221.97 L76.1772 1225.9 L56.2699 1225.9 L56.2699 1221.97 Z" fill="#000000" fill-rule="evenodd" fill-opacity="1" /><path clip-path="url(#clip860)" d="M59.8578 984.872 L76.1772 984.872 L76.1772 988.807 L54.2328 988.807 L54.2328 984.872 Q56.8949 982.117 61.4782 977.487 Q66.0846 972.835 67.2652 971.492 Q69.5105 968.969 70.3902 967.233 Q71.2929 965.474 71.2929 963.784 Q71.2929 961.029 69.3485 959.293 Q67.4272 957.557 64.3254 957.557 Q62.1263 957.557 59.6726 958.321 Q57.2421 959.085 54.4643 960.636 L54.4643 955.913 Q57.2884 954.779 59.7421 954.2 Q62.1958 953.622 64.2328 953.622 Q69.6031 953.622 72.7976 956.307 Q75.992 958.992 75.992 963.483 Q75.992 965.612 75.1818 967.534 Q74.3948 969.432 72.2883 972.024 Q71.7096 972.696 68.6078 975.913 Q65.5059 979.108 59.8578 984.872 Z" fill="#000000" fill-rule="evenodd" fill-opacity="1" /><path clip-path="url(#clip860)" d="M69.0476 733.078 Q72.404 733.796 74.279 736.064 Q76.1772 738.333 76.1772 741.666 Q76.1772 746.782 72.6587 749.583 Q69.1402 752.384 62.6587 752.384 Q60.4828 752.384 58.168 751.944 Q55.8764 751.527 53.4227 750.671 L53.4227 746.157 Q55.3671 747.291 57.6819 747.87 Q59.9967 748.448 62.5198 748.448 Q66.918 748.448 69.2096 746.712 Q71.5244 744.976 71.5244 741.666 Q71.5244 738.61 69.3717 736.897 Q67.242 735.161 63.4226 735.161 L59.3949 735.161 L59.3949 731.319 L63.6078 731.319 Q67.0569 731.319 68.8855 729.953 Q70.7142 728.564 70.7142 725.972 Q70.7142 723.31 68.8161 721.898 Q66.9411 720.462 63.4226 720.462 Q61.5013 720.462 59.3023 720.879 Q57.1032 721.296 54.4643 722.175 L54.4643 718.009 Q57.1264 717.268 59.4412 716.898 Q61.7791 716.527 63.8393 716.527 Q69.1633 716.527 72.2652 718.958 Q75.367 721.365 75.367 725.486 Q75.367 728.356 73.7235 730.347 Q72.08 732.314 69.0476 733.078 Z" fill="#000000" fill-rule="evenodd" fill-opacity="1" /><path clip-path="url(#clip860)" d="M66.5939 484.132 L54.7884 502.581 L66.5939 502.581 L66.5939 484.132 M65.367 480.058 L71.2466 480.058 L71.2466 502.581 L76.1772 502.581 L76.1772 506.47 L71.2466 506.47 L71.2466 514.618 L66.5939 514.618 L66.5939 506.47 L50.9921 506.47 L50.9921 501.956 L65.367 480.058 Z" fill="#000000" fill-rule="evenodd" fill-opacity="1" /><path clip-path="url(#clip860)" d="M55.2745 242.963 L73.6309 242.963 L73.6309 246.898 L59.5569 246.898 L59.5569 255.371 Q60.5754 255.023 61.5939 254.861 Q62.6124 254.676 63.6309 254.676 Q69.418 254.676 72.7976 257.847 Q76.1772 261.019 76.1772 266.435 Q76.1772 272.014 72.705 275.116 Q69.2328 278.195 62.9134 278.195 Q60.7374 278.195 58.4689 277.824 Q56.2236 277.454 53.8162 276.713 L53.8162 272.014 Q55.8995 273.148 58.1217 273.704 Q60.3439 274.259 62.8208 274.259 Q66.8254 274.259 69.1633 272.153 Q71.5013 270.046 71.5013 266.435 Q71.5013 262.824 69.1633 260.718 Q66.8254 258.611 62.8208 258.611 Q60.9458 258.611 59.0708 259.028 Q57.2189 259.445 55.2745 260.324 L55.2745 242.963 Z" fill="#000000" fill-rule="evenodd" fill-opacity="1" /><polyline clip-path="url(#clip862)" style="stroke:#009af9; stroke-linecap:butt; stroke-linejoin:round; stroke-width:4; stroke-opacity:1; fill:none" points="
  175.59,1445.71 186.212,1445.49 196.834,1444.24 207.455,1442 218.077,1439.27 228.699,1435.54 239.321,1431.87 249.943,1425.64 260.565,1413.28 271.187,1397.39 
  281.809,1377.58 292.43,1345.09 303.052,1300.43 313.674,1236.46 324.296,1154.1 334.918,1056.14 345.54,952.434 356.162,847.485 366.784,733.529 377.405,611.809 
  388.027,490.255 398.649,386.11 409.271,285.482 419.893,192.586 430.515,126.127 441.137,87.9763 451.759,93.1521 462.38,127.869 473.002,186.261 483.624,260.909 
  494.246,345.677 504.868,436.249 515.49,524.947 526.112,636.845 536.734,762.435 547.355,863.35 557.977,953.51 568.599,1032.74 579.221,1107.76 589.843,1172.94 
  600.465,1232.19 611.087,1281.57 621.709,1318.82 632.33,1350.51 642.952,1377.54 653.574,1396.9 664.196,1409.06 674.818,1417.93 685.44,1425.31 696.062,1431.14 
  706.684,1435.83 717.306,1438.84 727.927,1441.19 738.549,1443.37 749.171,1444.56 759.793,1445.24 770.415,1445.46 781.037,1445.49 791.659,1445.46 802.281,1445.52 
  812.902,1445.49 823.524,1445.44 834.146,1445.35 844.768,1445.26 855.39,1445.33 866.012,1445.31 876.634,1445.49 887.256,1445.54 897.877,1445.61 908.499,1445.54 
  919.121,1445.58 929.743,1445.69 940.365,1445.7 950.987,1445.69 961.609,1445.68 972.231,1445.65 982.852,1445.59 993.474,1445.57 1004.1,1445.62 1014.72,1445.63 
  1025.34,1445.66 1035.96,1445.67 1046.58,1445.68 1057.21,1445.63 1067.83,1445.63 1078.45,1445.67 1089.07,1445.65 1099.69,1445.62 1110.31,1445.51 1120.94,1445.52 
  1131.56,1445.62 1142.18,1445.67 1152.8,1445.69 1163.42,1445.69 1174.05,1445.69 1184.67,1445.69 1195.29,1445.69 1205.91,1445.65 1216.53,1445.61 1227.16,1445.6 
  1237.78,1445.66 1248.4,1445.67 1259.02,1445.67 1269.64,1445.65 1280.26,1445.64 1290.89,1445.68 1301.51,1445.68 1312.13,1445.66 1322.75,1445.66 1333.37,1445.69 
  1344,1445.7 1354.62,1445.69 1365.24,1445.71 1375.86,1445.71 1386.48,1445.69 1397.11,1445.7 1407.73,1445.71 1418.35,1445.71 1428.97,1445.71 1439.59,1445.71 
  1450.22,1445.7 1460.84,1445.69 1471.46,1445.68 1482.08,1445.66 1492.7,1445.69 1503.32,1445.71 1513.95,1445.7 1524.57,1445.7 1535.19,1445.7 1545.81,1445.7 
  1556.43,1445.68 1567.06,1445.69 1577.68,1445.7 1588.3,1445.68 1598.92,1445.66 1609.54,1445.67 1620.17,1445.66 1630.79,1445.64 1641.41,1445.63 1652.03,1445.66 
  1662.65,1445.67 1673.27,1445.68 1683.9,1445.7 1694.52,1445.7 1705.14,1445.71 1715.76,1445.71 1726.38,1445.71 1737.01,1445.71 1747.63,1445.71 1758.25,1445.71 
  1768.87,1445.71 1779.49,1445.7 1790.12,1445.71 1800.74,1445.7 1811.36,1445.69 1821.98,1445.66 1832.6,1445.68 1843.22,1445.69 1853.85,1445.68 1864.47,1445.69 
  1875.09,1445.7 1885.71,1445.69 1896.33,1445.69 1906.96,1445.69 1917.58,1445.68 1928.2,1445.67 1938.82,1445.7 1949.44,1445.71 1960.07,1445.71 1970.69,1445.71 
  1981.31,1445.71 1991.93,1445.71 2002.55,1445.69 2013.17,1445.69 2023.8,1445.71 2034.42,1445.71 2045.04,1445.71 2055.66,1445.7 2066.28,1445.71 2076.91,1445.71 
  2087.53,1445.7 2098.15,1445.71 2108.77,1445.71 2119.39,1445.69 2130.02,1445.7 2140.64,1445.7 2151.26,1445.7 2161.88,1445.7 2172.5,1445.69 2183.12,1445.69 
  2193.75,1445.69 2204.37,1445.68 2214.99,1445.7 2225.61,1445.71 2236.23,1445.71 2246.86,1445.71 2257.48,1445.71 2268.1,1445.71 2278.72,1445.71 2289.34,1445.72 
  
  "/>
<polyline clip-path="url(#clip862)" style="stroke:#e26f46; stroke-linecap:butt; stroke-linejoin:round; stroke-width:4; stroke-opacity:1; fill:none" points="
  184.979,1445.2 195.583,1444.66 206.187,1443.63 216.791,1441.8 227.396,1438.62 238,1433.37 248.604,1425.02 259.208,1412.24 269.812,1393.42 280.416,1366.72 
  291.02,1330.21 301.624,1282.05 312.228,1220.76 322.832,1145.47 333.436,1056.21 344.04,954.136 354.644,841.627 365.248,722.275 375.852,600.725 386.457,482.361 
  397.061,372.881 407.665,277.82 418.269,202.056 428.873,149.384 439.477,122.207 450.081,121.364 460.685,146.131 471.289,194.358 481.893,262.743 492.497,347.172 
  503.101,443.103 513.705,545.929 524.309,651.304 534.913,755.392 545.518,855.029 556.122,947.811 566.726,1032.09 577.33,1106.95 587.934,1172.05 598.538,1227.59 
  609.142,1274.11 619.746,1312.4 630.35,1343.43 640.954,1368.16 651.558,1387.6 662.162,1402.66 672.766,1414.17 683.37,1422.85 693.974,1429.31 704.579,1434.07 
  715.183,1437.53 725.787,1440.02 736.391,1441.78 746.995,1443.03 757.599,1443.9 768.203,1444.49 778.807,1444.9 789.411,1445.18 800.015,1445.36 810.619,1445.49 
  821.223,1445.57 831.827,1445.62 842.431,1445.66 853.036,1445.68 863.64,1445.69 874.244,1445.7 884.848,1445.71 895.452,1445.71 906.056,1445.71 916.66,1445.71 
  927.264,1445.71 937.868,1445.71 948.472,1445.72 959.076,1445.72 969.68,1445.72 980.284,1445.72 990.888,1445.72 1001.49,1445.72 1012.1,1445.72 1022.7,1445.72 
  1033.3,1445.72 1043.91,1445.72 1054.51,1445.72 1065.12,1445.72 1075.72,1445.72 1086.32,1445.72 1096.93,1445.72 1107.53,1445.72 1118.14,1445.72 1128.74,1445.72 
  1139.35,1445.72 1149.95,1445.72 1160.55,1445.72 1171.16,1445.72 1181.76,1445.72 1192.37,1445.72 1202.97,1445.72 1213.57,1445.72 1224.18,1445.72 1234.78,1445.72 
  1245.39,1445.72 1255.99,1445.72 1266.59,1445.72 1277.2,1445.72 1287.8,1445.72 1298.41,1445.72 1309.01,1445.72 1319.61,1445.72 1330.22,1445.72 1340.82,1445.72 
  1351.43,1445.72 1362.03,1445.72 1372.63,1445.72 1383.24,1445.72 1393.84,1445.72 1404.45,1445.72 1415.05,1445.72 1425.66,1445.72 1436.26,1445.72 1446.86,1445.72 
  1457.47,1445.72 1468.07,1445.72 1478.68,1445.72 1489.28,1445.72 1499.88,1445.72 1510.49,1445.72 1521.09,1445.72 1531.7,1445.72 1542.3,1445.72 1552.9,1445.72 
  1563.51,1445.72 1574.11,1445.72 1584.72,1445.72 1595.32,1445.72 1605.92,1445.72 1616.53,1445.72 1627.13,1445.72 1637.74,1445.72 1648.34,1445.72 1658.94,1445.72 
  1669.55,1445.72 1680.15,1445.72 1690.76,1445.72 1701.36,1445.72 1711.96,1445.72 1722.57,1445.72 1733.17,1445.72 1743.78,1445.72 1754.38,1445.72 1764.99,1445.72 
  1775.59,1445.72 1786.19,1445.72 1796.8,1445.72 1807.4,1445.72 1818.01,1445.72 1828.61,1445.72 1839.21,1445.72 1849.82,1445.72 1860.42,1445.72 1871.03,1445.72 
  1881.63,1445.72 1892.23,1445.72 1902.84,1445.72 1913.44,1445.72 1924.05,1445.72 1934.65,1445.72 1945.25,1445.72 1955.86,1445.72 1966.46,1445.72 1977.07,1445.72 
  1987.67,1445.72 1998.27,1445.72 2008.88,1445.72 2019.48,1445.72 2030.09,1445.72 2040.69,1445.72 2051.3,1445.72 2061.9,1445.72 2072.5,1445.72 2083.11,1445.72 
  2093.71,1445.72 2104.32,1445.72 2114.92,1445.72 2125.52,1445.72 2136.13,1445.72 2146.73,1445.72 2157.34,1445.72 2167.94,1445.72 2178.54,1445.72 2189.15,1445.72 
  2199.75,1445.72 2210.36,1445.72 2220.96,1445.72 2231.56,1445.72 2242.17,1445.72 2252.77,1445.72 2263.38,1445.72 2273.98,1445.72 
  "/>
<path clip-path="url(#clip860)" d="
M1782.01 250.738 L2278.07 250.738 L2278.07 95.2176 L1782.01 95.2176  Z
  " fill="#ffffff" fill-rule="evenodd" fill-opacity="1"/>
<polyline clip-path="url(#clip860)" style="stroke:#000000; stroke-linecap:butt; stroke-linejoin:round; stroke-width:4; stroke-opacity:1; fill:none" points="
  1782.01,250.738 2278.07,250.738 2278.07,95.2176 1782.01,95.2176 1782.01,250.738 
  "/>
<polyline clip-path="url(#clip860)" style="stroke:#009af9; stroke-linecap:butt; stroke-linejoin:round; stroke-width:4; stroke-opacity:1; fill:none" points="
  1806.91,147.058 1956.28,147.058 
  "/>
<path clip-path="url(#clip860)" d="M2000.09 142.347 L2000.09 128.319 L2004.35 128.319 L2004.35 164.338 L2000.09 164.338 L2000.09 160.449 Q1998.74 162.763 1996.68 163.898 Q1994.65 165.009 1991.78 165.009 Q1987.08 165.009 1984.11 161.259 Q1981.17 157.509 1981.17 151.398 Q1981.17 145.287 1984.11 141.537 Q1987.08 137.787 1991.78 137.787 Q1994.65 137.787 1996.68 138.921 Q1998.74 140.032 2000.09 142.347 M1985.57 151.398 Q1985.57 156.097 1987.49 158.782 Q1989.44 161.444 1992.82 161.444 Q1996.2 161.444 1998.14 158.782 Q2000.09 156.097 2000.09 151.398 Q2000.09 146.699 1998.14 144.037 Q1996.2 141.352 1992.82 141.352 Q1989.44 141.352 1987.49 144.037 Q1985.57 146.699 1985.57 151.398 Z" fill="#000000" fill-rule="evenodd" fill-opacity="1" /><path clip-path="url(#clip860)" d="M2024.9 151.305 Q2019.74 151.305 2017.75 152.486 Q2015.76 153.666 2015.76 156.514 Q2015.76 158.782 2017.24 160.125 Q2018.74 161.444 2021.31 161.444 Q2024.85 161.444 2026.98 158.944 Q2029.14 156.421 2029.14 152.254 L2029.14 151.305 L2024.9 151.305 M2033.4 149.546 L2033.4 164.338 L2029.14 164.338 L2029.14 160.402 Q2027.68 162.763 2025.5 163.898 Q2023.33 165.009 2020.18 165.009 Q2016.2 165.009 2013.84 162.787 Q2011.5 160.541 2011.5 156.791 Q2011.5 152.416 2014.41 150.194 Q2017.35 147.972 2023.16 147.972 L2029.14 147.972 L2029.14 147.555 Q2029.14 144.615 2027.19 143.018 Q2025.27 141.398 2021.78 141.398 Q2019.55 141.398 2017.45 141.93 Q2015.34 142.463 2013.4 143.527 L2013.4 139.592 Q2015.73 138.69 2017.93 138.25 Q2020.13 137.787 2022.22 137.787 Q2027.84 137.787 2030.62 140.703 Q2033.4 143.62 2033.4 149.546 Z" fill="#000000" fill-rule="evenodd" fill-opacity="1" /><path clip-path="url(#clip860)" d="M2046.38 131.051 L2046.38 138.412 L2055.16 138.412 L2055.16 141.722 L2046.38 141.722 L2046.38 155.796 Q2046.38 158.967 2047.24 159.87 Q2048.12 160.773 2050.78 160.773 L2055.16 160.773 L2055.16 164.338 L2050.78 164.338 Q2045.85 164.338 2043.97 162.509 Q2042.1 160.657 2042.1 155.796 L2042.1 141.722 L2038.97 141.722 L2038.97 138.412 L2042.1 138.412 L2042.1 131.051 L2046.38 131.051 Z" fill="#000000" fill-rule="evenodd" fill-opacity="1" /><path clip-path="url(#clip860)" d="M2072.54 151.305 Q2067.38 151.305 2065.39 152.486 Q2063.4 153.666 2063.4 156.514 Q2063.4 158.782 2064.88 160.125 Q2066.38 161.444 2068.95 161.444 Q2072.49 161.444 2074.62 158.944 Q2076.78 156.421 2076.78 152.254 L2076.78 151.305 L2072.54 151.305 M2081.03 149.546 L2081.03 164.338 L2076.78 164.338 L2076.78 160.402 Q2075.32 162.763 2073.14 163.898 Q2070.97 165.009 2067.82 165.009 Q2063.84 165.009 2061.47 162.787 Q2059.14 160.541 2059.14 156.791 Q2059.14 152.416 2062.05 150.194 Q2064.99 147.972 2070.8 147.972 L2076.78 147.972 L2076.78 147.555 Q2076.78 144.615 2074.83 143.018 Q2072.91 141.398 2069.41 141.398 Q2067.19 141.398 2065.09 141.93 Q2062.98 142.463 2061.03 143.527 L2061.03 139.592 Q2063.37 138.69 2065.57 138.25 Q2067.77 137.787 2069.85 137.787 Q2075.48 137.787 2078.26 140.703 Q2081.03 143.62 2081.03 149.546 Z" fill="#000000" fill-rule="evenodd" fill-opacity="1" /><polyline clip-path="url(#clip860)" style="stroke:#e26f46; stroke-linecap:butt; stroke-linejoin:round; stroke-width:4; stroke-opacity:1; fill:none" points="
  1806.91,198.898 1956.28,198.898 
  "/>
<path clip-path="url(#clip860)" d="M1981.17 181.618 L1985.85 181.618 L1985.85 212.242 L2002.68 212.242 L2002.68 216.178 L1981.17 216.178 L1981.17 181.618 Z" fill="#000000" fill-rule="evenodd" fill-opacity="1" /><path clip-path="url(#clip860)" d="M2016.61 193.238 Q2013.19 193.238 2011.2 195.923 Q2009.21 198.585 2009.21 203.238 Q2009.21 207.891 2011.17 210.576 Q2013.16 213.238 2016.61 213.238 Q2020.02 213.238 2022.01 210.553 Q2024 207.867 2024 203.238 Q2024 198.631 2022.01 195.946 Q2020.02 193.238 2016.61 193.238 M2016.61 189.627 Q2022.17 189.627 2025.34 193.238 Q2028.51 196.849 2028.51 203.238 Q2028.51 209.604 2025.34 213.238 Q2022.17 216.849 2016.61 216.849 Q2011.04 216.849 2007.86 213.238 Q2004.72 209.604 2004.72 203.238 Q2004.72 196.849 2007.86 193.238 Q2011.04 189.627 2016.61 189.627 Z" fill="#000000" fill-rule="evenodd" fill-opacity="1" /><path clip-path="url(#clip860)" d="M2052.63 202.914 Q2052.63 198.284 2050.71 195.738 Q2048.81 193.192 2045.36 193.192 Q2041.94 193.192 2040.02 195.738 Q2038.12 198.284 2038.12 202.914 Q2038.12 207.52 2040.02 210.066 Q2041.94 212.613 2045.36 212.613 Q2048.81 212.613 2050.71 210.066 Q2052.63 207.52 2052.63 202.914 M2056.89 212.96 Q2056.89 219.58 2053.95 222.798 Q2051.01 226.039 2044.95 226.039 Q2042.7 226.039 2040.71 225.691 Q2038.72 225.367 2036.85 224.673 L2036.85 220.529 Q2038.72 221.548 2040.55 222.034 Q2042.38 222.52 2044.28 222.52 Q2048.47 222.52 2050.55 220.321 Q2052.63 218.145 2052.63 213.724 L2052.63 211.617 Q2051.31 213.909 2049.25 215.043 Q2047.19 216.178 2044.32 216.178 Q2039.55 216.178 2036.64 212.543 Q2033.72 208.909 2033.72 202.914 Q2033.72 196.895 2036.64 193.261 Q2039.55 189.627 2044.32 189.627 Q2047.19 189.627 2049.25 190.761 Q2051.31 191.895 2052.63 194.187 L2052.63 190.252 L2056.89 190.252 L2056.89 212.96 Z" fill="#000000" fill-rule="evenodd" fill-opacity="1" /><path clip-path="url(#clip860)" d="M2065.85 181.618 L2072.15 181.618 L2087.47 210.529 L2087.47 181.618 L2092.01 181.618 L2092.01 216.178 L2085.71 216.178 L2070.39 187.266 L2070.39 216.178 L2065.85 216.178 L2065.85 181.618 Z" fill="#000000" fill-rule="evenodd" fill-opacity="1" /><path clip-path="url(#clip860)" d="M2111.17 193.238 Q2107.75 193.238 2105.76 195.923 Q2103.77 198.585 2103.77 203.238 Q2103.77 207.891 2105.73 210.576 Q2107.72 213.238 2111.17 213.238 Q2114.58 213.238 2116.57 210.553 Q2118.56 207.867 2118.56 203.238 Q2118.56 198.631 2116.57 195.946 Q2114.58 193.238 2111.17 193.238 M2111.17 189.627 Q2116.73 189.627 2119.9 193.238 Q2123.07 196.849 2123.07 203.238 Q2123.07 209.604 2119.9 213.238 Q2116.73 216.849 2111.17 216.849 Q2105.59 216.849 2102.42 213.238 Q2099.28 209.604 2099.28 203.238 Q2099.28 196.849 2102.42 193.238 Q2105.59 189.627 2111.17 189.627 Z" fill="#000000" fill-rule="evenodd" fill-opacity="1" /><path clip-path="url(#clip860)" d="M2145.15 194.233 Q2144.44 193.817 2143.58 193.631 Q2142.75 193.423 2141.73 193.423 Q2138.12 193.423 2136.17 195.784 Q2134.25 198.122 2134.25 202.52 L2134.25 216.178 L2129.97 216.178 L2129.97 190.252 L2134.25 190.252 L2134.25 194.28 Q2135.59 191.918 2137.75 190.784 Q2139.9 189.627 2142.98 189.627 Q2143.42 189.627 2143.95 189.696 Q2144.48 189.743 2145.13 189.858 L2145.15 194.233 Z" fill="#000000" fill-rule="evenodd" fill-opacity="1" /><path clip-path="url(#clip860)" d="M2168.97 195.229 Q2170.57 192.358 2172.79 190.993 Q2175.02 189.627 2178.02 189.627 Q2182.08 189.627 2184.27 192.474 Q2186.47 195.298 2186.47 200.529 L2186.47 216.178 L2182.19 216.178 L2182.19 200.668 Q2182.19 196.942 2180.87 195.136 Q2179.55 193.33 2176.84 193.33 Q2173.53 193.33 2171.61 195.53 Q2169.69 197.729 2169.69 201.525 L2169.69 216.178 L2165.41 216.178 L2165.41 200.668 Q2165.41 196.918 2164.09 195.136 Q2162.77 193.33 2160.02 193.33 Q2156.75 193.33 2154.83 195.553 Q2152.91 197.752 2152.91 201.525 L2152.91 216.178 L2148.63 216.178 L2148.63 190.252 L2152.91 190.252 L2152.91 194.28 Q2154.37 191.895 2156.4 190.761 Q2158.44 189.627 2161.24 189.627 Q2164.07 189.627 2166.03 191.062 Q2168.03 192.497 2168.97 195.229 Z" fill="#000000" fill-rule="evenodd" fill-opacity="1" /><path clip-path="url(#clip860)" d="M2206.75 203.145 Q2201.59 203.145 2199.6 204.326 Q2197.61 205.506 2197.61 208.354 Q2197.61 210.622 2199.09 211.965 Q2200.59 213.284 2203.16 213.284 Q2206.71 213.284 2208.83 210.784 Q2210.99 208.261 2210.99 204.094 L2210.99 203.145 L2206.75 203.145 M2215.25 201.386 L2215.25 216.178 L2210.99 216.178 L2210.99 212.242 Q2209.53 214.603 2207.35 215.738 Q2205.18 216.849 2202.03 216.849 Q2198.05 216.849 2195.69 214.627 Q2193.35 212.381 2193.35 208.631 Q2193.35 204.256 2196.27 202.034 Q2199.21 199.812 2205.02 199.812 L2210.99 199.812 L2210.99 199.395 Q2210.99 196.455 2209.04 194.858 Q2207.12 193.238 2203.63 193.238 Q2201.4 193.238 2199.3 193.77 Q2197.19 194.303 2195.25 195.367 L2195.25 191.432 Q2197.59 190.53 2199.78 190.09 Q2201.98 189.627 2204.07 189.627 Q2209.69 189.627 2212.47 192.543 Q2215.25 195.46 2215.25 201.386 Z" fill="#000000" fill-rule="evenodd" fill-opacity="1" /><path clip-path="url(#clip860)" d="M2224.02 180.159 L2228.28 180.159 L2228.28 216.178 L2224.02 216.178 L2224.02 180.159 Z" fill="#000000" fill-rule="evenodd" fill-opacity="1" /></svg>
