<?xml version="1.0" encoding="utf-8"?>
<svg xmlns="http://www.w3.org/2000/svg" xmlns:xlink="http://www.w3.org/1999/xlink" width="600" height="400" viewBox="0 0 2400 1600">
<defs>
  <clipPath id="clip040">
    <rect x="0" y="0" width="2400" height="1600"/>
  </clipPath>
</defs>
<path clip-path="url(#clip040)" d="
M0 1600 L2400 1600 L2400 0 L0 0  Z
  " fill="#ffffff" fill-rule="evenodd" fill-opacity="1"/>
<defs>
  <clipPath id="clip041">
    <rect x="480" y="0" width="1681" height="1600"/>
  </clipPath>
</defs>
<path clip-path="url(#clip040)" d="
M201.876 1486.45 L1172.89 1486.45 L1172.89 47.2441 L201.876 47.2441  Z
  " fill="#ffffff" fill-rule="evenodd" fill-opacity="1"/>
<defs>
  <clipPath id="clip042">
    <rect x="201" y="47" width="972" height="1440"/>
  </clipPath>
</defs>
<polyline clip-path="url(#clip042)" style="stroke:#000000; stroke-width:2; stroke-opacity:0.1; fill:none" points="
  290.557,1486.45 290.557,47.2441 
  "/>
<polyline clip-path="url(#clip042)" style="stroke:#000000; stroke-width:2; stroke-opacity:0.1; fill:none" points="
  488.971,1486.45 488.971,47.2441 
  "/>
<polyline clip-path="url(#clip042)" style="stroke:#000000; stroke-width:2; stroke-opacity:0.1; fill:none" points="
  687.385,1486.45 687.385,47.2441 
  "/>
<polyline clip-path="url(#clip042)" style="stroke:#000000; stroke-width:2; stroke-opacity:0.1; fill:none" points="
  885.799,1486.45 885.799,47.2441 
  "/>
<polyline clip-path="url(#clip042)" style="stroke:#000000; stroke-width:2; stroke-opacity:0.1; fill:none" points="
  1084.21,1486.45 1084.21,47.2441 
  "/>
<polyline clip-path="url(#clip042)" style="stroke:#000000; stroke-width:2; stroke-opacity:0.1; fill:none" points="
  201.876,1445.72 1172.89,1445.72 
  "/>
<polyline clip-path="url(#clip042)" style="stroke:#000000; stroke-width:2; stroke-opacity:0.1; fill:none" points="
  201.876,1162.76 1172.89,1162.76 
  "/>
<polyline clip-path="url(#clip042)" style="stroke:#000000; stroke-width:2; stroke-opacity:0.1; fill:none" points="
  201.876,879.814 1172.89,879.814 
  "/>
<polyline clip-path="url(#clip042)" style="stroke:#000000; stroke-width:2; stroke-opacity:0.1; fill:none" points="
  201.876,596.862 1172.89,596.862 
  "/>
<polyline clip-path="url(#clip042)" style="stroke:#000000; stroke-width:2; stroke-opacity:0.1; fill:none" points="
  201.876,313.911 1172.89,313.911 
  "/>
<polyline clip-path="url(#clip040)" style="stroke:#000000; stroke-width:4; stroke-opacity:1; fill:none" points="
  201.876,1486.45 1172.89,1486.45 
  "/>
<polyline clip-path="url(#clip040)" style="stroke:#000000; stroke-width:4; stroke-opacity:1; fill:none" points="
  201.876,1486.45 201.876,47.2441 
  "/>
<polyline clip-path="url(#clip040)" style="stroke:#000000; stroke-width:4; stroke-opacity:1; fill:none" points="
  290.557,1486.45 290.557,1469.18 
  "/>
<polyline clip-path="url(#clip040)" style="stroke:#000000; stroke-width:4; stroke-opacity:1; fill:none" points="
  488.971,1486.45 488.971,1469.18 
  "/>
<polyline clip-path="url(#clip040)" style="stroke:#000000; stroke-width:4; stroke-opacity:1; fill:none" points="
  687.385,1486.45 687.385,1469.18 
  "/>
<polyline clip-path="url(#clip040)" style="stroke:#000000; stroke-width:4; stroke-opacity:1; fill:none" points="
  885.799,1486.45 885.799,1469.18 
  "/>
<polyline clip-path="url(#clip040)" style="stroke:#000000; stroke-width:4; stroke-opacity:1; fill:none" points="
  1084.21,1486.45 1084.21,1469.18 
  "/>
<polyline clip-path="url(#clip040)" style="stroke:#000000; stroke-width:4; stroke-opacity:1; fill:none" points="
  201.876,1445.72 213.528,1445.72 
  "/>
<polyline clip-path="url(#clip040)" style="stroke:#000000; stroke-width:4; stroke-opacity:1; fill:none" points="
  201.876,1162.76 213.528,1162.76 
  "/>
<polyline clip-path="url(#clip040)" style="stroke:#000000; stroke-width:4; stroke-opacity:1; fill:none" points="
  201.876,879.814 213.528,879.814 
  "/>
<polyline clip-path="url(#clip040)" style="stroke:#000000; stroke-width:4; stroke-opacity:1; fill:none" points="
  201.876,596.862 213.528,596.862 
  "/>
<polyline clip-path="url(#clip040)" style="stroke:#000000; stroke-width:4; stroke-opacity:1; fill:none" points="
  201.876,313.911 213.528,313.911 
  "/>
<path clip-path="url(#clip040)" d="M 0 0 M262.455 1535.98 L270.094 1535.98 L270.094 1509.62 L261.784 1511.29 L261.784 1507.03 L270.048 1505.36 L274.724 1505.36 L274.724 1535.98 L282.363 1535.98 L282.363 1539.92 L262.455 1539.92 L262.455 1535.98 Z" fill="#000000" fill-rule="evenodd" fill-opacity="1" /><path clip-path="url(#clip040)" d="M 0 0 M287.432 1534.04 L292.316 1534.04 L292.316 1539.92 L287.432 1539.92 L287.432 1534.04 Z" fill="#000000" fill-rule="evenodd" fill-opacity="1" /><path clip-path="url(#clip040)" d="M 0 0 M307.386 1508.44 Q303.775 1508.44 301.946 1512 Q300.14 1515.55 300.14 1522.67 Q300.14 1529.78 301.946 1533.35 Q303.775 1536.89 307.386 1536.89 Q311.02 1536.89 312.826 1533.35 Q314.654 1529.78 314.654 1522.67 Q314.654 1515.55 312.826 1512 Q311.02 1508.44 307.386 1508.44 M307.386 1504.73 Q313.196 1504.73 316.251 1509.34 Q319.33 1513.92 319.33 1522.67 Q319.33 1531.4 316.251 1536.01 Q313.196 1540.59 307.386 1540.59 Q301.576 1540.59 298.497 1536.01 Q295.441 1531.4 295.441 1522.67 Q295.441 1513.92 298.497 1509.34 Q301.576 1504.73 307.386 1504.73 Z" fill="#000000" fill-rule="evenodd" fill-opacity="1" /><path clip-path="url(#clip040)" d="M 0 0 M461.367 1535.98 L469.006 1535.98 L469.006 1509.62 L460.696 1511.29 L460.696 1507.03 L468.96 1505.36 L473.636 1505.36 L473.636 1535.98 L481.274 1535.98 L481.274 1539.92 L461.367 1539.92 L461.367 1535.98 Z" fill="#000000" fill-rule="evenodd" fill-opacity="1" /><path clip-path="url(#clip040)" d="M 0 0 M486.344 1534.04 L491.228 1534.04 L491.228 1539.92 L486.344 1539.92 L486.344 1534.04 Z" fill="#000000" fill-rule="evenodd" fill-opacity="1" /><path clip-path="url(#clip040)" d="M 0 0 M496.344 1505.36 L514.7 1505.36 L514.7 1509.3 L500.626 1509.3 L500.626 1517.77 Q501.645 1517.42 502.663 1517.26 Q503.682 1517.07 504.7 1517.07 Q510.487 1517.07 513.867 1520.24 Q517.246 1523.42 517.246 1528.83 Q517.246 1534.41 513.774 1537.51 Q510.302 1540.59 503.983 1540.59 Q501.807 1540.59 499.538 1540.22 Q497.293 1539.85 494.886 1539.11 L494.886 1534.41 Q496.969 1535.54 499.191 1536.1 Q501.413 1536.66 503.89 1536.66 Q507.895 1536.66 510.233 1534.55 Q512.571 1532.44 512.571 1528.83 Q512.571 1525.22 510.233 1523.11 Q507.895 1521.01 503.89 1521.01 Q502.015 1521.01 500.14 1521.42 Q498.288 1521.84 496.344 1522.72 L496.344 1505.36 Z" fill="#000000" fill-rule="evenodd" fill-opacity="1" /><path clip-path="url(#clip040)" d="M 0 0 M663.554 1535.98 L679.874 1535.98 L679.874 1539.92 L657.929 1539.92 L657.929 1535.98 Q660.591 1533.23 665.175 1528.6 Q669.781 1523.95 670.962 1522.61 Q673.207 1520.08 674.087 1518.35 Q674.989 1516.59 674.989 1514.9 Q674.989 1512.14 673.045 1510.41 Q671.124 1508.67 668.022 1508.67 Q665.823 1508.67 663.369 1509.43 Q660.939 1510.2 658.161 1511.75 L658.161 1507.03 Q660.985 1505.89 663.439 1505.31 Q665.892 1504.73 667.929 1504.73 Q673.3 1504.73 676.494 1507.42 Q679.689 1510.11 679.689 1514.6 Q679.689 1516.73 678.878 1518.65 Q678.091 1520.54 675.985 1523.14 Q675.406 1523.81 672.304 1527.03 Q669.202 1530.22 663.554 1535.98 Z" fill="#000000" fill-rule="evenodd" fill-opacity="1" /><path clip-path="url(#clip040)" d="M 0 0 M684.943 1534.04 L689.827 1534.04 L689.827 1539.92 L684.943 1539.92 L684.943 1534.04 Z" fill="#000000" fill-rule="evenodd" fill-opacity="1" /><path clip-path="url(#clip040)" d="M 0 0 M704.897 1508.44 Q701.286 1508.44 699.457 1512 Q697.651 1515.55 697.651 1522.67 Q697.651 1529.78 699.457 1533.35 Q701.286 1536.89 704.897 1536.89 Q708.531 1536.89 710.336 1533.35 Q712.165 1529.78 712.165 1522.67 Q712.165 1515.55 710.336 1512 Q708.531 1508.44 704.897 1508.44 M704.897 1504.73 Q710.707 1504.73 713.762 1509.34 Q716.841 1513.92 716.841 1522.67 Q716.841 1531.4 713.762 1536.01 Q710.707 1540.59 704.897 1540.59 Q699.087 1540.59 696.008 1536.01 Q692.952 1531.4 692.952 1522.67 Q692.952 1513.92 696.008 1509.34 Q699.087 1504.73 704.897 1504.73 Z" fill="#000000" fill-rule="evenodd" fill-opacity="1" /><path clip-path="url(#clip040)" d="M 0 0 M862.466 1535.98 L878.785 1535.98 L878.785 1539.92 L856.841 1539.92 L856.841 1535.98 Q859.503 1533.23 864.086 1528.6 Q868.693 1523.95 869.873 1522.61 Q872.119 1520.08 872.998 1518.35 Q873.901 1516.59 873.901 1514.9 Q873.901 1512.14 871.957 1510.41 Q870.035 1508.67 866.934 1508.67 Q864.735 1508.67 862.281 1509.43 Q859.85 1510.2 857.073 1511.75 L857.073 1507.03 Q859.897 1505.89 862.35 1505.31 Q864.804 1504.73 866.841 1504.73 Q872.211 1504.73 875.406 1507.42 Q878.6 1510.11 878.6 1514.6 Q878.6 1516.73 877.79 1518.65 Q877.003 1520.54 874.897 1523.14 Q874.318 1523.81 871.216 1527.03 Q868.114 1530.22 862.466 1535.98 Z" fill="#000000" fill-rule="evenodd" fill-opacity="1" /><path clip-path="url(#clip040)" d="M 0 0 M883.855 1534.04 L888.739 1534.04 L888.739 1539.92 L883.855 1539.92 L883.855 1534.04 Z" fill="#000000" fill-rule="evenodd" fill-opacity="1" /><path clip-path="url(#clip040)" d="M 0 0 M893.855 1505.36 L912.211 1505.36 L912.211 1509.3 L898.137 1509.3 L898.137 1517.77 Q899.156 1517.42 900.174 1517.26 Q901.193 1517.07 902.211 1517.07 Q907.998 1517.07 911.378 1520.24 Q914.757 1523.42 914.757 1528.83 Q914.757 1534.41 911.285 1537.51 Q907.813 1540.59 901.494 1540.59 Q899.318 1540.59 897.049 1540.22 Q894.804 1539.85 892.396 1539.11 L892.396 1534.41 Q894.48 1535.54 896.702 1536.1 Q898.924 1536.66 901.401 1536.66 Q905.406 1536.66 907.744 1534.55 Q910.082 1532.44 910.082 1528.83 Q910.082 1525.22 907.744 1523.11 Q905.406 1521.01 901.401 1521.01 Q899.526 1521.01 897.651 1521.42 Q895.799 1521.84 893.855 1522.72 L893.855 1505.36 Z" fill="#000000" fill-rule="evenodd" fill-opacity="1" /><path clip-path="url(#clip040)" d="M 0 0 M1069.98 1521.29 Q1073.33 1522 1075.21 1524.27 Q1077.11 1526.54 1077.11 1529.87 Q1077.11 1534.99 1073.59 1537.79 Q1070.07 1540.59 1063.59 1540.59 Q1061.41 1540.59 1059.1 1540.15 Q1056.81 1539.73 1054.35 1538.88 L1054.35 1534.36 Q1056.3 1535.5 1058.61 1536.08 Q1060.93 1536.66 1063.45 1536.66 Q1067.85 1536.66 1070.14 1534.92 Q1072.45 1533.18 1072.45 1529.87 Q1072.45 1526.82 1070.3 1525.11 Q1068.17 1523.37 1064.35 1523.37 L1060.32 1523.37 L1060.32 1519.53 L1064.54 1519.53 Q1067.99 1519.53 1069.82 1518.16 Q1071.64 1516.77 1071.64 1514.18 Q1071.64 1511.52 1069.75 1510.11 Q1067.87 1508.67 1064.35 1508.67 Q1062.43 1508.67 1060.23 1509.09 Q1058.03 1509.5 1055.39 1510.38 L1055.39 1506.22 Q1058.06 1505.48 1060.37 1505.11 Q1062.71 1504.73 1064.77 1504.73 Q1070.09 1504.73 1073.19 1507.17 Q1076.3 1509.57 1076.3 1513.69 Q1076.3 1516.56 1074.65 1518.55 Q1073.01 1520.52 1069.98 1521.29 Z" fill="#000000" fill-rule="evenodd" fill-opacity="1" /><path clip-path="url(#clip040)" d="M 0 0 M1082.18 1534.04 L1087.06 1534.04 L1087.06 1539.92 L1082.18 1539.92 L1082.18 1534.04 Z" fill="#000000" fill-rule="evenodd" fill-opacity="1" /><path clip-path="url(#clip040)" d="M 0 0 M1102.13 1508.44 Q1098.52 1508.44 1096.69 1512 Q1094.88 1515.55 1094.88 1522.67 Q1094.88 1529.78 1096.69 1533.35 Q1098.52 1536.89 1102.13 1536.89 Q1105.76 1536.89 1107.57 1533.35 Q1109.4 1529.78 1109.4 1522.67 Q1109.4 1515.55 1107.57 1512 Q1105.76 1508.44 1102.13 1508.44 M1102.13 1504.73 Q1107.94 1504.73 1111 1509.34 Q1114.07 1513.92 1114.07 1522.67 Q1114.07 1531.4 1111 1536.01 Q1107.94 1540.59 1102.13 1540.59 Q1096.32 1540.59 1093.24 1536.01 Q1090.19 1531.4 1090.19 1522.67 Q1090.19 1513.92 1093.24 1509.34 Q1096.32 1504.73 1102.13 1504.73 Z" fill="#000000" fill-rule="evenodd" fill-opacity="1" /><path clip-path="url(#clip040)" d="M 0 0 M74.9365 1431.51 Q71.3254 1431.51 69.4967 1435.08 Q67.6912 1438.62 67.6912 1445.75 Q67.6912 1452.86 69.4967 1456.42 Q71.3254 1459.96 74.9365 1459.96 Q78.5707 1459.96 80.3763 1456.42 Q82.205 1452.86 82.205 1445.75 Q82.205 1438.62 80.3763 1435.08 Q78.5707 1431.51 74.9365 1431.51 M74.9365 1427.81 Q80.7467 1427.81 83.8022 1432.42 Q86.8809 1437 86.8809 1445.75 Q86.8809 1454.48 83.8022 1459.08 Q80.7467 1463.67 74.9365 1463.67 Q69.1264 1463.67 66.0477 1459.08 Q62.9921 1454.48 62.9921 1445.75 Q62.9921 1437 66.0477 1432.42 Q69.1264 1427.81 74.9365 1427.81 Z" fill="#000000" fill-rule="evenodd" fill-opacity="1" /><path clip-path="url(#clip040)" d="M 0 0 M91.9503 1457.12 L96.8345 1457.12 L96.8345 1463 L91.9503 1463 L91.9503 1457.12 Z" fill="#000000" fill-rule="evenodd" fill-opacity="1" /><path clip-path="url(#clip040)" d="M 0 0 M111.904 1431.51 Q108.293 1431.51 106.464 1435.08 Q104.659 1438.62 104.659 1445.75 Q104.659 1452.86 106.464 1456.42 Q108.293 1459.96 111.904 1459.96 Q115.538 1459.96 117.344 1456.42 Q119.172 1452.86 119.172 1445.75 Q119.172 1438.62 117.344 1435.08 Q115.538 1431.51 111.904 1431.51 M111.904 1427.81 Q117.714 1427.81 120.77 1432.42 Q123.848 1437 123.848 1445.75 Q123.848 1454.48 120.77 1459.08 Q117.714 1463.67 111.904 1463.67 Q106.094 1463.67 103.015 1459.08 Q99.9595 1454.48 99.9595 1445.75 Q99.9595 1437 103.015 1432.42 Q106.094 1427.81 111.904 1427.81 Z" fill="#000000" fill-rule="evenodd" fill-opacity="1" /><path clip-path="url(#clip040)" d="M 0 0 M138.918 1431.51 Q135.307 1431.51 133.478 1435.08 Q131.672 1438.62 131.672 1445.75 Q131.672 1452.86 133.478 1456.42 Q135.307 1459.96 138.918 1459.96 Q142.552 1459.96 144.357 1456.42 Q146.186 1452.86 146.186 1445.75 Q146.186 1438.62 144.357 1435.08 Q142.552 1431.51 138.918 1431.51 M138.918 1427.81 Q144.728 1427.81 147.783 1432.42 Q150.862 1437 150.862 1445.75 Q150.862 1454.48 147.783 1459.08 Q144.728 1463.67 138.918 1463.67 Q133.107 1463.67 130.029 1459.08 Q126.973 1454.48 126.973 1445.75 Q126.973 1437 130.029 1432.42 Q133.107 1427.81 138.918 1427.81 Z" fill="#000000" fill-rule="evenodd" fill-opacity="1" /><path clip-path="url(#clip040)" d="M 0 0 M165.931 1431.51 Q162.32 1431.51 160.492 1435.08 Q158.686 1438.62 158.686 1445.75 Q158.686 1452.86 160.492 1456.42 Q162.32 1459.96 165.931 1459.96 Q169.566 1459.96 171.371 1456.42 Q173.2 1452.86 173.2 1445.75 Q173.2 1438.62 171.371 1435.08 Q169.566 1431.51 165.931 1431.51 M165.931 1427.81 Q171.742 1427.81 174.797 1432.42 Q177.876 1437 177.876 1445.75 Q177.876 1454.48 174.797 1459.08 Q171.742 1463.67 165.931 1463.67 Q160.121 1463.67 157.043 1459.08 Q153.987 1454.48 153.987 1445.75 Q153.987 1437 157.043 1432.42 Q160.121 1427.81 165.931 1427.81 Z" fill="#000000" fill-rule="evenodd" fill-opacity="1" /><path clip-path="url(#clip040)" d="M 0 0 M77.5291 1148.56 Q73.918 1148.56 72.0893 1152.13 Q70.2838 1155.67 70.2838 1162.8 Q70.2838 1169.91 72.0893 1173.47 Q73.918 1177.01 77.5291 1177.01 Q81.1633 1177.01 82.9689 1173.47 Q84.7976 1169.91 84.7976 1162.8 Q84.7976 1155.67 82.9689 1152.13 Q81.1633 1148.56 77.5291 1148.56 M77.5291 1144.86 Q83.3392 1144.86 86.3948 1149.47 Q89.4735 1154.05 89.4735 1162.8 Q89.4735 1171.53 86.3948 1176.13 Q83.3392 1180.72 77.5291 1180.72 Q71.7189 1180.72 68.6402 1176.13 Q65.5847 1171.53 65.5847 1162.8 Q65.5847 1154.05 68.6402 1149.47 Q71.7189 1144.86 77.5291 1144.86 Z" fill="#000000" fill-rule="evenodd" fill-opacity="1" /><path clip-path="url(#clip040)" d="M 0 0 M94.5429 1174.17 L99.4271 1174.17 L99.4271 1180.04 L94.5429 1180.04 L94.5429 1174.17 Z" fill="#000000" fill-rule="evenodd" fill-opacity="1" /><path clip-path="url(#clip040)" d="M 0 0 M114.496 1148.56 Q110.885 1148.56 109.057 1152.13 Q107.251 1155.67 107.251 1162.8 Q107.251 1169.91 109.057 1173.47 Q110.885 1177.01 114.496 1177.01 Q118.131 1177.01 119.936 1173.47 Q121.765 1169.91 121.765 1162.8 Q121.765 1155.67 119.936 1152.13 Q118.131 1148.56 114.496 1148.56 M114.496 1144.86 Q120.307 1144.86 123.362 1149.47 Q126.441 1154.05 126.441 1162.8 Q126.441 1171.53 123.362 1176.13 Q120.307 1180.72 114.496 1180.72 Q108.686 1180.72 105.608 1176.13 Q102.552 1171.53 102.552 1162.8 Q102.552 1154.05 105.608 1149.47 Q108.686 1144.86 114.496 1144.86 Z" fill="#000000" fill-rule="evenodd" fill-opacity="1" /><path clip-path="url(#clip040)" d="M 0 0 M135.538 1176.11 L151.857 1176.11 L151.857 1180.04 L129.913 1180.04 L129.913 1176.11 Q132.575 1173.35 137.158 1168.73 Q141.765 1164.07 142.945 1162.73 Q145.191 1160.21 146.07 1158.47 Q146.973 1156.71 146.973 1155.02 Q146.973 1152.27 145.029 1150.53 Q143.107 1148.79 140.006 1148.79 Q137.807 1148.79 135.353 1149.56 Q132.922 1150.32 130.145 1151.87 L130.145 1147.15 Q132.969 1146.02 135.422 1145.44 Q137.876 1144.86 139.913 1144.86 Q145.283 1144.86 148.478 1147.54 Q151.672 1150.23 151.672 1154.72 Q151.672 1156.85 150.862 1158.77 Q150.075 1160.67 147.969 1163.26 Q147.39 1163.93 144.288 1167.15 Q141.186 1170.35 135.538 1176.11 Z" fill="#000000" fill-rule="evenodd" fill-opacity="1" /><path clip-path="url(#clip040)" d="M 0 0 M156.973 1145.48 L175.329 1145.48 L175.329 1149.42 L161.255 1149.42 L161.255 1157.89 Q162.274 1157.54 163.293 1157.38 Q164.311 1157.2 165.33 1157.2 Q171.117 1157.2 174.496 1160.37 Q177.876 1163.54 177.876 1168.96 Q177.876 1174.54 174.404 1177.64 Q170.931 1180.72 164.612 1180.72 Q162.436 1180.72 160.168 1180.35 Q157.922 1179.98 155.515 1179.23 L155.515 1174.54 Q157.598 1175.67 159.82 1176.23 Q162.043 1176.78 164.519 1176.78 Q168.524 1176.78 170.862 1174.67 Q173.2 1172.57 173.2 1168.96 Q173.2 1165.35 170.862 1163.24 Q168.524 1161.13 164.519 1161.13 Q162.644 1161.13 160.769 1161.55 Q158.918 1161.97 156.973 1162.85 L156.973 1145.48 Z" fill="#000000" fill-rule="evenodd" fill-opacity="1" /><path clip-path="url(#clip040)" d="M 0 0 M75.9319 865.612 Q72.3208 865.612 70.4921 869.177 Q68.6865 872.719 68.6865 879.848 Q68.6865 886.955 70.4921 890.519 Q72.3208 894.061 75.9319 894.061 Q79.5661 894.061 81.3717 890.519 Q83.2004 886.955 83.2004 879.848 Q83.2004 872.719 81.3717 869.177 Q79.5661 865.612 75.9319 865.612 M75.9319 861.909 Q81.742 861.909 84.7976 866.515 Q87.8763 871.098 87.8763 879.848 Q87.8763 888.575 84.7976 893.181 Q81.742 897.765 75.9319 897.765 Q70.1217 897.765 67.043 893.181 Q63.9875 888.575 63.9875 879.848 Q63.9875 871.098 67.043 866.515 Q70.1217 861.909 75.9319 861.909 Z" fill="#000000" fill-rule="evenodd" fill-opacity="1" /><path clip-path="url(#clip040)" d="M 0 0 M92.9457 891.214 L97.8299 891.214 L97.8299 897.094 L92.9457 897.094 L92.9457 891.214 Z" fill="#000000" fill-rule="evenodd" fill-opacity="1" /><path clip-path="url(#clip040)" d="M 0 0 M112.899 865.612 Q109.288 865.612 107.459 869.177 Q105.654 872.719 105.654 879.848 Q105.654 886.955 107.459 890.519 Q109.288 894.061 112.899 894.061 Q116.534 894.061 118.339 890.519 Q120.168 886.955 120.168 879.848 Q120.168 872.719 118.339 869.177 Q116.534 865.612 112.899 865.612 M112.899 861.909 Q118.709 861.909 121.765 866.515 Q124.844 871.098 124.844 879.848 Q124.844 888.575 121.765 893.181 Q118.709 897.765 112.899 897.765 Q107.089 897.765 104.01 893.181 Q100.955 888.575 100.955 879.848 Q100.955 871.098 104.01 866.515 Q107.089 861.909 112.899 861.909 Z" fill="#000000" fill-rule="evenodd" fill-opacity="1" /><path clip-path="url(#clip040)" d="M 0 0 M129.959 862.534 L148.316 862.534 L148.316 866.469 L134.242 866.469 L134.242 874.941 Q135.26 874.594 136.279 874.432 Q137.297 874.246 138.316 874.246 Q144.103 874.246 147.482 877.418 Q150.862 880.589 150.862 886.006 Q150.862 891.584 147.39 894.686 Q143.918 897.765 137.598 897.765 Q135.422 897.765 133.154 897.394 Q130.908 897.024 128.501 896.283 L128.501 891.584 Q130.584 892.719 132.807 893.274 Q135.029 893.83 137.506 893.83 Q141.51 893.83 143.848 891.723 Q146.186 889.617 146.186 886.006 Q146.186 882.395 143.848 880.288 Q141.51 878.182 137.506 878.182 Q135.631 878.182 133.756 878.598 Q131.904 879.015 129.959 879.895 L129.959 862.534 Z" fill="#000000" fill-rule="evenodd" fill-opacity="1" /><path clip-path="url(#clip040)" d="M 0 0 M165.931 865.612 Q162.32 865.612 160.492 869.177 Q158.686 872.719 158.686 879.848 Q158.686 886.955 160.492 890.519 Q162.32 894.061 165.931 894.061 Q169.566 894.061 171.371 890.519 Q173.2 886.955 173.2 879.848 Q173.2 872.719 171.371 869.177 Q169.566 865.612 165.931 865.612 M165.931 861.909 Q171.742 861.909 174.797 866.515 Q177.876 871.098 177.876 879.848 Q177.876 888.575 174.797 893.181 Q171.742 897.765 165.931 897.765 Q160.121 897.765 157.043 893.181 Q153.987 888.575 153.987 879.848 Q153.987 871.098 157.043 866.515 Q160.121 861.909 165.931 861.909 Z" fill="#000000" fill-rule="evenodd" fill-opacity="1" /><path clip-path="url(#clip040)" d="M 0 0 M76.8346 582.661 Q73.2236 582.661 71.3949 586.226 Q69.5893 589.768 69.5893 596.897 Q69.5893 604.004 71.3949 607.568 Q73.2236 611.11 76.8346 611.11 Q80.4689 611.11 82.2744 607.568 Q84.1031 604.004 84.1031 596.897 Q84.1031 589.768 82.2744 586.226 Q80.4689 582.661 76.8346 582.661 M76.8346 578.957 Q82.6448 578.957 85.7003 583.564 Q88.779 588.147 88.779 596.897 Q88.779 605.624 85.7003 610.23 Q82.6448 614.814 76.8346 614.814 Q71.0245 614.814 67.9458 610.23 Q64.8903 605.624 64.8903 596.897 Q64.8903 588.147 67.9458 583.564 Q71.0245 578.957 76.8346 578.957 Z" fill="#000000" fill-rule="evenodd" fill-opacity="1" /><path clip-path="url(#clip040)" d="M 0 0 M93.8484 608.263 L98.7327 608.263 L98.7327 614.142 L93.8484 614.142 L93.8484 608.263 Z" fill="#000000" fill-rule="evenodd" fill-opacity="1" /><path clip-path="url(#clip040)" d="M 0 0 M113.802 582.661 Q110.191 582.661 108.362 586.226 Q106.557 589.768 106.557 596.897 Q106.557 604.004 108.362 607.568 Q110.191 611.11 113.802 611.11 Q117.436 611.11 119.242 607.568 Q121.071 604.004 121.071 596.897 Q121.071 589.768 119.242 586.226 Q117.436 582.661 113.802 582.661 M113.802 578.957 Q119.612 578.957 122.668 583.564 Q125.746 588.147 125.746 596.897 Q125.746 605.624 122.668 610.23 Q119.612 614.814 113.802 614.814 Q107.992 614.814 104.913 610.23 Q101.858 605.624 101.858 596.897 Q101.858 588.147 104.913 583.564 Q107.992 578.957 113.802 578.957 Z" fill="#000000" fill-rule="evenodd" fill-opacity="1" /><path clip-path="url(#clip040)" d="M 0 0 M129.635 579.582 L151.857 579.582 L151.857 581.573 L139.311 614.142 L134.427 614.142 L146.232 583.518 L129.635 583.518 L129.635 579.582 Z" fill="#000000" fill-rule="evenodd" fill-opacity="1" /><path clip-path="url(#clip040)" d="M 0 0 M156.973 579.582 L175.329 579.582 L175.329 583.518 L161.255 583.518 L161.255 591.99 Q162.274 591.643 163.293 591.48 Q164.311 591.295 165.33 591.295 Q171.117 591.295 174.496 594.467 Q177.876 597.638 177.876 603.055 Q177.876 608.633 174.404 611.735 Q170.931 614.814 164.612 614.814 Q162.436 614.814 160.168 614.443 Q157.922 614.073 155.515 613.332 L155.515 608.633 Q157.598 609.767 159.82 610.323 Q162.043 610.879 164.519 610.879 Q168.524 610.879 170.862 608.772 Q173.2 606.666 173.2 603.055 Q173.2 599.443 170.862 597.337 Q168.524 595.23 164.519 595.23 Q162.644 595.23 160.769 595.647 Q158.918 596.064 156.973 596.943 L156.973 579.582 Z" fill="#000000" fill-rule="evenodd" fill-opacity="1" /><path clip-path="url(#clip040)" d="M 0 0 M76.1634 299.71 Q72.5523 299.71 70.7236 303.275 Q68.918 306.816 68.918 313.946 Q68.918 321.052 70.7236 324.617 Q72.5523 328.159 76.1634 328.159 Q79.7976 328.159 81.6031 324.617 Q83.4318 321.052 83.4318 313.946 Q83.4318 306.816 81.6031 303.275 Q79.7976 299.71 76.1634 299.71 M76.1634 296.006 Q81.9735 296.006 85.029 300.613 Q88.1077 305.196 88.1077 313.946 Q88.1077 322.673 85.029 327.279 Q81.9735 331.863 76.1634 331.863 Q70.3532 331.863 67.2745 327.279 Q64.219 322.673 64.219 313.946 Q64.219 305.196 67.2745 300.613 Q70.3532 296.006 76.1634 296.006 Z" fill="#000000" fill-rule="evenodd" fill-opacity="1" /><path clip-path="url(#clip040)" d="M 0 0 M93.1771 325.312 L98.0614 325.312 L98.0614 331.191 L93.1771 331.191 L93.1771 325.312 Z" fill="#000000" fill-rule="evenodd" fill-opacity="1" /><path clip-path="url(#clip040)" d="M 0 0 M103.941 327.256 L111.58 327.256 L111.58 300.891 L103.27 302.557 L103.27 298.298 L111.534 296.631 L116.209 296.631 L116.209 327.256 L123.848 327.256 L123.848 331.191 L103.941 331.191 L103.941 327.256 Z" fill="#000000" fill-rule="evenodd" fill-opacity="1" /><path clip-path="url(#clip040)" d="M 0 0 M138.918 299.71 Q135.307 299.71 133.478 303.275 Q131.672 306.816 131.672 313.946 Q131.672 321.052 133.478 324.617 Q135.307 328.159 138.918 328.159 Q142.552 328.159 144.357 324.617 Q146.186 321.052 146.186 313.946 Q146.186 306.816 144.357 303.275 Q142.552 299.71 138.918 299.71 M138.918 296.006 Q144.728 296.006 147.783 300.613 Q150.862 305.196 150.862 313.946 Q150.862 322.673 147.783 327.279 Q144.728 331.863 138.918 331.863 Q133.107 331.863 130.029 327.279 Q126.973 322.673 126.973 313.946 Q126.973 305.196 130.029 300.613 Q133.107 296.006 138.918 296.006 Z" fill="#000000" fill-rule="evenodd" fill-opacity="1" /><path clip-path="url(#clip040)" d="M 0 0 M165.931 299.71 Q162.32 299.71 160.492 303.275 Q158.686 306.816 158.686 313.946 Q158.686 321.052 160.492 324.617 Q162.32 328.159 165.931 328.159 Q169.566 328.159 171.371 324.617 Q173.2 321.052 173.2 313.946 Q173.2 306.816 171.371 303.275 Q169.566 299.71 165.931 299.71 M165.931 296.006 Q171.742 296.006 174.797 300.613 Q177.876 305.196 177.876 313.946 Q177.876 322.673 174.797 327.279 Q171.742 331.863 165.931 331.863 Q160.121 331.863 157.043 327.279 Q153.987 322.673 153.987 313.946 Q153.987 305.196 157.043 300.613 Q160.121 296.006 165.931 296.006 Z" fill="#000000" fill-rule="evenodd" fill-opacity="1" /><path clip-path="url(#clip042)" d="
M255.284 617.106 L255.284 1445.72 L325.831 1445.72 L325.831 617.106 L255.284 617.106 L255.284 617.106  Z
  " fill="#009af9" fill-rule="evenodd" fill-opacity="1"/>
<polyline clip-path="url(#clip042)" style="stroke:#000000; stroke-width:4; stroke-opacity:1; fill:none" points="
  255.284,617.106 255.284,1445.72 325.831,1445.72 325.831,617.106 255.284,617.106 
  "/>
<path clip-path="url(#clip042)" d="
M343.468 436.145 L343.468 1445.72 L414.015 1445.72 L414.015 436.145 L343.468 436.145 L343.468 436.145  Z
  " fill="#009af9" fill-rule="evenodd" fill-opacity="1"/>
<polyline clip-path="url(#clip042)" style="stroke:#000000; stroke-width:4; stroke-opacity:1; fill:none" points="
  343.468,436.145 343.468,1445.72 414.015,1445.72 414.015,436.145 343.468,436.145 
  "/>
<path clip-path="url(#clip042)" d="
M431.652 274.932 L431.652 1445.72 L502.199 1445.72 L502.199 274.932 L431.652 274.932 L431.652 274.932  Z
  " fill="#009af9" fill-rule="evenodd" fill-opacity="1"/>
<polyline clip-path="url(#clip042)" style="stroke:#000000; stroke-width:4; stroke-opacity:1; fill:none" points="
  431.652,274.932 431.652,1445.72 502.199,1445.72 502.199,274.932 431.652,274.932 
  "/>
<path clip-path="url(#clip042)" d="
M519.836 153.397 L519.836 1445.72 L590.383 1445.72 L590.383 153.397 L519.836 153.397 L519.836 153.397  Z
  " fill="#009af9" fill-rule="evenodd" fill-opacity="1"/>
<polyline clip-path="url(#clip042)" style="stroke:#000000; stroke-width:4; stroke-opacity:1; fill:none" points="
  519.836,153.397 519.836,1445.72 590.383,1445.72 590.383,153.397 519.836,153.397 
  "/>
<path clip-path="url(#clip042)" d="
M608.02 87.9763 L608.02 1445.72 L678.567 1445.72 L678.567 87.9763 L608.02 87.9763 L608.02 87.9763  Z
  " fill="#009af9" fill-rule="evenodd" fill-opacity="1"/>
<polyline clip-path="url(#clip042)" style="stroke:#000000; stroke-width:4; stroke-opacity:1; fill:none" points="
  608.02,87.9763 608.02,1445.72 678.567,1445.72 678.567,87.9763 608.02,87.9763 
  "/>
<path clip-path="url(#clip042)" d="
M696.204 87.9763 L696.204 1445.72 L766.751 1445.72 L766.751 87.9763 L696.204 87.9763 L696.204 87.9763  Z
  " fill="#009af9" fill-rule="evenodd" fill-opacity="1"/>
<polyline clip-path="url(#clip042)" style="stroke:#000000; stroke-width:4; stroke-opacity:1; fill:none" points="
  696.204,87.9763 696.204,1445.72 766.751,1445.72 766.751,87.9763 696.204,87.9763 
  "/>
<path clip-path="url(#clip042)" d="
M784.388 153.397 L784.388 1445.72 L854.935 1445.72 L854.935 153.397 L784.388 153.397 L784.388 153.397  Z
  " fill="#009af9" fill-rule="evenodd" fill-opacity="1"/>
<polyline clip-path="url(#clip042)" style="stroke:#000000; stroke-width:4; stroke-opacity:1; fill:none" points="
  784.388,153.397 784.388,1445.72 854.935,1445.72 854.935,153.397 784.388,153.397 
  "/>
<path clip-path="url(#clip042)" d="
M872.572 274.932 L872.572 1445.72 L943.119 1445.72 L943.119 274.932 L872.572 274.932 L872.572 274.932  Z
  " fill="#009af9" fill-rule="evenodd" fill-opacity="1"/>
<polyline clip-path="url(#clip042)" style="stroke:#000000; stroke-width:4; stroke-opacity:1; fill:none" points="
  872.572,274.932 872.572,1445.72 943.119,1445.72 943.119,274.932 872.572,274.932 
  "/>
<path clip-path="url(#clip042)" d="
M960.756 436.145 L960.756 1445.72 L1031.3 1445.72 L1031.3 436.145 L960.756 436.145 L960.756 436.145  Z
  " fill="#009af9" fill-rule="evenodd" fill-opacity="1"/>
<polyline clip-path="url(#clip042)" style="stroke:#000000; stroke-width:4; stroke-opacity:1; fill:none" points="
  960.756,436.145 960.756,1445.72 1031.3,1445.72 1031.3,436.145 960.756,436.145 
  "/>
<path clip-path="url(#clip042)" d="
M1048.94 617.106 L1048.94 1445.72 L1119.49 1445.72 L1119.49 617.106 L1048.94 617.106 L1048.94 617.106  Z
  " fill="#009af9" fill-rule="evenodd" fill-opacity="1"/>
<polyline clip-path="url(#clip042)" style="stroke:#000000; stroke-width:4; stroke-opacity:1; fill:none" points="
  1048.94,617.106 1048.94,1445.72 1119.49,1445.72 1119.49,617.106 1048.94,617.106 
  "/>
<path clip-path="url(#clip040)" d="
M699.536 216.178 L1140.53 216.178 L1140.53 95.2176 L699.536 95.2176  Z
  " fill="#ffffff" fill-rule="evenodd" fill-opacity="1"/>
<polyline clip-path="url(#clip040)" style="stroke:#000000; stroke-width:4; stroke-opacity:1; fill:none" points="
  699.536,216.178 1140.53,216.178 1140.53,95.2176 699.536,95.2176 699.536,216.178 
  "/>
<path clip-path="url(#clip040)" d="
M710.325 179.89 L775.06 179.89 L775.06 131.506 L710.325 131.506 L710.325 179.89  Z
  " fill="#009af9" fill-rule="evenodd" fill-opacity="1"/>
<polyline clip-path="url(#clip040)" style="stroke:#000000; stroke-width:4; stroke-opacity:1; fill:none" points="
  710.325,179.89 775.06,179.89 775.06,131.506 710.325,131.506 710.325,179.89 
  "/>
<path clip-path="url(#clip040)" d="M 0 0 M785.849 138.418 L792.817 138.418 L801.636 161.936 L810.502 138.418 L817.469 138.418 L817.469 172.978 L812.909 172.978 L812.909 142.63 L803.997 166.334 L799.298 166.334 L790.386 142.63 L790.386 172.978 L785.849 172.978 L785.849 138.418 Z" fill="#000000" fill-rule="evenodd" fill-opacity="1" /><path clip-path="url(#clip040)" d="M 0 0 M833.719 159.945 Q828.557 159.945 826.566 161.126 Q824.576 162.306 824.576 165.154 Q824.576 167.422 826.057 168.765 Q827.562 170.084 830.131 170.084 Q833.673 170.084 835.803 167.584 Q837.955 165.061 837.955 160.894 L837.955 159.945 L833.719 159.945 M842.215 158.186 L842.215 172.978 L837.955 172.978 L837.955 169.042 Q836.497 171.403 834.321 172.538 Q832.145 173.649 828.997 173.649 Q825.016 173.649 822.654 171.427 Q820.317 169.181 820.317 165.431 Q820.317 161.056 823.233 158.834 Q826.173 156.612 831.983 156.612 L837.955 156.612 L837.955 156.195 Q837.955 153.255 836.011 151.658 Q834.09 150.038 830.594 150.038 Q828.372 150.038 826.266 150.57 Q824.159 151.103 822.215 152.167 L822.215 148.232 Q824.553 147.33 826.752 146.89 Q828.951 146.427 831.034 146.427 Q836.659 146.427 839.437 149.343 Q842.215 152.26 842.215 158.186 Z" fill="#000000" fill-rule="evenodd" fill-opacity="1" /><path clip-path="url(#clip040)" d="M 0 0 M863.21 147.816 L863.21 151.843 Q861.404 150.917 859.46 150.455 Q857.515 149.992 855.432 149.992 Q852.261 149.992 850.664 150.964 Q849.09 151.936 849.09 153.88 Q849.09 155.362 850.224 156.218 Q851.358 157.052 854.784 157.816 L856.242 158.14 Q860.779 159.112 862.677 160.894 Q864.599 162.654 864.599 165.825 Q864.599 169.436 861.728 171.542 Q858.881 173.649 853.881 173.649 Q851.798 173.649 849.529 173.232 Q847.284 172.839 844.784 172.028 L844.784 167.63 Q847.145 168.857 849.437 169.482 Q851.728 170.084 853.974 170.084 Q856.983 170.084 858.603 169.066 Q860.224 168.024 860.224 166.149 Q860.224 164.413 859.043 163.487 Q857.886 162.561 853.927 161.704 L852.446 161.357 Q848.488 160.524 846.728 158.811 Q844.969 157.075 844.969 154.066 Q844.969 150.408 847.562 148.418 Q850.154 146.427 854.923 146.427 Q857.284 146.427 859.367 146.774 Q861.451 147.121 863.21 147.816 Z" fill="#000000" fill-rule="evenodd" fill-opacity="1" /><path clip-path="url(#clip040)" d="M 0 0 M885.594 147.816 L885.594 151.843 Q883.788 150.917 881.844 150.455 Q879.9 149.992 877.816 149.992 Q874.645 149.992 873.048 150.964 Q871.474 151.936 871.474 153.88 Q871.474 155.362 872.608 156.218 Q873.742 157.052 877.168 157.816 L878.626 158.14 Q883.163 159.112 885.062 160.894 Q886.983 162.654 886.983 165.825 Q886.983 169.436 884.112 171.542 Q881.265 173.649 876.265 173.649 Q874.182 173.649 871.913 173.232 Q869.668 172.839 867.168 172.028 L867.168 167.63 Q869.529 168.857 871.821 169.482 Q874.113 170.084 876.358 170.084 Q879.367 170.084 880.988 169.066 Q882.608 168.024 882.608 166.149 Q882.608 164.413 881.427 163.487 Q880.27 162.561 876.312 161.704 L874.83 161.357 Q870.872 160.524 869.113 158.811 Q867.353 157.075 867.353 154.066 Q867.353 150.408 869.946 148.418 Q872.538 146.427 877.307 146.427 Q879.668 146.427 881.751 146.774 Q883.835 147.121 885.594 147.816 Z" fill="#000000" fill-rule="evenodd" fill-opacity="1" /><path clip-path="url(#clip040)" d="M 0 0 M910.733 139.691 L910.733 147.052 L919.506 147.052 L919.506 150.362 L910.733 150.362 L910.733 164.436 Q910.733 167.607 911.589 168.51 Q912.469 169.413 915.131 169.413 L919.506 169.413 L919.506 172.978 L915.131 172.978 Q910.2 172.978 908.325 171.149 Q906.45 169.297 906.45 164.436 L906.45 150.362 L903.325 150.362 L903.325 147.052 L906.45 147.052 L906.45 139.691 L910.733 139.691 Z" fill="#000000" fill-rule="evenodd" fill-opacity="1" /><path clip-path="url(#clip040)" d="M 0 0 M938.996 151.033 Q938.279 150.617 937.422 150.431 Q936.589 150.223 935.571 150.223 Q931.959 150.223 930.015 152.584 Q928.094 154.922 928.094 159.32 L928.094 172.978 L923.811 172.978 L923.811 147.052 L928.094 147.052 L928.094 151.08 Q929.436 148.718 931.589 147.584 Q933.742 146.427 936.821 146.427 Q937.26 146.427 937.793 146.496 Q938.325 146.543 938.973 146.658 L938.996 151.033 Z" fill="#000000" fill-rule="evenodd" fill-opacity="1" /><path clip-path="url(#clip040)" d="M 0 0 M943.024 162.746 L943.024 147.052 L947.283 147.052 L947.283 162.584 Q947.283 166.265 948.719 168.116 Q950.154 169.945 953.024 169.945 Q956.473 169.945 958.464 167.746 Q960.478 165.547 960.478 161.751 L960.478 147.052 L964.737 147.052 L964.737 172.978 L960.478 172.978 L960.478 168.996 Q958.927 171.357 956.867 172.515 Q954.83 173.649 952.121 173.649 Q947.654 173.649 945.339 170.871 Q943.024 168.093 943.024 162.746 M953.742 146.427 L953.742 146.427 Z" fill="#000000" fill-rule="evenodd" fill-opacity="1" /><path clip-path="url(#clip040)" d="M 0 0 M991.38 158.95 L991.38 161.033 L971.797 161.033 Q972.075 165.431 974.436 167.746 Q976.82 170.038 981.056 170.038 Q983.51 170.038 985.802 169.436 Q988.117 168.834 990.385 167.63 L990.385 171.658 Q988.093 172.63 985.686 173.14 Q983.279 173.649 980.802 173.649 Q974.598 173.649 970.964 170.038 Q967.353 166.427 967.353 160.269 Q967.353 153.904 970.779 150.177 Q974.228 146.427 980.061 146.427 Q985.292 146.427 988.325 149.806 Q991.38 153.163 991.38 158.95 M987.121 157.7 Q987.075 154.205 985.154 152.121 Q983.255 150.038 980.107 150.038 Q976.543 150.038 974.39 152.052 Q972.26 154.066 971.936 157.723 L987.121 157.7 Z" fill="#000000" fill-rule="evenodd" fill-opacity="1" /><path clip-path="url(#clip040)" d="M 0 0 M1007.86 147.052 L1012.38 147.052 L1020.48 168.811 L1028.58 147.052 L1033.09 147.052 L1023.37 172.978 L1017.58 172.978 L1007.86 147.052 Z" fill="#000000" fill-rule="evenodd" fill-opacity="1" /><path clip-path="url(#clip040)" d="M 0 0 M1049.34 159.945 Q1044.18 159.945 1042.19 161.126 Q1040.2 162.306 1040.2 165.154 Q1040.2 167.422 1041.68 168.765 Q1043.19 170.084 1045.76 170.084 Q1049.3 170.084 1051.43 167.584 Q1053.58 165.061 1053.58 160.894 L1053.58 159.945 L1049.34 159.945 M1057.84 158.186 L1057.84 172.978 L1053.58 172.978 L1053.58 169.042 Q1052.12 171.403 1049.94 172.538 Q1047.77 173.649 1044.62 173.649 Q1040.64 173.649 1038.28 171.427 Q1035.94 169.181 1035.94 165.431 Q1035.94 161.056 1038.86 158.834 Q1041.8 156.612 1047.61 156.612 L1053.58 156.612 L1053.58 156.195 Q1053.58 153.255 1051.63 151.658 Q1049.71 150.038 1046.22 150.038 Q1044 150.038 1041.89 150.57 Q1039.78 151.103 1037.84 152.167 L1037.84 148.232 Q1040.18 147.33 1042.38 146.89 Q1044.57 146.427 1046.66 146.427 Q1052.28 146.427 1055.06 149.343 Q1057.84 152.26 1057.84 158.186 Z" fill="#000000" fill-rule="evenodd" fill-opacity="1" /><path clip-path="url(#clip040)" d="M 0 0 M1062.31 136.959 L1066.57 136.959 L1066.57 172.978 L1062.31 172.978 L1062.31 136.959 Z" fill="#000000" fill-rule="evenodd" fill-opacity="1" /><path clip-path="url(#clip040)" d="M 0 0 M1070.59 162.746 L1070.59 147.052 L1074.85 147.052 L1074.85 162.584 Q1074.85 166.265 1076.29 168.116 Q1077.72 169.945 1080.59 169.945 Q1084.04 169.945 1086.03 167.746 Q1088.05 165.547 1088.05 161.751 L1088.05 147.052 L1092.31 147.052 L1092.31 172.978 L1088.05 172.978 L1088.05 168.996 Q1086.5 171.357 1084.44 172.515 Q1082.4 173.649 1079.69 173.649 Q1075.22 173.649 1072.91 170.871 Q1070.59 168.093 1070.59 162.746 M1081.31 146.427 L1081.31 146.427 Z" fill="#000000" fill-rule="evenodd" fill-opacity="1" /><path clip-path="url(#clip040)" d="M 0 0 M1118.95 158.95 L1118.95 161.033 L1099.37 161.033 Q1099.64 165.431 1102 167.746 Q1104.39 170.038 1108.63 170.038 Q1111.08 170.038 1113.37 169.436 Q1115.69 168.834 1117.95 167.63 L1117.95 171.658 Q1115.66 172.63 1113.25 173.14 Q1110.85 173.649 1108.37 173.649 Q1102.17 173.649 1098.53 170.038 Q1094.92 166.427 1094.92 160.269 Q1094.92 153.904 1098.35 150.177 Q1101.8 146.427 1107.63 146.427 Q1112.86 146.427 1115.89 149.806 Q1118.95 153.163 1118.95 158.95 M1114.69 157.7 Q1114.64 154.205 1112.72 152.121 Q1110.82 150.038 1107.68 150.038 Q1104.11 150.038 1101.96 152.052 Q1099.83 154.066 1099.5 157.723 L1114.69 157.7 Z" fill="#000000" fill-rule="evenodd" fill-opacity="1" /><path clip-path="url(#clip040)" d="
M1381.74 1486.45 L2352.76 1486.45 L2352.76 47.2441 L1381.74 47.2441  Z
  " fill="#ffffff" fill-rule="evenodd" fill-opacity="1"/>
<defs>
  <clipPath id="clip043">
    <rect x="1381" y="47" width="972" height="1440"/>
  </clipPath>
</defs>
<polyline clip-path="url(#clip043)" style="stroke:#000000; stroke-width:2; stroke-opacity:0.1; fill:none" points="
  1435.14,1486.45 1435.14,47.2441 
  "/>
<polyline clip-path="url(#clip043)" style="stroke:#000000; stroke-width:2; stroke-opacity:0.1; fill:none" points="
  1651.2,1486.45 1651.2,47.2441 
  "/>
<polyline clip-path="url(#clip043)" style="stroke:#000000; stroke-width:2; stroke-opacity:0.1; fill:none" points="
  1867.25,1486.45 1867.25,47.2441 
  "/>
<polyline clip-path="url(#clip043)" style="stroke:#000000; stroke-width:2; stroke-opacity:0.1; fill:none" points="
  2083.3,1486.45 2083.3,47.2441 
  "/>
<polyline clip-path="url(#clip043)" style="stroke:#000000; stroke-width:2; stroke-opacity:0.1; fill:none" points="
  2299.35,1486.45 2299.35,47.2441 
  "/>
<polyline clip-path="url(#clip043)" style="stroke:#000000; stroke-width:2; stroke-opacity:0.1; fill:none" points="
  1381.74,1445.72 2352.76,1445.72 
  "/>
<polyline clip-path="url(#clip043)" style="stroke:#000000; stroke-width:2; stroke-opacity:0.1; fill:none" points="
  1381.74,1240 2352.76,1240 
  "/>
<polyline clip-path="url(#clip043)" style="stroke:#000000; stroke-width:2; stroke-opacity:0.1; fill:none" points="
  1381.74,1034.28 2352.76,1034.28 
  "/>
<polyline clip-path="url(#clip043)" style="stroke:#000000; stroke-width:2; stroke-opacity:0.1; fill:none" points="
  1381.74,828.561 2352.76,828.561 
  "/>
<polyline clip-path="url(#clip043)" style="stroke:#000000; stroke-width:2; stroke-opacity:0.1; fill:none" points="
  1381.74,622.843 2352.76,622.843 
  "/>
<polyline clip-path="url(#clip043)" style="stroke:#000000; stroke-width:2; stroke-opacity:0.1; fill:none" points="
  1381.74,417.125 2352.76,417.125 
  "/>
<polyline clip-path="url(#clip043)" style="stroke:#000000; stroke-width:2; stroke-opacity:0.1; fill:none" points="
  1381.74,211.407 2352.76,211.407 
  "/>
<polyline clip-path="url(#clip040)" style="stroke:#000000; stroke-width:4; stroke-opacity:1; fill:none" points="
  1381.74,1486.45 2352.76,1486.45 
  "/>
<polyline clip-path="url(#clip040)" style="stroke:#000000; stroke-width:4; stroke-opacity:1; fill:none" points="
  1381.74,1486.45 1381.74,47.2441 
  "/>
<polyline clip-path="url(#clip040)" style="stroke:#000000; stroke-width:4; stroke-opacity:1; fill:none" points="
  1435.14,1486.45 1435.14,1469.18 
  "/>
<polyline clip-path="url(#clip040)" style="stroke:#000000; stroke-width:4; stroke-opacity:1; fill:none" points="
  1651.2,1486.45 1651.2,1469.18 
  "/>
<polyline clip-path="url(#clip040)" style="stroke:#000000; stroke-width:4; stroke-opacity:1; fill:none" points="
  1867.25,1486.45 1867.25,1469.18 
  "/>
<polyline clip-path="url(#clip040)" style="stroke:#000000; stroke-width:4; stroke-opacity:1; fill:none" points="
  2083.3,1486.45 2083.3,1469.18 
  "/>
<polyline clip-path="url(#clip040)" style="stroke:#000000; stroke-width:4; stroke-opacity:1; fill:none" points="
  2299.35,1486.45 2299.35,1469.18 
  "/>
<polyline clip-path="url(#clip040)" style="stroke:#000000; stroke-width:4; stroke-opacity:1; fill:none" points="
  1381.74,1445.72 1393.39,1445.72 
  "/>
<polyline clip-path="url(#clip040)" style="stroke:#000000; stroke-width:4; stroke-opacity:1; fill:none" points="
  1381.74,1240 1393.39,1240 
  "/>
<polyline clip-path="url(#clip040)" style="stroke:#000000; stroke-width:4; stroke-opacity:1; fill:none" points="
  1381.74,1034.28 1393.39,1034.28 
  "/>
<polyline clip-path="url(#clip040)" style="stroke:#000000; stroke-width:4; stroke-opacity:1; fill:none" points="
  1381.74,828.561 1393.39,828.561 
  "/>
<polyline clip-path="url(#clip040)" style="stroke:#000000; stroke-width:4; stroke-opacity:1; fill:none" points="
  1381.74,622.843 1393.39,622.843 
  "/>
<polyline clip-path="url(#clip040)" style="stroke:#000000; stroke-width:4; stroke-opacity:1; fill:none" points="
  1381.74,417.125 1393.39,417.125 
  "/>
<polyline clip-path="url(#clip040)" style="stroke:#000000; stroke-width:4; stroke-opacity:1; fill:none" points="
  1381.74,211.407 1393.39,211.407 
  "/>
<path clip-path="url(#clip040)" d="M 0 0 M1407.04 1535.98 L1414.68 1535.98 L1414.68 1509.62 L1406.37 1511.29 L1406.37 1507.03 L1414.64 1505.36 L1419.31 1505.36 L1419.31 1535.98 L1426.95 1535.98 L1426.95 1539.92 L1407.04 1539.92 L1407.04 1535.98 Z" fill="#000000" fill-rule="evenodd" fill-opacity="1" /><path clip-path="url(#clip040)" d="M 0 0 M1432.02 1534.04 L1436.9 1534.04 L1436.9 1539.92 L1432.02 1539.92 L1432.02 1534.04 Z" fill="#000000" fill-rule="evenodd" fill-opacity="1" /><path clip-path="url(#clip040)" d="M 0 0 M1451.97 1508.44 Q1448.36 1508.44 1446.53 1512 Q1444.73 1515.55 1444.73 1522.67 Q1444.73 1529.78 1446.53 1533.35 Q1448.36 1536.89 1451.97 1536.89 Q1455.61 1536.89 1457.41 1533.35 Q1459.24 1529.78 1459.24 1522.67 Q1459.24 1515.55 1457.41 1512 Q1455.61 1508.44 1451.97 1508.44 M1451.97 1504.73 Q1457.78 1504.73 1460.84 1509.34 Q1463.92 1513.92 1463.92 1522.67 Q1463.92 1531.4 1460.84 1536.01 Q1457.78 1540.59 1451.97 1540.59 Q1446.16 1540.59 1443.08 1536.01 Q1440.03 1531.4 1440.03 1522.67 Q1440.03 1513.92 1443.08 1509.34 Q1446.16 1504.73 1451.97 1504.73 Z" fill="#000000" fill-rule="evenodd" fill-opacity="1" /><path clip-path="url(#clip040)" d="M 0 0 M1623.59 1535.98 L1631.23 1535.98 L1631.23 1509.62 L1622.92 1511.29 L1622.92 1507.03 L1631.18 1505.36 L1635.86 1505.36 L1635.86 1535.98 L1643.5 1535.98 L1643.5 1539.92 L1623.59 1539.92 L1623.59 1535.98 Z" fill="#000000" fill-rule="evenodd" fill-opacity="1" /><path clip-path="url(#clip040)" d="M 0 0 M1648.57 1534.04 L1653.45 1534.04 L1653.45 1539.92 L1648.57 1539.92 L1648.57 1534.04 Z" fill="#000000" fill-rule="evenodd" fill-opacity="1" /><path clip-path="url(#clip040)" d="M 0 0 M1658.57 1505.36 L1676.92 1505.36 L1676.92 1509.3 L1662.85 1509.3 L1662.85 1517.77 Q1663.87 1517.42 1664.89 1517.26 Q1665.91 1517.07 1666.92 1517.07 Q1672.71 1517.07 1676.09 1520.24 Q1679.47 1523.42 1679.47 1528.83 Q1679.47 1534.41 1676 1537.51 Q1672.53 1540.59 1666.21 1540.59 Q1664.03 1540.59 1661.76 1540.22 Q1659.52 1539.85 1657.11 1539.11 L1657.11 1534.41 Q1659.19 1535.54 1661.42 1536.1 Q1663.64 1536.66 1666.11 1536.66 Q1670.12 1536.66 1672.46 1534.55 Q1674.8 1532.44 1674.8 1528.83 Q1674.8 1525.22 1672.46 1523.11 Q1670.12 1521.01 1666.11 1521.01 Q1664.24 1521.01 1662.36 1521.42 Q1660.51 1521.84 1658.57 1522.72 L1658.57 1505.36 Z" fill="#000000" fill-rule="evenodd" fill-opacity="1" /><path clip-path="url(#clip040)" d="M 0 0 M1843.42 1535.98 L1859.73 1535.98 L1859.73 1539.92 L1837.79 1539.92 L1837.79 1535.98 Q1840.45 1533.23 1845.04 1528.6 Q1849.64 1523.95 1850.82 1522.61 Q1853.07 1520.08 1853.95 1518.35 Q1854.85 1516.59 1854.85 1514.9 Q1854.85 1512.14 1852.91 1510.41 Q1850.98 1508.67 1847.88 1508.67 Q1845.68 1508.67 1843.23 1509.43 Q1840.8 1510.2 1838.02 1511.75 L1838.02 1507.03 Q1840.85 1505.89 1843.3 1505.31 Q1845.75 1504.73 1847.79 1504.73 Q1853.16 1504.73 1856.36 1507.42 Q1859.55 1510.11 1859.55 1514.6 Q1859.55 1516.73 1858.74 1518.65 Q1857.95 1520.54 1855.85 1523.14 Q1855.27 1523.81 1852.17 1527.03 Q1849.06 1530.22 1843.42 1535.98 Z" fill="#000000" fill-rule="evenodd" fill-opacity="1" /><path clip-path="url(#clip040)" d="M 0 0 M1864.8 1534.04 L1869.69 1534.04 L1869.69 1539.92 L1864.8 1539.92 L1864.8 1534.04 Z" fill="#000000" fill-rule="evenodd" fill-opacity="1" /><path clip-path="url(#clip040)" d="M 0 0 M1884.76 1508.44 Q1881.15 1508.44 1879.32 1512 Q1877.51 1515.55 1877.51 1522.67 Q1877.51 1529.78 1879.32 1533.35 Q1881.15 1536.89 1884.76 1536.89 Q1888.39 1536.89 1890.2 1533.35 Q1892.03 1529.78 1892.03 1522.67 Q1892.03 1515.55 1890.2 1512 Q1888.39 1508.44 1884.76 1508.44 M1884.76 1504.73 Q1890.57 1504.73 1893.62 1509.34 Q1896.7 1513.92 1896.7 1522.67 Q1896.7 1531.4 1893.62 1536.01 Q1890.57 1540.59 1884.76 1540.59 Q1878.95 1540.59 1875.87 1536.01 Q1872.81 1531.4 1872.81 1522.67 Q1872.81 1513.92 1875.87 1509.34 Q1878.95 1504.73 1884.76 1504.73 Z" fill="#000000" fill-rule="evenodd" fill-opacity="1" /><path clip-path="url(#clip040)" d="M 0 0 M2059.96 1535.98 L2076.28 1535.98 L2076.28 1539.92 L2054.34 1539.92 L2054.34 1535.98 Q2057 1533.23 2061.58 1528.6 Q2066.19 1523.95 2067.37 1522.61 Q2069.62 1520.08 2070.5 1518.35 Q2071.4 1516.59 2071.4 1514.9 Q2071.4 1512.14 2069.45 1510.41 Q2067.53 1508.67 2064.43 1508.67 Q2062.23 1508.67 2059.78 1509.43 Q2057.35 1510.2 2054.57 1511.75 L2054.57 1507.03 Q2057.39 1505.89 2059.85 1505.31 Q2062.3 1504.73 2064.34 1504.73 Q2069.71 1504.73 2072.9 1507.42 Q2076.1 1510.11 2076.1 1514.6 Q2076.1 1516.73 2075.29 1518.65 Q2074.5 1520.54 2072.39 1523.14 Q2071.82 1523.81 2068.71 1527.03 Q2065.61 1530.22 2059.96 1535.98 Z" fill="#000000" fill-rule="evenodd" fill-opacity="1" /><path clip-path="url(#clip040)" d="M 0 0 M2081.35 1534.04 L2086.24 1534.04 L2086.24 1539.92 L2081.35 1539.92 L2081.35 1534.04 Z" fill="#000000" fill-rule="evenodd" fill-opacity="1" /><path clip-path="url(#clip040)" d="M 0 0 M2091.35 1505.36 L2109.71 1505.36 L2109.71 1509.3 L2095.64 1509.3 L2095.64 1517.77 Q2096.65 1517.42 2097.67 1517.26 Q2098.69 1517.07 2099.71 1517.07 Q2105.5 1517.07 2108.88 1520.24 Q2112.26 1523.42 2112.26 1528.83 Q2112.26 1534.41 2108.78 1537.51 Q2105.31 1540.59 2098.99 1540.59 Q2096.82 1540.59 2094.55 1540.22 Q2092.3 1539.85 2089.89 1539.11 L2089.89 1534.41 Q2091.98 1535.54 2094.2 1536.1 Q2096.42 1536.66 2098.9 1536.66 Q2102.9 1536.66 2105.24 1534.55 Q2107.58 1532.44 2107.58 1528.83 Q2107.58 1525.22 2105.24 1523.11 Q2102.9 1521.01 2098.9 1521.01 Q2097.02 1521.01 2095.15 1521.42 Q2093.3 1521.84 2091.35 1522.72 L2091.35 1505.36 Z" fill="#000000" fill-rule="evenodd" fill-opacity="1" /><path clip-path="url(#clip040)" d="M 0 0 M2285.11 1521.29 Q2288.47 1522 2290.34 1524.27 Q2292.24 1526.54 2292.24 1529.87 Q2292.24 1534.99 2288.72 1537.79 Q2285.2 1540.59 2278.72 1540.59 Q2276.55 1540.59 2274.23 1540.15 Q2271.94 1539.73 2269.49 1538.88 L2269.49 1534.36 Q2271.43 1535.5 2273.75 1536.08 Q2276.06 1536.66 2278.58 1536.66 Q2282.98 1536.66 2285.27 1534.92 Q2287.59 1533.18 2287.59 1529.87 Q2287.59 1526.82 2285.44 1525.11 Q2283.31 1523.37 2279.49 1523.37 L2275.46 1523.37 L2275.46 1519.53 L2279.67 1519.53 Q2283.12 1519.53 2284.95 1518.16 Q2286.78 1516.77 2286.78 1514.18 Q2286.78 1511.52 2284.88 1510.11 Q2283.01 1508.67 2279.49 1508.67 Q2277.57 1508.67 2275.37 1509.09 Q2273.17 1509.5 2270.53 1510.38 L2270.53 1506.22 Q2273.19 1505.48 2275.51 1505.11 Q2277.84 1504.73 2279.9 1504.73 Q2285.23 1504.73 2288.33 1507.17 Q2291.43 1509.57 2291.43 1513.69 Q2291.43 1516.56 2289.79 1518.55 Q2288.14 1520.52 2285.11 1521.29 Z" fill="#000000" fill-rule="evenodd" fill-opacity="1" /><path clip-path="url(#clip040)" d="M 0 0 M2297.31 1534.04 L2302.2 1534.04 L2302.2 1539.92 L2297.31 1539.92 L2297.31 1534.04 Z" fill="#000000" fill-rule="evenodd" fill-opacity="1" /><path clip-path="url(#clip040)" d="M 0 0 M2317.26 1508.44 Q2313.65 1508.44 2311.82 1512 Q2310.02 1515.55 2310.02 1522.67 Q2310.02 1529.78 2311.82 1533.35 Q2313.65 1536.89 2317.26 1536.89 Q2320.9 1536.89 2322.7 1533.35 Q2324.53 1529.78 2324.53 1522.67 Q2324.53 1515.55 2322.7 1512 Q2320.9 1508.44 2317.26 1508.44 M2317.26 1504.73 Q2323.07 1504.73 2326.13 1509.34 Q2329.21 1513.92 2329.21 1522.67 Q2329.21 1531.4 2326.13 1536.01 Q2323.07 1540.59 2317.26 1540.59 Q2311.45 1540.59 2308.38 1536.01 Q2305.32 1531.4 2305.32 1522.67 Q2305.32 1513.92 2308.38 1509.34 Q2311.45 1504.73 2317.26 1504.73 Z" fill="#000000" fill-rule="evenodd" fill-opacity="1" /><path clip-path="url(#clip040)" d="M 0 0 M1345.79 1431.51 Q1342.18 1431.51 1340.35 1435.08 Q1338.55 1438.62 1338.55 1445.75 Q1338.55 1452.86 1340.35 1456.42 Q1342.18 1459.96 1345.79 1459.96 Q1349.43 1459.96 1351.23 1456.42 Q1353.06 1452.86 1353.06 1445.75 Q1353.06 1438.62 1351.23 1435.08 Q1349.43 1431.51 1345.79 1431.51 M1345.79 1427.81 Q1351.6 1427.81 1354.66 1432.42 Q1357.74 1437 1357.74 1445.75 Q1357.74 1454.48 1354.66 1459.08 Q1351.6 1463.67 1345.79 1463.67 Q1339.98 1463.67 1336.9 1459.08 Q1333.85 1454.48 1333.85 1445.75 Q1333.85 1437 1336.9 1432.42 Q1339.98 1427.81 1345.79 1427.81 Z" fill="#000000" fill-rule="evenodd" fill-opacity="1" /><path clip-path="url(#clip040)" d="M 0 0 M1314.4 1253.34 L1330.72 1253.34 L1330.72 1257.28 L1308.78 1257.28 L1308.78 1253.34 Q1311.44 1250.59 1316.02 1245.96 Q1320.63 1241.31 1321.81 1239.96 Q1324.06 1237.44 1324.94 1235.7 Q1325.84 1233.94 1325.84 1232.25 Q1325.84 1229.5 1323.89 1227.76 Q1321.97 1226.03 1318.87 1226.03 Q1316.67 1226.03 1314.22 1226.79 Q1311.79 1227.56 1309.01 1229.11 L1309.01 1224.38 Q1311.83 1223.25 1314.29 1222.67 Q1316.74 1222.09 1318.78 1222.09 Q1324.15 1222.09 1327.34 1224.78 Q1330.54 1227.46 1330.54 1231.95 Q1330.54 1234.08 1329.73 1236 Q1328.94 1237.9 1326.83 1240.5 Q1326.26 1241.17 1323.15 1244.38 Q1320.05 1247.58 1314.4 1253.34 Z" fill="#000000" fill-rule="evenodd" fill-opacity="1" /><path clip-path="url(#clip040)" d="M 0 0 M1345.79 1225.8 Q1342.18 1225.8 1340.35 1229.36 Q1338.55 1232.9 1338.55 1240.03 Q1338.55 1247.14 1340.35 1250.7 Q1342.18 1254.25 1345.79 1254.25 Q1349.43 1254.25 1351.23 1250.7 Q1353.06 1247.14 1353.06 1240.03 Q1353.06 1232.9 1351.23 1229.36 Q1349.43 1225.8 1345.79 1225.8 M1345.79 1222.09 Q1351.6 1222.09 1354.66 1226.7 Q1357.74 1231.28 1357.74 1240.03 Q1357.74 1248.76 1354.66 1253.37 Q1351.6 1257.95 1345.79 1257.95 Q1339.98 1257.95 1336.9 1253.37 Q1333.85 1248.76 1333.85 1240.03 Q1333.85 1231.28 1336.9 1226.7 Q1339.98 1222.09 1345.79 1222.09 Z" fill="#000000" fill-rule="evenodd" fill-opacity="1" /><path clip-path="url(#clip040)" d="M 0 0 M1321.14 1021.07 L1309.33 1039.52 L1321.14 1039.52 L1321.14 1021.07 M1319.91 1017 L1325.79 1017 L1325.79 1039.52 L1330.72 1039.52 L1330.72 1043.41 L1325.79 1043.41 L1325.79 1051.56 L1321.14 1051.56 L1321.14 1043.41 L1305.54 1043.41 L1305.54 1038.9 L1319.91 1017 Z" fill="#000000" fill-rule="evenodd" fill-opacity="1" /><path clip-path="url(#clip040)" d="M 0 0 M1345.79 1020.08 Q1342.18 1020.08 1340.35 1023.64 Q1338.55 1027.18 1338.55 1034.31 Q1338.55 1041.42 1340.35 1044.99 Q1342.18 1048.53 1345.79 1048.53 Q1349.43 1048.53 1351.23 1044.99 Q1353.06 1041.42 1353.06 1034.31 Q1353.06 1027.18 1351.23 1023.64 Q1349.43 1020.08 1345.79 1020.08 M1345.79 1016.37 Q1351.6 1016.37 1354.66 1020.98 Q1357.74 1025.56 1357.74 1034.31 Q1357.74 1043.04 1354.66 1047.65 Q1351.6 1052.23 1345.79 1052.23 Q1339.98 1052.23 1336.9 1047.65 Q1333.85 1043.04 1333.85 1034.31 Q1333.85 1025.56 1336.9 1020.98 Q1339.98 1016.37 1345.79 1016.37 Z" fill="#000000" fill-rule="evenodd" fill-opacity="1" /><path clip-path="url(#clip040)" d="M 0 0 M1319.2 826.698 Q1316.05 826.698 1314.2 828.851 Q1312.37 831.004 1312.37 834.754 Q1312.37 838.48 1314.2 840.656 Q1316.05 842.809 1319.2 842.809 Q1322.34 842.809 1324.17 840.656 Q1326.02 838.48 1326.02 834.754 Q1326.02 831.004 1324.17 828.851 Q1322.34 826.698 1319.2 826.698 M1328.48 812.045 L1328.48 816.305 Q1326.72 815.471 1324.91 815.031 Q1323.13 814.592 1321.37 814.592 Q1316.74 814.592 1314.29 817.717 Q1311.86 820.842 1311.51 827.161 Q1312.88 825.147 1314.94 824.082 Q1317 822.994 1319.47 822.994 Q1324.68 822.994 1327.69 826.166 Q1330.72 829.314 1330.72 834.754 Q1330.72 840.078 1327.58 843.295 Q1324.43 846.513 1319.2 846.513 Q1313.2 846.513 1310.03 841.929 Q1306.86 837.323 1306.86 828.596 Q1306.86 820.402 1310.75 815.541 Q1314.64 810.656 1321.19 810.656 Q1322.95 810.656 1324.73 811.004 Q1326.53 811.351 1328.48 812.045 Z" fill="#000000" fill-rule="evenodd" fill-opacity="1" /><path clip-path="url(#clip040)" d="M 0 0 M1345.79 814.36 Q1342.18 814.36 1340.35 817.925 Q1338.55 821.467 1338.55 828.596 Q1338.55 835.703 1340.35 839.267 Q1342.18 842.809 1345.79 842.809 Q1349.43 842.809 1351.23 839.267 Q1353.06 835.703 1353.06 828.596 Q1353.06 821.467 1351.23 817.925 Q1349.43 814.36 1345.79 814.36 M1345.79 810.656 Q1351.6 810.656 1354.66 815.263 Q1357.74 819.846 1357.74 828.596 Q1357.74 837.323 1354.66 841.929 Q1351.6 846.513 1345.79 846.513 Q1339.98 846.513 1336.9 841.929 Q1333.85 837.323 1333.85 828.596 Q1333.85 819.846 1336.9 815.263 Q1339.98 810.656 1345.79 810.656 Z" fill="#000000" fill-rule="evenodd" fill-opacity="1" /><path clip-path="url(#clip040)" d="M 0 0 M1318.87 623.711 Q1315.54 623.711 1313.62 625.494 Q1311.72 627.276 1311.72 630.401 Q1311.72 633.526 1313.62 635.309 Q1315.54 637.091 1318.87 637.091 Q1322.2 637.091 1324.13 635.309 Q1326.05 633.503 1326.05 630.401 Q1326.05 627.276 1324.13 625.494 Q1322.23 623.711 1318.87 623.711 M1314.2 621.721 Q1311.19 620.98 1309.5 618.92 Q1307.83 616.86 1307.83 613.897 Q1307.83 609.753 1310.77 607.346 Q1313.73 604.938 1318.87 604.938 Q1324.03 604.938 1326.97 607.346 Q1329.91 609.753 1329.91 613.897 Q1329.91 616.86 1328.22 618.92 Q1326.56 620.98 1323.57 621.721 Q1326.95 622.508 1328.83 624.799 Q1330.72 627.091 1330.72 630.401 Q1330.72 635.424 1327.64 638.109 Q1324.59 640.795 1318.87 640.795 Q1313.15 640.795 1310.08 638.109 Q1307.02 635.424 1307.02 630.401 Q1307.02 627.091 1308.92 624.799 Q1310.82 622.508 1314.2 621.721 M1312.48 614.336 Q1312.48 617.022 1314.15 618.526 Q1315.84 620.031 1318.87 620.031 Q1321.88 620.031 1323.57 618.526 Q1325.28 617.022 1325.28 614.336 Q1325.28 611.651 1323.57 610.147 Q1321.88 608.642 1318.87 608.642 Q1315.84 608.642 1314.15 610.147 Q1312.48 611.651 1312.48 614.336 Z" fill="#000000" fill-rule="evenodd" fill-opacity="1" /><path clip-path="url(#clip040)" d="M 0 0 M1345.79 608.642 Q1342.18 608.642 1340.35 612.207 Q1338.55 615.748 1338.55 622.878 Q1338.55 629.984 1340.35 633.549 Q1342.18 637.091 1345.79 637.091 Q1349.43 637.091 1351.23 633.549 Q1353.06 629.984 1353.06 622.878 Q1353.06 615.748 1351.23 612.207 Q1349.43 608.642 1345.79 608.642 M1345.79 604.938 Q1351.6 604.938 1354.66 609.545 Q1357.74 614.128 1357.74 622.878 Q1357.74 631.605 1354.66 636.211 Q1351.6 640.795 1345.79 640.795 Q1339.98 640.795 1336.9 636.211 Q1333.85 631.605 1333.85 622.878 Q1333.85 614.128 1336.9 609.545 Q1339.98 604.938 1345.79 604.938 Z" fill="#000000" fill-rule="evenodd" fill-opacity="1" /><path clip-path="url(#clip040)" d="M 0 0 M1283.8 430.47 L1291.44 430.47 L1291.44 404.104 L1283.13 405.771 L1283.13 401.512 L1291.39 399.845 L1296.07 399.845 L1296.07 430.47 L1303.71 430.47 L1303.71 434.405 L1283.8 434.405 L1283.8 430.47 Z" fill="#000000" fill-rule="evenodd" fill-opacity="1" /><path clip-path="url(#clip040)" d="M 0 0 M1318.78 402.924 Q1315.17 402.924 1313.34 406.489 Q1311.53 410.03 1311.53 417.16 Q1311.53 424.266 1313.34 427.831 Q1315.17 431.373 1318.78 431.373 Q1322.41 431.373 1324.22 427.831 Q1326.05 424.266 1326.05 417.16 Q1326.05 410.03 1324.22 406.489 Q1322.41 402.924 1318.78 402.924 M1318.78 399.22 Q1324.59 399.22 1327.64 403.827 Q1330.72 408.41 1330.72 417.16 Q1330.72 425.887 1327.64 430.493 Q1324.59 435.077 1318.78 435.077 Q1312.97 435.077 1309.89 430.493 Q1306.83 425.887 1306.83 417.16 Q1306.83 408.41 1309.89 403.827 Q1312.97 399.22 1318.78 399.22 Z" fill="#000000" fill-rule="evenodd" fill-opacity="1" /><path clip-path="url(#clip040)" d="M 0 0 M1345.79 402.924 Q1342.18 402.924 1340.35 406.489 Q1338.55 410.03 1338.55 417.16 Q1338.55 424.266 1340.35 427.831 Q1342.18 431.373 1345.79 431.373 Q1349.43 431.373 1351.23 427.831 Q1353.06 424.266 1353.06 417.16 Q1353.06 410.03 1351.23 406.489 Q1349.43 402.924 1345.79 402.924 M1345.79 399.22 Q1351.6 399.22 1354.66 403.827 Q1357.74 408.41 1357.74 417.16 Q1357.74 425.887 1354.66 430.493 Q1351.6 435.077 1345.79 435.077 Q1339.98 435.077 1336.9 430.493 Q1333.85 425.887 1333.85 417.16 Q1333.85 408.41 1336.9 403.827 Q1339.98 399.22 1345.79 399.22 Z" fill="#000000" fill-rule="evenodd" fill-opacity="1" /><path clip-path="url(#clip040)" d="M 0 0 M1285.4 224.752 L1293.04 224.752 L1293.04 198.386 L1284.73 200.053 L1284.73 195.794 L1292.99 194.127 L1297.67 194.127 L1297.67 224.752 L1305.31 224.752 L1305.31 228.687 L1285.4 228.687 L1285.4 224.752 Z" fill="#000000" fill-rule="evenodd" fill-opacity="1" /><path clip-path="url(#clip040)" d="M 0 0 M1314.4 224.752 L1330.72 224.752 L1330.72 228.687 L1308.78 228.687 L1308.78 224.752 Q1311.44 221.997 1316.02 217.368 Q1320.63 212.715 1321.81 211.372 Q1324.06 208.849 1324.94 207.113 Q1325.84 205.354 1325.84 203.664 Q1325.84 200.91 1323.89 199.173 Q1321.97 197.437 1318.87 197.437 Q1316.67 197.437 1314.22 198.201 Q1311.79 198.965 1309.01 200.516 L1309.01 195.794 Q1311.83 194.66 1314.29 194.081 Q1316.74 193.502 1318.78 193.502 Q1324.15 193.502 1327.34 196.187 Q1330.54 198.872 1330.54 203.363 Q1330.54 205.493 1329.73 207.414 Q1328.94 209.312 1326.83 211.905 Q1326.26 212.576 1323.15 215.794 Q1320.05 218.988 1314.4 224.752 Z" fill="#000000" fill-rule="evenodd" fill-opacity="1" /><path clip-path="url(#clip040)" d="M 0 0 M1345.79 197.206 Q1342.18 197.206 1340.35 200.771 Q1338.55 204.312 1338.55 211.442 Q1338.55 218.548 1340.35 222.113 Q1342.18 225.655 1345.79 225.655 Q1349.43 225.655 1351.23 222.113 Q1353.06 218.548 1353.06 211.442 Q1353.06 204.312 1351.23 200.771 Q1349.43 197.206 1345.79 197.206 M1345.79 193.502 Q1351.6 193.502 1354.66 198.109 Q1357.74 202.692 1357.74 211.442 Q1357.74 220.169 1354.66 224.775 Q1351.6 229.358 1345.79 229.358 Q1339.98 229.358 1336.9 224.775 Q1333.85 220.169 1333.85 211.442 Q1333.85 202.692 1336.9 198.109 Q1339.98 193.502 1345.79 193.502 Z" fill="#000000" fill-rule="evenodd" fill-opacity="1" /><path clip-path="url(#clip043)" d="
M1435.14 746.274 L1435.14 1445.72 L1521.57 1445.72 L1521.57 746.274 L1435.14 746.274 L1435.14 746.274  Z
  " fill="#009af9" fill-rule="evenodd" fill-opacity="1"/>
<polyline clip-path="url(#clip043)" style="stroke:#000000; stroke-width:4; stroke-opacity:1; fill:none" points="
  1435.14,746.274 1435.14,1445.72 1521.57,1445.72 1521.57,746.274 1435.14,746.274 
  "/>
<path clip-path="url(#clip043)" d="
M1521.57 478.841 L1521.57 1445.72 L1607.99 1445.72 L1607.99 478.841 L1521.57 478.841 L1521.57 478.841  Z
  " fill="#009af9" fill-rule="evenodd" fill-opacity="1"/>
<polyline clip-path="url(#clip043)" style="stroke:#000000; stroke-width:4; stroke-opacity:1; fill:none" points="
  1521.57,478.841 1521.57,1445.72 1607.99,1445.72 1607.99,478.841 1521.57,478.841 
  "/>
<path clip-path="url(#clip043)" d="
M1607.99 283.408 L1607.99 1445.72 L1694.41 1445.72 L1694.41 283.408 L1607.99 283.408 L1607.99 283.408  Z
  " fill="#009af9" fill-rule="evenodd" fill-opacity="1"/>
<polyline clip-path="url(#clip043)" style="stroke:#000000; stroke-width:4; stroke-opacity:1; fill:none" points="
  1607.99,283.408 1607.99,1445.72 1694.41,1445.72 1694.41,283.408 1607.99,283.408 
  "/>
<path clip-path="url(#clip043)" d="
M1694.41 468.555 L1694.41 1445.72 L1780.83 1445.72 L1780.83 468.555 L1694.41 468.555 L1694.41 468.555  Z
  " fill="#009af9" fill-rule="evenodd" fill-opacity="1"/>
<polyline clip-path="url(#clip043)" style="stroke:#000000; stroke-width:4; stroke-opacity:1; fill:none" points="
  1694.41,468.555 1694.41,1445.72 1780.83,1445.72 1780.83,468.555 1694.41,468.555 
  "/>
<path clip-path="url(#clip043)" d="
M1780.83 87.9763 L1780.83 1445.72 L1867.25 1445.72 L1867.25 87.9763 L1780.83 87.9763 L1780.83 87.9763  Z
  " fill="#009af9" fill-rule="evenodd" fill-opacity="1"/>
<polyline clip-path="url(#clip043)" style="stroke:#000000; stroke-width:4; stroke-opacity:1; fill:none" points="
  1780.83,87.9763 1780.83,1445.72 1867.25,1445.72 1867.25,87.9763 1780.83,87.9763 
  "/>
<path clip-path="url(#clip043)" d="
M1867.25 118.834 L1867.25 1445.72 L1953.67 1445.72 L1953.67 118.834 L1867.25 118.834 L1867.25 118.834  Z
  " fill="#009af9" fill-rule="evenodd" fill-opacity="1"/>
<polyline clip-path="url(#clip043)" style="stroke:#000000; stroke-width:4; stroke-opacity:1; fill:none" points="
  1867.25,118.834 1867.25,1445.72 1953.67,1445.72 1953.67,118.834 1867.25,118.834 
  "/>
<path clip-path="url(#clip043)" d="
M1953.67 365.696 L1953.67 1445.72 L2040.09 1445.72 L2040.09 365.696 L1953.67 365.696 L1953.67 365.696  Z
  " fill="#009af9" fill-rule="evenodd" fill-opacity="1"/>
<polyline clip-path="url(#clip043)" style="stroke:#000000; stroke-width:4; stroke-opacity:1; fill:none" points="
  1953.67,365.696 1953.67,1445.72 2040.09,1445.72 2040.09,365.696 1953.67,365.696 
  "/>
<path clip-path="url(#clip043)" d="
M2040.09 314.266 L2040.09 1445.72 L2126.51 1445.72 L2126.51 314.266 L2040.09 314.266 L2040.09 314.266  Z
  " fill="#009af9" fill-rule="evenodd" fill-opacity="1"/>
<polyline clip-path="url(#clip043)" style="stroke:#000000; stroke-width:4; stroke-opacity:1; fill:none" points="
  2040.09,314.266 2040.09,1445.72 2126.51,1445.72 2126.51,314.266 2040.09,314.266 
  "/>
<path clip-path="url(#clip043)" d="
M2126.51 509.698 L2126.51 1445.72 L2212.93 1445.72 L2212.93 509.698 L2126.51 509.698 L2126.51 509.698  Z
  " fill="#009af9" fill-rule="evenodd" fill-opacity="1"/>
<polyline clip-path="url(#clip043)" style="stroke:#000000; stroke-width:4; stroke-opacity:1; fill:none" points="
  2126.51,509.698 2126.51,1445.72 2212.93,1445.72 2212.93,509.698 2126.51,509.698 
  "/>
<path clip-path="url(#clip043)" d="
M2212.93 797.704 L2212.93 1445.72 L2299.35 1445.72 L2299.35 797.704 L2212.93 797.704 L2212.93 797.704  Z
  " fill="#009af9" fill-rule="evenodd" fill-opacity="1"/>
<polyline clip-path="url(#clip043)" style="stroke:#000000; stroke-width:4; stroke-opacity:1; fill:none" points="
  2212.93,797.704 2212.93,1445.72 2299.35,1445.72 2299.35,797.704 2212.93,797.704 
  "/>
<path clip-path="url(#clip040)" d="
M1982.66 216.178 L2320.39 216.178 L2320.39 95.2176 L1982.66 95.2176  Z
  " fill="#ffffff" fill-rule="evenodd" fill-opacity="1"/>
<polyline clip-path="url(#clip040)" style="stroke:#000000; stroke-width:4; stroke-opacity:1; fill:none" points="
  1982.66,216.178 2320.39,216.178 2320.39,95.2176 1982.66,95.2176 1982.66,216.178 
  "/>
<path clip-path="url(#clip040)" d="
M1993.45 179.89 L2058.18 179.89 L2058.18 131.506 L1993.45 131.506 L1993.45 179.89  Z
  " fill="#009af9" fill-rule="evenodd" fill-opacity="1"/>
<polyline clip-path="url(#clip040)" style="stroke:#000000; stroke-width:4; stroke-opacity:1; fill:none" points="
  1993.45,179.89 2058.18,179.89 2058.18,131.506 1993.45,131.506 1993.45,179.89 
  "/>
<path clip-path="url(#clip040)" d="M 0 0 M2068.97 138.418 L2075.94 138.418 L2084.76 161.936 L2093.63 138.418 L2100.59 138.418 L2100.59 172.978 L2096.03 172.978 L2096.03 142.63 L2087.12 166.334 L2082.42 166.334 L2073.51 142.63 L2073.51 172.978 L2068.97 172.978 L2068.97 138.418 Z" fill="#000000" fill-rule="evenodd" fill-opacity="1" /><path clip-path="url(#clip040)" d="M 0 0 M2116.84 159.945 Q2111.68 159.945 2109.69 161.126 Q2107.7 162.306 2107.7 165.154 Q2107.7 167.422 2109.18 168.765 Q2110.69 170.084 2113.26 170.084 Q2116.8 170.084 2118.93 167.584 Q2121.08 165.061 2121.08 160.894 L2121.08 159.945 L2116.84 159.945 M2125.34 158.186 L2125.34 172.978 L2121.08 172.978 L2121.08 169.042 Q2119.62 171.403 2117.45 172.538 Q2115.27 173.649 2112.12 173.649 Q2108.14 173.649 2105.78 171.427 Q2103.44 169.181 2103.44 165.431 Q2103.44 161.056 2106.36 158.834 Q2109.3 156.612 2115.11 156.612 L2121.08 156.612 L2121.08 156.195 Q2121.08 153.255 2119.14 151.658 Q2117.21 150.038 2113.72 150.038 Q2111.5 150.038 2109.39 150.57 Q2107.28 151.103 2105.34 152.167 L2105.34 148.232 Q2107.68 147.33 2109.88 146.89 Q2112.08 146.427 2114.16 146.427 Q2119.78 146.427 2122.56 149.343 Q2125.34 152.26 2125.34 158.186 Z" fill="#000000" fill-rule="evenodd" fill-opacity="1" /><path clip-path="url(#clip040)" d="M 0 0 M2146.33 147.816 L2146.33 151.843 Q2144.53 150.917 2142.58 150.455 Q2140.64 149.992 2138.56 149.992 Q2135.39 149.992 2133.79 150.964 Q2132.21 151.936 2132.21 153.88 Q2132.21 155.362 2133.35 156.218 Q2134.48 157.052 2137.91 157.816 L2139.37 158.14 Q2143.9 159.112 2145.8 160.894 Q2147.72 162.654 2147.72 165.825 Q2147.72 169.436 2144.85 171.542 Q2142.01 173.649 2137.01 173.649 Q2134.92 173.649 2132.65 173.232 Q2130.41 172.839 2127.91 172.028 L2127.91 167.63 Q2130.27 168.857 2132.56 169.482 Q2134.85 170.084 2137.1 170.084 Q2140.11 170.084 2141.73 169.066 Q2143.35 168.024 2143.35 166.149 Q2143.35 164.413 2142.17 163.487 Q2141.01 162.561 2137.05 161.704 L2135.57 161.357 Q2131.61 160.524 2129.85 158.811 Q2128.09 157.075 2128.09 154.066 Q2128.09 150.408 2130.69 148.418 Q2133.28 146.427 2138.05 146.427 Q2140.41 146.427 2142.49 146.774 Q2144.58 147.121 2146.33 147.816 Z" fill="#000000" fill-rule="evenodd" fill-opacity="1" /><path clip-path="url(#clip040)" d="M 0 0 M2168.72 147.816 L2168.72 151.843 Q2166.91 150.917 2164.97 150.455 Q2163.02 149.992 2160.94 149.992 Q2157.77 149.992 2156.17 150.964 Q2154.6 151.936 2154.6 153.88 Q2154.6 155.362 2155.73 156.218 Q2156.87 157.052 2160.29 157.816 L2161.75 158.14 Q2166.29 159.112 2168.19 160.894 Q2170.11 162.654 2170.11 165.825 Q2170.11 169.436 2167.24 171.542 Q2164.39 173.649 2159.39 173.649 Q2157.31 173.649 2155.04 173.232 Q2152.79 172.839 2150.29 172.028 L2150.29 167.63 Q2152.65 168.857 2154.95 169.482 Q2157.24 170.084 2159.48 170.084 Q2162.49 170.084 2164.11 169.066 Q2165.73 168.024 2165.73 166.149 Q2165.73 164.413 2164.55 163.487 Q2163.39 162.561 2159.44 161.704 L2157.95 161.357 Q2154 160.524 2152.24 158.811 Q2150.48 157.075 2150.48 154.066 Q2150.48 150.408 2153.07 148.418 Q2155.66 146.427 2160.43 146.427 Q2162.79 146.427 2164.88 146.774 Q2166.96 147.121 2168.72 147.816 Z" fill="#000000" fill-rule="evenodd" fill-opacity="1" /><path clip-path="url(#clip040)" d="M 0 0 M2193.76 169.089 L2193.76 182.839 L2189.48 182.839 L2189.48 147.052 L2193.76 147.052 L2193.76 150.987 Q2195.11 148.672 2197.14 147.561 Q2199.2 146.427 2202.05 146.427 Q2206.77 146.427 2209.71 150.177 Q2212.68 153.927 2212.68 160.038 Q2212.68 166.149 2209.71 169.899 Q2206.77 173.649 2202.05 173.649 Q2199.2 173.649 2197.14 172.538 Q2195.11 171.403 2193.76 169.089 M2208.26 160.038 Q2208.26 155.339 2206.31 152.677 Q2204.39 149.992 2201.01 149.992 Q2197.63 149.992 2195.69 152.677 Q2193.76 155.339 2193.76 160.038 Q2193.76 164.737 2195.69 167.422 Q2197.63 170.084 2201.01 170.084 Q2204.39 170.084 2206.31 167.422 Q2208.26 164.737 2208.26 160.038 Z" fill="#000000" fill-rule="evenodd" fill-opacity="1" /><path clip-path="url(#clip040)" d="M 0 0 M2228.93 159.945 Q2223.76 159.945 2221.77 161.126 Q2219.78 162.306 2219.78 165.154 Q2219.78 167.422 2221.26 168.765 Q2222.77 170.084 2225.34 170.084 Q2228.88 170.084 2231.01 167.584 Q2233.16 165.061 2233.16 160.894 L2233.16 159.945 L2228.93 159.945 M2237.42 158.186 L2237.42 172.978 L2233.16 172.978 L2233.16 169.042 Q2231.7 171.403 2229.53 172.538 Q2227.35 173.649 2224.2 173.649 Q2220.22 173.649 2217.86 171.427 Q2215.52 169.181 2215.52 165.431 Q2215.52 161.056 2218.44 158.834 Q2221.38 156.612 2227.19 156.612 L2233.16 156.612 L2233.16 156.195 Q2233.16 153.255 2231.22 151.658 Q2229.3 150.038 2225.8 150.038 Q2223.58 150.038 2221.47 150.57 Q2219.37 151.103 2217.42 152.167 L2217.42 148.232 Q2219.76 147.33 2221.96 146.89 Q2224.16 146.427 2226.24 146.427 Q2231.87 146.427 2234.64 149.343 Q2237.42 152.26 2237.42 158.186 Z" fill="#000000" fill-rule="evenodd" fill-opacity="1" /><path clip-path="url(#clip040)" d="M 0 0 M2263.44 157.329 L2263.44 172.978 L2259.18 172.978 L2259.18 157.468 Q2259.18 153.788 2257.75 151.959 Q2256.31 150.13 2253.44 150.13 Q2249.99 150.13 2248 152.33 Q2246.01 154.529 2246.01 158.325 L2246.01 172.978 L2241.73 172.978 L2241.73 147.052 L2246.01 147.052 L2246.01 151.08 Q2247.54 148.742 2249.6 147.584 Q2251.68 146.427 2254.39 146.427 Q2258.86 146.427 2261.15 149.205 Q2263.44 151.959 2263.44 157.329 Z" fill="#000000" fill-rule="evenodd" fill-opacity="1" /><path clip-path="url(#clip040)" d="M 0 0 M2290.08 158.95 L2290.08 161.033 L2270.5 161.033 Q2270.78 165.431 2273.14 167.746 Q2275.52 170.038 2279.76 170.038 Q2282.21 170.038 2284.5 169.436 Q2286.82 168.834 2289.09 167.63 L2289.09 171.658 Q2286.8 172.63 2284.39 173.14 Q2281.98 173.649 2279.5 173.649 Q2273.3 173.649 2269.67 170.038 Q2266.06 166.427 2266.06 160.269 Q2266.06 153.904 2269.48 150.177 Q2272.93 146.427 2278.76 146.427 Q2284 146.427 2287.03 149.806 Q2290.08 153.163 2290.08 158.95 M2285.82 157.7 Q2285.78 154.205 2283.86 152.121 Q2281.96 150.038 2278.81 150.038 Q2275.25 150.038 2273.09 152.052 Q2270.96 154.066 2270.64 157.723 L2285.82 157.7 Z" fill="#000000" fill-rule="evenodd" fill-opacity="1" /><path clip-path="url(#clip040)" d="M 0 0 M2294.55 136.959 L2298.81 136.959 L2298.81 172.978 L2294.55 172.978 L2294.55 136.959 Z" fill="#000000" fill-rule="evenodd" fill-opacity="1" /></svg>
