<?xml version="1.0" encoding="utf-8"?>
<svg xmlns="http://www.w3.org/2000/svg" xmlns:xlink="http://www.w3.org/1999/xlink" width="600" height="400" viewBox="0 0 2400 1600">
<defs>
  <clipPath id="clip080">
    <rect x="0" y="0" width="2400" height="1600"/>
  </clipPath>
</defs>
<path clip-path="url(#clip080)" d="
M0 1600 L2400 1600 L2400 0 L0 0  Z
  " fill="#ffffff" fill-rule="evenodd" fill-opacity="1"/>
<defs>
  <clipPath id="clip081">
    <rect x="480" y="0" width="1681" height="1600"/>
  </clipPath>
</defs>
<path clip-path="url(#clip080)" d="
M173.404 1474.16 L2352.76 1474.16 L2352.76 47.2441 L173.404 47.2441  Z
  " fill="#ffffff" fill-rule="evenodd" fill-opacity="1"/>
<defs>
  <clipPath id="clip082">
    <rect x="173" y="47" width="2180" height="1428"/>
  </clipPath>
</defs>
<polyline clip-path="url(#clip082)" style="stroke:#000000; stroke-width:2; stroke-opacity:0.1; fill:none" points="
  214.316,1474.16 214.316,47.2441 
  "/>
<polyline clip-path="url(#clip082)" style="stroke:#000000; stroke-width:2; stroke-opacity:0.1; fill:none" points="
  733.506,1474.16 733.506,47.2441 
  "/>
<polyline clip-path="url(#clip082)" style="stroke:#000000; stroke-width:2; stroke-opacity:0.1; fill:none" points="
  1252.7,1474.16 1252.7,47.2441 
  "/>
<polyline clip-path="url(#clip082)" style="stroke:#000000; stroke-width:2; stroke-opacity:0.1; fill:none" points="
  1771.89,1474.16 1771.89,47.2441 
  "/>
<polyline clip-path="url(#clip082)" style="stroke:#000000; stroke-width:2; stroke-opacity:0.1; fill:none" points="
  2291.08,1474.16 2291.08,47.2441 
  "/>
<polyline clip-path="url(#clip082)" style="stroke:#000000; stroke-width:2; stroke-opacity:0.1; fill:none" points="
  173.404,1371.69 2352.76,1371.69 
  "/>
<polyline clip-path="url(#clip082)" style="stroke:#000000; stroke-width:2; stroke-opacity:0.1; fill:none" points="
  173.404,1176.45 2352.76,1176.45 
  "/>
<polyline clip-path="url(#clip082)" style="stroke:#000000; stroke-width:2; stroke-opacity:0.1; fill:none" points="
  173.404,981.213 2352.76,981.213 
  "/>
<polyline clip-path="url(#clip082)" style="stroke:#000000; stroke-width:2; stroke-opacity:0.1; fill:none" points="
  173.404,785.975 2352.76,785.975 
  "/>
<polyline clip-path="url(#clip082)" style="stroke:#000000; stroke-width:2; stroke-opacity:0.1; fill:none" points="
  173.404,590.737 2352.76,590.737 
  "/>
<polyline clip-path="url(#clip082)" style="stroke:#000000; stroke-width:2; stroke-opacity:0.1; fill:none" points="
  173.404,395.499 2352.76,395.499 
  "/>
<polyline clip-path="url(#clip082)" style="stroke:#000000; stroke-width:2; stroke-opacity:0.1; fill:none" points="
  173.404,200.262 2352.76,200.262 
  "/>
<polyline clip-path="url(#clip080)" style="stroke:#000000; stroke-width:4; stroke-opacity:1; fill:none" points="
  173.404,1474.16 2352.76,1474.16 
  "/>
<polyline clip-path="url(#clip080)" style="stroke:#000000; stroke-width:4; stroke-opacity:1; fill:none" points="
  173.404,1474.16 173.404,47.2441 
  "/>
<polyline clip-path="url(#clip080)" style="stroke:#000000; stroke-width:4; stroke-opacity:1; fill:none" points="
  214.316,1474.16 214.316,1457.04 
  "/>
<polyline clip-path="url(#clip080)" style="stroke:#000000; stroke-width:4; stroke-opacity:1; fill:none" points="
  733.506,1474.16 733.506,1457.04 
  "/>
<polyline clip-path="url(#clip080)" style="stroke:#000000; stroke-width:4; stroke-opacity:1; fill:none" points="
  1252.7,1474.16 1252.7,1457.04 
  "/>
<polyline clip-path="url(#clip080)" style="stroke:#000000; stroke-width:4; stroke-opacity:1; fill:none" points="
  1771.89,1474.16 1771.89,1457.04 
  "/>
<polyline clip-path="url(#clip080)" style="stroke:#000000; stroke-width:4; stroke-opacity:1; fill:none" points="
  2291.08,1474.16 2291.08,1457.04 
  "/>
<polyline clip-path="url(#clip080)" style="stroke:#000000; stroke-width:4; stroke-opacity:1; fill:none" points="
  173.404,1371.69 199.556,1371.69 
  "/>
<polyline clip-path="url(#clip080)" style="stroke:#000000; stroke-width:4; stroke-opacity:1; fill:none" points="
  173.404,1176.45 199.556,1176.45 
  "/>
<polyline clip-path="url(#clip080)" style="stroke:#000000; stroke-width:4; stroke-opacity:1; fill:none" points="
  173.404,981.213 199.556,981.213 
  "/>
<polyline clip-path="url(#clip080)" style="stroke:#000000; stroke-width:4; stroke-opacity:1; fill:none" points="
  173.404,785.975 199.556,785.975 
  "/>
<polyline clip-path="url(#clip080)" style="stroke:#000000; stroke-width:4; stroke-opacity:1; fill:none" points="
  173.404,590.737 199.556,590.737 
  "/>
<polyline clip-path="url(#clip080)" style="stroke:#000000; stroke-width:4; stroke-opacity:1; fill:none" points="
  173.404,395.499 199.556,395.499 
  "/>
<polyline clip-path="url(#clip080)" style="stroke:#000000; stroke-width:4; stroke-opacity:1; fill:none" points="
  173.404,200.262 199.556,200.262 
  "/>
<path clip-path="url(#clip080)" d="M 0 0 M214.316 1496.16 Q210.705 1496.16 208.876 1499.72 Q207.071 1503.26 207.071 1510.39 Q207.071 1517.5 208.876 1521.06 Q210.705 1524.6 214.316 1524.6 Q217.95 1524.6 219.756 1521.06 Q221.584 1517.5 221.584 1510.39 Q221.584 1503.26 219.756 1499.72 Q217.95 1496.16 214.316 1496.16 M214.316 1492.45 Q220.126 1492.45 223.182 1497.06 Q226.26 1501.64 226.26 1510.39 Q226.26 1519.12 223.182 1523.72 Q220.126 1528.31 214.316 1528.31 Q208.506 1528.31 205.427 1523.72 Q202.371 1519.12 202.371 1510.39 Q202.371 1501.64 205.427 1497.06 Q208.506 1492.45 214.316 1492.45 Z" fill="#000000" fill-rule="evenodd" fill-opacity="1" /><path clip-path="url(#clip080)" d="M 0 0 M656.921 1545.24 L673.24 1545.24 L673.24 1549.17 L651.296 1549.17 L651.296 1545.24 Q653.958 1542.48 658.541 1537.85 Q663.148 1533.2 664.328 1531.86 Q666.573 1529.33 667.453 1527.6 Q668.356 1525.84 668.356 1524.15 Q668.356 1521.39 666.411 1519.66 Q664.49 1517.92 661.388 1517.92 Q659.189 1517.92 656.736 1518.69 Q654.305 1519.45 651.527 1521 L651.527 1516.28 Q654.351 1515.14 656.805 1514.57 Q659.259 1513.99 661.296 1513.99 Q666.666 1513.99 669.86 1516.67 Q673.055 1519.36 673.055 1523.85 Q673.055 1525.98 672.245 1527.9 Q671.458 1529.8 669.351 1532.39 Q668.772 1533.06 665.671 1536.28 Q662.569 1539.47 656.921 1545.24 Z" fill="#000000" fill-rule="evenodd" fill-opacity="1" /><path clip-path="url(#clip080)" d="M 0 0 M678.309 1543.29 L683.194 1543.29 L683.194 1549.17 L678.309 1549.17 L678.309 1543.29 Z" fill="#000000" fill-rule="evenodd" fill-opacity="1" /><path clip-path="url(#clip080)" d="M 0 0 M688.309 1514.61 L706.666 1514.61 L706.666 1518.55 L692.592 1518.55 L692.592 1527.02 Q693.61 1526.67 694.629 1526.51 Q695.647 1526.32 696.666 1526.32 Q702.453 1526.32 705.832 1529.5 Q709.212 1532.67 709.212 1538.08 Q709.212 1543.66 705.74 1546.76 Q702.268 1549.84 695.948 1549.84 Q693.772 1549.84 691.504 1549.47 Q689.258 1549.1 686.851 1548.36 L686.851 1543.66 Q688.934 1544.8 691.157 1545.35 Q693.379 1545.91 695.856 1545.91 Q699.86 1545.91 702.198 1543.8 Q704.536 1541.7 704.536 1538.08 Q704.536 1534.47 702.198 1532.37 Q699.86 1530.26 695.856 1530.26 Q693.981 1530.26 692.106 1530.68 Q690.254 1531.09 688.309 1531.97 L688.309 1514.61 Z" fill="#000000" fill-rule="evenodd" fill-opacity="1" /><path clip-path="url(#clip080)" d="M 0 0 M742.453 1523.71 L731.874 1534.33 L742.453 1544.91 L739.698 1547.71 L729.073 1537.09 L718.448 1547.71 L715.717 1544.91 L726.272 1534.33 L715.717 1523.71 L718.448 1520.91 L729.073 1531.53 L739.698 1520.91 L742.453 1523.71 Z" fill="#000000" fill-rule="evenodd" fill-opacity="1" /><path clip-path="url(#clip080)" d="M 0 0 M748.332 1545.24 L755.971 1545.24 L755.971 1518.87 L747.661 1520.54 L747.661 1516.28 L755.925 1514.61 L760.601 1514.61 L760.601 1545.24 L768.24 1545.24 L768.24 1549.17 L748.332 1549.17 L748.332 1545.24 Z" fill="#000000" fill-rule="evenodd" fill-opacity="1" /><path clip-path="url(#clip080)" d="M 0 0 M783.309 1517.69 Q779.698 1517.69 777.869 1521.26 Q776.064 1524.8 776.064 1531.93 Q776.064 1539.03 777.869 1542.6 Q779.698 1546.14 783.309 1546.14 Q786.943 1546.14 788.749 1542.6 Q790.577 1539.03 790.577 1531.93 Q790.577 1524.8 788.749 1521.26 Q786.943 1517.69 783.309 1517.69 M783.309 1513.99 Q789.119 1513.99 792.175 1518.59 Q795.253 1523.18 795.253 1531.93 Q795.253 1540.65 792.175 1545.26 Q789.119 1549.84 783.309 1549.84 Q777.499 1549.84 774.42 1545.26 Q771.365 1540.65 771.365 1531.93 Q771.365 1523.18 774.42 1518.59 Q777.499 1513.99 783.309 1513.99 Z" fill="#000000" fill-rule="evenodd" fill-opacity="1" /><path clip-path="url(#clip080)" d="M 0 0 M807.93 1496.99 L798.338 1511.98 L807.93 1511.98 L807.93 1496.99 M806.933 1493.68 L811.71 1493.68 L811.71 1511.98 L815.716 1511.98 L815.716 1515.14 L811.71 1515.14 L811.71 1521.76 L807.93 1521.76 L807.93 1515.14 L795.253 1515.14 L795.253 1511.47 L806.933 1493.68 Z" fill="#000000" fill-rule="evenodd" fill-opacity="1" /><path clip-path="url(#clip080)" d="M 0 0 M1171.24 1514.61 L1189.59 1514.61 L1189.59 1518.55 L1175.52 1518.55 L1175.52 1527.02 Q1176.54 1526.67 1177.56 1526.51 Q1178.58 1526.32 1179.59 1526.32 Q1185.38 1526.32 1188.76 1529.5 Q1192.14 1532.67 1192.14 1538.08 Q1192.14 1543.66 1188.67 1546.76 Q1185.2 1549.84 1178.88 1549.84 Q1176.7 1549.84 1174.43 1549.47 Q1172.19 1549.1 1169.78 1548.36 L1169.78 1543.66 Q1171.86 1544.8 1174.09 1545.35 Q1176.31 1545.91 1178.78 1545.91 Q1182.79 1545.91 1185.13 1543.8 Q1187.46 1541.7 1187.46 1538.08 Q1187.46 1534.47 1185.13 1532.37 Q1182.79 1530.26 1178.78 1530.26 Q1176.91 1530.26 1175.03 1530.68 Q1173.18 1531.09 1171.24 1531.97 L1171.24 1514.61 Z" fill="#000000" fill-rule="evenodd" fill-opacity="1" /><path clip-path="url(#clip080)" d="M 0 0 M1197.21 1543.29 L1202.09 1543.29 L1202.09 1549.17 L1197.21 1549.17 L1197.21 1543.29 Z" fill="#000000" fill-rule="evenodd" fill-opacity="1" /><path clip-path="url(#clip080)" d="M 0 0 M1217.16 1517.69 Q1213.55 1517.69 1211.72 1521.26 Q1209.92 1524.8 1209.92 1531.93 Q1209.92 1539.03 1211.72 1542.6 Q1213.55 1546.14 1217.16 1546.14 Q1220.8 1546.14 1222.6 1542.6 Q1224.43 1539.03 1224.43 1531.93 Q1224.43 1524.8 1222.6 1521.26 Q1220.8 1517.69 1217.16 1517.69 M1217.16 1513.99 Q1222.97 1513.99 1226.03 1518.59 Q1229.11 1523.18 1229.11 1531.93 Q1229.11 1540.65 1226.03 1545.26 Q1222.97 1549.84 1217.16 1549.84 Q1211.35 1549.84 1208.27 1545.26 Q1205.22 1540.65 1205.22 1531.93 Q1205.22 1523.18 1208.27 1518.59 Q1211.35 1513.99 1217.16 1513.99 Z" fill="#000000" fill-rule="evenodd" fill-opacity="1" /><path clip-path="url(#clip080)" d="M 0 0 M1262.35 1523.71 L1251.77 1534.33 L1262.35 1544.91 L1259.59 1547.71 L1248.97 1537.09 L1238.34 1547.71 L1235.61 1544.91 L1246.17 1534.33 L1235.61 1523.71 L1238.34 1520.91 L1248.97 1531.53 L1259.59 1520.91 L1262.35 1523.71 Z" fill="#000000" fill-rule="evenodd" fill-opacity="1" /><path clip-path="url(#clip080)" d="M 0 0 M1268.23 1545.24 L1275.87 1545.24 L1275.87 1518.87 L1267.56 1520.54 L1267.56 1516.28 L1275.82 1514.61 L1280.5 1514.61 L1280.5 1545.24 L1288.14 1545.24 L1288.14 1549.17 L1268.23 1549.17 L1268.23 1545.24 Z" fill="#000000" fill-rule="evenodd" fill-opacity="1" /><path clip-path="url(#clip080)" d="M 0 0 M1303.2 1517.69 Q1299.59 1517.69 1297.77 1521.26 Q1295.96 1524.8 1295.96 1531.93 Q1295.96 1539.03 1297.77 1542.6 Q1299.59 1546.14 1303.2 1546.14 Q1306.84 1546.14 1308.64 1542.6 Q1310.47 1539.03 1310.47 1531.93 Q1310.47 1524.8 1308.64 1521.26 Q1306.84 1517.69 1303.2 1517.69 M1303.2 1513.99 Q1309.02 1513.99 1312.07 1518.59 Q1315.15 1523.18 1315.15 1531.93 Q1315.15 1540.65 1312.07 1545.26 Q1309.02 1549.84 1303.2 1549.84 Q1297.39 1549.84 1294.32 1545.26 Q1291.26 1540.65 1291.26 1531.93 Q1291.26 1523.18 1294.32 1518.59 Q1297.39 1513.99 1303.2 1513.99 Z" fill="#000000" fill-rule="evenodd" fill-opacity="1" /><path clip-path="url(#clip080)" d="M 0 0 M1327.83 1496.99 L1318.23 1511.98 L1327.83 1511.98 L1327.83 1496.99 M1326.83 1493.68 L1331.61 1493.68 L1331.61 1511.98 L1335.61 1511.98 L1335.61 1515.14 L1331.61 1515.14 L1331.61 1521.76 L1327.83 1521.76 L1327.83 1515.14 L1315.15 1515.14 L1315.15 1511.47 L1326.83 1493.68 Z" fill="#000000" fill-rule="evenodd" fill-opacity="1" /><path clip-path="url(#clip080)" d="M 0 0 M1689.54 1514.61 L1711.76 1514.61 L1711.76 1516.6 L1699.21 1549.17 L1694.33 1549.17 L1706.13 1518.55 L1689.54 1518.55 L1689.54 1514.61 Z" fill="#000000" fill-rule="evenodd" fill-opacity="1" /><path clip-path="url(#clip080)" d="M 0 0 M1716.83 1543.29 L1721.71 1543.29 L1721.71 1549.17 L1716.83 1549.17 L1716.83 1543.29 Z" fill="#000000" fill-rule="evenodd" fill-opacity="1" /><path clip-path="url(#clip080)" d="M 0 0 M1726.83 1514.61 L1745.18 1514.61 L1745.18 1518.55 L1731.11 1518.55 L1731.11 1527.02 Q1732.13 1526.67 1733.15 1526.51 Q1734.17 1526.32 1735.18 1526.32 Q1740.97 1526.32 1744.35 1529.5 Q1747.73 1532.67 1747.73 1538.08 Q1747.73 1543.66 1744.26 1546.76 Q1740.79 1549.84 1734.47 1549.84 Q1732.29 1549.84 1730.02 1549.47 Q1727.78 1549.1 1725.37 1548.36 L1725.37 1543.66 Q1727.45 1544.8 1729.68 1545.35 Q1731.9 1545.91 1734.37 1545.91 Q1738.38 1545.91 1740.72 1543.8 Q1743.06 1541.7 1743.06 1538.08 Q1743.06 1534.47 1740.72 1532.37 Q1738.38 1530.26 1734.37 1530.26 Q1732.5 1530.26 1730.62 1530.68 Q1728.77 1531.09 1726.83 1531.97 L1726.83 1514.61 Z" fill="#000000" fill-rule="evenodd" fill-opacity="1" /><path clip-path="url(#clip080)" d="M 0 0 M1780.97 1523.71 L1770.39 1534.33 L1780.97 1544.91 L1778.22 1547.71 L1767.59 1537.09 L1756.97 1547.71 L1754.24 1544.91 L1764.79 1534.33 L1754.24 1523.71 L1756.97 1520.91 L1767.59 1531.53 L1778.22 1520.91 L1780.97 1523.71 Z" fill="#000000" fill-rule="evenodd" fill-opacity="1" /><path clip-path="url(#clip080)" d="M 0 0 M1786.85 1545.24 L1794.49 1545.24 L1794.49 1518.87 L1786.18 1520.54 L1786.18 1516.28 L1794.44 1514.61 L1799.12 1514.61 L1799.12 1545.24 L1806.76 1545.24 L1806.76 1549.17 L1786.85 1549.17 L1786.85 1545.24 Z" fill="#000000" fill-rule="evenodd" fill-opacity="1" /><path clip-path="url(#clip080)" d="M 0 0 M1821.83 1517.69 Q1818.22 1517.69 1816.39 1521.26 Q1814.58 1524.8 1814.58 1531.93 Q1814.58 1539.03 1816.39 1542.6 Q1818.22 1546.14 1821.83 1546.14 Q1825.46 1546.14 1827.27 1542.6 Q1829.1 1539.03 1829.1 1531.93 Q1829.1 1524.8 1827.27 1521.26 Q1825.46 1517.69 1821.83 1517.69 M1821.83 1513.99 Q1827.64 1513.99 1830.69 1518.59 Q1833.77 1523.18 1833.77 1531.93 Q1833.77 1540.65 1830.69 1545.26 Q1827.64 1549.84 1821.83 1549.84 Q1816.02 1549.84 1812.94 1545.26 Q1809.88 1540.65 1809.88 1531.93 Q1809.88 1523.18 1812.94 1518.59 Q1816.02 1513.99 1821.83 1513.99 Z" fill="#000000" fill-rule="evenodd" fill-opacity="1" /><path clip-path="url(#clip080)" d="M 0 0 M1846.45 1496.99 L1836.86 1511.98 L1846.45 1511.98 L1846.45 1496.99 M1845.45 1493.68 L1850.23 1493.68 L1850.23 1511.98 L1854.24 1511.98 L1854.24 1515.14 L1850.23 1515.14 L1850.23 1521.76 L1846.45 1521.76 L1846.45 1515.14 L1833.77 1515.14 L1833.77 1511.47 L1845.45 1493.68 Z" fill="#000000" fill-rule="evenodd" fill-opacity="1" /><path clip-path="url(#clip080)" d="M 0 0 M2210.87 1545.24 L2218.51 1545.24 L2218.51 1518.87 L2210.2 1520.54 L2210.2 1516.28 L2218.46 1514.61 L2223.14 1514.61 L2223.14 1545.24 L2230.78 1545.24 L2230.78 1549.17 L2210.87 1549.17 L2210.87 1545.24 Z" fill="#000000" fill-rule="evenodd" fill-opacity="1" /><path clip-path="url(#clip080)" d="M 0 0 M2235.85 1543.29 L2240.73 1543.29 L2240.73 1549.17 L2235.85 1549.17 L2235.85 1543.29 Z" fill="#000000" fill-rule="evenodd" fill-opacity="1" /><path clip-path="url(#clip080)" d="M 0 0 M2255.8 1517.69 Q2252.19 1517.69 2250.36 1521.26 Q2248.55 1524.8 2248.55 1531.93 Q2248.55 1539.03 2250.36 1542.6 Q2252.19 1546.14 2255.8 1546.14 Q2259.43 1546.14 2261.24 1542.6 Q2263.07 1539.03 2263.07 1531.93 Q2263.07 1524.8 2261.24 1521.26 Q2259.43 1517.69 2255.8 1517.69 M2255.8 1513.99 Q2261.61 1513.99 2264.67 1518.59 Q2267.74 1523.18 2267.74 1531.93 Q2267.74 1540.65 2264.67 1545.26 Q2261.61 1549.84 2255.8 1549.84 Q2249.99 1549.84 2246.91 1545.26 Q2243.86 1540.65 2243.86 1531.93 Q2243.86 1523.18 2246.91 1518.59 Q2249.99 1513.99 2255.8 1513.99 Z" fill="#000000" fill-rule="evenodd" fill-opacity="1" /><path clip-path="url(#clip080)" d="M 0 0 M2300.98 1523.71 L2290.41 1534.33 L2300.98 1544.91 L2298.23 1547.71 L2287.61 1537.09 L2276.98 1547.71 L2274.25 1544.91 L2284.8 1534.33 L2274.25 1523.71 L2276.98 1520.91 L2287.61 1531.53 L2298.23 1520.91 L2300.98 1523.71 Z" fill="#000000" fill-rule="evenodd" fill-opacity="1" /><path clip-path="url(#clip080)" d="M 0 0 M2306.86 1545.24 L2314.5 1545.24 L2314.5 1518.87 L2306.19 1520.54 L2306.19 1516.28 L2314.46 1514.61 L2319.13 1514.61 L2319.13 1545.24 L2326.77 1545.24 L2326.77 1549.17 L2306.86 1549.17 L2306.86 1545.24 Z" fill="#000000" fill-rule="evenodd" fill-opacity="1" /><path clip-path="url(#clip080)" d="M 0 0 M2341.84 1517.69 Q2338.23 1517.69 2336.4 1521.26 Q2334.6 1524.8 2334.6 1531.93 Q2334.6 1539.03 2336.4 1542.6 Q2338.23 1546.14 2341.84 1546.14 Q2345.48 1546.14 2347.28 1542.6 Q2349.11 1539.03 2349.11 1531.93 Q2349.11 1524.8 2347.28 1521.26 Q2345.48 1517.69 2341.84 1517.69 M2341.84 1513.99 Q2347.65 1513.99 2350.71 1518.59 Q2353.79 1523.18 2353.79 1531.93 Q2353.79 1540.65 2350.71 1545.26 Q2347.65 1549.84 2341.84 1549.84 Q2336.03 1549.84 2332.95 1545.26 Q2329.9 1540.65 2329.9 1531.93 Q2329.9 1523.18 2332.95 1518.59 Q2336.03 1513.99 2341.84 1513.99 Z" fill="#000000" fill-rule="evenodd" fill-opacity="1" /><path clip-path="url(#clip080)" d="M 0 0 M2354.97 1493.68 L2369.89 1493.68 L2369.89 1496.88 L2358.45 1496.88 L2358.45 1503.76 Q2359.28 1503.48 2360.1 1503.35 Q2360.93 1503.2 2361.76 1503.2 Q2366.46 1503.2 2369.21 1505.77 Q2371.95 1508.35 2371.95 1512.75 Q2371.95 1517.29 2369.13 1519.81 Q2366.31 1522.31 2361.18 1522.31 Q2359.41 1522.31 2357.57 1522.01 Q2355.74 1521.71 2353.79 1521.1 L2353.79 1517.29 Q2355.48 1518.21 2357.28 1518.66 Q2359.09 1519.11 2361.1 1519.11 Q2364.36 1519.11 2366.26 1517.4 Q2368.15 1515.69 2368.15 1512.75 Q2368.15 1509.82 2366.26 1508.11 Q2364.36 1506.4 2361.1 1506.4 Q2359.58 1506.4 2358.05 1506.73 Q2356.55 1507.07 2354.97 1507.79 L2354.97 1493.68 Z" fill="#000000" fill-rule="evenodd" fill-opacity="1" /><path clip-path="url(#clip080)" d="M 0 0 M65.793 1385.03 L73.4319 1385.03 L73.4319 1358.67 L65.1217 1360.33 L65.1217 1356.08 L73.3856 1354.41 L78.0615 1354.41 L78.0615 1385.03 L85.7003 1385.03 L85.7003 1388.97 L65.793 1388.97 L65.793 1385.03 Z" fill="#000000" fill-rule="evenodd" fill-opacity="1" /><path clip-path="url(#clip080)" d="M 0 0 M90.7698 1383.09 L95.654 1383.09 L95.654 1388.97 L90.7698 1388.97 L90.7698 1383.09 Z" fill="#000000" fill-rule="evenodd" fill-opacity="1" /><path clip-path="url(#clip080)" d="M 0 0 M100.862 1388.25 L100.862 1383.99 Q102.622 1384.83 104.427 1385.27 Q106.233 1385.71 107.969 1385.71 Q112.598 1385.71 115.029 1382.6 Q117.483 1379.48 117.83 1373.14 Q116.487 1375.13 114.427 1376.19 Q112.367 1377.26 109.867 1377.26 Q104.682 1377.26 101.649 1374.13 Q98.6401 1370.98 98.6401 1365.54 Q98.6401 1360.22 101.788 1357 Q104.936 1353.78 110.168 1353.78 Q116.163 1353.78 119.311 1358.39 Q122.483 1362.97 122.483 1371.72 Q122.483 1379.89 118.594 1384.78 Q114.728 1389.64 108.177 1389.64 Q106.418 1389.64 104.612 1389.29 Q102.807 1388.95 100.862 1388.25 M110.168 1373.6 Q113.316 1373.6 115.145 1371.45 Q116.996 1369.29 116.996 1365.54 Q116.996 1361.82 115.145 1359.66 Q113.316 1357.49 110.168 1357.49 Q107.02 1357.49 105.168 1359.66 Q103.339 1361.82 103.339 1365.54 Q103.339 1369.29 105.168 1371.45 Q107.02 1373.6 110.168 1373.6 Z" fill="#000000" fill-rule="evenodd" fill-opacity="1" /><path clip-path="url(#clip080)" d="M 0 0 M137.552 1372.56 Q134.219 1372.56 132.297 1374.34 Q130.399 1376.12 130.399 1379.25 Q130.399 1382.37 132.297 1384.15 Q134.219 1385.94 137.552 1385.94 Q140.885 1385.94 142.807 1384.15 Q144.728 1382.35 144.728 1379.25 Q144.728 1376.12 142.807 1374.34 Q140.908 1372.56 137.552 1372.56 M132.876 1370.57 Q129.867 1369.83 128.177 1367.77 Q126.51 1365.71 126.51 1362.74 Q126.51 1358.6 129.45 1356.19 Q132.413 1353.78 137.552 1353.78 Q142.714 1353.78 145.654 1356.19 Q148.594 1358.6 148.594 1362.74 Q148.594 1365.71 146.904 1367.77 Q145.237 1369.83 142.251 1370.57 Q145.631 1371.35 147.506 1373.64 Q149.404 1375.94 149.404 1379.25 Q149.404 1384.27 146.325 1386.96 Q143.269 1389.64 137.552 1389.64 Q131.834 1389.64 128.756 1386.96 Q125.7 1384.27 125.7 1379.25 Q125.7 1375.94 127.598 1373.64 Q129.496 1371.35 132.876 1370.57 M131.163 1363.18 Q131.163 1365.87 132.83 1367.37 Q134.52 1368.88 137.552 1368.88 Q140.561 1368.88 142.251 1367.37 Q143.964 1365.87 143.964 1363.18 Q143.964 1360.5 142.251 1358.99 Q140.561 1357.49 137.552 1357.49 Q134.52 1357.49 132.83 1358.99 Q131.163 1360.5 131.163 1363.18 Z" fill="#000000" fill-rule="evenodd" fill-opacity="1" /><path clip-path="url(#clip080)" d="M 0 0 M65.8856 1189.8 L73.5245 1189.8 L73.5245 1163.43 L65.2143 1165.1 L65.2143 1160.84 L73.4782 1159.17 L78.1541 1159.17 L78.1541 1189.8 L85.7929 1189.8 L85.7929 1193.73 L65.8856 1193.73 L65.8856 1189.8 Z" fill="#000000" fill-rule="evenodd" fill-opacity="1" /><path clip-path="url(#clip080)" d="M 0 0 M90.8623 1187.85 L95.7466 1187.85 L95.7466 1193.73 L90.8623 1193.73 L90.8623 1187.85 Z" fill="#000000" fill-rule="evenodd" fill-opacity="1" /><path clip-path="url(#clip080)" d="M 0 0 M100.955 1193.01 L100.955 1188.75 Q102.714 1189.59 104.52 1190.03 Q106.325 1190.47 108.061 1190.47 Q112.691 1190.47 115.121 1187.37 Q117.575 1184.24 117.922 1177.9 Q116.58 1179.89 114.52 1180.95 Q112.459 1182.02 109.959 1182.02 Q104.774 1182.02 101.742 1178.89 Q98.7327 1175.74 98.7327 1170.31 Q98.7327 1164.98 101.881 1161.76 Q105.029 1158.55 110.26 1158.55 Q116.256 1158.55 119.404 1163.15 Q122.575 1167.74 122.575 1176.49 Q122.575 1184.66 118.686 1189.54 Q114.821 1194.4 108.27 1194.4 Q106.51 1194.4 104.705 1194.06 Q102.899 1193.71 100.955 1193.01 M110.26 1178.36 Q113.409 1178.36 115.237 1176.21 Q117.089 1174.06 117.089 1170.31 Q117.089 1166.58 115.237 1164.43 Q113.409 1162.25 110.26 1162.25 Q107.112 1162.25 105.26 1164.43 Q103.432 1166.58 103.432 1170.31 Q103.432 1174.06 105.26 1176.21 Q107.112 1178.36 110.26 1178.36 Z" fill="#000000" fill-rule="evenodd" fill-opacity="1" /><path clip-path="url(#clip080)" d="M 0 0 M127.783 1193.01 L127.783 1188.75 Q129.543 1189.59 131.348 1190.03 Q133.154 1190.47 134.89 1190.47 Q139.519 1190.47 141.95 1187.37 Q144.404 1184.24 144.751 1177.9 Q143.408 1179.89 141.348 1180.95 Q139.288 1182.02 136.788 1182.02 Q131.603 1182.02 128.57 1178.89 Q125.561 1175.74 125.561 1170.31 Q125.561 1164.98 128.709 1161.76 Q131.857 1158.55 137.089 1158.55 Q143.084 1158.55 146.232 1163.15 Q149.404 1167.74 149.404 1176.49 Q149.404 1184.66 145.515 1189.54 Q141.649 1194.4 135.098 1194.4 Q133.339 1194.4 131.533 1194.06 Q129.728 1193.71 127.783 1193.01 M137.089 1178.36 Q140.237 1178.36 142.066 1176.21 Q143.918 1174.06 143.918 1170.31 Q143.918 1166.58 142.066 1164.43 Q140.237 1162.25 137.089 1162.25 Q133.941 1162.25 132.089 1164.43 Q130.26 1166.58 130.26 1170.31 Q130.26 1174.06 132.089 1176.21 Q133.941 1178.36 137.089 1178.36 Z" fill="#000000" fill-rule="evenodd" fill-opacity="1" /><path clip-path="url(#clip080)" d="M 0 0 M69.1032 994.558 L85.4226 994.558 L85.4226 998.493 L63.4782 998.493 L63.4782 994.558 Q66.1403 991.803 70.7236 987.174 Q75.33 982.521 76.5106 981.178 Q78.7559 978.655 79.6356 976.919 Q80.5383 975.16 80.5383 973.47 Q80.5383 970.715 78.5939 968.979 Q76.6726 967.243 73.5708 967.243 Q71.3717 967.243 68.918 968.007 Q66.4875 968.771 63.7097 970.322 L63.7097 965.6 Q66.5338 964.466 68.9875 963.887 Q71.4412 963.308 73.4782 963.308 Q78.8485 963.308 82.0429 965.993 Q85.2374 968.678 85.2374 973.169 Q85.2374 975.299 84.4272 977.22 Q83.6402 979.118 81.5337 981.711 Q80.955 982.382 77.8532 985.6 Q74.7513 988.794 69.1032 994.558 Z" fill="#000000" fill-rule="evenodd" fill-opacity="1" /><path clip-path="url(#clip080)" d="M 0 0 M90.492 992.614 L95.3762 992.614 L95.3762 998.493 L90.492 998.493 L90.492 992.614 Z" fill="#000000" fill-rule="evenodd" fill-opacity="1" /><path clip-path="url(#clip080)" d="M 0 0 M110.446 967.012 Q106.834 967.012 105.006 970.577 Q103.2 974.118 103.2 981.248 Q103.2 988.354 105.006 991.919 Q106.834 995.461 110.446 995.461 Q114.08 995.461 115.885 991.919 Q117.714 988.354 117.714 981.248 Q117.714 974.118 115.885 970.577 Q114.08 967.012 110.446 967.012 M110.446 963.308 Q116.256 963.308 119.311 967.915 Q122.39 972.498 122.39 981.248 Q122.39 989.975 119.311 994.581 Q116.256 999.164 110.446 999.164 Q104.635 999.164 101.557 994.581 Q98.5012 989.975 98.5012 981.248 Q98.5012 972.498 101.557 967.915 Q104.635 963.308 110.446 963.308 Z" fill="#000000" fill-rule="evenodd" fill-opacity="1" /><path clip-path="url(#clip080)" d="M 0 0 M137.459 967.012 Q133.848 967.012 132.02 970.577 Q130.214 974.118 130.214 981.248 Q130.214 988.354 132.02 991.919 Q133.848 995.461 137.459 995.461 Q141.094 995.461 142.899 991.919 Q144.728 988.354 144.728 981.248 Q144.728 974.118 142.899 970.577 Q141.094 967.012 137.459 967.012 M137.459 963.308 Q143.269 963.308 146.325 967.915 Q149.404 972.498 149.404 981.248 Q149.404 989.975 146.325 994.581 Q143.269 999.164 137.459 999.164 Q131.649 999.164 128.57 994.581 Q125.515 989.975 125.515 981.248 Q125.515 972.498 128.57 967.915 Q131.649 963.308 137.459 963.308 Z" fill="#000000" fill-rule="evenodd" fill-opacity="1" /><path clip-path="url(#clip080)" d="M 0 0 M70.33 799.32 L86.6494 799.32 L86.6494 803.255 L64.7051 803.255 L64.7051 799.32 Q67.3671 796.565 71.9504 791.936 Q76.5569 787.283 77.7374 785.941 Q79.9828 783.417 80.8624 781.681 Q81.7652 779.922 81.7652 778.232 Q81.7652 775.478 79.8207 773.742 Q77.8995 772.005 74.7976 772.005 Q72.5986 772.005 70.1449 772.769 Q67.7143 773.533 64.9366 775.084 L64.9366 770.362 Q67.7606 769.228 70.2143 768.649 Q72.668 768.07 74.705 768.07 Q80.0754 768.07 83.2698 770.755 Q86.4642 773.441 86.4642 777.931 Q86.4642 780.061 85.654 781.982 Q84.867 783.88 82.7605 786.473 Q82.1818 787.144 79.08 790.362 Q75.9782 793.556 70.33 799.32 Z" fill="#000000" fill-rule="evenodd" fill-opacity="1" /><path clip-path="url(#clip080)" d="M 0 0 M91.7188 797.376 L96.6031 797.376 L96.6031 803.255 L91.7188 803.255 L91.7188 797.376 Z" fill="#000000" fill-rule="evenodd" fill-opacity="1" /><path clip-path="url(#clip080)" d="M 0 0 M111.672 771.774 Q108.061 771.774 106.233 775.339 Q104.427 778.88 104.427 786.01 Q104.427 793.116 106.233 796.681 Q108.061 800.223 111.672 800.223 Q115.307 800.223 117.112 796.681 Q118.941 793.116 118.941 786.01 Q118.941 778.88 117.112 775.339 Q115.307 771.774 111.672 771.774 M111.672 768.07 Q117.483 768.07 120.538 772.677 Q123.617 777.26 123.617 786.01 Q123.617 794.737 120.538 799.343 Q117.483 803.927 111.672 803.927 Q105.862 803.927 102.784 799.343 Q99.728 794.737 99.728 786.01 Q99.728 777.26 102.784 772.677 Q105.862 768.07 111.672 768.07 Z" fill="#000000" fill-rule="evenodd" fill-opacity="1" /><path clip-path="url(#clip080)" d="M 0 0 M129.496 799.32 L137.135 799.32 L137.135 772.954 L128.825 774.621 L128.825 770.362 L137.089 768.695 L141.765 768.695 L141.765 799.32 L149.404 799.32 L149.404 803.255 L129.496 803.255 L129.496 799.32 Z" fill="#000000" fill-rule="evenodd" fill-opacity="1" /><path clip-path="url(#clip080)" d="M 0 0 M70.7004 604.082 L87.0198 604.082 L87.0198 608.017 L65.0754 608.017 L65.0754 604.082 Q67.7375 601.328 72.3208 596.698 Q76.9272 592.045 78.1078 590.703 Q80.3531 588.18 81.2328 586.443 Q82.1355 584.684 82.1355 582.994 Q82.1355 580.24 80.1911 578.504 Q78.2698 576.768 75.168 576.768 Q72.9689 576.768 70.5152 577.531 Q68.0847 578.295 65.3069 579.846 L65.3069 575.124 Q68.131 573.99 70.5847 573.411 Q73.0384 572.832 75.0754 572.832 Q80.4457 572.832 83.6402 575.518 Q86.8346 578.203 86.8346 582.693 Q86.8346 584.823 86.0244 586.744 Q85.2374 588.642 83.1309 591.235 Q82.5522 591.906 79.4504 595.124 Q76.3485 598.318 70.7004 604.082 Z" fill="#000000" fill-rule="evenodd" fill-opacity="1" /><path clip-path="url(#clip080)" d="M 0 0 M92.0892 602.138 L96.9734 602.138 L96.9734 608.017 L92.0892 608.017 L92.0892 602.138 Z" fill="#000000" fill-rule="evenodd" fill-opacity="1" /><path clip-path="url(#clip080)" d="M 0 0 M112.043 576.536 Q108.432 576.536 106.603 580.101 Q104.797 583.642 104.797 590.772 Q104.797 597.879 106.603 601.443 Q108.432 604.985 112.043 604.985 Q115.677 604.985 117.483 601.443 Q119.311 597.879 119.311 590.772 Q119.311 583.642 117.483 580.101 Q115.677 576.536 112.043 576.536 M112.043 572.832 Q117.853 572.832 120.908 577.439 Q123.987 582.022 123.987 590.772 Q123.987 599.499 120.908 604.105 Q117.853 608.689 112.043 608.689 Q106.233 608.689 103.154 604.105 Q100.098 599.499 100.098 590.772 Q100.098 582.022 103.154 577.439 Q106.233 572.832 112.043 572.832 Z" fill="#000000" fill-rule="evenodd" fill-opacity="1" /><path clip-path="url(#clip080)" d="M 0 0 M133.084 604.082 L149.404 604.082 L149.404 608.017 L127.459 608.017 L127.459 604.082 Q130.121 601.328 134.705 596.698 Q139.311 592.045 140.492 590.703 Q142.737 588.18 143.617 586.443 Q144.519 584.684 144.519 582.994 Q144.519 580.24 142.575 578.504 Q140.654 576.768 137.552 576.768 Q135.353 576.768 132.899 577.531 Q130.469 578.295 127.691 579.846 L127.691 575.124 Q130.515 573.99 132.969 573.411 Q135.422 572.832 137.459 572.832 Q142.83 572.832 146.024 575.518 Q149.219 578.203 149.219 582.693 Q149.219 584.823 148.408 586.744 Q147.621 588.642 145.515 591.235 Q144.936 591.906 141.834 595.124 Q138.732 598.318 133.084 604.082 Z" fill="#000000" fill-rule="evenodd" fill-opacity="1" /><path clip-path="url(#clip080)" d="M 0 0 M69.7513 408.844 L86.0707 408.844 L86.0707 412.779 L64.1264 412.779 L64.1264 408.844 Q66.7884 406.09 71.3717 401.46 Q75.9782 396.807 77.1587 395.465 Q79.4041 392.942 80.2837 391.206 Q81.1865 389.446 81.1865 387.756 Q81.1865 385.002 79.242 383.266 Q77.3208 381.53 74.2189 381.53 Q72.0199 381.53 69.5662 382.294 Q67.1356 383.057 64.3579 384.608 L64.3579 379.886 Q67.1819 378.752 69.6356 378.173 Q72.0893 377.594 74.1263 377.594 Q79.4967 377.594 82.6911 380.28 Q85.8855 382.965 85.8855 387.456 Q85.8855 389.585 85.0753 391.506 Q84.2883 393.405 82.1818 395.997 Q81.6031 396.668 78.5013 399.886 Q75.3995 403.08 69.7513 408.844 Z" fill="#000000" fill-rule="evenodd" fill-opacity="1" /><path clip-path="url(#clip080)" d="M 0 0 M91.1401 406.9 L96.0244 406.9 L96.0244 412.779 L91.1401 412.779 L91.1401 406.9 Z" fill="#000000" fill-rule="evenodd" fill-opacity="1" /><path clip-path="url(#clip080)" d="M 0 0 M111.094 381.298 Q107.483 381.298 105.654 384.863 Q103.848 388.405 103.848 395.534 Q103.848 402.641 105.654 406.205 Q107.483 409.747 111.094 409.747 Q114.728 409.747 116.534 406.205 Q118.362 402.641 118.362 395.534 Q118.362 388.405 116.534 384.863 Q114.728 381.298 111.094 381.298 M111.094 377.594 Q116.904 377.594 119.959 382.201 Q123.038 386.784 123.038 395.534 Q123.038 404.261 119.959 408.867 Q116.904 413.451 111.094 413.451 Q105.284 413.451 102.205 408.867 Q99.1493 404.261 99.1493 395.534 Q99.1493 386.784 102.205 382.201 Q105.284 377.594 111.094 377.594 Z" fill="#000000" fill-rule="evenodd" fill-opacity="1" /><path clip-path="url(#clip080)" d="M 0 0 M142.274 394.145 Q145.631 394.863 147.506 397.131 Q149.404 399.4 149.404 402.733 Q149.404 407.849 145.885 410.65 Q142.367 413.451 135.885 413.451 Q133.709 413.451 131.395 413.011 Q129.103 412.594 126.649 411.738 L126.649 407.224 Q128.594 408.358 130.908 408.937 Q133.223 409.516 135.746 409.516 Q140.144 409.516 142.436 407.78 Q144.751 406.043 144.751 402.733 Q144.751 399.678 142.598 397.965 Q140.469 396.229 136.649 396.229 L132.621 396.229 L132.621 392.386 L136.834 392.386 Q140.283 392.386 142.112 391.02 Q143.941 389.631 143.941 387.039 Q143.941 384.377 142.043 382.965 Q140.168 381.53 136.649 381.53 Q134.728 381.53 132.529 381.946 Q130.33 382.363 127.691 383.243 L127.691 379.076 Q130.353 378.335 132.668 377.965 Q135.006 377.594 137.066 377.594 Q142.39 377.594 145.492 380.025 Q148.594 382.432 148.594 386.553 Q148.594 389.423 146.95 391.414 Q145.306 393.381 142.274 394.145 Z" fill="#000000" fill-rule="evenodd" fill-opacity="1" /><path clip-path="url(#clip080)" d="M 0 0 M68.6171 213.606 L84.9365 213.606 L84.9365 217.542 L62.9921 217.542 L62.9921 213.606 Q65.6541 210.852 70.2375 206.222 Q74.8439 201.569 76.0245 200.227 Q78.2698 197.704 79.1494 195.968 Q80.0522 194.208 80.0522 192.519 Q80.0522 189.764 78.1078 188.028 Q76.1865 186.292 73.0847 186.292 Q70.8856 186.292 68.4319 187.056 Q66.0014 187.82 63.2236 189.37 L63.2236 184.648 Q66.0477 183.514 68.5014 182.935 Q70.955 182.357 72.9921 182.357 Q78.3624 182.357 81.5568 185.042 Q84.7513 187.727 84.7513 192.218 Q84.7513 194.347 83.9411 196.269 Q83.1541 198.167 81.0476 200.759 Q80.4689 201.431 77.367 204.648 Q74.2652 207.843 68.6171 213.606 Z" fill="#000000" fill-rule="evenodd" fill-opacity="1" /><path clip-path="url(#clip080)" d="M 0 0 M90.0059 211.662 L94.8901 211.662 L94.8901 217.542 L90.0059 217.542 L90.0059 211.662 Z" fill="#000000" fill-rule="evenodd" fill-opacity="1" /><path clip-path="url(#clip080)" d="M 0 0 M109.959 186.06 Q106.348 186.06 104.52 189.625 Q102.714 193.167 102.714 200.296 Q102.714 207.403 104.52 210.968 Q106.348 214.509 109.959 214.509 Q113.594 214.509 115.399 210.968 Q117.228 207.403 117.228 200.296 Q117.228 193.167 115.399 189.625 Q113.594 186.06 109.959 186.06 M109.959 182.357 Q115.77 182.357 118.825 186.963 Q121.904 191.546 121.904 200.296 Q121.904 209.023 118.825 213.63 Q115.77 218.213 109.959 218.213 Q104.149 218.213 101.071 213.63 Q98.0151 209.023 98.0151 200.296 Q98.0151 191.546 101.071 186.963 Q104.149 182.357 109.959 182.357 Z" fill="#000000" fill-rule="evenodd" fill-opacity="1" /><path clip-path="url(#clip080)" d="M 0 0 M139.82 187.056 L128.015 205.505 L139.82 205.505 L139.82 187.056 M138.594 182.982 L144.473 182.982 L144.473 205.505 L149.404 205.505 L149.404 209.393 L144.473 209.393 L144.473 217.542 L139.82 217.542 L139.82 209.393 L124.219 209.393 L124.219 204.88 L138.594 182.982 Z" fill="#000000" fill-rule="evenodd" fill-opacity="1" /><path clip-path="url(#clip082)" d="
M235.083 1370.57 L255.851 1346.66 L276.619 1172.12 L297.386 1174.91 L318.154 1365.23 L338.921 1190.04 L359.689 1250.02 L380.457 1392.01 L401.224 1162.75 L421.992 1255.55 
  L442.76 1339.29 L463.527 1023 L484.295 1433.78 L505.062 1255.03 L525.83 1266.19 L546.598 1262.87 L567.365 1124.59 L588.133 1214.35 L608.9 1192.9 L629.668 1011.27 
  L650.436 1163.58 L671.203 1173.68 L691.971 1067.1 L712.738 1043.37 L733.506 1278.43 L754.274 1096.52 L775.041 1114.37 L795.809 1013.35 L816.576 1014.24 L837.344 1068 
  L858.112 1110.72 L878.879 1132.18 L899.647 1119.97 L920.414 1072.4 L941.182 1131.28 L961.95 1089.28 L982.717 1056.6 L1003.48 987.146 L1024.25 1126.62 L1045.02 1033.57 
  L1065.79 1106.05 L1086.56 1165.21 L1107.32 1117.16 L1128.09 1056.67 L1148.86 1001.91 L1169.63 1165.03 L1190.39 1085.48 L1211.16 1082.89 L1231.93 1062.77 L1252.7 1081.96 
  L1273.46 1149.08 L1294.23 1002.59 L1315 1017.43 L1335.77 1114.95 L1356.53 1066.52 L1377.3 1156.91 L1398.07 1090.11 L1418.84 1057.7 L1439.6 1041.2 L1460.37 1053.92 
  L1481.14 1095.14 L1501.91 1036.8 L1522.67 1016.53 L1543.44 1108.41 L1564.21 1028.3 L1584.98 1040.39 L1605.75 1025.18 L1626.51 1055.74 L1647.28 1033.08 L1668.05 1083.86 
  L1688.82 1054.11 L1709.58 1013.77 L1730.35 1008.28 L1751.12 1052.25 L1771.89 1082.93 L1792.65 1012.81 L1813.42 1104.31 L1834.19 1029.41 L1854.96 988.582 L1875.72 1043.18 
  L1896.49 1133.92 L1917.26 1059.49 L1938.03 994 L1958.79 1087.74 L1979.56 1074.81 L2000.33 1055.89 L2021.1 972.379 L2041.86 1032.46 L2062.63 1021.11 L2083.4 1062.23 
  L2104.17 1047.31 L2124.94 1049.27 L2145.7 1036.04 L2166.47 1020.43 L2187.24 1015.67 L2208.01 1028.13 L2228.77 1117.55 L2249.54 1050.89 L2270.31 969.628 L2291.08 1026.81 
  L2291.08 896.049 L2270.31 838.598 L2249.54 919.024 L2228.77 984.933 L2208.01 894.709 L2187.24 881.709 L2166.47 885.786 L2145.7 900.413 L2124.94 913.066 L2104.17 910.45 
  L2083.4 924.51 L2062.63 882.598 L2041.86 893.258 L2021.1 832.285 L2000.33 914.9 L1979.56 933.48 L1958.79 945.243 L1938.03 850.51 L1917.26 914.71 L1896.49 988.597 
  L1875.72 897.207 L1854.96 841.306 L1834.19 881.546 L1813.42 955.374 L1792.65 863.241 L1771.89 932.365 L1751.12 900.841 L1730.35 855.022 L1709.58 859.773 L1688.82 899.556 
  L1668.05 928.144 L1647.28 875.341 L1626.51 897.637 L1605.75 865.407 L1584.98 879.473 L1564.21 866.196 L1543.44 945.085 L1522.67 852.125 L1501.91 870.881 L1481.14 927.575 
  L1460.37 884.769 L1439.6 870.748 L1418.84 886.975 L1398.07 917.465 L1377.3 981.959 L1356.53 890.494 L1335.77 936.995 L1315 837.883 L1294.23 820.855 L1273.46 966.353 
  L1252.7 897.941 L1231.93 876.502 L1211.16 894.791 L1190.39 895.324 L1169.63 972.708 L1148.86 807.351 L1128.09 859.715 L1107.32 918.274 L1086.56 964.482 L1065.79 901.79 
  L1045.02 826.526 L1024.25 917.399 L1003.48 775.795 L982.717 841.235 L961.95 871.583 L941.182 911.038 L920.414 847.879 L899.647 892.038 L878.879 900.69 L858.112 877.132 
  L837.344 829.178 L816.576 770.475 L795.809 765.771 L775.041 863.905 L754.274 840.167 L733.506 1017.33 L712.738 775.834 L691.971 795.077 L671.203 895.072 L650.436 879.897 
  L629.668 718.106 L608.9 894.796 L588.133 907.266 L567.365 807.656 L546.598 937.175 L525.83 928.059 L505.062 903.24 L484.295 1072.88 L463.527 645.503 L442.76 946.341 
  L421.992 842.514 L401.224 725.259 L380.457 925.963 L359.689 760.476 L338.921 658.307 L318.154 783.73 L297.386 520.431 L276.619 430.141 L255.851 413.428 L235.083 87.6286 
   Z
  " fill="#009af9" fill-rule="evenodd" fill-opacity="0.5"/>
<polyline clip-path="url(#clip082)" style="stroke:#009af9; stroke-width:4; stroke-opacity:1; fill:none" points="
  235.083,729.098 255.851,880.043 276.619,801.129 297.386,847.671 318.154,1074.48 338.921,924.174 359.689,1005.25 380.457,1158.99 401.224,944.003 421.992,1049.03 
  442.76,1142.82 463.527,834.253 484.295,1253.33 505.062,1079.14 525.83,1097.12 546.598,1100.02 567.365,966.122 588.133,1060.81 608.9,1043.85 629.668,864.686 
  650.436,1021.74 671.203,1034.38 691.971,931.087 712.738,909.602 733.506,1147.88 754.274,968.342 775.041,989.136 795.809,889.561 816.576,892.358 837.344,948.59 
  858.112,993.929 878.879,1016.43 899.647,1006 920.414,960.139 941.182,1021.16 961.95,980.43 982.717,948.915 1003.48,881.471 1024.25,1022.01 1045.02,930.047 
  1065.79,1003.92 1086.56,1064.85 1107.32,1017.72 1128.09,958.194 1148.86,904.632 1169.63,1068.87 1190.39,990.404 1211.16,988.838 1231.93,969.638 1252.7,989.95 
  1273.46,1057.72 1294.23,911.723 1315,927.655 1335.77,1025.97 1356.53,978.508 1377.3,1069.44 1398.07,1003.79 1418.84,972.336 1439.6,955.974 1460.37,969.343 
  1481.14,1011.36 1501.91,953.839 1522.67,934.326 1543.44,1026.75 1564.21,947.246 1584.98,959.933 1605.75,945.291 1626.51,976.69 1647.28,954.211 1668.05,1006 
  1688.82,976.833 1709.58,936.771 1730.35,931.65 1751.12,976.548 1771.89,1007.65 1792.65,938.023 1813.42,1029.84 1834.19,955.476 1854.96,914.944 1875.72,970.192 
  1896.49,1061.26 1917.26,987.101 1938.03,922.255 1958.79,1016.49 1979.56,1004.15 2000.33,985.396 2021.1,902.332 2041.86,962.858 2062.63,951.854 2083.4,993.371 
  2104.17,978.881 2124.94,981.168 2145.7,968.225 2166.47,953.11 2187.24,948.691 2208.01,961.421 2228.77,1051.24 2249.54,984.957 2270.31,904.113 2291.08,961.429 
  
  "/>
<polyline clip-path="url(#clip082)" style="stroke:#e26f46; stroke-width:4; stroke-opacity:1; fill:none" stroke-dasharray="16, 10" points="
  -2005.95,981.213 4532.11,981.213 
  "/>
<path clip-path="url(#clip080)" d="
M1636.81 276.248 L2280.11 276.248 L2280.11 94.8081 L1636.81 94.8081  Z
  " fill="#ffffff" fill-rule="evenodd" fill-opacity="1"/>
<polyline clip-path="url(#clip080)" style="stroke:#000000; stroke-width:4; stroke-opacity:1; fill:none" points="
  1636.81,276.248 2280.11,276.248 2280.11,94.8081 1636.81,94.8081 1636.81,276.248 
  "/>
<polyline clip-path="url(#clip080)" style="stroke:#009af9; stroke-width:4; stroke-opacity:1; fill:none" points="
  1661.02,155.288 1806.31,155.288 
  "/>
<path clip-path="url(#clip080)" d="M 0 0 M1843.93 159.536 Q1838.77 159.536 1836.78 160.716 Q1834.78 161.897 1834.78 164.744 Q1834.78 167.013 1836.27 168.355 Q1837.77 169.675 1840.34 169.675 Q1843.88 169.675 1846.01 167.175 Q1848.16 164.651 1848.16 160.485 L1848.16 159.536 L1843.93 159.536 M1852.42 157.777 L1852.42 172.568 L1848.16 172.568 L1848.16 168.633 Q1846.71 170.994 1844.53 172.128 Q1842.35 173.239 1839.21 173.239 Q1835.22 173.239 1832.86 171.017 Q1830.53 168.772 1830.53 165.022 Q1830.53 160.647 1833.44 158.425 Q1836.38 156.202 1842.19 156.202 L1848.16 156.202 L1848.16 155.786 Q1848.16 152.846 1846.22 151.249 Q1844.3 149.628 1840.8 149.628 Q1838.58 149.628 1836.47 150.161 Q1834.37 150.693 1832.42 151.758 L1832.42 147.823 Q1834.76 146.92 1836.96 146.48 Q1839.16 146.017 1841.24 146.017 Q1846.87 146.017 1849.65 148.934 Q1852.42 151.851 1852.42 157.777 Z" fill="#000000" fill-rule="evenodd" fill-opacity="1" /><path clip-path="url(#clip080)" d="M 0 0 M1861.01 168.679 L1861.01 182.429 L1856.73 182.429 L1856.73 146.642 L1861.01 146.642 L1861.01 150.577 Q1862.35 148.263 1864.39 147.152 Q1866.45 146.017 1869.3 146.017 Q1874.02 146.017 1876.96 149.767 Q1879.92 153.517 1879.92 159.628 Q1879.92 165.739 1876.96 169.489 Q1874.02 173.239 1869.3 173.239 Q1866.45 173.239 1864.39 172.128 Q1862.35 170.994 1861.01 168.679 M1875.5 159.628 Q1875.5 154.929 1873.56 152.267 Q1871.64 149.582 1868.26 149.582 Q1864.88 149.582 1862.93 152.267 Q1861.01 154.929 1861.01 159.628 Q1861.01 164.327 1862.93 167.013 Q1864.88 169.675 1868.26 169.675 Q1871.64 169.675 1873.56 167.013 Q1875.5 164.327 1875.5 159.628 Z" fill="#000000" fill-rule="evenodd" fill-opacity="1" /><path clip-path="url(#clip080)" d="M 0 0 M1888.51 168.679 L1888.51 182.429 L1884.23 182.429 L1884.23 146.642 L1888.51 146.642 L1888.51 150.577 Q1889.85 148.263 1891.89 147.152 Q1893.95 146.017 1896.8 146.017 Q1901.52 146.017 1904.46 149.767 Q1907.42 153.517 1907.42 159.628 Q1907.42 165.739 1904.46 169.489 Q1901.52 173.239 1896.8 173.239 Q1893.95 173.239 1891.89 172.128 Q1889.85 170.994 1888.51 168.679 M1903 159.628 Q1903 154.929 1901.06 152.267 Q1899.14 149.582 1895.76 149.582 Q1892.38 149.582 1890.43 152.267 Q1888.51 154.929 1888.51 159.628 Q1888.51 164.327 1890.43 167.013 Q1892.38 169.675 1895.76 169.675 Q1899.14 169.675 1901.06 167.013 Q1903 164.327 1903 159.628 Z" fill="#000000" fill-rule="evenodd" fill-opacity="1" /><path clip-path="url(#clip080)" d="M 0 0 M1926.91 150.624 Q1926.2 150.207 1925.34 150.022 Q1924.51 149.814 1923.49 149.814 Q1919.88 149.814 1917.93 152.175 Q1916.01 154.513 1916.01 158.911 L1916.01 172.568 L1911.73 172.568 L1911.73 146.642 L1916.01 146.642 L1916.01 150.67 Q1917.35 148.309 1919.51 147.175 Q1921.66 146.017 1924.74 146.017 Q1925.18 146.017 1925.71 146.087 Q1926.24 146.133 1926.89 146.249 L1926.91 150.624 Z" fill="#000000" fill-rule="evenodd" fill-opacity="1" /><path clip-path="url(#clip080)" d="M 0 0 M1940.39 149.628 Q1936.96 149.628 1934.97 152.314 Q1932.98 154.976 1932.98 159.628 Q1932.98 164.281 1934.95 166.966 Q1936.94 169.628 1940.39 169.628 Q1943.79 169.628 1945.78 166.943 Q1947.77 164.258 1947.77 159.628 Q1947.77 155.022 1945.78 152.337 Q1943.79 149.628 1940.39 149.628 M1940.39 146.017 Q1945.94 146.017 1949.11 149.628 Q1952.28 153.24 1952.28 159.628 Q1952.28 165.994 1949.11 169.628 Q1945.94 173.239 1940.39 173.239 Q1934.81 173.239 1931.64 169.628 Q1928.49 165.994 1928.49 159.628 Q1928.49 153.24 1931.64 149.628 Q1934.81 146.017 1940.39 146.017 Z" fill="#000000" fill-rule="evenodd" fill-opacity="1" /><path clip-path="url(#clip080)" d="M 0 0 M1976.84 146.642 L1967.47 159.258 L1977.33 172.568 L1972.31 172.568 L1964.76 162.383 L1957.21 172.568 L1952.19 172.568 L1962.26 159.003 L1953.05 146.642 L1958.07 146.642 L1964.95 155.878 L1971.82 146.642 L1976.84 146.642 Z" fill="#000000" fill-rule="evenodd" fill-opacity="1" /><path clip-path="url(#clip080)" d="M 0 0 M1981.8 146.642 L1986.06 146.642 L1986.06 172.568 L1981.8 172.568 L1981.8 146.642 M1981.8 136.55 L1986.06 136.55 L1986.06 141.943 L1981.8 141.943 L1981.8 136.55 Z" fill="#000000" fill-rule="evenodd" fill-opacity="1" /><path clip-path="url(#clip080)" d="M 0 0 M2010.71 151.619 Q2012.31 148.749 2014.53 147.383 Q2016.75 146.017 2019.76 146.017 Q2023.81 146.017 2026.01 148.865 Q2028.21 151.689 2028.21 156.92 L2028.21 172.568 L2023.93 172.568 L2023.93 157.059 Q2023.93 153.332 2022.61 151.527 Q2021.29 149.721 2018.58 149.721 Q2015.27 149.721 2013.35 151.92 Q2011.43 154.119 2011.43 157.915 L2011.43 172.568 L2007.14 172.568 L2007.14 157.059 Q2007.14 153.309 2005.83 151.527 Q2004.51 149.721 2001.75 149.721 Q1998.49 149.721 1996.57 151.943 Q1994.65 154.142 1994.65 157.915 L1994.65 172.568 L1990.36 172.568 L1990.36 146.642 L1994.65 146.642 L1994.65 150.67 Q1996.1 148.286 1998.14 147.152 Q2000.18 146.017 2002.98 146.017 Q2005.8 146.017 2007.77 147.453 Q2009.76 148.888 2010.71 151.619 Z" fill="#000000" fill-rule="evenodd" fill-opacity="1" /><path clip-path="url(#clip080)" d="M 0 0 M2044.46 159.536 Q2039.3 159.536 2037.31 160.716 Q2035.32 161.897 2035.32 164.744 Q2035.32 167.013 2036.8 168.355 Q2038.3 169.675 2040.87 169.675 Q2044.41 169.675 2046.54 167.175 Q2048.7 164.651 2048.7 160.485 L2048.7 159.536 L2044.46 159.536 M2052.95 157.777 L2052.95 172.568 L2048.7 172.568 L2048.7 168.633 Q2047.24 170.994 2045.06 172.128 Q2042.89 173.239 2039.74 173.239 Q2035.76 173.239 2033.39 171.017 Q2031.06 168.772 2031.06 165.022 Q2031.06 160.647 2033.97 158.425 Q2036.91 156.202 2042.72 156.202 L2048.7 156.202 L2048.7 155.786 Q2048.7 152.846 2046.75 151.249 Q2044.83 149.628 2041.33 149.628 Q2039.11 149.628 2037.01 150.161 Q2034.9 150.693 2032.95 151.758 L2032.95 147.823 Q2035.29 146.92 2037.49 146.48 Q2039.69 146.017 2041.77 146.017 Q2047.4 146.017 2050.18 148.934 Q2052.95 151.851 2052.95 157.777 Z" fill="#000000" fill-rule="evenodd" fill-opacity="1" /><path clip-path="url(#clip080)" d="M 0 0 M2061.64 139.281 L2061.64 146.642 L2070.41 146.642 L2070.41 149.952 L2061.64 149.952 L2061.64 164.026 Q2061.64 167.198 2062.49 168.101 Q2063.37 169.003 2066.03 169.003 L2070.41 169.003 L2070.41 172.568 L2066.03 172.568 Q2061.1 172.568 2059.23 170.739 Q2057.35 168.888 2057.35 164.026 L2057.35 149.952 L2054.23 149.952 L2054.23 146.642 L2057.35 146.642 L2057.35 139.281 L2061.64 139.281 Z" fill="#000000" fill-rule="evenodd" fill-opacity="1" /><path clip-path="url(#clip080)" d="M 0 0 M2097.05 158.54 L2097.05 160.624 L2077.47 160.624 Q2077.75 165.022 2080.11 167.337 Q2082.49 169.628 2086.73 169.628 Q2089.18 169.628 2091.47 169.026 Q2093.79 168.425 2096.06 167.221 L2096.06 171.249 Q2093.76 172.221 2091.36 172.73 Q2088.95 173.239 2086.47 173.239 Q2080.27 173.239 2076.64 169.628 Q2073.02 166.017 2073.02 159.86 Q2073.02 153.494 2076.45 149.767 Q2079.9 146.017 2085.73 146.017 Q2090.96 146.017 2094 149.397 Q2097.05 152.753 2097.05 158.54 M2092.79 157.29 Q2092.75 153.795 2090.83 151.712 Q2088.93 149.628 2085.78 149.628 Q2082.21 149.628 2080.06 151.642 Q2077.93 153.656 2077.61 157.314 L2092.79 157.29 Z" fill="#000000" fill-rule="evenodd" fill-opacity="1" /><path clip-path="url(#clip080)" d="M 0 0 M2136.77 151.619 Q2138.37 148.749 2140.59 147.383 Q2142.82 146.017 2145.82 146.017 Q2149.88 146.017 2152.07 148.865 Q2154.27 151.689 2154.27 156.92 L2154.27 172.568 L2149.99 172.568 L2149.99 157.059 Q2149.99 153.332 2148.67 151.527 Q2147.35 149.721 2144.64 149.721 Q2141.33 149.721 2139.41 151.92 Q2137.49 154.119 2137.49 157.915 L2137.49 172.568 L2133.21 172.568 L2133.21 157.059 Q2133.21 153.309 2131.89 151.527 Q2130.57 149.721 2127.82 149.721 Q2124.55 149.721 2122.63 151.943 Q2120.71 154.142 2120.71 157.915 L2120.71 172.568 L2116.43 172.568 L2116.43 146.642 L2120.71 146.642 L2120.71 150.67 Q2122.17 148.286 2124.2 147.152 Q2126.24 146.017 2129.04 146.017 Q2131.87 146.017 2133.83 147.453 Q2135.82 148.888 2136.77 151.619 Z" fill="#000000" fill-rule="evenodd" fill-opacity="1" /><path clip-path="url(#clip080)" d="M 0 0 M2180.92 158.54 L2180.92 160.624 L2161.33 160.624 Q2161.61 165.022 2163.97 167.337 Q2166.36 169.628 2170.59 169.628 Q2173.05 169.628 2175.34 169.026 Q2177.65 168.425 2179.92 167.221 L2179.92 171.249 Q2177.63 172.221 2175.22 172.73 Q2172.82 173.239 2170.34 173.239 Q2164.13 173.239 2160.5 169.628 Q2156.89 166.017 2156.89 159.86 Q2156.89 153.494 2160.32 149.767 Q2163.76 146.017 2169.6 146.017 Q2174.83 146.017 2177.86 149.397 Q2180.92 152.753 2180.92 158.54 M2176.66 157.29 Q2176.61 153.795 2174.69 151.712 Q2172.79 149.628 2169.64 149.628 Q2166.08 149.628 2163.93 151.642 Q2161.8 153.656 2161.47 157.314 L2176.66 157.29 Z" fill="#000000" fill-rule="evenodd" fill-opacity="1" /><path clip-path="url(#clip080)" d="M 0 0 M2197.17 159.536 Q2192.01 159.536 2190.01 160.716 Q2188.02 161.897 2188.02 164.744 Q2188.02 167.013 2189.51 168.355 Q2191.01 169.675 2193.58 169.675 Q2197.12 169.675 2199.25 167.175 Q2201.4 164.651 2201.4 160.485 L2201.4 159.536 L2197.17 159.536 M2205.66 157.777 L2205.66 172.568 L2201.4 172.568 L2201.4 168.633 Q2199.94 170.994 2197.77 172.128 Q2195.59 173.239 2192.44 173.239 Q2188.46 173.239 2186.1 171.017 Q2183.76 168.772 2183.76 165.022 Q2183.76 160.647 2186.68 158.425 Q2189.62 156.202 2195.43 156.202 L2201.4 156.202 L2201.4 155.786 Q2201.4 152.846 2199.46 151.249 Q2197.54 149.628 2194.04 149.628 Q2191.82 149.628 2189.71 150.161 Q2187.61 150.693 2185.66 151.758 L2185.66 147.823 Q2188 146.92 2190.2 146.48 Q2192.4 146.017 2194.48 146.017 Q2200.11 146.017 2202.88 148.934 Q2205.66 151.851 2205.66 157.777 Z" fill="#000000" fill-rule="evenodd" fill-opacity="1" /><path clip-path="url(#clip080)" d="M 0 0 M2231.68 156.92 L2231.68 172.568 L2227.42 172.568 L2227.42 157.059 Q2227.42 153.378 2225.99 151.55 Q2224.55 149.721 2221.68 149.721 Q2218.23 149.721 2216.24 151.92 Q2214.25 154.119 2214.25 157.915 L2214.25 172.568 L2209.97 172.568 L2209.97 146.642 L2214.25 146.642 L2214.25 150.67 Q2215.78 148.332 2217.84 147.175 Q2219.92 146.017 2222.63 146.017 Q2227.1 146.017 2229.39 148.795 Q2231.68 151.55 2231.68 156.92 Z" fill="#000000" fill-rule="evenodd" fill-opacity="1" /><polyline clip-path="url(#clip080)" style="stroke:#e26f46; stroke-width:4; stroke-opacity:1; fill:none" stroke-dasharray="16, 10" points="
  1661.02,215.768 1806.31,215.768 
  "/>
<path clip-path="url(#clip080)" d="M 0 0 M1837.93 199.761 L1837.93 207.122 L1846.71 207.122 L1846.71 210.432 L1837.93 210.432 L1837.93 224.506 Q1837.93 227.678 1838.79 228.581 Q1839.67 229.483 1842.33 229.483 L1846.71 229.483 L1846.71 233.048 L1842.33 233.048 Q1837.4 233.048 1835.53 231.219 Q1833.65 229.368 1833.65 224.506 L1833.65 210.432 L1830.53 210.432 L1830.53 207.122 L1833.65 207.122 L1833.65 199.761 L1837.93 199.761 Z" fill="#000000" fill-rule="evenodd" fill-opacity="1" /><path clip-path="url(#clip080)" d="M 0 0 M1866.2 211.104 Q1865.48 210.687 1864.62 210.502 Q1863.79 210.294 1862.77 210.294 Q1859.16 210.294 1857.22 212.655 Q1855.29 214.993 1855.29 219.391 L1855.29 233.048 L1851.01 233.048 L1851.01 207.122 L1855.29 207.122 L1855.29 211.15 Q1856.64 208.789 1858.79 207.655 Q1860.94 206.497 1864.02 206.497 Q1864.46 206.497 1864.99 206.567 Q1865.53 206.613 1866.17 206.729 L1866.2 211.104 Z" fill="#000000" fill-rule="evenodd" fill-opacity="1" /><path clip-path="url(#clip080)" d="M 0 0 M1870.22 222.817 L1870.22 207.122 L1874.48 207.122 L1874.48 222.655 Q1874.48 226.335 1875.92 228.187 Q1877.35 230.016 1880.22 230.016 Q1883.67 230.016 1885.66 227.817 Q1887.68 225.618 1887.68 221.821 L1887.68 207.122 L1891.94 207.122 L1891.94 233.048 L1887.68 233.048 L1887.68 229.067 Q1886.13 231.428 1884.07 232.585 Q1882.03 233.719 1879.32 233.719 Q1874.85 233.719 1872.54 230.942 Q1870.22 228.164 1870.22 222.817 M1880.94 206.497 L1880.94 206.497 Z" fill="#000000" fill-rule="evenodd" fill-opacity="1" /><path clip-path="url(#clip080)" d="M 0 0 M1918.58 219.02 L1918.58 221.104 L1899 221.104 Q1899.28 225.502 1901.64 227.817 Q1904.02 230.108 1908.26 230.108 Q1910.71 230.108 1913 229.506 Q1915.32 228.905 1917.59 227.701 L1917.59 231.729 Q1915.29 232.701 1912.89 233.21 Q1910.48 233.719 1908 233.719 Q1901.8 233.719 1898.16 230.108 Q1894.55 226.497 1894.55 220.34 Q1894.55 213.974 1897.98 210.247 Q1901.43 206.497 1907.26 206.497 Q1912.49 206.497 1915.53 209.877 Q1918.58 213.233 1918.58 219.02 M1914.32 217.77 Q1914.28 214.275 1912.35 212.192 Q1910.46 210.108 1907.31 210.108 Q1903.74 210.108 1901.59 212.122 Q1899.46 214.136 1899.14 217.794 L1914.32 217.77 Z" fill="#000000" fill-rule="evenodd" fill-opacity="1" /><path clip-path="url(#clip080)" d="M 0 0 M1958.3 212.099 Q1959.9 209.229 1962.12 207.863 Q1964.34 206.497 1967.35 206.497 Q1971.4 206.497 1973.6 209.345 Q1975.8 212.169 1975.8 217.4 L1975.8 233.048 L1971.52 233.048 L1971.52 217.539 Q1971.52 213.812 1970.2 212.007 Q1968.88 210.201 1966.17 210.201 Q1962.86 210.201 1960.94 212.4 Q1959.02 214.599 1959.02 218.395 L1959.02 233.048 L1954.74 233.048 L1954.74 217.539 Q1954.74 213.789 1953.42 212.007 Q1952.1 210.201 1949.34 210.201 Q1946.08 210.201 1944.16 212.423 Q1942.24 214.622 1942.24 218.395 L1942.24 233.048 L1937.96 233.048 L1937.96 207.122 L1942.24 207.122 L1942.24 211.15 Q1943.7 208.766 1945.73 207.632 Q1947.77 206.497 1950.57 206.497 Q1953.4 206.497 1955.36 207.933 Q1957.35 209.368 1958.3 212.099 Z" fill="#000000" fill-rule="evenodd" fill-opacity="1" /><path clip-path="url(#clip080)" d="M 0 0 M2002.45 219.02 L2002.45 221.104 L1982.86 221.104 Q1983.14 225.502 1985.5 227.817 Q1987.89 230.108 1992.12 230.108 Q1994.58 230.108 1996.87 229.506 Q1999.18 228.905 2001.45 227.701 L2001.45 231.729 Q1999.16 232.701 1996.75 233.21 Q1994.34 233.719 1991.87 233.719 Q1985.66 233.719 1982.03 230.108 Q1978.42 226.497 1978.42 220.34 Q1978.42 213.974 1981.84 210.247 Q1985.29 206.497 1991.13 206.497 Q1996.36 206.497 1999.39 209.877 Q2002.45 213.233 2002.45 219.02 M1998.19 217.77 Q1998.14 214.275 1996.22 212.192 Q1994.32 210.108 1991.17 210.108 Q1987.61 210.108 1985.46 212.122 Q1983.33 214.136 1983 217.794 L1998.19 217.77 Z" fill="#000000" fill-rule="evenodd" fill-opacity="1" /><path clip-path="url(#clip080)" d="M 0 0 M2018.7 220.016 Q2013.53 220.016 2011.54 221.196 Q2009.55 222.377 2009.55 225.224 Q2009.55 227.493 2011.03 228.835 Q2012.54 230.155 2015.11 230.155 Q2018.65 230.155 2020.78 227.655 Q2022.93 225.131 2022.93 220.965 L2022.93 220.016 L2018.7 220.016 M2027.19 218.257 L2027.19 233.048 L2022.93 233.048 L2022.93 229.113 Q2021.47 231.474 2019.3 232.608 Q2017.12 233.719 2013.97 233.719 Q2009.99 233.719 2007.63 231.497 Q2005.29 229.252 2005.29 225.502 Q2005.29 221.127 2008.21 218.905 Q2011.15 216.682 2016.96 216.682 L2022.93 216.682 L2022.93 216.266 Q2022.93 213.326 2020.99 211.729 Q2019.07 210.108 2015.57 210.108 Q2013.35 210.108 2011.24 210.641 Q2009.14 211.173 2007.19 212.238 L2007.19 208.303 Q2009.53 207.4 2011.73 206.96 Q2013.93 206.497 2016.01 206.497 Q2021.64 206.497 2024.41 209.414 Q2027.19 212.331 2027.19 218.257 Z" fill="#000000" fill-rule="evenodd" fill-opacity="1" /><path clip-path="url(#clip080)" d="M 0 0 M2053.21 217.4 L2053.21 233.048 L2048.95 233.048 L2048.95 217.539 Q2048.95 213.858 2047.52 212.03 Q2046.08 210.201 2043.21 210.201 Q2039.76 210.201 2037.77 212.4 Q2035.78 214.599 2035.78 218.395 L2035.78 233.048 L2031.5 233.048 L2031.5 207.122 L2035.78 207.122 L2035.78 211.15 Q2037.31 208.812 2039.37 207.655 Q2041.45 206.497 2044.16 206.497 Q2048.63 206.497 2050.92 209.275 Q2053.21 212.03 2053.21 217.4 Z" fill="#000000" fill-rule="evenodd" fill-opacity="1" /></svg>
