<?xml version="1.0" encoding="utf-8"?>
<svg xmlns="http://www.w3.org/2000/svg" xmlns:xlink="http://www.w3.org/1999/xlink" width="600" height="400" viewBox="0 0 2400 1600">
<defs>
  <clipPath id="clip960">
    <rect x="0" y="0" width="2400" height="1600"/>
  </clipPath>
</defs>
<path clip-path="url(#clip960)" d="
M0 1600 L2400 1600 L2400 0 L0 0  Z
  " fill="#ffffff" fill-rule="evenodd" fill-opacity="1"/>
<defs>
  <clipPath id="clip961">
    <rect x="480" y="0" width="1681" height="1600"/>
  </clipPath>
</defs>
<path clip-path="url(#clip960)" d="
M201.876 1486.45 L2352.76 1486.45 L2352.76 47.2441 L201.876 47.2441  Z
  " fill="#ffffff" fill-rule="evenodd" fill-opacity="1"/>
<defs>
  <clipPath id="clip962">
    <rect x="201" y="47" width="2152" height="1440"/>
  </clipPath>
</defs>
<polyline clip-path="url(#clip962)" style="stroke:#000000; stroke-width:2; stroke-opacity:0.1; fill:none" points="
  398.312,1486.45 398.312,47.2441 
  "/>
<polyline clip-path="url(#clip962)" style="stroke:#000000; stroke-width:2; stroke-opacity:0.1; fill:none" points="
  837.814,1486.45 837.814,47.2441 
  "/>
<polyline clip-path="url(#clip962)" style="stroke:#000000; stroke-width:2; stroke-opacity:0.1; fill:none" points="
  1277.32,1486.45 1277.32,47.2441 
  "/>
<polyline clip-path="url(#clip962)" style="stroke:#000000; stroke-width:2; stroke-opacity:0.1; fill:none" points="
  1716.82,1486.45 1716.82,47.2441 
  "/>
<polyline clip-path="url(#clip962)" style="stroke:#000000; stroke-width:2; stroke-opacity:0.1; fill:none" points="
  2156.32,1486.45 2156.32,47.2441 
  "/>
<polyline clip-path="url(#clip962)" style="stroke:#000000; stroke-width:2; stroke-opacity:0.1; fill:none" points="
  201.876,1445.72 2352.76,1445.72 
  "/>
<polyline clip-path="url(#clip962)" style="stroke:#000000; stroke-width:2; stroke-opacity:0.1; fill:none" points="
  201.876,1162.76 2352.76,1162.76 
  "/>
<polyline clip-path="url(#clip962)" style="stroke:#000000; stroke-width:2; stroke-opacity:0.1; fill:none" points="
  201.876,879.814 2352.76,879.814 
  "/>
<polyline clip-path="url(#clip962)" style="stroke:#000000; stroke-width:2; stroke-opacity:0.1; fill:none" points="
  201.876,596.862 2352.76,596.862 
  "/>
<polyline clip-path="url(#clip962)" style="stroke:#000000; stroke-width:2; stroke-opacity:0.1; fill:none" points="
  201.876,313.911 2352.76,313.911 
  "/>
<polyline clip-path="url(#clip960)" style="stroke:#000000; stroke-width:4; stroke-opacity:1; fill:none" points="
  201.876,1486.45 2352.76,1486.45 
  "/>
<polyline clip-path="url(#clip960)" style="stroke:#000000; stroke-width:4; stroke-opacity:1; fill:none" points="
  201.876,1486.45 201.876,47.2441 
  "/>
<polyline clip-path="url(#clip960)" style="stroke:#000000; stroke-width:4; stroke-opacity:1; fill:none" points="
  398.312,1486.45 398.312,1469.18 
  "/>
<polyline clip-path="url(#clip960)" style="stroke:#000000; stroke-width:4; stroke-opacity:1; fill:none" points="
  837.814,1486.45 837.814,1469.18 
  "/>
<polyline clip-path="url(#clip960)" style="stroke:#000000; stroke-width:4; stroke-opacity:1; fill:none" points="
  1277.32,1486.45 1277.32,1469.18 
  "/>
<polyline clip-path="url(#clip960)" style="stroke:#000000; stroke-width:4; stroke-opacity:1; fill:none" points="
  1716.82,1486.45 1716.82,1469.18 
  "/>
<polyline clip-path="url(#clip960)" style="stroke:#000000; stroke-width:4; stroke-opacity:1; fill:none" points="
  2156.32,1486.45 2156.32,1469.18 
  "/>
<polyline clip-path="url(#clip960)" style="stroke:#000000; stroke-width:4; stroke-opacity:1; fill:none" points="
  201.876,1445.72 227.686,1445.72 
  "/>
<polyline clip-path="url(#clip960)" style="stroke:#000000; stroke-width:4; stroke-opacity:1; fill:none" points="
  201.876,1162.76 227.686,1162.76 
  "/>
<polyline clip-path="url(#clip960)" style="stroke:#000000; stroke-width:4; stroke-opacity:1; fill:none" points="
  201.876,879.814 227.686,879.814 
  "/>
<polyline clip-path="url(#clip960)" style="stroke:#000000; stroke-width:4; stroke-opacity:1; fill:none" points="
  201.876,596.862 227.686,596.862 
  "/>
<polyline clip-path="url(#clip960)" style="stroke:#000000; stroke-width:4; stroke-opacity:1; fill:none" points="
  201.876,313.911 227.686,313.911 
  "/>
<path clip-path="url(#clip960)" d="M 0 0 M370.21 1535.98 L377.849 1535.98 L377.849 1509.62 L369.539 1511.29 L369.539 1507.03 L377.803 1505.36 L382.478 1505.36 L382.478 1535.98 L390.117 1535.98 L390.117 1539.92 L370.21 1539.92 L370.21 1535.98 Z" fill="#000000" fill-rule="evenodd" fill-opacity="1" /><path clip-path="url(#clip960)" d="M 0 0 M395.187 1534.04 L400.071 1534.04 L400.071 1539.92 L395.187 1539.92 L395.187 1534.04 Z" fill="#000000" fill-rule="evenodd" fill-opacity="1" /><path clip-path="url(#clip960)" d="M 0 0 M415.14 1508.44 Q411.529 1508.44 409.701 1512 Q407.895 1515.55 407.895 1522.67 Q407.895 1529.78 409.701 1533.35 Q411.529 1536.89 415.14 1536.89 Q418.775 1536.89 420.58 1533.35 Q422.409 1529.78 422.409 1522.67 Q422.409 1515.55 420.58 1512 Q418.775 1508.44 415.14 1508.44 M415.14 1504.73 Q420.95 1504.73 424.006 1509.34 Q427.085 1513.92 427.085 1522.67 Q427.085 1531.4 424.006 1536.01 Q420.95 1540.59 415.14 1540.59 Q409.33 1540.59 406.251 1536.01 Q403.196 1531.4 403.196 1522.67 Q403.196 1513.92 406.251 1509.34 Q409.33 1504.73 415.14 1504.73 Z" fill="#000000" fill-rule="evenodd" fill-opacity="1" /><path clip-path="url(#clip960)" d="M 0 0 M810.21 1535.98 L817.849 1535.98 L817.849 1509.62 L809.538 1511.29 L809.538 1507.03 L817.802 1505.36 L822.478 1505.36 L822.478 1535.98 L830.117 1535.98 L830.117 1539.92 L810.21 1539.92 L810.21 1535.98 Z" fill="#000000" fill-rule="evenodd" fill-opacity="1" /><path clip-path="url(#clip960)" d="M 0 0 M835.186 1534.04 L840.071 1534.04 L840.071 1539.92 L835.186 1539.92 L835.186 1534.04 Z" fill="#000000" fill-rule="evenodd" fill-opacity="1" /><path clip-path="url(#clip960)" d="M 0 0 M845.186 1505.36 L863.543 1505.36 L863.543 1509.3 L849.469 1509.3 L849.469 1517.77 Q850.487 1517.42 851.506 1517.26 Q852.524 1517.07 853.543 1517.07 Q859.33 1517.07 862.709 1520.24 Q866.089 1523.42 866.089 1528.83 Q866.089 1534.41 862.617 1537.51 Q859.145 1540.59 852.825 1540.59 Q850.649 1540.59 848.381 1540.22 Q846.135 1539.85 843.728 1539.11 L843.728 1534.41 Q845.811 1535.54 848.034 1536.1 Q850.256 1536.66 852.733 1536.66 Q856.737 1536.66 859.075 1534.55 Q861.413 1532.44 861.413 1528.83 Q861.413 1525.22 859.075 1523.11 Q856.737 1521.01 852.733 1521.01 Q850.858 1521.01 848.983 1521.42 Q847.131 1521.84 845.186 1522.72 L845.186 1505.36 Z" fill="#000000" fill-rule="evenodd" fill-opacity="1" /><path clip-path="url(#clip960)" d="M 0 0 M1253.48 1535.98 L1269.8 1535.98 L1269.8 1539.92 L1247.86 1539.92 L1247.86 1535.98 Q1250.52 1533.23 1255.11 1528.6 Q1259.71 1523.95 1260.89 1522.61 Q1263.14 1520.08 1264.02 1518.35 Q1264.92 1516.59 1264.92 1514.9 Q1264.92 1512.14 1262.98 1510.41 Q1261.05 1508.67 1257.95 1508.67 Q1255.75 1508.67 1253.3 1509.43 Q1250.87 1510.2 1248.09 1511.75 L1248.09 1507.03 Q1250.92 1505.89 1253.37 1505.31 Q1255.82 1504.73 1257.86 1504.73 Q1263.23 1504.73 1266.42 1507.42 Q1269.62 1510.11 1269.62 1514.6 Q1269.62 1516.73 1268.81 1518.65 Q1268.02 1520.54 1265.92 1523.14 Q1265.34 1523.81 1262.23 1527.03 Q1259.13 1530.22 1253.48 1535.98 Z" fill="#000000" fill-rule="evenodd" fill-opacity="1" /><path clip-path="url(#clip960)" d="M 0 0 M1274.87 1534.04 L1279.76 1534.04 L1279.76 1539.92 L1274.87 1539.92 L1274.87 1534.04 Z" fill="#000000" fill-rule="evenodd" fill-opacity="1" /><path clip-path="url(#clip960)" d="M 0 0 M1294.83 1508.44 Q1291.22 1508.44 1289.39 1512 Q1287.58 1515.55 1287.58 1522.67 Q1287.58 1529.78 1289.39 1533.35 Q1291.22 1536.89 1294.83 1536.89 Q1298.46 1536.89 1300.27 1533.35 Q1302.1 1529.78 1302.1 1522.67 Q1302.1 1515.55 1300.27 1512 Q1298.46 1508.44 1294.83 1508.44 M1294.83 1504.73 Q1300.64 1504.73 1303.69 1509.34 Q1306.77 1513.92 1306.77 1522.67 Q1306.77 1531.4 1303.69 1536.01 Q1300.64 1540.59 1294.83 1540.59 Q1289.02 1540.59 1285.94 1536.01 Q1282.88 1531.4 1282.88 1522.67 Q1282.88 1513.92 1285.94 1509.34 Q1289.02 1504.73 1294.83 1504.73 Z" fill="#000000" fill-rule="evenodd" fill-opacity="1" /><path clip-path="url(#clip960)" d="M 0 0 M1693.48 1535.98 L1709.8 1535.98 L1709.8 1539.92 L1687.86 1539.92 L1687.86 1535.98 Q1690.52 1533.23 1695.11 1528.6 Q1699.71 1523.95 1700.89 1522.61 Q1703.14 1520.08 1704.02 1518.35 Q1704.92 1516.59 1704.92 1514.9 Q1704.92 1512.14 1702.98 1510.41 Q1701.05 1508.67 1697.95 1508.67 Q1695.75 1508.67 1693.3 1509.43 Q1690.87 1510.2 1688.09 1511.75 L1688.09 1507.03 Q1690.92 1505.89 1693.37 1505.31 Q1695.82 1504.73 1697.86 1504.73 Q1703.23 1504.73 1706.42 1507.42 Q1709.62 1510.11 1709.62 1514.6 Q1709.62 1516.73 1708.81 1518.65 Q1708.02 1520.54 1705.92 1523.14 Q1705.34 1523.81 1702.23 1527.03 Q1699.13 1530.22 1693.48 1535.98 Z" fill="#000000" fill-rule="evenodd" fill-opacity="1" /><path clip-path="url(#clip960)" d="M 0 0 M1714.87 1534.04 L1719.76 1534.04 L1719.76 1539.92 L1714.87 1539.92 L1714.87 1534.04 Z" fill="#000000" fill-rule="evenodd" fill-opacity="1" /><path clip-path="url(#clip960)" d="M 0 0 M1724.87 1505.36 L1743.23 1505.36 L1743.23 1509.3 L1729.16 1509.3 L1729.16 1517.77 Q1730.17 1517.42 1731.19 1517.26 Q1732.21 1517.07 1733.23 1517.07 Q1739.02 1517.07 1742.4 1520.24 Q1745.78 1523.42 1745.78 1528.83 Q1745.78 1534.41 1742.3 1537.51 Q1738.83 1540.59 1732.51 1540.59 Q1730.34 1540.59 1728.07 1540.22 Q1725.82 1539.85 1723.42 1539.11 L1723.42 1534.41 Q1725.5 1535.54 1727.72 1536.1 Q1729.94 1536.66 1732.42 1536.66 Q1736.42 1536.66 1738.76 1534.55 Q1741.1 1532.44 1741.1 1528.83 Q1741.1 1525.22 1738.76 1523.11 Q1736.42 1521.01 1732.42 1521.01 Q1730.54 1521.01 1728.67 1521.42 Q1726.82 1521.84 1724.87 1522.72 L1724.87 1505.36 Z" fill="#000000" fill-rule="evenodd" fill-opacity="1" /><path clip-path="url(#clip960)" d="M 0 0 M2142.08 1521.29 Q2145.44 1522 2147.32 1524.27 Q2149.21 1526.54 2149.21 1529.87 Q2149.21 1534.99 2145.7 1537.79 Q2142.18 1540.59 2135.7 1540.59 Q2133.52 1540.59 2131.2 1540.15 Q2128.91 1539.73 2126.46 1538.88 L2126.46 1534.36 Q2128.4 1535.5 2130.72 1536.08 Q2133.03 1536.66 2135.56 1536.66 Q2139.95 1536.66 2142.25 1534.92 Q2144.56 1533.18 2144.56 1529.87 Q2144.56 1526.82 2142.41 1525.11 Q2140.28 1523.37 2136.46 1523.37 L2132.43 1523.37 L2132.43 1519.53 L2136.64 1519.53 Q2140.09 1519.53 2141.92 1518.16 Q2143.75 1516.77 2143.75 1514.18 Q2143.75 1511.52 2141.85 1510.11 Q2139.98 1508.67 2136.46 1508.67 Q2134.54 1508.67 2132.34 1509.09 Q2130.14 1509.5 2127.5 1510.38 L2127.5 1506.22 Q2130.16 1505.48 2132.48 1505.11 Q2134.82 1504.73 2136.88 1504.73 Q2142.2 1504.73 2145.3 1507.17 Q2148.4 1509.57 2148.4 1513.69 Q2148.4 1516.56 2146.76 1518.55 Q2145.12 1520.52 2142.08 1521.29 Z" fill="#000000" fill-rule="evenodd" fill-opacity="1" /><path clip-path="url(#clip960)" d="M 0 0 M2154.28 1534.04 L2159.17 1534.04 L2159.17 1539.92 L2154.28 1539.92 L2154.28 1534.04 Z" fill="#000000" fill-rule="evenodd" fill-opacity="1" /><path clip-path="url(#clip960)" d="M 0 0 M2174.24 1508.44 Q2170.63 1508.44 2168.8 1512 Q2166.99 1515.55 2166.99 1522.67 Q2166.99 1529.78 2168.8 1533.35 Q2170.63 1536.89 2174.24 1536.89 Q2177.87 1536.89 2179.68 1533.35 Q2181.51 1529.78 2181.51 1522.67 Q2181.51 1515.55 2179.68 1512 Q2177.87 1508.44 2174.24 1508.44 M2174.24 1504.73 Q2180.05 1504.73 2183.1 1509.34 Q2186.18 1513.92 2186.18 1522.67 Q2186.18 1531.4 2183.1 1536.01 Q2180.05 1540.59 2174.24 1540.59 Q2168.43 1540.59 2165.35 1536.01 Q2162.29 1531.4 2162.29 1522.67 Q2162.29 1513.92 2165.35 1509.34 Q2168.43 1504.73 2174.24 1504.73 Z" fill="#000000" fill-rule="evenodd" fill-opacity="1" /><path clip-path="url(#clip960)" d="M 0 0 M74.9365 1431.51 Q71.3254 1431.51 69.4967 1435.08 Q67.6912 1438.62 67.6912 1445.75 Q67.6912 1452.86 69.4967 1456.42 Q71.3254 1459.96 74.9365 1459.96 Q78.5707 1459.96 80.3763 1456.42 Q82.205 1452.86 82.205 1445.75 Q82.205 1438.62 80.3763 1435.08 Q78.5707 1431.51 74.9365 1431.51 M74.9365 1427.81 Q80.7467 1427.81 83.8022 1432.42 Q86.8809 1437 86.8809 1445.75 Q86.8809 1454.48 83.8022 1459.08 Q80.7467 1463.67 74.9365 1463.67 Q69.1264 1463.67 66.0477 1459.08 Q62.9921 1454.48 62.9921 1445.75 Q62.9921 1437 66.0477 1432.42 Q69.1264 1427.81 74.9365 1427.81 Z" fill="#000000" fill-rule="evenodd" fill-opacity="1" /><path clip-path="url(#clip960)" d="M 0 0 M91.9503 1457.12 L96.8345 1457.12 L96.8345 1463 L91.9503 1463 L91.9503 1457.12 Z" fill="#000000" fill-rule="evenodd" fill-opacity="1" /><path clip-path="url(#clip960)" d="M 0 0 M111.904 1431.51 Q108.293 1431.51 106.464 1435.08 Q104.659 1438.62 104.659 1445.75 Q104.659 1452.86 106.464 1456.42 Q108.293 1459.96 111.904 1459.96 Q115.538 1459.96 117.344 1456.42 Q119.172 1452.86 119.172 1445.75 Q119.172 1438.62 117.344 1435.08 Q115.538 1431.51 111.904 1431.51 M111.904 1427.81 Q117.714 1427.81 120.77 1432.42 Q123.848 1437 123.848 1445.75 Q123.848 1454.48 120.77 1459.08 Q117.714 1463.67 111.904 1463.67 Q106.094 1463.67 103.015 1459.08 Q99.9595 1454.48 99.9595 1445.75 Q99.9595 1437 103.015 1432.42 Q106.094 1427.81 111.904 1427.81 Z" fill="#000000" fill-rule="evenodd" fill-opacity="1" /><path clip-path="url(#clip960)" d="M 0 0 M138.918 1431.51 Q135.307 1431.51 133.478 1435.08 Q131.672 1438.62 131.672 1445.75 Q131.672 1452.86 133.478 1456.42 Q135.307 1459.96 138.918 1459.96 Q142.552 1459.96 144.357 1456.42 Q146.186 1452.86 146.186 1445.75 Q146.186 1438.62 144.357 1435.08 Q142.552 1431.51 138.918 1431.51 M138.918 1427.81 Q144.728 1427.81 147.783 1432.42 Q150.862 1437 150.862 1445.75 Q150.862 1454.48 147.783 1459.08 Q144.728 1463.67 138.918 1463.67 Q133.107 1463.67 130.029 1459.08 Q126.973 1454.48 126.973 1445.75 Q126.973 1437 130.029 1432.42 Q133.107 1427.81 138.918 1427.81 Z" fill="#000000" fill-rule="evenodd" fill-opacity="1" /><path clip-path="url(#clip960)" d="M 0 0 M165.931 1431.51 Q162.32 1431.51 160.492 1435.08 Q158.686 1438.62 158.686 1445.75 Q158.686 1452.86 160.492 1456.42 Q162.32 1459.96 165.931 1459.96 Q169.566 1459.96 171.371 1456.42 Q173.2 1452.86 173.2 1445.75 Q173.2 1438.62 171.371 1435.08 Q169.566 1431.51 165.931 1431.51 M165.931 1427.81 Q171.742 1427.81 174.797 1432.42 Q177.876 1437 177.876 1445.75 Q177.876 1454.48 174.797 1459.08 Q171.742 1463.67 165.931 1463.67 Q160.121 1463.67 157.043 1459.08 Q153.987 1454.48 153.987 1445.75 Q153.987 1437 157.043 1432.42 Q160.121 1427.81 165.931 1427.81 Z" fill="#000000" fill-rule="evenodd" fill-opacity="1" /><path clip-path="url(#clip960)" d="M 0 0 M77.5291 1148.56 Q73.918 1148.56 72.0893 1152.13 Q70.2838 1155.67 70.2838 1162.8 Q70.2838 1169.91 72.0893 1173.47 Q73.918 1177.01 77.5291 1177.01 Q81.1633 1177.01 82.9689 1173.47 Q84.7976 1169.91 84.7976 1162.8 Q84.7976 1155.67 82.9689 1152.13 Q81.1633 1148.56 77.5291 1148.56 M77.5291 1144.86 Q83.3392 1144.86 86.3948 1149.47 Q89.4735 1154.05 89.4735 1162.8 Q89.4735 1171.53 86.3948 1176.13 Q83.3392 1180.72 77.5291 1180.72 Q71.7189 1180.72 68.6402 1176.13 Q65.5847 1171.53 65.5847 1162.8 Q65.5847 1154.05 68.6402 1149.47 Q71.7189 1144.86 77.5291 1144.86 Z" fill="#000000" fill-rule="evenodd" fill-opacity="1" /><path clip-path="url(#clip960)" d="M 0 0 M94.5429 1174.17 L99.4271 1174.17 L99.4271 1180.04 L94.5429 1180.04 L94.5429 1174.17 Z" fill="#000000" fill-rule="evenodd" fill-opacity="1" /><path clip-path="url(#clip960)" d="M 0 0 M114.496 1148.56 Q110.885 1148.56 109.057 1152.13 Q107.251 1155.67 107.251 1162.8 Q107.251 1169.91 109.057 1173.47 Q110.885 1177.01 114.496 1177.01 Q118.131 1177.01 119.936 1173.47 Q121.765 1169.91 121.765 1162.8 Q121.765 1155.67 119.936 1152.13 Q118.131 1148.56 114.496 1148.56 M114.496 1144.86 Q120.307 1144.86 123.362 1149.47 Q126.441 1154.05 126.441 1162.8 Q126.441 1171.53 123.362 1176.13 Q120.307 1180.72 114.496 1180.72 Q108.686 1180.72 105.608 1176.13 Q102.552 1171.53 102.552 1162.8 Q102.552 1154.05 105.608 1149.47 Q108.686 1144.86 114.496 1144.86 Z" fill="#000000" fill-rule="evenodd" fill-opacity="1" /><path clip-path="url(#clip960)" d="M 0 0 M135.538 1176.11 L151.857 1176.11 L151.857 1180.04 L129.913 1180.04 L129.913 1176.11 Q132.575 1173.35 137.158 1168.73 Q141.765 1164.07 142.945 1162.73 Q145.191 1160.21 146.07 1158.47 Q146.973 1156.71 146.973 1155.02 Q146.973 1152.27 145.029 1150.53 Q143.107 1148.79 140.006 1148.79 Q137.807 1148.79 135.353 1149.56 Q132.922 1150.32 130.145 1151.87 L130.145 1147.15 Q132.969 1146.02 135.422 1145.44 Q137.876 1144.86 139.913 1144.86 Q145.283 1144.86 148.478 1147.54 Q151.672 1150.23 151.672 1154.72 Q151.672 1156.85 150.862 1158.77 Q150.075 1160.67 147.969 1163.26 Q147.39 1163.93 144.288 1167.15 Q141.186 1170.35 135.538 1176.11 Z" fill="#000000" fill-rule="evenodd" fill-opacity="1" /><path clip-path="url(#clip960)" d="M 0 0 M156.973 1145.48 L175.329 1145.48 L175.329 1149.42 L161.255 1149.42 L161.255 1157.89 Q162.274 1157.54 163.293 1157.38 Q164.311 1157.2 165.33 1157.2 Q171.117 1157.2 174.496 1160.37 Q177.876 1163.54 177.876 1168.96 Q177.876 1174.54 174.404 1177.64 Q170.931 1180.72 164.612 1180.72 Q162.436 1180.72 160.168 1180.35 Q157.922 1179.98 155.515 1179.23 L155.515 1174.54 Q157.598 1175.67 159.82 1176.23 Q162.043 1176.78 164.519 1176.78 Q168.524 1176.78 170.862 1174.67 Q173.2 1172.57 173.2 1168.96 Q173.2 1165.35 170.862 1163.24 Q168.524 1161.13 164.519 1161.13 Q162.644 1161.13 160.769 1161.55 Q158.918 1161.97 156.973 1162.85 L156.973 1145.48 Z" fill="#000000" fill-rule="evenodd" fill-opacity="1" /><path clip-path="url(#clip960)" d="M 0 0 M75.9319 865.612 Q72.3208 865.612 70.4921 869.177 Q68.6865 872.719 68.6865 879.848 Q68.6865 886.955 70.4921 890.519 Q72.3208 894.061 75.9319 894.061 Q79.5661 894.061 81.3717 890.519 Q83.2004 886.955 83.2004 879.848 Q83.2004 872.719 81.3717 869.177 Q79.5661 865.612 75.9319 865.612 M75.9319 861.909 Q81.742 861.909 84.7976 866.515 Q87.8763 871.098 87.8763 879.848 Q87.8763 888.575 84.7976 893.181 Q81.742 897.765 75.9319 897.765 Q70.1217 897.765 67.043 893.181 Q63.9875 888.575 63.9875 879.848 Q63.9875 871.098 67.043 866.515 Q70.1217 861.909 75.9319 861.909 Z" fill="#000000" fill-rule="evenodd" fill-opacity="1" /><path clip-path="url(#clip960)" d="M 0 0 M92.9457 891.214 L97.8299 891.214 L97.8299 897.094 L92.9457 897.094 L92.9457 891.214 Z" fill="#000000" fill-rule="evenodd" fill-opacity="1" /><path clip-path="url(#clip960)" d="M 0 0 M112.899 865.612 Q109.288 865.612 107.459 869.177 Q105.654 872.719 105.654 879.848 Q105.654 886.955 107.459 890.519 Q109.288 894.061 112.899 894.061 Q116.534 894.061 118.339 890.519 Q120.168 886.955 120.168 879.848 Q120.168 872.719 118.339 869.177 Q116.534 865.612 112.899 865.612 M112.899 861.909 Q118.709 861.909 121.765 866.515 Q124.844 871.098 124.844 879.848 Q124.844 888.575 121.765 893.181 Q118.709 897.765 112.899 897.765 Q107.089 897.765 104.01 893.181 Q100.955 888.575 100.955 879.848 Q100.955 871.098 104.01 866.515 Q107.089 861.909 112.899 861.909 Z" fill="#000000" fill-rule="evenodd" fill-opacity="1" /><path clip-path="url(#clip960)" d="M 0 0 M129.959 862.534 L148.316 862.534 L148.316 866.469 L134.242 866.469 L134.242 874.941 Q135.26 874.594 136.279 874.432 Q137.297 874.246 138.316 874.246 Q144.103 874.246 147.482 877.418 Q150.862 880.589 150.862 886.006 Q150.862 891.584 147.39 894.686 Q143.918 897.765 137.598 897.765 Q135.422 897.765 133.154 897.394 Q130.908 897.024 128.501 896.283 L128.501 891.584 Q130.584 892.719 132.807 893.274 Q135.029 893.83 137.506 893.83 Q141.51 893.83 143.848 891.723 Q146.186 889.617 146.186 886.006 Q146.186 882.395 143.848 880.288 Q141.51 878.182 137.506 878.182 Q135.631 878.182 133.756 878.598 Q131.904 879.015 129.959 879.895 L129.959 862.534 Z" fill="#000000" fill-rule="evenodd" fill-opacity="1" /><path clip-path="url(#clip960)" d="M 0 0 M165.931 865.612 Q162.32 865.612 160.492 869.177 Q158.686 872.719 158.686 879.848 Q158.686 886.955 160.492 890.519 Q162.32 894.061 165.931 894.061 Q169.566 894.061 171.371 890.519 Q173.2 886.955 173.2 879.848 Q173.2 872.719 171.371 869.177 Q169.566 865.612 165.931 865.612 M165.931 861.909 Q171.742 861.909 174.797 866.515 Q177.876 871.098 177.876 879.848 Q177.876 888.575 174.797 893.181 Q171.742 897.765 165.931 897.765 Q160.121 897.765 157.043 893.181 Q153.987 888.575 153.987 879.848 Q153.987 871.098 157.043 866.515 Q160.121 861.909 165.931 861.909 Z" fill="#000000" fill-rule="evenodd" fill-opacity="1" /><path clip-path="url(#clip960)" d="M 0 0 M76.8346 582.661 Q73.2236 582.661 71.3949 586.226 Q69.5893 589.768 69.5893 596.897 Q69.5893 604.004 71.3949 607.568 Q73.2236 611.11 76.8346 611.11 Q80.4689 611.11 82.2744 607.568 Q84.1031 604.004 84.1031 596.897 Q84.1031 589.768 82.2744 586.226 Q80.4689 582.661 76.8346 582.661 M76.8346 578.957 Q82.6448 578.957 85.7003 583.564 Q88.779 588.147 88.779 596.897 Q88.779 605.624 85.7003 610.23 Q82.6448 614.814 76.8346 614.814 Q71.0245 614.814 67.9458 610.23 Q64.8903 605.624 64.8903 596.897 Q64.8903 588.147 67.9458 583.564 Q71.0245 578.957 76.8346 578.957 Z" fill="#000000" fill-rule="evenodd" fill-opacity="1" /><path clip-path="url(#clip960)" d="M 0 0 M93.8484 608.263 L98.7327 608.263 L98.7327 614.142 L93.8484 614.142 L93.8484 608.263 Z" fill="#000000" fill-rule="evenodd" fill-opacity="1" /><path clip-path="url(#clip960)" d="M 0 0 M113.802 582.661 Q110.191 582.661 108.362 586.226 Q106.557 589.768 106.557 596.897 Q106.557 604.004 108.362 607.568 Q110.191 611.11 113.802 611.11 Q117.436 611.11 119.242 607.568 Q121.071 604.004 121.071 596.897 Q121.071 589.768 119.242 586.226 Q117.436 582.661 113.802 582.661 M113.802 578.957 Q119.612 578.957 122.668 583.564 Q125.746 588.147 125.746 596.897 Q125.746 605.624 122.668 610.23 Q119.612 614.814 113.802 614.814 Q107.992 614.814 104.913 610.23 Q101.858 605.624 101.858 596.897 Q101.858 588.147 104.913 583.564 Q107.992 578.957 113.802 578.957 Z" fill="#000000" fill-rule="evenodd" fill-opacity="1" /><path clip-path="url(#clip960)" d="M 0 0 M129.635 579.582 L151.857 579.582 L151.857 581.573 L139.311 614.142 L134.427 614.142 L146.232 583.518 L129.635 583.518 L129.635 579.582 Z" fill="#000000" fill-rule="evenodd" fill-opacity="1" /><path clip-path="url(#clip960)" d="M 0 0 M156.973 579.582 L175.329 579.582 L175.329 583.518 L161.255 583.518 L161.255 591.99 Q162.274 591.643 163.293 591.48 Q164.311 591.295 165.33 591.295 Q171.117 591.295 174.496 594.467 Q177.876 597.638 177.876 603.055 Q177.876 608.633 174.404 611.735 Q170.931 614.814 164.612 614.814 Q162.436 614.814 160.168 614.443 Q157.922 614.073 155.515 613.332 L155.515 608.633 Q157.598 609.767 159.82 610.323 Q162.043 610.879 164.519 610.879 Q168.524 610.879 170.862 608.772 Q173.2 606.666 173.2 603.055 Q173.2 599.443 170.862 597.337 Q168.524 595.23 164.519 595.23 Q162.644 595.23 160.769 595.647 Q158.918 596.064 156.973 596.943 L156.973 579.582 Z" fill="#000000" fill-rule="evenodd" fill-opacity="1" /><path clip-path="url(#clip960)" d="M 0 0 M76.1634 299.71 Q72.5523 299.71 70.7236 303.275 Q68.918 306.816 68.918 313.946 Q68.918 321.052 70.7236 324.617 Q72.5523 328.159 76.1634 328.159 Q79.7976 328.159 81.6031 324.617 Q83.4318 321.052 83.4318 313.946 Q83.4318 306.816 81.6031 303.275 Q79.7976 299.71 76.1634 299.71 M76.1634 296.006 Q81.9735 296.006 85.029 300.613 Q88.1077 305.196 88.1077 313.946 Q88.1077 322.673 85.029 327.279 Q81.9735 331.863 76.1634 331.863 Q70.3532 331.863 67.2745 327.279 Q64.219 322.673 64.219 313.946 Q64.219 305.196 67.2745 300.613 Q70.3532 296.006 76.1634 296.006 Z" fill="#000000" fill-rule="evenodd" fill-opacity="1" /><path clip-path="url(#clip960)" d="M 0 0 M93.1771 325.312 L98.0614 325.312 L98.0614 331.191 L93.1771 331.191 L93.1771 325.312 Z" fill="#000000" fill-rule="evenodd" fill-opacity="1" /><path clip-path="url(#clip960)" d="M 0 0 M103.941 327.256 L111.58 327.256 L111.58 300.891 L103.27 302.557 L103.27 298.298 L111.534 296.631 L116.209 296.631 L116.209 327.256 L123.848 327.256 L123.848 331.191 L103.941 331.191 L103.941 327.256 Z" fill="#000000" fill-rule="evenodd" fill-opacity="1" /><path clip-path="url(#clip960)" d="M 0 0 M138.918 299.71 Q135.307 299.71 133.478 303.275 Q131.672 306.816 131.672 313.946 Q131.672 321.052 133.478 324.617 Q135.307 328.159 138.918 328.159 Q142.552 328.159 144.357 324.617 Q146.186 321.052 146.186 313.946 Q146.186 306.816 144.357 303.275 Q142.552 299.71 138.918 299.71 M138.918 296.006 Q144.728 296.006 147.783 300.613 Q150.862 305.196 150.862 313.946 Q150.862 322.673 147.783 327.279 Q144.728 331.863 138.918 331.863 Q133.107 331.863 130.029 327.279 Q126.973 322.673 126.973 313.946 Q126.973 305.196 130.029 300.613 Q133.107 296.006 138.918 296.006 Z" fill="#000000" fill-rule="evenodd" fill-opacity="1" /><path clip-path="url(#clip960)" d="M 0 0 M165.931 299.71 Q162.32 299.71 160.492 303.275 Q158.686 306.816 158.686 313.946 Q158.686 321.052 160.492 324.617 Q162.32 328.159 165.931 328.159 Q169.566 328.159 171.371 324.617 Q173.2 321.052 173.2 313.946 Q173.2 306.816 171.371 303.275 Q169.566 299.71 165.931 299.71 M165.931 296.006 Q171.742 296.006 174.797 300.613 Q177.876 305.196 177.876 313.946 Q177.876 322.673 174.797 327.279 Q171.742 331.863 165.931 331.863 Q160.121 331.863 157.043 327.279 Q153.987 322.673 153.987 313.946 Q153.987 305.196 157.043 300.613 Q160.121 296.006 165.931 296.006 Z" fill="#000000" fill-rule="evenodd" fill-opacity="1" /><path clip-path="url(#clip962)" d="
M320.178 617.106 L320.178 1445.72 L476.445 1445.72 L476.445 617.106 L320.178 617.106 L320.178 617.106  Z
  " fill="#009af9" fill-rule="evenodd" fill-opacity="1"/>
<polyline clip-path="url(#clip962)" style="stroke:#000000; stroke-width:4; stroke-opacity:1; fill:none" points="
  320.178,617.106 320.178,1445.72 476.445,1445.72 476.445,617.106 320.178,617.106 
  "/>
<path clip-path="url(#clip962)" d="
M515.512 436.145 L515.512 1445.72 L671.78 1445.72 L671.78 436.145 L515.512 436.145 L515.512 436.145  Z
  " fill="#009af9" fill-rule="evenodd" fill-opacity="1"/>
<polyline clip-path="url(#clip962)" style="stroke:#000000; stroke-width:4; stroke-opacity:1; fill:none" points="
  515.512,436.145 515.512,1445.72 671.78,1445.72 671.78,436.145 515.512,436.145 
  "/>
<path clip-path="url(#clip962)" d="
M710.847 274.932 L710.847 1445.72 L867.114 1445.72 L867.114 274.932 L710.847 274.932 L710.847 274.932  Z
  " fill="#009af9" fill-rule="evenodd" fill-opacity="1"/>
<polyline clip-path="url(#clip962)" style="stroke:#000000; stroke-width:4; stroke-opacity:1; fill:none" points="
  710.847,274.932 710.847,1445.72 867.114,1445.72 867.114,274.932 710.847,274.932 
  "/>
<path clip-path="url(#clip962)" d="
M906.181 153.397 L906.181 1445.72 L1062.45 1445.72 L1062.45 153.397 L906.181 153.397 L906.181 153.397  Z
  " fill="#009af9" fill-rule="evenodd" fill-opacity="1"/>
<polyline clip-path="url(#clip962)" style="stroke:#000000; stroke-width:4; stroke-opacity:1; fill:none" points="
  906.181,153.397 906.181,1445.72 1062.45,1445.72 1062.45,153.397 906.181,153.397 
  "/>
<path clip-path="url(#clip962)" d="
M1101.52 87.9763 L1101.52 1445.72 L1257.78 1445.72 L1257.78 87.9763 L1101.52 87.9763 L1101.52 87.9763  Z
  " fill="#009af9" fill-rule="evenodd" fill-opacity="1"/>
<polyline clip-path="url(#clip962)" style="stroke:#000000; stroke-width:4; stroke-opacity:1; fill:none" points="
  1101.52,87.9763 1101.52,1445.72 1257.78,1445.72 1257.78,87.9763 1101.52,87.9763 
  "/>
<path clip-path="url(#clip962)" d="
M1296.85 87.9763 L1296.85 1445.72 L1453.12 1445.72 L1453.12 87.9763 L1296.85 87.9763 L1296.85 87.9763  Z
  " fill="#009af9" fill-rule="evenodd" fill-opacity="1"/>
<polyline clip-path="url(#clip962)" style="stroke:#000000; stroke-width:4; stroke-opacity:1; fill:none" points="
  1296.85,87.9763 1296.85,1445.72 1453.12,1445.72 1453.12,87.9763 1296.85,87.9763 
  "/>
<path clip-path="url(#clip962)" d="
M1492.18 153.397 L1492.18 1445.72 L1648.45 1445.72 L1648.45 153.397 L1492.18 153.397 L1492.18 153.397  Z
  " fill="#009af9" fill-rule="evenodd" fill-opacity="1"/>
<polyline clip-path="url(#clip962)" style="stroke:#000000; stroke-width:4; stroke-opacity:1; fill:none" points="
  1492.18,153.397 1492.18,1445.72 1648.45,1445.72 1648.45,153.397 1492.18,153.397 
  "/>
<path clip-path="url(#clip962)" d="
M1687.52 274.932 L1687.52 1445.72 L1843.79 1445.72 L1843.79 274.932 L1687.52 274.932 L1687.52 274.932  Z
  " fill="#009af9" fill-rule="evenodd" fill-opacity="1"/>
<polyline clip-path="url(#clip962)" style="stroke:#000000; stroke-width:4; stroke-opacity:1; fill:none" points="
  1687.52,274.932 1687.52,1445.72 1843.79,1445.72 1843.79,274.932 1687.52,274.932 
  "/>
<path clip-path="url(#clip962)" d="
M1882.85 436.145 L1882.85 1445.72 L2039.12 1445.72 L2039.12 436.145 L1882.85 436.145 L1882.85 436.145  Z
  " fill="#009af9" fill-rule="evenodd" fill-opacity="1"/>
<polyline clip-path="url(#clip962)" style="stroke:#000000; stroke-width:4; stroke-opacity:1; fill:none" points="
  1882.85,436.145 1882.85,1445.72 2039.12,1445.72 2039.12,436.145 1882.85,436.145 
  "/>
<path clip-path="url(#clip962)" d="
M2078.19 617.106 L2078.19 1445.72 L2234.45 1445.72 L2234.45 617.106 L2078.19 617.106 L2078.19 617.106  Z
  " fill="#009af9" fill-rule="evenodd" fill-opacity="1"/>
<polyline clip-path="url(#clip962)" style="stroke:#000000; stroke-width:4; stroke-opacity:1; fill:none" points="
  2078.19,617.106 2078.19,1445.72 2234.45,1445.72 2234.45,617.106 2078.19,617.106 
  "/>
<path clip-path="url(#clip960)" d="
M1708.97 216.178 L2281.06 216.178 L2281.06 95.2176 L1708.97 95.2176  Z
  " fill="#ffffff" fill-rule="evenodd" fill-opacity="1"/>
<polyline clip-path="url(#clip960)" style="stroke:#000000; stroke-width:4; stroke-opacity:1; fill:none" points="
  1708.97,216.178 2281.06,216.178 2281.06,95.2176 1708.97,95.2176 1708.97,216.178 
  "/>
<path clip-path="url(#clip960)" d="
M1732.87 179.89 L1876.26 179.89 L1876.26 131.506 L1732.87 131.506 L1732.87 179.89  Z
  " fill="#009af9" fill-rule="evenodd" fill-opacity="1"/>
<polyline clip-path="url(#clip960)" style="stroke:#000000; stroke-width:4; stroke-opacity:1; fill:none" points="
  1732.87,179.89 1876.26,179.89 1876.26,131.506 1732.87,131.506 1732.87,179.89 
  "/>
<path clip-path="url(#clip960)" d="M 0 0 M1900.16 138.418 L1907.13 138.418 L1915.95 161.936 L1924.82 138.418 L1931.78 138.418 L1931.78 172.978 L1927.22 172.978 L1927.22 142.63 L1918.31 166.334 L1913.61 166.334 L1904.7 142.63 L1904.7 172.978 L1900.16 172.978 L1900.16 138.418 Z" fill="#000000" fill-rule="evenodd" fill-opacity="1" /><path clip-path="url(#clip960)" d="M 0 0 M1948.03 159.945 Q1942.87 159.945 1940.88 161.126 Q1938.89 162.306 1938.89 165.154 Q1938.89 167.422 1940.37 168.765 Q1941.88 170.084 1944.44 170.084 Q1947.99 170.084 1950.12 167.584 Q1952.27 165.061 1952.27 160.894 L1952.27 159.945 L1948.03 159.945 M1956.53 158.186 L1956.53 172.978 L1952.27 172.978 L1952.27 169.042 Q1950.81 171.403 1948.63 172.538 Q1946.46 173.649 1943.31 173.649 Q1939.33 173.649 1936.97 171.427 Q1934.63 169.181 1934.63 165.431 Q1934.63 161.056 1937.55 158.834 Q1940.49 156.612 1946.3 156.612 L1952.27 156.612 L1952.27 156.195 Q1952.27 153.255 1950.32 151.658 Q1948.4 150.038 1944.91 150.038 Q1942.69 150.038 1940.58 150.57 Q1938.47 151.103 1936.53 152.167 L1936.53 148.232 Q1938.87 147.33 1941.07 146.89 Q1943.26 146.427 1945.35 146.427 Q1950.97 146.427 1953.75 149.343 Q1956.53 152.26 1956.53 158.186 Z" fill="#000000" fill-rule="evenodd" fill-opacity="1" /><path clip-path="url(#clip960)" d="M 0 0 M1977.52 147.816 L1977.52 151.843 Q1975.72 150.917 1973.77 150.455 Q1971.83 149.992 1969.75 149.992 Q1966.57 149.992 1964.98 150.964 Q1963.4 151.936 1963.4 153.88 Q1963.4 155.362 1964.54 156.218 Q1965.67 157.052 1969.1 157.816 L1970.56 158.14 Q1975.09 159.112 1976.99 160.894 Q1978.91 162.654 1978.91 165.825 Q1978.91 169.436 1976.04 171.542 Q1973.19 173.649 1968.19 173.649 Q1966.11 173.649 1963.84 173.232 Q1961.6 172.839 1959.1 172.028 L1959.1 167.63 Q1961.46 168.857 1963.75 169.482 Q1966.04 170.084 1968.29 170.084 Q1971.3 170.084 1972.92 169.066 Q1974.54 168.024 1974.54 166.149 Q1974.54 164.413 1973.36 163.487 Q1972.2 162.561 1968.24 161.704 L1966.76 161.357 Q1962.8 160.524 1961.04 158.811 Q1959.28 157.075 1959.28 154.066 Q1959.28 150.408 1961.88 148.418 Q1964.47 146.427 1969.24 146.427 Q1971.6 146.427 1973.68 146.774 Q1975.76 147.121 1977.52 147.816 Z" fill="#000000" fill-rule="evenodd" fill-opacity="1" /><path clip-path="url(#clip960)" d="M 0 0 M1999.91 147.816 L1999.91 151.843 Q1998.1 150.917 1996.16 150.455 Q1994.21 149.992 1992.13 149.992 Q1988.96 149.992 1987.36 150.964 Q1985.79 151.936 1985.79 153.88 Q1985.79 155.362 1986.92 156.218 Q1988.06 157.052 1991.48 157.816 L1992.94 158.14 Q1997.48 159.112 1999.37 160.894 Q2001.3 162.654 2001.3 165.825 Q2001.3 169.436 1998.43 171.542 Q1995.58 173.649 1990.58 173.649 Q1988.5 173.649 1986.23 173.232 Q1983.98 172.839 1981.48 172.028 L1981.48 167.63 Q1983.84 168.857 1986.13 169.482 Q1988.43 170.084 1990.67 170.084 Q1993.68 170.084 1995.3 169.066 Q1996.92 168.024 1996.92 166.149 Q1996.92 164.413 1995.74 163.487 Q1994.58 162.561 1990.62 161.704 L1989.14 161.357 Q1985.19 160.524 1983.43 158.811 Q1981.67 157.075 1981.67 154.066 Q1981.67 150.408 1984.26 148.418 Q1986.85 146.427 1991.62 146.427 Q1993.98 146.427 1996.06 146.774 Q1998.15 147.121 1999.91 147.816 Z" fill="#000000" fill-rule="evenodd" fill-opacity="1" /><path clip-path="url(#clip960)" d="M 0 0 M2025.05 139.691 L2025.05 147.052 L2033.82 147.052 L2033.82 150.362 L2025.05 150.362 L2025.05 164.436 Q2025.05 167.607 2025.9 168.51 Q2026.78 169.413 2029.44 169.413 L2033.82 169.413 L2033.82 172.978 L2029.44 172.978 Q2024.51 172.978 2022.64 171.149 Q2020.76 169.297 2020.76 164.436 L2020.76 150.362 L2017.64 150.362 L2017.64 147.052 L2020.76 147.052 L2020.76 139.691 L2025.05 139.691 Z" fill="#000000" fill-rule="evenodd" fill-opacity="1" /><path clip-path="url(#clip960)" d="M 0 0 M2053.31 151.033 Q2052.59 150.617 2051.74 150.431 Q2050.9 150.223 2049.88 150.223 Q2046.27 150.223 2044.33 152.584 Q2042.41 154.922 2042.41 159.32 L2042.41 172.978 L2038.12 172.978 L2038.12 147.052 L2042.41 147.052 L2042.41 151.08 Q2043.75 148.718 2045.9 147.584 Q2048.06 146.427 2051.13 146.427 Q2051.57 146.427 2052.11 146.496 Q2052.64 146.543 2053.29 146.658 L2053.31 151.033 Z" fill="#000000" fill-rule="evenodd" fill-opacity="1" /><path clip-path="url(#clip960)" d="M 0 0 M2057.34 162.746 L2057.34 147.052 L2061.6 147.052 L2061.6 162.584 Q2061.6 166.265 2063.03 168.116 Q2064.47 169.945 2067.34 169.945 Q2070.79 169.945 2072.78 167.746 Q2074.79 165.547 2074.79 161.751 L2074.79 147.052 L2079.05 147.052 L2079.05 172.978 L2074.79 172.978 L2074.79 168.996 Q2073.24 171.357 2071.18 172.515 Q2069.14 173.649 2066.43 173.649 Q2061.97 173.649 2059.65 170.871 Q2057.34 168.093 2057.34 162.746 M2068.06 146.427 L2068.06 146.427 Z" fill="#000000" fill-rule="evenodd" fill-opacity="1" /><path clip-path="url(#clip960)" d="M 0 0 M2105.69 158.95 L2105.69 161.033 L2086.11 161.033 Q2086.39 165.431 2088.75 167.746 Q2091.13 170.038 2095.37 170.038 Q2097.82 170.038 2100.12 169.436 Q2102.43 168.834 2104.7 167.63 L2104.7 171.658 Q2102.41 172.63 2100 173.14 Q2097.59 173.649 2095.12 173.649 Q2088.91 173.649 2085.28 170.038 Q2081.67 166.427 2081.67 160.269 Q2081.67 153.904 2085.09 150.177 Q2088.54 146.427 2094.37 146.427 Q2099.61 146.427 2102.64 149.806 Q2105.69 153.163 2105.69 158.95 M2101.43 157.7 Q2101.39 154.205 2099.47 152.121 Q2097.57 150.038 2094.42 150.038 Q2090.86 150.038 2088.7 152.052 Q2086.57 154.066 2086.25 157.723 L2101.43 157.7 Z" fill="#000000" fill-rule="evenodd" fill-opacity="1" /><path clip-path="url(#clip960)" d="M 0 0 M2122.18 147.052 L2126.69 147.052 L2134.79 168.811 L2142.89 147.052 L2147.41 147.052 L2137.68 172.978 L2131.9 172.978 L2122.18 147.052 Z" fill="#000000" fill-rule="evenodd" fill-opacity="1" /><path clip-path="url(#clip960)" d="M 0 0 M2163.66 159.945 Q2158.49 159.945 2156.5 161.126 Q2154.51 162.306 2154.51 165.154 Q2154.51 167.422 2155.99 168.765 Q2157.5 170.084 2160.07 170.084 Q2163.61 170.084 2165.74 167.584 Q2167.89 165.061 2167.89 160.894 L2167.89 159.945 L2163.66 159.945 M2172.15 158.186 L2172.15 172.978 L2167.89 172.978 L2167.89 169.042 Q2166.43 171.403 2164.26 172.538 Q2162.08 173.649 2158.93 173.649 Q2154.95 173.649 2152.59 171.427 Q2150.25 169.181 2150.25 165.431 Q2150.25 161.056 2153.17 158.834 Q2156.11 156.612 2161.92 156.612 L2167.89 156.612 L2167.89 156.195 Q2167.89 153.255 2165.95 151.658 Q2164.03 150.038 2160.53 150.038 Q2158.31 150.038 2156.2 150.57 Q2154.1 151.103 2152.15 152.167 L2152.15 148.232 Q2154.49 147.33 2156.69 146.89 Q2158.89 146.427 2160.97 146.427 Q2166.6 146.427 2169.37 149.343 Q2172.15 152.26 2172.15 158.186 Z" fill="#000000" fill-rule="evenodd" fill-opacity="1" /><path clip-path="url(#clip960)" d="M 0 0 M2176.62 136.959 L2180.88 136.959 L2180.88 172.978 L2176.62 172.978 L2176.62 136.959 Z" fill="#000000" fill-rule="evenodd" fill-opacity="1" /><path clip-path="url(#clip960)" d="M 0 0 M2184.91 162.746 L2184.91 147.052 L2189.17 147.052 L2189.17 162.584 Q2189.17 166.265 2190.6 168.116 Q2192.04 169.945 2194.91 169.945 Q2198.36 169.945 2200.35 167.746 Q2202.36 165.547 2202.36 161.751 L2202.36 147.052 L2206.62 147.052 L2206.62 172.978 L2202.36 172.978 L2202.36 168.996 Q2200.81 171.357 2198.75 172.515 Q2196.71 173.649 2194 173.649 Q2189.54 173.649 2187.22 170.871 Q2184.91 168.093 2184.91 162.746 M2195.62 146.427 L2195.62 146.427 Z" fill="#000000" fill-rule="evenodd" fill-opacity="1" /><path clip-path="url(#clip960)" d="M 0 0 M2233.26 158.95 L2233.26 161.033 L2213.68 161.033 Q2213.96 165.431 2216.32 167.746 Q2218.7 170.038 2222.94 170.038 Q2225.39 170.038 2227.68 169.436 Q2230 168.834 2232.27 167.63 L2232.27 171.658 Q2229.98 172.63 2227.57 173.14 Q2225.16 173.649 2222.68 173.649 Q2216.48 173.649 2212.85 170.038 Q2209.23 166.427 2209.23 160.269 Q2209.23 153.904 2212.66 150.177 Q2216.11 146.427 2221.94 146.427 Q2227.17 146.427 2230.21 149.806 Q2233.26 153.163 2233.26 158.95 M2229 157.7 Q2228.96 154.205 2227.04 152.121 Q2225.14 150.038 2221.99 150.038 Q2218.42 150.038 2216.27 152.052 Q2214.14 154.066 2213.82 157.723 L2229 157.7 Z" fill="#000000" fill-rule="evenodd" fill-opacity="1" /></svg>
