<?xml version="1.0" encoding="utf-8"?>
<svg xmlns="http://www.w3.org/2000/svg" xmlns:xlink="http://www.w3.org/1999/xlink" width="600" height="400" viewBox="0 0 2400 1600">
<defs>
  <clipPath id="clip200">
    <rect x="0" y="0" width="2400" height="1600"/>
  </clipPath>
</defs>
<path clip-path="url(#clip200)" d="
M0 1600 L2400 1600 L2400 0 L0 0  Z
  " fill="#ffffff" fill-rule="evenodd" fill-opacity="1"/>
<defs>
  <clipPath id="clip201">
    <rect x="480" y="0" width="1681" height="1600"/>
  </clipPath>
</defs>
<path clip-path="url(#clip200)" d="
M148.334 1486.45 L2352.76 1486.45 L2352.76 47.2441 L148.334 47.2441  Z
  " fill="#ffffff" fill-rule="evenodd" fill-opacity="1"/>
<defs>
  <clipPath id="clip202">
    <rect x="148" y="47" width="2205" height="1440"/>
  </clipPath>
</defs>
<polyline clip-path="url(#clip202)" style="stroke:#000000; stroke-width:2; stroke-opacity:0.1; fill:none" points="
  349.66,1486.45 349.66,47.2441 
  "/>
<polyline clip-path="url(#clip202)" style="stroke:#000000; stroke-width:2; stroke-opacity:0.1; fill:none" points="
  800.103,1486.45 800.103,47.2441 
  "/>
<polyline clip-path="url(#clip202)" style="stroke:#000000; stroke-width:2; stroke-opacity:0.1; fill:none" points="
  1250.55,1486.45 1250.55,47.2441 
  "/>
<polyline clip-path="url(#clip202)" style="stroke:#000000; stroke-width:2; stroke-opacity:0.1; fill:none" points="
  1700.99,1486.45 1700.99,47.2441 
  "/>
<polyline clip-path="url(#clip202)" style="stroke:#000000; stroke-width:2; stroke-opacity:0.1; fill:none" points="
  2151.43,1486.45 2151.43,47.2441 
  "/>
<polyline clip-path="url(#clip202)" style="stroke:#000000; stroke-width:2; stroke-opacity:0.1; fill:none" points="
  148.334,1445.72 2352.76,1445.72 
  "/>
<polyline clip-path="url(#clip202)" style="stroke:#000000; stroke-width:2; stroke-opacity:0.1; fill:none" points="
  148.334,1228.48 2352.76,1228.48 
  "/>
<polyline clip-path="url(#clip202)" style="stroke:#000000; stroke-width:2; stroke-opacity:0.1; fill:none" points="
  148.334,1011.24 2352.76,1011.24 
  "/>
<polyline clip-path="url(#clip202)" style="stroke:#000000; stroke-width:2; stroke-opacity:0.1; fill:none" points="
  148.334,794.001 2352.76,794.001 
  "/>
<polyline clip-path="url(#clip202)" style="stroke:#000000; stroke-width:2; stroke-opacity:0.1; fill:none" points="
  148.334,576.762 2352.76,576.762 
  "/>
<polyline clip-path="url(#clip202)" style="stroke:#000000; stroke-width:2; stroke-opacity:0.1; fill:none" points="
  148.334,359.524 2352.76,359.524 
  "/>
<polyline clip-path="url(#clip202)" style="stroke:#000000; stroke-width:2; stroke-opacity:0.1; fill:none" points="
  148.334,142.286 2352.76,142.286 
  "/>
<polyline clip-path="url(#clip200)" style="stroke:#000000; stroke-width:4; stroke-opacity:1; fill:none" points="
  148.334,1486.45 2352.76,1486.45 
  "/>
<polyline clip-path="url(#clip200)" style="stroke:#000000; stroke-width:4; stroke-opacity:1; fill:none" points="
  148.334,1486.45 148.334,47.2441 
  "/>
<polyline clip-path="url(#clip200)" style="stroke:#000000; stroke-width:4; stroke-opacity:1; fill:none" points="
  349.66,1486.45 349.66,1469.18 
  "/>
<polyline clip-path="url(#clip200)" style="stroke:#000000; stroke-width:4; stroke-opacity:1; fill:none" points="
  800.103,1486.45 800.103,1469.18 
  "/>
<polyline clip-path="url(#clip200)" style="stroke:#000000; stroke-width:4; stroke-opacity:1; fill:none" points="
  1250.55,1486.45 1250.55,1469.18 
  "/>
<polyline clip-path="url(#clip200)" style="stroke:#000000; stroke-width:4; stroke-opacity:1; fill:none" points="
  1700.99,1486.45 1700.99,1469.18 
  "/>
<polyline clip-path="url(#clip200)" style="stroke:#000000; stroke-width:4; stroke-opacity:1; fill:none" points="
  2151.43,1486.45 2151.43,1469.18 
  "/>
<polyline clip-path="url(#clip200)" style="stroke:#000000; stroke-width:4; stroke-opacity:1; fill:none" points="
  148.334,1445.72 174.787,1445.72 
  "/>
<polyline clip-path="url(#clip200)" style="stroke:#000000; stroke-width:4; stroke-opacity:1; fill:none" points="
  148.334,1228.48 174.787,1228.48 
  "/>
<polyline clip-path="url(#clip200)" style="stroke:#000000; stroke-width:4; stroke-opacity:1; fill:none" points="
  148.334,1011.24 174.787,1011.24 
  "/>
<polyline clip-path="url(#clip200)" style="stroke:#000000; stroke-width:4; stroke-opacity:1; fill:none" points="
  148.334,794.001 174.787,794.001 
  "/>
<polyline clip-path="url(#clip200)" style="stroke:#000000; stroke-width:4; stroke-opacity:1; fill:none" points="
  148.334,576.762 174.787,576.762 
  "/>
<polyline clip-path="url(#clip200)" style="stroke:#000000; stroke-width:4; stroke-opacity:1; fill:none" points="
  148.334,359.524 174.787,359.524 
  "/>
<polyline clip-path="url(#clip200)" style="stroke:#000000; stroke-width:4; stroke-opacity:1; fill:none" points="
  148.334,142.286 174.787,142.286 
  "/>
<path clip-path="url(#clip200)" d="M 0 0 M349.66 1508.44 Q346.049 1508.44 344.22 1512 Q342.415 1515.55 342.415 1522.67 Q342.415 1529.78 344.22 1533.35 Q346.049 1536.89 349.66 1536.89 Q353.294 1536.89 355.1 1533.35 Q356.929 1529.78 356.929 1522.67 Q356.929 1515.55 355.1 1512 Q353.294 1508.44 349.66 1508.44 M349.66 1504.73 Q355.47 1504.73 358.526 1509.34 Q361.605 1513.92 361.605 1522.67 Q361.605 1531.4 358.526 1536.01 Q355.47 1540.59 349.66 1540.59 Q343.85 1540.59 340.771 1536.01 Q337.716 1531.4 337.716 1522.67 Q337.716 1513.92 340.771 1509.34 Q343.85 1504.73 349.66 1504.73 Z" fill="#000000" fill-rule="evenodd" fill-opacity="1" /><path clip-path="url(#clip200)" d="M 0 0 M790.485 1535.98 L798.123 1535.98 L798.123 1509.62 L789.813 1511.29 L789.813 1507.03 L798.077 1505.36 L802.753 1505.36 L802.753 1535.98 L810.392 1535.98 L810.392 1539.92 L790.485 1539.92 L790.485 1535.98 Z" fill="#000000" fill-rule="evenodd" fill-opacity="1" /><path clip-path="url(#clip200)" d="M 0 0 M1245.2 1535.98 L1261.52 1535.98 L1261.52 1539.92 L1239.57 1539.92 L1239.57 1535.98 Q1242.24 1533.23 1246.82 1528.6 Q1251.42 1523.95 1252.61 1522.61 Q1254.85 1520.08 1255.73 1518.35 Q1256.63 1516.59 1256.63 1514.9 Q1256.63 1512.14 1254.69 1510.41 Q1252.77 1508.67 1249.67 1508.67 Q1247.47 1508.67 1245.01 1509.43 Q1242.58 1510.2 1239.8 1511.75 L1239.8 1507.03 Q1242.63 1505.89 1245.08 1505.31 Q1247.54 1504.73 1249.57 1504.73 Q1254.94 1504.73 1258.14 1507.42 Q1261.33 1510.11 1261.33 1514.6 Q1261.33 1516.73 1260.52 1518.65 Q1259.73 1520.54 1257.63 1523.14 Q1257.05 1523.81 1253.95 1527.03 Q1250.85 1530.22 1245.2 1535.98 Z" fill="#000000" fill-rule="evenodd" fill-opacity="1" /><path clip-path="url(#clip200)" d="M 0 0 M1705.24 1521.29 Q1708.59 1522 1710.47 1524.27 Q1712.36 1526.54 1712.36 1529.87 Q1712.36 1534.99 1708.85 1537.79 Q1705.33 1540.59 1698.85 1540.59 Q1696.67 1540.59 1694.36 1540.15 Q1692.06 1539.73 1689.61 1538.88 L1689.61 1534.36 Q1691.55 1535.5 1693.87 1536.08 Q1696.18 1536.66 1698.71 1536.66 Q1703.11 1536.66 1705.4 1534.92 Q1707.71 1533.18 1707.71 1529.87 Q1707.71 1526.82 1705.56 1525.11 Q1703.43 1523.37 1699.61 1523.37 L1695.58 1523.37 L1695.58 1519.53 L1699.8 1519.53 Q1703.24 1519.53 1705.07 1518.16 Q1706.9 1516.77 1706.9 1514.18 Q1706.9 1511.52 1705 1510.11 Q1703.13 1508.67 1699.61 1508.67 Q1697.69 1508.67 1695.49 1509.09 Q1693.29 1509.5 1690.65 1510.38 L1690.65 1506.22 Q1693.31 1505.48 1695.63 1505.11 Q1697.97 1504.73 1700.03 1504.73 Q1705.35 1504.73 1708.45 1507.17 Q1711.55 1509.57 1711.55 1513.69 Q1711.55 1516.56 1709.91 1518.55 Q1708.27 1520.52 1705.24 1521.29 Z" fill="#000000" fill-rule="evenodd" fill-opacity="1" /><path clip-path="url(#clip200)" d="M 0 0 M2154.44 1509.43 L2142.63 1527.88 L2154.44 1527.88 L2154.44 1509.43 M2153.21 1505.36 L2159.09 1505.36 L2159.09 1527.88 L2164.02 1527.88 L2164.02 1531.77 L2159.09 1531.77 L2159.09 1539.92 L2154.44 1539.92 L2154.44 1531.77 L2138.84 1531.77 L2138.84 1527.26 L2153.21 1505.36 Z" fill="#000000" fill-rule="evenodd" fill-opacity="1" /><path clip-path="url(#clip200)" d="M 0 0 M75.4226 1431.51 Q71.8115 1431.51 69.9828 1435.08 Q68.1773 1438.62 68.1773 1445.75 Q68.1773 1452.86 69.9828 1456.42 Q71.8115 1459.96 75.4226 1459.96 Q79.0569 1459.96 80.8624 1456.42 Q82.6911 1452.86 82.6911 1445.75 Q82.6911 1438.62 80.8624 1435.08 Q79.0569 1431.51 75.4226 1431.51 M75.4226 1427.81 Q81.2328 1427.81 84.2883 1432.42 Q87.367 1437 87.367 1445.75 Q87.367 1454.48 84.2883 1459.08 Q81.2328 1463.67 75.4226 1463.67 Q69.6125 1463.67 66.5338 1459.08 Q63.4782 1454.48 63.4782 1445.75 Q63.4782 1437 66.5338 1432.42 Q69.6125 1427.81 75.4226 1427.81 Z" fill="#000000" fill-rule="evenodd" fill-opacity="1" /><path clip-path="url(#clip200)" d="M 0 0 M92.4364 1457.12 L97.3206 1457.12 L97.3206 1463 L92.4364 1463 L92.4364 1457.12 Z" fill="#000000" fill-rule="evenodd" fill-opacity="1" /><path clip-path="url(#clip200)" d="M 0 0 M112.39 1431.51 Q108.779 1431.51 106.95 1435.08 Q105.145 1438.62 105.145 1445.75 Q105.145 1452.86 106.95 1456.42 Q108.779 1459.96 112.39 1459.96 Q116.024 1459.96 117.83 1456.42 Q119.658 1452.86 119.658 1445.75 Q119.658 1438.62 117.83 1435.08 Q116.024 1431.51 112.39 1431.51 M112.39 1427.81 Q118.2 1427.81 121.256 1432.42 Q124.334 1437 124.334 1445.75 Q124.334 1454.48 121.256 1459.08 Q118.2 1463.67 112.39 1463.67 Q106.58 1463.67 103.501 1459.08 Q100.446 1454.48 100.446 1445.75 Q100.446 1437 103.501 1432.42 Q106.58 1427.81 112.39 1427.81 Z" fill="#000000" fill-rule="evenodd" fill-opacity="1" /><path clip-path="url(#clip200)" d="M 0 0 M76.6495 1214.28 Q73.0384 1214.28 71.2097 1217.84 Q69.4041 1221.38 69.4041 1228.51 Q69.4041 1235.62 71.2097 1239.18 Q73.0384 1242.72 76.6495 1242.72 Q80.2837 1242.72 82.0892 1239.18 Q83.9179 1235.62 83.9179 1228.51 Q83.9179 1221.38 82.0892 1217.84 Q80.2837 1214.28 76.6495 1214.28 M76.6495 1210.57 Q82.4596 1210.57 85.5152 1215.18 Q88.5938 1219.76 88.5938 1228.51 Q88.5938 1237.24 85.5152 1241.85 Q82.4596 1246.43 76.6495 1246.43 Q70.8393 1246.43 67.7606 1241.85 Q64.7051 1237.24 64.7051 1228.51 Q64.7051 1219.76 67.7606 1215.18 Q70.8393 1210.57 76.6495 1210.57 Z" fill="#000000" fill-rule="evenodd" fill-opacity="1" /><path clip-path="url(#clip200)" d="M 0 0 M93.6633 1239.88 L98.5475 1239.88 L98.5475 1245.76 L93.6633 1245.76 L93.6633 1239.88 Z" fill="#000000" fill-rule="evenodd" fill-opacity="1" /><path clip-path="url(#clip200)" d="M 0 0 M104.427 1241.82 L112.066 1241.82 L112.066 1215.46 L103.756 1217.12 L103.756 1212.86 L112.02 1211.2 L116.696 1211.2 L116.696 1241.82 L124.334 1241.82 L124.334 1245.76 L104.427 1245.76 L104.427 1241.82 Z" fill="#000000" fill-rule="evenodd" fill-opacity="1" /><path clip-path="url(#clip200)" d="M 0 0 M77.0198 997.038 Q73.4087 997.038 71.58 1000.6 Q69.7745 1004.14 69.7745 1011.27 Q69.7745 1018.38 71.58 1021.95 Q73.4087 1025.49 77.0198 1025.49 Q80.6541 1025.49 82.4596 1021.95 Q84.2883 1018.38 84.2883 1011.27 Q84.2883 1004.14 82.4596 1000.6 Q80.6541 997.038 77.0198 997.038 M77.0198 993.334 Q82.83 993.334 85.8855 997.941 Q88.9642 1002.52 88.9642 1011.27 Q88.9642 1020 85.8855 1024.61 Q82.83 1029.19 77.0198 1029.19 Q71.2097 1029.19 68.131 1024.61 Q65.0754 1020 65.0754 1011.27 Q65.0754 1002.52 68.131 997.941 Q71.2097 993.334 77.0198 993.334 Z" fill="#000000" fill-rule="evenodd" fill-opacity="1" /><path clip-path="url(#clip200)" d="M 0 0 M94.0336 1022.64 L98.9179 1022.64 L98.9179 1028.52 L94.0336 1028.52 L94.0336 1022.64 Z" fill="#000000" fill-rule="evenodd" fill-opacity="1" /><path clip-path="url(#clip200)" d="M 0 0 M108.015 1024.58 L124.334 1024.58 L124.334 1028.52 L102.39 1028.52 L102.39 1024.58 Q105.052 1021.83 109.635 1017.2 Q114.242 1012.55 115.422 1011.2 Q117.668 1008.68 118.547 1006.95 Q119.45 1005.19 119.45 1003.5 Q119.45 1000.74 117.506 999.005 Q115.584 997.269 112.483 997.269 Q110.284 997.269 107.83 998.033 Q105.399 998.797 102.622 1000.35 L102.622 995.626 Q105.446 994.491 107.899 993.913 Q110.353 993.334 112.39 993.334 Q117.76 993.334 120.955 996.019 Q124.149 998.704 124.149 1003.2 Q124.149 1005.32 123.339 1007.25 Q122.552 1009.14 120.446 1011.74 Q119.867 1012.41 116.765 1015.63 Q113.663 1018.82 108.015 1024.58 Z" fill="#000000" fill-rule="evenodd" fill-opacity="1" /><path clip-path="url(#clip200)" d="M 0 0 M76.0708 779.799 Q72.4597 779.799 70.631 783.364 Q68.8254 786.906 68.8254 794.035 Q68.8254 801.142 70.631 804.707 Q72.4597 808.248 76.0708 808.248 Q79.705 808.248 81.5105 804.707 Q83.3392 801.142 83.3392 794.035 Q83.3392 786.906 81.5105 783.364 Q79.705 779.799 76.0708 779.799 M76.0708 776.096 Q81.8809 776.096 84.9365 780.702 Q88.0151 785.286 88.0151 794.035 Q88.0151 802.762 84.9365 807.369 Q81.8809 811.952 76.0708 811.952 Q70.2606 811.952 67.1819 807.369 Q64.1264 802.762 64.1264 794.035 Q64.1264 785.286 67.1819 780.702 Q70.2606 776.096 76.0708 776.096 Z" fill="#000000" fill-rule="evenodd" fill-opacity="1" /><path clip-path="url(#clip200)" d="M 0 0 M93.0846 805.401 L97.9688 805.401 L97.9688 811.281 L93.0846 811.281 L93.0846 805.401 Z" fill="#000000" fill-rule="evenodd" fill-opacity="1" /><path clip-path="url(#clip200)" d="M 0 0 M117.205 792.647 Q120.561 793.364 122.436 795.633 Q124.334 797.901 124.334 801.235 Q124.334 806.35 120.816 809.151 Q117.297 811.952 110.816 811.952 Q108.64 811.952 106.325 811.512 Q104.034 811.096 101.58 810.239 L101.58 805.725 Q103.524 806.859 105.839 807.438 Q108.154 808.017 110.677 808.017 Q115.075 808.017 117.367 806.281 Q119.682 804.545 119.682 801.235 Q119.682 798.179 117.529 796.466 Q115.399 794.73 111.58 794.73 L107.552 794.73 L107.552 790.887 L111.765 790.887 Q115.214 790.887 117.043 789.522 Q118.871 788.133 118.871 785.54 Q118.871 782.878 116.973 781.466 Q115.098 780.031 111.58 780.031 Q109.659 780.031 107.459 780.448 Q105.26 780.864 102.622 781.744 L102.622 777.577 Q105.284 776.837 107.598 776.466 Q109.936 776.096 111.996 776.096 Q117.321 776.096 120.422 778.526 Q123.524 780.934 123.524 785.054 Q123.524 787.924 121.881 789.915 Q120.237 791.883 117.205 792.647 Z" fill="#000000" fill-rule="evenodd" fill-opacity="1" /><path clip-path="url(#clip200)" d="M 0 0 M74.9365 562.561 Q71.3254 562.561 69.4967 566.126 Q67.6912 569.668 67.6912 576.797 Q67.6912 583.904 69.4967 587.468 Q71.3254 591.01 74.9365 591.01 Q78.5707 591.01 80.3763 587.468 Q82.205 583.904 82.205 576.797 Q82.205 569.668 80.3763 566.126 Q78.5707 562.561 74.9365 562.561 M74.9365 558.857 Q80.7467 558.857 83.8022 563.464 Q86.8809 568.047 86.8809 576.797 Q86.8809 585.524 83.8022 590.13 Q80.7467 594.714 74.9365 594.714 Q69.1264 594.714 66.0477 590.13 Q62.9921 585.524 62.9921 576.797 Q62.9921 568.047 66.0477 563.464 Q69.1264 558.857 74.9365 558.857 Z" fill="#000000" fill-rule="evenodd" fill-opacity="1" /><path clip-path="url(#clip200)" d="M 0 0 M91.9503 588.163 L96.8345 588.163 L96.8345 594.042 L91.9503 594.042 L91.9503 588.163 Z" fill="#000000" fill-rule="evenodd" fill-opacity="1" /><path clip-path="url(#clip200)" d="M 0 0 M114.751 563.557 L102.946 582.005 L114.751 582.005 L114.751 563.557 M113.524 559.482 L119.404 559.482 L119.404 582.005 L124.334 582.005 L124.334 585.894 L119.404 585.894 L119.404 594.042 L114.751 594.042 L114.751 585.894 L99.1493 585.894 L99.1493 581.38 L113.524 559.482 Z" fill="#000000" fill-rule="evenodd" fill-opacity="1" /><path clip-path="url(#clip200)" d="M 0 0 M76.418 345.323 Q72.8069 345.323 70.9782 348.888 Q69.1726 352.429 69.1726 359.559 Q69.1726 366.665 70.9782 370.23 Q72.8069 373.772 76.418 373.772 Q80.0522 373.772 81.8578 370.23 Q83.6865 366.665 83.6865 359.559 Q83.6865 352.429 81.8578 348.888 Q80.0522 345.323 76.418 345.323 M76.418 341.619 Q82.2281 341.619 85.2837 346.226 Q88.3624 350.809 88.3624 359.559 Q88.3624 368.286 85.2837 372.892 Q82.2281 377.475 76.418 377.475 Q70.6078 377.475 67.5291 372.892 Q64.4736 368.286 64.4736 359.559 Q64.4736 350.809 67.5291 346.226 Q70.6078 341.619 76.418 341.619 Z" fill="#000000" fill-rule="evenodd" fill-opacity="1" /><path clip-path="url(#clip200)" d="M 0 0 M93.4318 370.925 L98.316 370.925 L98.316 376.804 L93.4318 376.804 L93.4318 370.925 Z" fill="#000000" fill-rule="evenodd" fill-opacity="1" /><path clip-path="url(#clip200)" d="M 0 0 M103.432 342.244 L121.788 342.244 L121.788 346.179 L107.714 346.179 L107.714 354.652 Q108.733 354.304 109.751 354.142 Q110.77 353.957 111.788 353.957 Q117.575 353.957 120.955 357.128 Q124.334 360.3 124.334 365.716 Q124.334 371.295 120.862 374.397 Q117.39 377.475 111.071 377.475 Q108.895 377.475 106.626 377.105 Q104.381 376.735 101.973 375.994 L101.973 371.295 Q104.057 372.429 106.279 372.985 Q108.501 373.54 110.978 373.54 Q114.983 373.54 117.321 371.434 Q119.658 369.327 119.658 365.716 Q119.658 362.105 117.321 359.999 Q114.983 357.892 110.978 357.892 Q109.103 357.892 107.228 358.309 Q105.376 358.726 103.432 359.605 L103.432 342.244 Z" fill="#000000" fill-rule="evenodd" fill-opacity="1" /><path clip-path="url(#clip200)" d="M 0 0 M75.2606 128.085 Q71.6495 128.085 69.8208 131.649 Q68.0152 135.191 68.0152 142.321 Q68.0152 149.427 69.8208 152.992 Q71.6495 156.533 75.2606 156.533 Q78.8948 156.533 80.7004 152.992 Q82.5291 149.427 82.5291 142.321 Q82.5291 135.191 80.7004 131.649 Q78.8948 128.085 75.2606 128.085 M75.2606 124.381 Q81.0707 124.381 84.1263 128.987 Q87.205 133.571 87.205 142.321 Q87.205 151.047 84.1263 155.654 Q81.0707 160.237 75.2606 160.237 Q69.4504 160.237 66.3717 155.654 Q63.3162 151.047 63.3162 142.321 Q63.3162 133.571 66.3717 128.987 Q69.4504 124.381 75.2606 124.381 Z" fill="#000000" fill-rule="evenodd" fill-opacity="1" /><path clip-path="url(#clip200)" d="M 0 0 M92.2744 153.686 L97.1586 153.686 L97.1586 159.566 L92.2744 159.566 L92.2744 153.686 Z" fill="#000000" fill-rule="evenodd" fill-opacity="1" /><path clip-path="url(#clip200)" d="M 0 0 M112.807 140.422 Q109.659 140.422 107.807 142.575 Q105.978 144.728 105.978 148.478 Q105.978 152.205 107.807 154.381 Q109.659 156.533 112.807 156.533 Q115.955 156.533 117.783 154.381 Q119.635 152.205 119.635 148.478 Q119.635 144.728 117.783 142.575 Q115.955 140.422 112.807 140.422 M122.089 125.77 L122.089 130.029 Q120.33 129.196 118.524 128.756 Q116.742 128.316 114.983 128.316 Q110.353 128.316 107.899 131.441 Q105.469 134.566 105.122 140.885 Q106.487 138.872 108.547 137.807 Q110.608 136.719 113.084 136.719 Q118.293 136.719 121.302 139.89 Q124.334 143.038 124.334 148.478 Q124.334 153.802 121.186 157.02 Q118.038 160.237 112.807 160.237 Q106.811 160.237 103.64 155.654 Q100.469 151.047 100.469 142.321 Q100.469 134.126 104.358 129.265 Q108.247 124.381 114.797 124.381 Q116.557 124.381 118.339 124.728 Q120.145 125.075 122.089 125.77 Z" fill="#000000" fill-rule="evenodd" fill-opacity="1" /><path clip-path="url(#clip202)" d="
M269.581 1445.72 L269.581 1445.72 L429.739 1445.72 L429.739 1445.72 L269.581 1445.72 L269.581 1445.72  Z
  " fill="#009af9" fill-rule="evenodd" fill-opacity="1"/>
<polyline clip-path="url(#clip202)" style="stroke:#000000; stroke-width:4; stroke-opacity:1; fill:none" points="
  269.581,1445.72 269.581,1445.72 429.739,1445.72 269.581,1445.72 
  "/>
<path clip-path="url(#clip202)" d="
M469.778 1445.72 L469.778 1445.72 L629.935 1445.72 L629.935 1445.72 L469.778 1445.72 L469.778 1445.72  Z
  " fill="#009af9" fill-rule="evenodd" fill-opacity="1"/>
<polyline clip-path="url(#clip202)" style="stroke:#000000; stroke-width:4; stroke-opacity:1; fill:none" points="
  469.778,1445.72 469.778,1445.72 629.935,1445.72 469.778,1445.72 
  "/>
<path clip-path="url(#clip202)" d="
M669.975 1445.72 L669.975 1445.72 L830.132 1445.72 L830.132 1445.72 L669.975 1445.72 L669.975 1445.72  Z
  " fill="#009af9" fill-rule="evenodd" fill-opacity="1"/>
<polyline clip-path="url(#clip202)" style="stroke:#000000; stroke-width:4; stroke-opacity:1; fill:none" points="
  669.975,1445.72 669.975,1445.72 830.132,1445.72 669.975,1445.72 
  "/>
<path clip-path="url(#clip202)" d="
M870.171 1445.72 L870.171 1445.72 L1030.33 1445.72 L1030.33 1445.72 L870.171 1445.72 L870.171 1445.72  Z
  " fill="#009af9" fill-rule="evenodd" fill-opacity="1"/>
<polyline clip-path="url(#clip202)" style="stroke:#000000; stroke-width:4; stroke-opacity:1; fill:none" points="
  870.171,1445.72 870.171,1445.72 1030.33,1445.72 870.171,1445.72 
  "/>
<path clip-path="url(#clip202)" d="
M1070.37 1445.72 L1070.37 1445.72 L1230.53 1445.72 L1230.53 1445.72 L1070.37 1445.72 L1070.37 1445.72  Z
  " fill="#009af9" fill-rule="evenodd" fill-opacity="1"/>
<polyline clip-path="url(#clip202)" style="stroke:#000000; stroke-width:4; stroke-opacity:1; fill:none" points="
  1070.37,1445.72 1070.37,1445.72 1230.53,1445.72 1070.37,1445.72 
  "/>
<path clip-path="url(#clip202)" d="
M1270.56 631.072 L1270.56 1445.72 L1430.72 1445.72 L1430.72 631.072 L1270.56 631.072 L1270.56 631.072  Z
  " fill="#009af9" fill-rule="evenodd" fill-opacity="1"/>
<polyline clip-path="url(#clip202)" style="stroke:#000000; stroke-width:4; stroke-opacity:1; fill:none" points="
  1270.56,631.072 1270.56,1445.72 1430.72,1445.72 1430.72,631.072 1270.56,631.072 
  "/>
<path clip-path="url(#clip202)" d="
M1470.76 87.9763 L1470.76 1445.72 L1630.92 1445.72 L1630.92 87.9763 L1470.76 87.9763 L1470.76 87.9763  Z
  " fill="#009af9" fill-rule="evenodd" fill-opacity="1"/>
<polyline clip-path="url(#clip202)" style="stroke:#000000; stroke-width:4; stroke-opacity:1; fill:none" points="
  1470.76,87.9763 1470.76,1445.72 1630.92,1445.72 1630.92,87.9763 1470.76,87.9763 
  "/>
<path clip-path="url(#clip202)" d="
M1670.96 1445.72 L1670.96 1445.72 L1831.12 1445.72 L1831.12 1445.72 L1670.96 1445.72 L1670.96 1445.72  Z
  " fill="#009af9" fill-rule="evenodd" fill-opacity="1"/>
<polyline clip-path="url(#clip202)" style="stroke:#000000; stroke-width:4; stroke-opacity:1; fill:none" points="
  1670.96,1445.72 1670.96,1445.72 1831.12,1445.72 1670.96,1445.72 
  "/>
<path clip-path="url(#clip202)" d="
M1871.15 1445.72 L1871.15 1445.72 L2031.31 1445.72 L2031.31 1445.72 L1871.15 1445.72 L1871.15 1445.72  Z
  " fill="#009af9" fill-rule="evenodd" fill-opacity="1"/>
<polyline clip-path="url(#clip202)" style="stroke:#000000; stroke-width:4; stroke-opacity:1; fill:none" points="
  1871.15,1445.72 1871.15,1445.72 2031.31,1445.72 1871.15,1445.72 
  "/>
<path clip-path="url(#clip202)" d="
M2071.35 1445.72 L2071.35 1445.72 L2231.51 1445.72 L2231.51 1445.72 L2071.35 1445.72 L2071.35 1445.72  Z
  " fill="#009af9" fill-rule="evenodd" fill-opacity="1"/>
<polyline clip-path="url(#clip202)" style="stroke:#000000; stroke-width:4; stroke-opacity:1; fill:none" points="
  2071.35,1445.72 2071.35,1445.72 2231.51,1445.72 2071.35,1445.72 
  "/>
<polyline clip-path="url(#clip202)" style="stroke:#e26f46; stroke-width:16; stroke-opacity:1; fill:none" points="
  1475.77,2925.65 1475.77,-1391.96 
  "/>
<path clip-path="url(#clip200)" d="
M1770.85 276.658 L2279.28 276.658 L2279.28 95.2176 L1770.85 95.2176  Z
  " fill="#ffffff" fill-rule="evenodd" fill-opacity="1"/>
<polyline clip-path="url(#clip200)" style="stroke:#000000; stroke-width:4; stroke-opacity:1; fill:none" points="
  1770.85,276.658 2279.28,276.658 2279.28,95.2176 1770.85,95.2176 1770.85,276.658 
  "/>
<path clip-path="url(#clip200)" d="
M1795.34 179.89 L1942.3 179.89 L1942.3 131.506 L1795.34 131.506 L1795.34 179.89  Z
  " fill="#009af9" fill-rule="evenodd" fill-opacity="1"/>
<polyline clip-path="url(#clip200)" style="stroke:#000000; stroke-width:4; stroke-opacity:1; fill:none" points="
  1795.34,179.89 1942.3,179.89 1942.3,131.506 1795.34,131.506 1795.34,179.89 
  "/>
<path clip-path="url(#clip200)" d="M 0 0 M1966.79 138.418 L1973.76 138.418 L1982.58 161.936 L1991.45 138.418 L1998.41 138.418 L1998.41 172.978 L1993.85 172.978 L1993.85 142.63 L1984.94 166.334 L1980.24 166.334 L1971.33 142.63 L1971.33 172.978 L1966.79 172.978 L1966.79 138.418 Z" fill="#000000" fill-rule="evenodd" fill-opacity="1" /><path clip-path="url(#clip200)" d="M 0 0 M2014.66 159.945 Q2009.5 159.945 2007.51 161.126 Q2005.52 162.306 2005.52 165.154 Q2005.52 167.422 2007 168.765 Q2008.51 170.084 2011.08 170.084 Q2014.62 170.084 2016.75 167.584 Q2018.9 165.061 2018.9 160.894 L2018.9 159.945 L2014.66 159.945 M2023.16 158.186 L2023.16 172.978 L2018.9 172.978 L2018.9 169.042 Q2017.44 171.403 2015.27 172.538 Q2013.09 173.649 2009.94 173.649 Q2005.96 173.649 2003.6 171.427 Q2001.26 169.181 2001.26 165.431 Q2001.26 161.056 2004.18 158.834 Q2007.12 156.612 2012.93 156.612 L2018.9 156.612 L2018.9 156.195 Q2018.9 153.255 2016.96 151.658 Q2015.03 150.038 2011.54 150.038 Q2009.32 150.038 2007.21 150.57 Q2005.1 151.103 2003.16 152.167 L2003.16 148.232 Q2005.5 147.33 2007.7 146.89 Q2009.9 146.427 2011.98 146.427 Q2017.6 146.427 2020.38 149.343 Q2023.16 152.26 2023.16 158.186 Z" fill="#000000" fill-rule="evenodd" fill-opacity="1" /><path clip-path="url(#clip200)" d="M 0 0 M2044.15 147.816 L2044.15 151.843 Q2042.35 150.917 2040.4 150.455 Q2038.46 149.992 2036.38 149.992 Q2033.21 149.992 2031.61 150.964 Q2030.03 151.936 2030.03 153.88 Q2030.03 155.362 2031.17 156.218 Q2032.3 157.052 2035.73 157.816 L2037.19 158.14 Q2041.72 159.112 2043.62 160.894 Q2045.54 162.654 2045.54 165.825 Q2045.54 169.436 2042.67 171.542 Q2039.83 173.649 2034.83 173.649 Q2032.74 173.649 2030.47 173.232 Q2028.23 172.839 2025.73 172.028 L2025.73 167.63 Q2028.09 168.857 2030.38 169.482 Q2032.67 170.084 2034.92 170.084 Q2037.93 170.084 2039.55 169.066 Q2041.17 168.024 2041.17 166.149 Q2041.17 164.413 2039.99 163.487 Q2038.83 162.561 2034.87 161.704 L2033.39 161.357 Q2029.43 160.524 2027.67 158.811 Q2025.91 157.075 2025.91 154.066 Q2025.91 150.408 2028.51 148.418 Q2031.1 146.427 2035.87 146.427 Q2038.23 146.427 2040.31 146.774 Q2042.4 147.121 2044.15 147.816 Z" fill="#000000" fill-rule="evenodd" fill-opacity="1" /><path clip-path="url(#clip200)" d="M 0 0 M2066.54 147.816 L2066.54 151.843 Q2064.73 150.917 2062.79 150.455 Q2060.84 149.992 2058.76 149.992 Q2055.59 149.992 2053.99 150.964 Q2052.42 151.936 2052.42 153.88 Q2052.42 155.362 2053.55 156.218 Q2054.69 157.052 2058.11 157.816 L2059.57 158.14 Q2064.11 159.112 2066.01 160.894 Q2067.93 162.654 2067.93 165.825 Q2067.93 169.436 2065.06 171.542 Q2062.21 173.649 2057.21 173.649 Q2055.13 173.649 2052.86 173.232 Q2050.61 172.839 2048.11 172.028 L2048.11 167.63 Q2050.47 168.857 2052.77 169.482 Q2055.06 170.084 2057.3 170.084 Q2060.31 170.084 2061.93 169.066 Q2063.55 168.024 2063.55 166.149 Q2063.55 164.413 2062.37 163.487 Q2061.21 162.561 2057.26 161.704 L2055.78 161.357 Q2051.82 160.524 2050.06 158.811 Q2048.3 157.075 2048.3 154.066 Q2048.3 150.408 2050.89 148.418 Q2053.48 146.427 2058.25 146.427 Q2060.61 146.427 2062.7 146.774 Q2064.78 147.121 2066.54 147.816 Z" fill="#000000" fill-rule="evenodd" fill-opacity="1" /><path clip-path="url(#clip200)" d="M 0 0 M2097.51 150.038 Q2094.09 150.038 2092.09 152.723 Q2090.1 155.385 2090.1 160.038 Q2090.1 164.691 2092.07 167.376 Q2094.06 170.038 2097.51 170.038 Q2100.91 170.038 2102.9 167.353 Q2104.9 164.667 2104.9 160.038 Q2104.9 155.431 2102.9 152.746 Q2100.91 150.038 2097.51 150.038 M2097.51 146.427 Q2103.07 146.427 2106.24 150.038 Q2109.41 153.649 2109.41 160.038 Q2109.41 166.404 2106.24 170.038 Q2103.07 173.649 2097.51 173.649 Q2091.93 173.649 2088.76 170.038 Q2085.61 166.404 2085.61 160.038 Q2085.61 153.649 2088.76 150.038 Q2091.93 146.427 2097.51 146.427 Z" fill="#000000" fill-rule="evenodd" fill-opacity="1" /><path clip-path="url(#clip200)" d="M 0 0 M2135.43 157.329 L2135.43 172.978 L2131.17 172.978 L2131.17 157.468 Q2131.17 153.788 2129.73 151.959 Q2128.3 150.13 2125.43 150.13 Q2121.98 150.13 2119.99 152.33 Q2118 154.529 2118 158.325 L2118 172.978 L2113.71 172.978 L2113.71 147.052 L2118 147.052 L2118 151.08 Q2119.52 148.742 2121.58 147.584 Q2123.67 146.427 2126.38 146.427 Q2130.84 146.427 2133.14 149.205 Q2135.43 151.959 2135.43 157.329 Z" fill="#000000" fill-rule="evenodd" fill-opacity="1" /><path clip-path="url(#clip200)" d="M 0 0 M2172.02 159.714 Q2172.02 155.084 2170.1 152.538 Q2168.21 149.992 2164.76 149.992 Q2161.33 149.992 2159.41 152.538 Q2157.51 155.084 2157.51 159.714 Q2157.51 164.32 2159.41 166.866 Q2161.33 169.413 2164.76 169.413 Q2168.21 169.413 2170.1 166.866 Q2172.02 164.32 2172.02 159.714 M2176.28 169.76 Q2176.28 176.38 2173.34 179.598 Q2170.4 182.839 2164.34 182.839 Q2162.09 182.839 2160.1 182.491 Q2158.11 182.167 2156.24 181.473 L2156.24 177.329 Q2158.11 178.348 2159.94 178.834 Q2161.77 179.32 2163.67 179.32 Q2167.86 179.32 2169.94 177.121 Q2172.02 174.945 2172.02 170.524 L2172.02 168.417 Q2170.71 170.709 2168.64 171.843 Q2166.58 172.978 2163.71 172.978 Q2158.95 172.978 2156.03 169.343 Q2153.11 165.709 2153.11 159.714 Q2153.11 153.695 2156.03 150.061 Q2158.95 146.427 2163.71 146.427 Q2166.58 146.427 2168.64 147.561 Q2170.71 148.695 2172.02 150.987 L2172.02 147.052 L2176.28 147.052 L2176.28 169.76 Z" fill="#000000" fill-rule="evenodd" fill-opacity="1" /><path clip-path="url(#clip200)" d="M 0 0 M2195.77 151.033 Q2195.06 150.617 2194.2 150.431 Q2193.37 150.223 2192.35 150.223 Q2188.74 150.223 2186.79 152.584 Q2184.87 154.922 2184.87 159.32 L2184.87 172.978 L2180.59 172.978 L2180.59 147.052 L2184.87 147.052 L2184.87 151.08 Q2186.21 148.718 2188.37 147.584 Q2190.52 146.427 2193.6 146.427 Q2194.04 146.427 2194.57 146.496 Q2195.1 146.543 2195.75 146.658 L2195.77 151.033 Z" fill="#000000" fill-rule="evenodd" fill-opacity="1" /><path clip-path="url(#clip200)" d="M 0 0 M2200.24 147.052 L2204.5 147.052 L2204.5 172.978 L2200.24 172.978 L2200.24 147.052 M2200.24 136.959 L2204.5 136.959 L2204.5 142.353 L2200.24 142.353 L2200.24 136.959 Z" fill="#000000" fill-rule="evenodd" fill-opacity="1" /><path clip-path="url(#clip200)" d="M 0 0 M2226.03 150.987 L2226.03 136.959 L2230.29 136.959 L2230.29 172.978 L2226.03 172.978 L2226.03 169.089 Q2224.69 171.403 2222.63 172.538 Q2220.59 173.649 2217.72 173.649 Q2213.02 173.649 2210.06 169.899 Q2207.12 166.149 2207.12 160.038 Q2207.12 153.927 2210.06 150.177 Q2213.02 146.427 2217.72 146.427 Q2220.59 146.427 2222.63 147.561 Q2224.69 148.672 2226.03 150.987 M2211.51 160.038 Q2211.51 164.737 2213.44 167.422 Q2215.38 170.084 2218.76 170.084 Q2222.14 170.084 2224.08 167.422 Q2226.03 164.737 2226.03 160.038 Q2226.03 155.339 2224.08 152.677 Q2222.14 149.992 2218.76 149.992 Q2215.38 149.992 2213.44 152.677 Q2211.51 155.339 2211.51 160.038 Z" fill="#000000" fill-rule="evenodd" fill-opacity="1" /><polyline clip-path="url(#clip200)" style="stroke:#e26f46; stroke-width:4; stroke-opacity:1; fill:none" points="
  1795.34,216.178 1942.3,216.178 
  "/>
<path clip-path="url(#clip200)" d="M 0 0 M1966.79 198.898 L1996.03 198.898 L1996.03 202.833 L1983.76 202.833 L1983.76 233.458 L1979.06 233.458 L1979.06 202.833 L1966.79 202.833 L1966.79 198.898 Z" fill="#000000" fill-rule="evenodd" fill-opacity="1" /><path clip-path="url(#clip200)" d="M 0 0 M2008.55 211.513 Q2007.84 211.097 2006.98 210.911 Q2006.15 210.703 2005.13 210.703 Q2001.52 210.703 1999.57 213.064 Q1997.65 215.402 1997.65 219.8 L1997.65 233.458 L1993.37 233.458 L1993.37 207.532 L1997.65 207.532 L1997.65 211.56 Q1998.99 209.198 2001.15 208.064 Q2003.3 206.907 2006.38 206.907 Q2006.82 206.907 2007.35 206.976 Q2007.88 207.023 2008.53 207.138 L2008.55 211.513 Z" fill="#000000" fill-rule="evenodd" fill-opacity="1" /><path clip-path="url(#clip200)" d="M 0 0 M2012.58 223.226 L2012.58 207.532 L2016.84 207.532 L2016.84 223.064 Q2016.84 226.745 2018.28 228.596 Q2019.71 230.425 2022.58 230.425 Q2026.03 230.425 2028.02 228.226 Q2030.03 226.027 2030.03 222.231 L2030.03 207.532 L2034.29 207.532 L2034.29 233.458 L2030.03 233.458 L2030.03 229.476 Q2028.48 231.837 2026.42 232.995 Q2024.39 234.129 2021.68 234.129 Q2017.21 234.129 2014.9 231.351 Q2012.58 228.573 2012.58 223.226 M2023.3 206.907 L2023.3 206.907 Z" fill="#000000" fill-rule="evenodd" fill-opacity="1" /><path clip-path="url(#clip200)" d="M 0 0 M2060.94 219.43 L2060.94 221.513 L2041.35 221.513 Q2041.63 225.911 2043.99 228.226 Q2046.38 230.518 2050.61 230.518 Q2053.07 230.518 2055.36 229.916 Q2057.67 229.314 2059.94 228.11 L2059.94 232.138 Q2057.65 233.11 2055.24 233.62 Q2052.84 234.129 2050.36 234.129 Q2044.15 234.129 2040.52 230.518 Q2036.91 226.907 2036.91 220.749 Q2036.91 214.384 2040.34 210.657 Q2043.78 206.907 2049.62 206.907 Q2054.85 206.907 2057.88 210.286 Q2060.94 213.643 2060.94 219.43 M2056.68 218.18 Q2056.63 214.685 2054.71 212.601 Q2052.81 210.518 2049.66 210.518 Q2046.1 210.518 2043.95 212.532 Q2041.82 214.546 2041.49 218.203 L2056.68 218.18 Z" fill="#000000" fill-rule="evenodd" fill-opacity="1" /><path clip-path="url(#clip200)" d="M 0 0 M2077.42 207.532 L2081.93 207.532 L2090.03 229.291 L2098.14 207.532 L2102.65 207.532 L2092.93 233.458 L2087.14 233.458 L2077.42 207.532 Z" fill="#000000" fill-rule="evenodd" fill-opacity="1" /><path clip-path="url(#clip200)" d="M 0 0 M2118.9 220.425 Q2113.74 220.425 2111.75 221.606 Q2109.76 222.786 2109.76 225.634 Q2109.76 227.902 2111.24 229.245 Q2112.74 230.564 2115.31 230.564 Q2118.85 230.564 2120.98 228.064 Q2123.14 225.541 2123.14 221.374 L2123.14 220.425 L2118.9 220.425 M2127.4 218.666 L2127.4 233.458 L2123.14 233.458 L2123.14 229.522 Q2121.68 231.883 2119.5 233.018 Q2117.33 234.129 2114.18 234.129 Q2110.2 234.129 2107.83 231.907 Q2105.5 229.661 2105.5 225.911 Q2105.5 221.536 2108.41 219.314 Q2111.35 217.092 2117.16 217.092 L2123.14 217.092 L2123.14 216.675 Q2123.14 213.735 2121.19 212.138 Q2119.27 210.518 2115.77 210.518 Q2113.55 210.518 2111.45 211.05 Q2109.34 211.583 2107.4 212.647 L2107.4 208.712 Q2109.73 207.81 2111.93 207.37 Q2114.13 206.907 2116.21 206.907 Q2121.84 206.907 2124.62 209.823 Q2127.4 212.74 2127.4 218.666 Z" fill="#000000" fill-rule="evenodd" fill-opacity="1" /><path clip-path="url(#clip200)" d="M 0 0 M2131.86 197.439 L2136.12 197.439 L2136.12 233.458 L2131.86 233.458 L2131.86 197.439 Z" fill="#000000" fill-rule="evenodd" fill-opacity="1" /><path clip-path="url(#clip200)" d="M 0 0 M2140.15 223.226 L2140.15 207.532 L2144.41 207.532 L2144.41 223.064 Q2144.41 226.745 2145.84 228.596 Q2147.28 230.425 2150.15 230.425 Q2153.6 230.425 2155.59 228.226 Q2157.6 226.027 2157.6 222.231 L2157.6 207.532 L2161.86 207.532 L2161.86 233.458 L2157.6 233.458 L2157.6 229.476 Q2156.05 231.837 2153.99 232.995 Q2151.96 234.129 2149.25 234.129 Q2144.78 234.129 2142.46 231.351 Q2140.15 228.573 2140.15 223.226 M2150.87 206.907 L2150.87 206.907 Z" fill="#000000" fill-rule="evenodd" fill-opacity="1" /><path clip-path="url(#clip200)" d="M 0 0 M2188.51 219.43 L2188.51 221.513 L2168.92 221.513 Q2169.2 225.911 2171.56 228.226 Q2173.95 230.518 2178.18 230.518 Q2180.64 230.518 2182.93 229.916 Q2185.24 229.314 2187.51 228.11 L2187.51 232.138 Q2185.22 233.11 2182.81 233.62 Q2180.4 234.129 2177.93 234.129 Q2171.72 234.129 2168.09 230.518 Q2164.48 226.907 2164.48 220.749 Q2164.48 214.384 2167.9 210.657 Q2171.35 206.907 2177.19 206.907 Q2182.42 206.907 2185.45 210.286 Q2188.51 213.643 2188.51 219.43 M2184.25 218.18 Q2184.2 214.685 2182.28 212.601 Q2180.38 210.518 2177.23 210.518 Q2173.67 210.518 2171.52 212.532 Q2169.39 214.546 2169.06 218.203 L2184.25 218.18 Z" fill="#000000" fill-rule="evenodd" fill-opacity="1" /></svg>
