<?xml version="1.0" encoding="utf-8"?>
<svg xmlns="http://www.w3.org/2000/svg" xmlns:xlink="http://www.w3.org/1999/xlink" width="600" height="400" viewBox="0 0 2400 1600">
<defs>
  <clipPath id="clip000">
    <rect x="0" y="0" width="2400" height="1600"/>
  </clipPath>
</defs>
<path clip-path="url(#clip000)" d="
M0 1600 L2400 1600 L2400 0 L0 0  Z
  " fill="#ffffff" fill-rule="evenodd" fill-opacity="1"/>
<defs>
  <clipPath id="clip001">
    <rect x="480" y="0" width="1681" height="1600"/>
  </clipPath>
</defs>
<path clip-path="url(#clip000)" d="
M174.862 1486.45 L2352.76 1486.45 L2352.76 47.2441 L174.862 47.2441  Z
  " fill="#ffffff" fill-rule="evenodd" fill-opacity="1"/>
<defs>
  <clipPath id="clip002">
    <rect x="174" y="47" width="2179" height="1440"/>
  </clipPath>
</defs>
<polyline clip-path="url(#clip002)" style="stroke:#000000; stroke-width:2; stroke-opacity:0.1; fill:none" points="
  373.765,1486.45 373.765,47.2441 
  "/>
<polyline clip-path="url(#clip002)" style="stroke:#000000; stroke-width:2; stroke-opacity:0.1; fill:none" points="
  818.787,1486.45 818.787,47.2441 
  "/>
<polyline clip-path="url(#clip002)" style="stroke:#000000; stroke-width:2; stroke-opacity:0.1; fill:none" points="
  1263.81,1486.45 1263.81,47.2441 
  "/>
<polyline clip-path="url(#clip002)" style="stroke:#000000; stroke-width:2; stroke-opacity:0.1; fill:none" points="
  1708.83,1486.45 1708.83,47.2441 
  "/>
<polyline clip-path="url(#clip002)" style="stroke:#000000; stroke-width:2; stroke-opacity:0.1; fill:none" points="
  2153.85,1486.45 2153.85,47.2441 
  "/>
<polyline clip-path="url(#clip002)" style="stroke:#000000; stroke-width:2; stroke-opacity:0.1; fill:none" points="
  174.862,1445.72 2352.76,1445.72 
  "/>
<polyline clip-path="url(#clip002)" style="stroke:#000000; stroke-width:2; stroke-opacity:0.1; fill:none" points="
  174.862,1152.42 2352.76,1152.42 
  "/>
<polyline clip-path="url(#clip002)" style="stroke:#000000; stroke-width:2; stroke-opacity:0.1; fill:none" points="
  174.862,859.118 2352.76,859.118 
  "/>
<polyline clip-path="url(#clip002)" style="stroke:#000000; stroke-width:2; stroke-opacity:0.1; fill:none" points="
  174.862,565.819 2352.76,565.819 
  "/>
<polyline clip-path="url(#clip002)" style="stroke:#000000; stroke-width:2; stroke-opacity:0.1; fill:none" points="
  174.862,272.52 2352.76,272.52 
  "/>
<polyline clip-path="url(#clip000)" style="stroke:#000000; stroke-width:4; stroke-opacity:1; fill:none" points="
  174.862,1486.45 2352.76,1486.45 
  "/>
<polyline clip-path="url(#clip000)" style="stroke:#000000; stroke-width:4; stroke-opacity:1; fill:none" points="
  174.862,1486.45 174.862,47.2441 
  "/>
<polyline clip-path="url(#clip000)" style="stroke:#000000; stroke-width:4; stroke-opacity:1; fill:none" points="
  373.765,1486.45 373.765,1469.18 
  "/>
<polyline clip-path="url(#clip000)" style="stroke:#000000; stroke-width:4; stroke-opacity:1; fill:none" points="
  818.787,1486.45 818.787,1469.18 
  "/>
<polyline clip-path="url(#clip000)" style="stroke:#000000; stroke-width:4; stroke-opacity:1; fill:none" points="
  1263.81,1486.45 1263.81,1469.18 
  "/>
<polyline clip-path="url(#clip000)" style="stroke:#000000; stroke-width:4; stroke-opacity:1; fill:none" points="
  1708.83,1486.45 1708.83,1469.18 
  "/>
<polyline clip-path="url(#clip000)" style="stroke:#000000; stroke-width:4; stroke-opacity:1; fill:none" points="
  2153.85,1486.45 2153.85,1469.18 
  "/>
<polyline clip-path="url(#clip000)" style="stroke:#000000; stroke-width:4; stroke-opacity:1; fill:none" points="
  174.862,1445.72 200.997,1445.72 
  "/>
<polyline clip-path="url(#clip000)" style="stroke:#000000; stroke-width:4; stroke-opacity:1; fill:none" points="
  174.862,1152.42 200.997,1152.42 
  "/>
<polyline clip-path="url(#clip000)" style="stroke:#000000; stroke-width:4; stroke-opacity:1; fill:none" points="
  174.862,859.118 200.997,859.118 
  "/>
<polyline clip-path="url(#clip000)" style="stroke:#000000; stroke-width:4; stroke-opacity:1; fill:none" points="
  174.862,565.819 200.997,565.819 
  "/>
<polyline clip-path="url(#clip000)" style="stroke:#000000; stroke-width:4; stroke-opacity:1; fill:none" points="
  174.862,272.52 200.997,272.52 
  "/>
<path clip-path="url(#clip000)" d="M 0 0 M373.765 1508.44 Q370.154 1508.44 368.325 1512 Q366.52 1515.55 366.52 1522.67 Q366.52 1529.78 368.325 1533.35 Q370.154 1536.89 373.765 1536.89 Q377.399 1536.89 379.205 1533.35 Q381.034 1529.78 381.034 1522.67 Q381.034 1515.55 379.205 1512 Q377.399 1508.44 373.765 1508.44 M373.765 1504.73 Q379.575 1504.73 382.631 1509.34 Q385.709 1513.92 385.709 1522.67 Q385.709 1531.4 382.631 1536.01 Q379.575 1540.59 373.765 1540.59 Q367.955 1540.59 364.876 1536.01 Q361.821 1531.4 361.821 1522.67 Q361.821 1513.92 364.876 1509.34 Q367.955 1504.73 373.765 1504.73 Z" fill="#000000" fill-rule="evenodd" fill-opacity="1" /><path clip-path="url(#clip000)" d="M 0 0 M809.169 1535.98 L816.808 1535.98 L816.808 1509.62 L808.498 1511.29 L808.498 1507.03 L816.762 1505.36 L821.437 1505.36 L821.437 1535.98 L829.076 1535.98 L829.076 1539.92 L809.169 1539.92 L809.169 1535.98 Z" fill="#000000" fill-rule="evenodd" fill-opacity="1" /><path clip-path="url(#clip000)" d="M 0 0 M1258.46 1535.98 L1274.78 1535.98 L1274.78 1539.92 L1252.84 1539.92 L1252.84 1535.98 Q1255.5 1533.23 1260.08 1528.6 Q1264.69 1523.95 1265.87 1522.61 Q1268.11 1520.08 1268.99 1518.35 Q1269.9 1516.59 1269.9 1514.9 Q1269.9 1512.14 1267.95 1510.41 Q1266.03 1508.67 1262.93 1508.67 Q1260.73 1508.67 1258.28 1509.43 Q1255.85 1510.2 1253.07 1511.75 L1253.07 1507.03 Q1255.89 1505.89 1258.35 1505.31 Q1260.8 1504.73 1262.84 1504.73 Q1268.21 1504.73 1271.4 1507.42 Q1274.6 1510.11 1274.6 1514.6 Q1274.6 1516.73 1273.79 1518.65 Q1273 1520.54 1270.89 1523.14 Q1270.31 1523.81 1267.21 1527.03 Q1264.11 1530.22 1258.46 1535.98 Z" fill="#000000" fill-rule="evenodd" fill-opacity="1" /><path clip-path="url(#clip000)" d="M 0 0 M1713.08 1521.29 Q1716.44 1522 1718.31 1524.27 Q1720.21 1526.54 1720.21 1529.87 Q1720.21 1534.99 1716.69 1537.79 Q1713.17 1540.59 1706.69 1540.59 Q1704.51 1540.59 1702.2 1540.15 Q1699.91 1539.73 1697.45 1538.88 L1697.45 1534.36 Q1699.4 1535.5 1701.71 1536.08 Q1704.03 1536.66 1706.55 1536.66 Q1710.95 1536.66 1713.24 1534.92 Q1715.56 1533.18 1715.56 1529.87 Q1715.56 1526.82 1713.4 1525.11 Q1711.27 1523.37 1707.45 1523.37 L1703.43 1523.37 L1703.43 1519.53 L1707.64 1519.53 Q1711.09 1519.53 1712.92 1518.16 Q1714.75 1516.77 1714.75 1514.18 Q1714.75 1511.52 1712.85 1510.11 Q1710.97 1508.67 1707.45 1508.67 Q1705.53 1508.67 1703.33 1509.09 Q1701.13 1509.5 1698.5 1510.38 L1698.5 1506.22 Q1701.16 1505.48 1703.47 1505.11 Q1705.81 1504.73 1707.87 1504.73 Q1713.19 1504.73 1716.3 1507.17 Q1719.4 1509.57 1719.4 1513.69 Q1719.4 1516.56 1717.75 1518.55 Q1716.11 1520.52 1713.08 1521.29 Z" fill="#000000" fill-rule="evenodd" fill-opacity="1" /><path clip-path="url(#clip000)" d="M 0 0 M2156.86 1509.43 L2145.06 1527.88 L2156.86 1527.88 L2156.86 1509.43 M2155.64 1505.36 L2161.51 1505.36 L2161.51 1527.88 L2166.45 1527.88 L2166.45 1531.77 L2161.51 1531.77 L2161.51 1539.92 L2156.86 1539.92 L2156.86 1531.77 L2141.26 1531.77 L2141.26 1527.26 L2155.64 1505.36 Z" fill="#000000" fill-rule="evenodd" fill-opacity="1" /><path clip-path="url(#clip000)" d="M 0 0 M74.9365 1431.51 Q71.3254 1431.51 69.4967 1435.08 Q67.6912 1438.62 67.6912 1445.75 Q67.6912 1452.86 69.4967 1456.42 Q71.3254 1459.96 74.9365 1459.96 Q78.5707 1459.96 80.3763 1456.42 Q82.205 1452.86 82.205 1445.75 Q82.205 1438.62 80.3763 1435.08 Q78.5707 1431.51 74.9365 1431.51 M74.9365 1427.81 Q80.7467 1427.81 83.8022 1432.42 Q86.8809 1437 86.8809 1445.75 Q86.8809 1454.48 83.8022 1459.08 Q80.7467 1463.67 74.9365 1463.67 Q69.1264 1463.67 66.0477 1459.08 Q62.9921 1454.48 62.9921 1445.75 Q62.9921 1437 66.0477 1432.42 Q69.1264 1427.81 74.9365 1427.81 Z" fill="#000000" fill-rule="evenodd" fill-opacity="1" /><path clip-path="url(#clip000)" d="M 0 0 M91.9503 1457.12 L96.8345 1457.12 L96.8345 1463 L91.9503 1463 L91.9503 1457.12 Z" fill="#000000" fill-rule="evenodd" fill-opacity="1" /><path clip-path="url(#clip000)" d="M 0 0 M111.904 1431.51 Q108.293 1431.51 106.464 1435.08 Q104.659 1438.62 104.659 1445.75 Q104.659 1452.86 106.464 1456.42 Q108.293 1459.96 111.904 1459.96 Q115.538 1459.96 117.344 1456.42 Q119.172 1452.86 119.172 1445.75 Q119.172 1438.62 117.344 1435.08 Q115.538 1431.51 111.904 1431.51 M111.904 1427.81 Q117.714 1427.81 120.77 1432.42 Q123.848 1437 123.848 1445.75 Q123.848 1454.48 120.77 1459.08 Q117.714 1463.67 111.904 1463.67 Q106.094 1463.67 103.015 1459.08 Q99.9595 1454.48 99.9595 1445.75 Q99.9595 1437 103.015 1432.42 Q106.094 1427.81 111.904 1427.81 Z" fill="#000000" fill-rule="evenodd" fill-opacity="1" /><path clip-path="url(#clip000)" d="M 0 0 M138.918 1431.51 Q135.307 1431.51 133.478 1435.08 Q131.672 1438.62 131.672 1445.75 Q131.672 1452.86 133.478 1456.42 Q135.307 1459.96 138.918 1459.96 Q142.552 1459.96 144.357 1456.42 Q146.186 1452.86 146.186 1445.75 Q146.186 1438.62 144.357 1435.08 Q142.552 1431.51 138.918 1431.51 M138.918 1427.81 Q144.728 1427.81 147.783 1432.42 Q150.862 1437 150.862 1445.75 Q150.862 1454.48 147.783 1459.08 Q144.728 1463.67 138.918 1463.67 Q133.107 1463.67 130.029 1459.08 Q126.973 1454.48 126.973 1445.75 Q126.973 1437 130.029 1432.42 Q133.107 1427.81 138.918 1427.81 Z" fill="#000000" fill-rule="evenodd" fill-opacity="1" /><path clip-path="url(#clip000)" d="M 0 0 M75.9319 1138.22 Q72.3208 1138.22 70.4921 1141.78 Q68.6865 1145.32 68.6865 1152.45 Q68.6865 1159.56 70.4921 1163.12 Q72.3208 1166.66 75.9319 1166.66 Q79.5661 1166.66 81.3717 1163.12 Q83.2004 1159.56 83.2004 1152.45 Q83.2004 1145.32 81.3717 1141.78 Q79.5661 1138.22 75.9319 1138.22 M75.9319 1134.51 Q81.742 1134.51 84.7976 1139.12 Q87.8763 1143.7 87.8763 1152.45 Q87.8763 1161.18 84.7976 1165.78 Q81.742 1170.37 75.9319 1170.37 Q70.1217 1170.37 67.043 1165.78 Q63.9875 1161.18 63.9875 1152.45 Q63.9875 1143.7 67.043 1139.12 Q70.1217 1134.51 75.9319 1134.51 Z" fill="#000000" fill-rule="evenodd" fill-opacity="1" /><path clip-path="url(#clip000)" d="M 0 0 M92.9457 1163.82 L97.8299 1163.82 L97.8299 1169.7 L92.9457 1169.7 L92.9457 1163.82 Z" fill="#000000" fill-rule="evenodd" fill-opacity="1" /><path clip-path="url(#clip000)" d="M 0 0 M112.899 1138.22 Q109.288 1138.22 107.459 1141.78 Q105.654 1145.32 105.654 1152.45 Q105.654 1159.56 107.459 1163.12 Q109.288 1166.66 112.899 1166.66 Q116.534 1166.66 118.339 1163.12 Q120.168 1159.56 120.168 1152.45 Q120.168 1145.32 118.339 1141.78 Q116.534 1138.22 112.899 1138.22 M112.899 1134.51 Q118.709 1134.51 121.765 1139.12 Q124.844 1143.7 124.844 1152.45 Q124.844 1161.18 121.765 1165.78 Q118.709 1170.37 112.899 1170.37 Q107.089 1170.37 104.01 1165.78 Q100.955 1161.18 100.955 1152.45 Q100.955 1143.7 104.01 1139.12 Q107.089 1134.51 112.899 1134.51 Z" fill="#000000" fill-rule="evenodd" fill-opacity="1" /><path clip-path="url(#clip000)" d="M 0 0 M129.959 1135.14 L148.316 1135.14 L148.316 1139.07 L134.242 1139.07 L134.242 1147.54 Q135.26 1147.2 136.279 1147.03 Q137.297 1146.85 138.316 1146.85 Q144.103 1146.85 147.482 1150.02 Q150.862 1153.19 150.862 1158.61 Q150.862 1164.19 147.39 1167.29 Q143.918 1170.37 137.598 1170.37 Q135.422 1170.37 133.154 1170 Q130.908 1169.63 128.501 1168.89 L128.501 1164.19 Q130.584 1165.32 132.807 1165.88 Q135.029 1166.43 137.506 1166.43 Q141.51 1166.43 143.848 1164.33 Q146.186 1162.22 146.186 1158.61 Q146.186 1155 143.848 1152.89 Q141.51 1150.78 137.506 1150.78 Q135.631 1150.78 133.756 1151.2 Q131.904 1151.62 129.959 1152.5 L129.959 1135.14 Z" fill="#000000" fill-rule="evenodd" fill-opacity="1" /><path clip-path="url(#clip000)" d="M 0 0 M76.1634 844.917 Q72.5523 844.917 70.7236 848.481 Q68.918 852.023 68.918 859.153 Q68.918 866.259 70.7236 869.824 Q72.5523 873.365 76.1634 873.365 Q79.7976 873.365 81.6031 869.824 Q83.4318 866.259 83.4318 859.153 Q83.4318 852.023 81.6031 848.481 Q79.7976 844.917 76.1634 844.917 M76.1634 841.213 Q81.9735 841.213 85.029 845.819 Q88.1077 850.403 88.1077 859.153 Q88.1077 867.879 85.029 872.486 Q81.9735 877.069 76.1634 877.069 Q70.3532 877.069 67.2745 872.486 Q64.219 867.879 64.219 859.153 Q64.219 850.403 67.2745 845.819 Q70.3532 841.213 76.1634 841.213 Z" fill="#000000" fill-rule="evenodd" fill-opacity="1" /><path clip-path="url(#clip000)" d="M 0 0 M93.1771 870.518 L98.0614 870.518 L98.0614 876.398 L93.1771 876.398 L93.1771 870.518 Z" fill="#000000" fill-rule="evenodd" fill-opacity="1" /><path clip-path="url(#clip000)" d="M 0 0 M103.941 872.463 L111.58 872.463 L111.58 846.097 L103.27 847.764 L103.27 843.505 L111.534 841.838 L116.209 841.838 L116.209 872.463 L123.848 872.463 L123.848 876.398 L103.941 876.398 L103.941 872.463 Z" fill="#000000" fill-rule="evenodd" fill-opacity="1" /><path clip-path="url(#clip000)" d="M 0 0 M138.918 844.917 Q135.307 844.917 133.478 848.481 Q131.672 852.023 131.672 859.153 Q131.672 866.259 133.478 869.824 Q135.307 873.365 138.918 873.365 Q142.552 873.365 144.357 869.824 Q146.186 866.259 146.186 859.153 Q146.186 852.023 144.357 848.481 Q142.552 844.917 138.918 844.917 M138.918 841.213 Q144.728 841.213 147.783 845.819 Q150.862 850.403 150.862 859.153 Q150.862 867.879 147.783 872.486 Q144.728 877.069 138.918 877.069 Q133.107 877.069 130.029 872.486 Q126.973 867.879 126.973 859.153 Q126.973 850.403 130.029 845.819 Q133.107 841.213 138.918 841.213 Z" fill="#000000" fill-rule="evenodd" fill-opacity="1" /><path clip-path="url(#clip000)" d="M 0 0 M77.1587 551.618 Q73.5476 551.618 71.7189 555.182 Q69.9134 558.724 69.9134 565.854 Q69.9134 572.96 71.7189 576.525 Q73.5476 580.067 77.1587 580.067 Q80.793 580.067 82.5985 576.525 Q84.4272 572.96 84.4272 565.854 Q84.4272 558.724 82.5985 555.182 Q80.793 551.618 77.1587 551.618 M77.1587 547.914 Q82.9689 547.914 86.0244 552.52 Q89.1031 557.104 89.1031 565.854 Q89.1031 574.58 86.0244 579.187 Q82.9689 583.77 77.1587 583.77 Q71.3486 583.77 68.2699 579.187 Q65.2143 574.58 65.2143 565.854 Q65.2143 557.104 68.2699 552.52 Q71.3486 547.914 77.1587 547.914 Z" fill="#000000" fill-rule="evenodd" fill-opacity="1" /><path clip-path="url(#clip000)" d="M 0 0 M94.1725 577.219 L99.0567 577.219 L99.0567 583.099 L94.1725 583.099 L94.1725 577.219 Z" fill="#000000" fill-rule="evenodd" fill-opacity="1" /><path clip-path="url(#clip000)" d="M 0 0 M104.936 579.164 L112.575 579.164 L112.575 552.798 L104.265 554.465 L104.265 550.206 L112.529 548.539 L117.205 548.539 L117.205 579.164 L124.844 579.164 L124.844 583.099 L104.936 583.099 L104.936 579.164 Z" fill="#000000" fill-rule="evenodd" fill-opacity="1" /><path clip-path="url(#clip000)" d="M 0 0 M129.959 548.539 L148.316 548.539 L148.316 552.474 L134.242 552.474 L134.242 560.946 Q135.26 560.599 136.279 560.437 Q137.297 560.252 138.316 560.252 Q144.103 560.252 147.482 563.423 Q150.862 566.594 150.862 572.011 Q150.862 577.59 147.39 580.692 Q143.918 583.77 137.598 583.77 Q135.422 583.77 133.154 583.4 Q130.908 583.03 128.501 582.289 L128.501 577.59 Q130.584 578.724 132.807 579.28 Q135.029 579.835 137.506 579.835 Q141.51 579.835 143.848 577.729 Q146.186 575.622 146.186 572.011 Q146.186 568.4 143.848 566.293 Q141.51 564.187 137.506 564.187 Q135.631 564.187 133.756 564.604 Q131.904 565.02 129.959 565.9 L129.959 548.539 Z" fill="#000000" fill-rule="evenodd" fill-opacity="1" /><path clip-path="url(#clip000)" d="M 0 0 M76.5337 258.319 Q72.9226 258.319 71.0939 261.884 Q69.2884 265.425 69.2884 272.555 Q69.2884 279.661 71.0939 283.226 Q72.9226 286.768 76.5337 286.768 Q80.168 286.768 81.9735 283.226 Q83.8022 279.661 83.8022 272.555 Q83.8022 265.425 81.9735 261.884 Q80.168 258.319 76.5337 258.319 M76.5337 254.615 Q82.3439 254.615 85.3994 259.222 Q88.4781 263.805 88.4781 272.555 Q88.4781 281.282 85.3994 285.888 Q82.3439 290.471 76.5337 290.471 Q70.7236 290.471 67.6449 285.888 Q64.5893 281.282 64.5893 272.555 Q64.5893 263.805 67.6449 259.222 Q70.7236 254.615 76.5337 254.615 Z" fill="#000000" fill-rule="evenodd" fill-opacity="1" /><path clip-path="url(#clip000)" d="M 0 0 M93.5475 283.92 L98.4318 283.92 L98.4318 289.8 L93.5475 289.8 L93.5475 283.92 Z" fill="#000000" fill-rule="evenodd" fill-opacity="1" /><path clip-path="url(#clip000)" d="M 0 0 M107.529 285.865 L123.848 285.865 L123.848 289.8 L101.904 289.8 L101.904 285.865 Q104.566 283.11 109.149 278.481 Q113.756 273.828 114.936 272.485 Q117.182 269.962 118.061 268.226 Q118.964 266.467 118.964 264.777 Q118.964 262.022 117.02 260.286 Q115.098 258.55 111.996 258.55 Q109.797 258.55 107.344 259.314 Q104.913 260.078 102.135 261.629 L102.135 256.907 Q104.959 255.772 107.413 255.194 Q109.867 254.615 111.904 254.615 Q117.274 254.615 120.469 257.3 Q123.663 259.985 123.663 264.476 Q123.663 266.606 122.853 268.527 Q122.066 270.425 119.959 273.018 Q119.381 273.689 116.279 276.907 Q113.177 280.101 107.529 285.865 Z" fill="#000000" fill-rule="evenodd" fill-opacity="1" /><path clip-path="url(#clip000)" d="M 0 0 M138.918 258.319 Q135.307 258.319 133.478 261.884 Q131.672 265.425 131.672 272.555 Q131.672 279.661 133.478 283.226 Q135.307 286.768 138.918 286.768 Q142.552 286.768 144.357 283.226 Q146.186 279.661 146.186 272.555 Q146.186 265.425 144.357 261.884 Q142.552 258.319 138.918 258.319 M138.918 254.615 Q144.728 254.615 147.783 259.222 Q150.862 263.805 150.862 272.555 Q150.862 281.282 147.783 285.888 Q144.728 290.471 138.918 290.471 Q133.107 290.471 130.029 285.888 Q126.973 281.282 126.973 272.555 Q126.973 263.805 130.029 259.222 Q133.107 254.615 138.918 254.615 Z" fill="#000000" fill-rule="evenodd" fill-opacity="1" /><path clip-path="url(#clip002)" d="
M294.65 1445.72 L294.65 1445.72 L452.88 1445.72 L452.88 1445.72 L294.65 1445.72 L294.65 1445.72  Z
  " fill="#009af9" fill-rule="evenodd" fill-opacity="1"/>
<polyline clip-path="url(#clip002)" style="stroke:#000000; stroke-width:4; stroke-opacity:1; fill:none" points="
  294.65,1445.72 294.65,1445.72 452.88,1445.72 294.65,1445.72 
  "/>
<path clip-path="url(#clip002)" d="
M492.438 1445.72 L492.438 1445.72 L650.668 1445.72 L650.668 1445.72 L492.438 1445.72 L492.438 1445.72  Z
  " fill="#009af9" fill-rule="evenodd" fill-opacity="1"/>
<polyline clip-path="url(#clip002)" style="stroke:#000000; stroke-width:4; stroke-opacity:1; fill:none" points="
  492.438,1445.72 492.438,1445.72 650.668,1445.72 492.438,1445.72 
  "/>
<path clip-path="url(#clip002)" d="
M690.225 992.812 L690.225 1445.72 L848.455 1445.72 L848.455 992.812 L690.225 992.812 L690.225 992.812  Z
  " fill="#009af9" fill-rule="evenodd" fill-opacity="1"/>
<polyline clip-path="url(#clip002)" style="stroke:#000000; stroke-width:4; stroke-opacity:1; fill:none" points="
  690.225,992.812 690.225,1445.72 848.455,1445.72 848.455,992.812 690.225,992.812 
  "/>
<path clip-path="url(#clip002)" d="
M888.013 323.37 L888.013 1445.72 L1046.24 1445.72 L1046.24 323.37 L888.013 323.37 L888.013 323.37  Z
  " fill="#009af9" fill-rule="evenodd" fill-opacity="1"/>
<polyline clip-path="url(#clip002)" style="stroke:#000000; stroke-width:4; stroke-opacity:1; fill:none" points="
  888.013,323.37 888.013,1445.72 1046.24,1445.72 1046.24,323.37 888.013,323.37 
  "/>
<path clip-path="url(#clip002)" d="
M1085.8 87.9763 L1085.8 1445.72 L1244.03 1445.72 L1244.03 87.9763 L1085.8 87.9763 L1085.8 87.9763  Z
  " fill="#009af9" fill-rule="evenodd" fill-opacity="1"/>
<polyline clip-path="url(#clip002)" style="stroke:#000000; stroke-width:4; stroke-opacity:1; fill:none" points="
  1085.8,87.9763 1085.8,1445.72 1244.03,1445.72 1244.03,87.9763 1085.8,87.9763 
  "/>
<path clip-path="url(#clip002)" d="
M1283.59 87.9763 L1283.59 1445.72 L1441.82 1445.72 L1441.82 87.9763 L1283.59 87.9763 L1283.59 87.9763  Z
  " fill="#009af9" fill-rule="evenodd" fill-opacity="1"/>
<polyline clip-path="url(#clip002)" style="stroke:#000000; stroke-width:4; stroke-opacity:1; fill:none" points="
  1283.59,87.9763 1283.59,1445.72 1441.82,1445.72 1441.82,87.9763 1283.59,87.9763 
  "/>
<path clip-path="url(#clip002)" d="
M1481.38 323.37 L1481.38 1445.72 L1639.61 1445.72 L1639.61 323.37 L1481.38 323.37 L1481.38 323.37  Z
  " fill="#009af9" fill-rule="evenodd" fill-opacity="1"/>
<polyline clip-path="url(#clip002)" style="stroke:#000000; stroke-width:4; stroke-opacity:1; fill:none" points="
  1481.38,323.37 1481.38,1445.72 1639.61,1445.72 1639.61,323.37 1481.38,323.37 
  "/>
<path clip-path="url(#clip002)" d="
M1679.16 992.812 L1679.16 1445.72 L1837.39 1445.72 L1837.39 992.812 L1679.16 992.812 L1679.16 992.812  Z
  " fill="#009af9" fill-rule="evenodd" fill-opacity="1"/>
<polyline clip-path="url(#clip002)" style="stroke:#000000; stroke-width:4; stroke-opacity:1; fill:none" points="
  1679.16,992.812 1679.16,1445.72 1837.39,1445.72 1837.39,992.812 1679.16,992.812 
  "/>
<path clip-path="url(#clip002)" d="
M1876.95 1445.72 L1876.95 1445.72 L2035.18 1445.72 L2035.18 1445.72 L1876.95 1445.72 L1876.95 1445.72  Z
  " fill="#009af9" fill-rule="evenodd" fill-opacity="1"/>
<polyline clip-path="url(#clip002)" style="stroke:#000000; stroke-width:4; stroke-opacity:1; fill:none" points="
  1876.95,1445.72 1876.95,1445.72 2035.18,1445.72 1876.95,1445.72 
  "/>
<path clip-path="url(#clip002)" d="
M2074.74 1445.72 L2074.74 1445.72 L2232.97 1445.72 L2232.97 1445.72 L2074.74 1445.72 L2074.74 1445.72  Z
  " fill="#009af9" fill-rule="evenodd" fill-opacity="1"/>
<polyline clip-path="url(#clip002)" style="stroke:#000000; stroke-width:4; stroke-opacity:1; fill:none" points="
  2074.74,1445.72 2074.74,1445.72 2232.97,1445.72 2074.74,1445.72 
  "/>
<path clip-path="url(#clip002)" d="
M779.23 1016.26 L779.23 1445.72 L858.345 1445.72 L858.345 1016.26 L779.23 1016.26 L779.23 1016.26  Z
  " fill="#e26f46" fill-rule="evenodd" fill-opacity="1"/>
<polyline clip-path="url(#clip002)" style="stroke:#000000; stroke-width:4; stroke-opacity:1; fill:none" points="
  779.23,1016.26 779.23,1445.72 858.345,1445.72 858.345,1016.26 779.23,1016.26 
  "/>
<path clip-path="url(#clip002)" d="
M878.123 922.47 L878.123 1445.72 L957.238 1445.72 L957.238 922.47 L878.123 922.47 L878.123 922.47  Z
  " fill="#e26f46" fill-rule="evenodd" fill-opacity="1"/>
<polyline clip-path="url(#clip002)" style="stroke:#000000; stroke-width:4; stroke-opacity:1; fill:none" points="
  878.123,922.47 878.123,1445.72 957.238,1445.72 957.238,922.47 878.123,922.47 
  "/>
<path clip-path="url(#clip002)" d="
M977.017 838.916 L977.017 1445.72 L1056.13 1445.72 L1056.13 838.916 L977.017 838.916 L977.017 838.916  Z
  " fill="#e26f46" fill-rule="evenodd" fill-opacity="1"/>
<polyline clip-path="url(#clip002)" style="stroke:#000000; stroke-width:4; stroke-opacity:1; fill:none" points="
  977.017,838.916 977.017,1445.72 1056.13,1445.72 1056.13,838.916 977.017,838.916 
  "/>
<path clip-path="url(#clip002)" d="
M1075.91 775.925 L1075.91 1445.72 L1155.03 1445.72 L1155.03 775.925 L1075.91 775.925 L1075.91 775.925  Z
  " fill="#e26f46" fill-rule="evenodd" fill-opacity="1"/>
<polyline clip-path="url(#clip002)" style="stroke:#000000; stroke-width:4; stroke-opacity:1; fill:none" points="
  1075.91,775.925 1075.91,1445.72 1155.03,1445.72 1155.03,775.925 1075.91,775.925 
  "/>
<path clip-path="url(#clip002)" d="
M1174.8 742.019 L1174.8 1445.72 L1253.92 1445.72 L1253.92 742.019 L1174.8 742.019 L1174.8 742.019  Z
  " fill="#e26f46" fill-rule="evenodd" fill-opacity="1"/>
<polyline clip-path="url(#clip002)" style="stroke:#000000; stroke-width:4; stroke-opacity:1; fill:none" points="
  1174.8,742.019 1174.8,1445.72 1253.92,1445.72 1253.92,742.019 1174.8,742.019 
  "/>
<path clip-path="url(#clip002)" d="
M1273.7 742.019 L1273.7 1445.72 L1352.81 1445.72 L1352.81 742.019 L1273.7 742.019 L1273.7 742.019  Z
  " fill="#e26f46" fill-rule="evenodd" fill-opacity="1"/>
<polyline clip-path="url(#clip002)" style="stroke:#000000; stroke-width:4; stroke-opacity:1; fill:none" points="
  1273.7,742.019 1273.7,1445.72 1352.81,1445.72 1352.81,742.019 1273.7,742.019 
  "/>
<path clip-path="url(#clip002)" d="
M1372.59 775.925 L1372.59 1445.72 L1451.71 1445.72 L1451.71 775.925 L1372.59 775.925 L1372.59 775.925  Z
  " fill="#e26f46" fill-rule="evenodd" fill-opacity="1"/>
<polyline clip-path="url(#clip002)" style="stroke:#000000; stroke-width:4; stroke-opacity:1; fill:none" points="
  1372.59,775.925 1372.59,1445.72 1451.71,1445.72 1451.71,775.925 1372.59,775.925 
  "/>
<path clip-path="url(#clip002)" d="
M1471.49 838.916 L1471.49 1445.72 L1550.6 1445.72 L1550.6 838.916 L1471.49 838.916 L1471.49 838.916  Z
  " fill="#e26f46" fill-rule="evenodd" fill-opacity="1"/>
<polyline clip-path="url(#clip002)" style="stroke:#000000; stroke-width:4; stroke-opacity:1; fill:none" points="
  1471.49,838.916 1471.49,1445.72 1550.6,1445.72 1550.6,838.916 1471.49,838.916 
  "/>
<path clip-path="url(#clip002)" d="
M1570.38 922.47 L1570.38 1445.72 L1649.49 1445.72 L1649.49 922.47 L1570.38 922.47 L1570.38 922.47  Z
  " fill="#e26f46" fill-rule="evenodd" fill-opacity="1"/>
<polyline clip-path="url(#clip002)" style="stroke:#000000; stroke-width:4; stroke-opacity:1; fill:none" points="
  1570.38,922.47 1570.38,1445.72 1649.49,1445.72 1649.49,922.47 1570.38,922.47 
  "/>
<path clip-path="url(#clip002)" d="
M1669.27 1016.26 L1669.27 1445.72 L1748.39 1445.72 L1748.39 1016.26 L1669.27 1016.26 L1669.27 1016.26  Z
  " fill="#e26f46" fill-rule="evenodd" fill-opacity="1"/>
<polyline clip-path="url(#clip002)" style="stroke:#000000; stroke-width:4; stroke-opacity:1; fill:none" points="
  1669.27,1016.26 1669.27,1445.72 1748.39,1445.72 1748.39,1016.26 1669.27,1016.26 
  "/>
<path clip-path="url(#clip000)" d="
M1705.07 276.658 L2280.16 276.658 L2280.16 95.2176 L1705.07 95.2176  Z
  " fill="#ffffff" fill-rule="evenodd" fill-opacity="1"/>
<polyline clip-path="url(#clip000)" style="stroke:#000000; stroke-width:4; stroke-opacity:1; fill:none" points="
  1705.07,276.658 2280.16,276.658 2280.16,95.2176 1705.07,95.2176 1705.07,276.658 
  "/>
<path clip-path="url(#clip000)" d="
M1729.27 179.89 L1874.46 179.89 L1874.46 131.506 L1729.27 131.506 L1729.27 179.89  Z
  " fill="#009af9" fill-rule="evenodd" fill-opacity="1"/>
<polyline clip-path="url(#clip000)" style="stroke:#000000; stroke-width:4; stroke-opacity:1; fill:none" points="
  1729.27,179.89 1874.46,179.89 1874.46,131.506 1729.27,131.506 1729.27,179.89 
  "/>
<path clip-path="url(#clip000)" d="M 0 0 M1898.66 138.418 L1905.63 138.418 L1914.45 161.936 L1923.31 138.418 L1930.28 138.418 L1930.28 172.978 L1925.72 172.978 L1925.72 142.63 L1916.81 166.334 L1912.11 166.334 L1903.2 142.63 L1903.2 172.978 L1898.66 172.978 L1898.66 138.418 Z" fill="#000000" fill-rule="evenodd" fill-opacity="1" /><path clip-path="url(#clip000)" d="M 0 0 M1946.53 159.945 Q1941.37 159.945 1939.38 161.126 Q1937.39 162.306 1937.39 165.154 Q1937.39 167.422 1938.87 168.765 Q1940.37 170.084 1942.94 170.084 Q1946.49 170.084 1948.62 167.584 Q1950.77 165.061 1950.77 160.894 L1950.77 159.945 L1946.53 159.945 M1955.03 158.186 L1955.03 172.978 L1950.77 172.978 L1950.77 169.042 Q1949.31 171.403 1947.13 172.538 Q1944.96 173.649 1941.81 173.649 Q1937.83 173.649 1935.47 171.427 Q1933.13 169.181 1933.13 165.431 Q1933.13 161.056 1936.05 158.834 Q1938.99 156.612 1944.8 156.612 L1950.77 156.612 L1950.77 156.195 Q1950.77 153.255 1948.82 151.658 Q1946.9 150.038 1943.41 150.038 Q1941.18 150.038 1939.08 150.57 Q1936.97 151.103 1935.03 152.167 L1935.03 148.232 Q1937.37 147.33 1939.56 146.89 Q1941.76 146.427 1943.85 146.427 Q1949.47 146.427 1952.25 149.343 Q1955.03 152.26 1955.03 158.186 Z" fill="#000000" fill-rule="evenodd" fill-opacity="1" /><path clip-path="url(#clip000)" d="M 0 0 M1976.02 147.816 L1976.02 151.843 Q1974.22 150.917 1972.27 150.455 Q1970.33 149.992 1968.24 149.992 Q1965.07 149.992 1963.48 150.964 Q1961.9 151.936 1961.9 153.88 Q1961.9 155.362 1963.04 156.218 Q1964.17 157.052 1967.6 157.816 L1969.05 158.14 Q1973.59 159.112 1975.49 160.894 Q1977.41 162.654 1977.41 165.825 Q1977.41 169.436 1974.54 171.542 Q1971.69 173.649 1966.69 173.649 Q1964.61 173.649 1962.34 173.232 Q1960.1 172.839 1957.6 172.028 L1957.6 167.63 Q1959.96 168.857 1962.25 169.482 Q1964.54 170.084 1966.79 170.084 Q1969.8 170.084 1971.42 169.066 Q1973.04 168.024 1973.04 166.149 Q1973.04 164.413 1971.86 163.487 Q1970.7 162.561 1966.74 161.704 L1965.26 161.357 Q1961.3 160.524 1959.54 158.811 Q1957.78 157.075 1957.78 154.066 Q1957.78 150.408 1960.37 148.418 Q1962.97 146.427 1967.74 146.427 Q1970.1 146.427 1972.18 146.774 Q1974.26 147.121 1976.02 147.816 Z" fill="#000000" fill-rule="evenodd" fill-opacity="1" /><path clip-path="url(#clip000)" d="M 0 0 M1998.41 147.816 L1998.41 151.843 Q1996.6 150.917 1994.66 150.455 Q1992.71 149.992 1990.63 149.992 Q1987.46 149.992 1985.86 150.964 Q1984.29 151.936 1984.29 153.88 Q1984.29 155.362 1985.42 156.218 Q1986.55 157.052 1989.98 157.816 L1991.44 158.14 Q1995.98 159.112 1997.87 160.894 Q1999.8 162.654 1999.8 165.825 Q1999.8 169.436 1996.93 171.542 Q1994.08 173.649 1989.08 173.649 Q1986.99 173.649 1984.73 173.232 Q1982.48 172.839 1979.98 172.028 L1979.98 167.63 Q1982.34 168.857 1984.63 169.482 Q1986.93 170.084 1989.17 170.084 Q1992.18 170.084 1993.8 169.066 Q1995.42 168.024 1995.42 166.149 Q1995.42 164.413 1994.24 163.487 Q1993.08 162.561 1989.12 161.704 L1987.64 161.357 Q1983.68 160.524 1981.93 158.811 Q1980.17 157.075 1980.17 154.066 Q1980.17 150.408 1982.76 148.418 Q1985.35 146.427 1990.12 146.427 Q1992.48 146.427 1994.56 146.774 Q1996.65 147.121 1998.41 147.816 Z" fill="#000000" fill-rule="evenodd" fill-opacity="1" /><path clip-path="url(#clip000)" d="M 0 0 M2029.38 150.038 Q2025.95 150.038 2023.96 152.723 Q2021.97 155.385 2021.97 160.038 Q2021.97 164.691 2023.94 167.376 Q2025.93 170.038 2029.38 170.038 Q2032.78 170.038 2034.77 167.353 Q2036.76 164.667 2036.76 160.038 Q2036.76 155.431 2034.77 152.746 Q2032.78 150.038 2029.38 150.038 M2029.38 146.427 Q2034.93 146.427 2038.11 150.038 Q2041.28 153.649 2041.28 160.038 Q2041.28 166.404 2038.11 170.038 Q2034.93 173.649 2029.38 173.649 Q2023.8 173.649 2020.63 170.038 Q2017.48 166.404 2017.48 160.038 Q2017.48 153.649 2020.63 150.038 Q2023.8 146.427 2029.38 146.427 Z" fill="#000000" fill-rule="evenodd" fill-opacity="1" /><path clip-path="url(#clip000)" d="M 0 0 M2067.3 157.329 L2067.3 172.978 L2063.04 172.978 L2063.04 157.468 Q2063.04 153.788 2061.6 151.959 Q2060.17 150.13 2057.3 150.13 Q2053.85 150.13 2051.86 152.33 Q2049.86 154.529 2049.86 158.325 L2049.86 172.978 L2045.58 172.978 L2045.58 147.052 L2049.86 147.052 L2049.86 151.08 Q2051.39 148.742 2053.45 147.584 Q2055.54 146.427 2058.24 146.427 Q2062.71 146.427 2065 149.205 Q2067.3 151.959 2067.3 157.329 Z" fill="#000000" fill-rule="evenodd" fill-opacity="1" /><path clip-path="url(#clip000)" d="M 0 0 M2103.89 159.714 Q2103.89 155.084 2101.97 152.538 Q2100.07 149.992 2096.62 149.992 Q2093.2 149.992 2091.28 152.538 Q2089.38 155.084 2089.38 159.714 Q2089.38 164.32 2091.28 166.866 Q2093.2 169.413 2096.62 169.413 Q2100.07 169.413 2101.97 166.866 Q2103.89 164.32 2103.89 159.714 M2108.15 169.76 Q2108.15 176.38 2105.21 179.598 Q2102.27 182.839 2096.21 182.839 Q2093.96 182.839 2091.97 182.491 Q2089.98 182.167 2088.11 181.473 L2088.11 177.329 Q2089.98 178.348 2091.81 178.834 Q2093.64 179.32 2095.54 179.32 Q2099.73 179.32 2101.81 177.121 Q2103.89 174.945 2103.89 170.524 L2103.89 168.417 Q2102.57 170.709 2100.51 171.843 Q2098.45 172.978 2095.58 172.978 Q2090.81 172.978 2087.9 169.343 Q2084.98 165.709 2084.98 159.714 Q2084.98 153.695 2087.9 150.061 Q2090.81 146.427 2095.58 146.427 Q2098.45 146.427 2100.51 147.561 Q2102.57 148.695 2103.89 150.987 L2103.89 147.052 L2108.15 147.052 L2108.15 169.76 Z" fill="#000000" fill-rule="evenodd" fill-opacity="1" /><path clip-path="url(#clip000)" d="M 0 0 M2127.64 151.033 Q2126.92 150.617 2126.07 150.431 Q2125.23 150.223 2124.22 150.223 Q2120.6 150.223 2118.66 152.584 Q2116.74 154.922 2116.74 159.32 L2116.74 172.978 L2112.46 172.978 L2112.46 147.052 L2116.74 147.052 L2116.74 151.08 Q2118.08 148.718 2120.23 147.584 Q2122.39 146.427 2125.47 146.427 Q2125.91 146.427 2126.44 146.496 Q2126.97 146.543 2127.62 146.658 L2127.64 151.033 Z" fill="#000000" fill-rule="evenodd" fill-opacity="1" /><path clip-path="url(#clip000)" d="M 0 0 M2132.11 147.052 L2136.37 147.052 L2136.37 172.978 L2132.11 172.978 L2132.11 147.052 M2132.11 136.959 L2136.37 136.959 L2136.37 142.353 L2132.11 142.353 L2132.11 136.959 Z" fill="#000000" fill-rule="evenodd" fill-opacity="1" /><path clip-path="url(#clip000)" d="M 0 0 M2157.9 150.987 L2157.9 136.959 L2162.16 136.959 L2162.16 172.978 L2157.9 172.978 L2157.9 169.089 Q2156.55 171.403 2154.49 172.538 Q2152.46 173.649 2149.59 173.649 Q2144.89 173.649 2141.92 169.899 Q2138.98 166.149 2138.98 160.038 Q2138.98 153.927 2141.92 150.177 Q2144.89 146.427 2149.59 146.427 Q2152.46 146.427 2154.49 147.561 Q2156.55 148.672 2157.9 150.987 M2143.38 160.038 Q2143.38 164.737 2145.3 167.422 Q2147.25 170.084 2150.63 170.084 Q2154.01 170.084 2155.95 167.422 Q2157.9 164.737 2157.9 160.038 Q2157.9 155.339 2155.95 152.677 Q2154.01 149.992 2150.63 149.992 Q2147.25 149.992 2145.3 152.677 Q2143.38 155.339 2143.38 160.038 Z" fill="#000000" fill-rule="evenodd" fill-opacity="1" /><path clip-path="url(#clip000)" d="
M1729.27 240.37 L1874.46 240.37 L1874.46 191.986 L1729.27 191.986 L1729.27 240.37  Z
  " fill="#e26f46" fill-rule="evenodd" fill-opacity="1"/>
<polyline clip-path="url(#clip000)" style="stroke:#000000; stroke-width:4; stroke-opacity:1; fill:none" points="
  1729.27,240.37 1874.46,240.37 1874.46,191.986 1729.27,191.986 1729.27,240.37 
  "/>
<path clip-path="url(#clip000)" d="M 0 0 M1898.66 198.898 L1905.63 198.898 L1914.45 222.416 L1923.31 198.898 L1930.28 198.898 L1930.28 233.458 L1925.72 233.458 L1925.72 203.11 L1916.81 226.814 L1912.11 226.814 L1903.2 203.11 L1903.2 233.458 L1898.66 233.458 L1898.66 198.898 Z" fill="#000000" fill-rule="evenodd" fill-opacity="1" /><path clip-path="url(#clip000)" d="M 0 0 M1946.53 220.425 Q1941.37 220.425 1939.38 221.606 Q1937.39 222.786 1937.39 225.634 Q1937.39 227.902 1938.87 229.245 Q1940.37 230.564 1942.94 230.564 Q1946.49 230.564 1948.62 228.064 Q1950.77 225.541 1950.77 221.374 L1950.77 220.425 L1946.53 220.425 M1955.03 218.666 L1955.03 233.458 L1950.77 233.458 L1950.77 229.522 Q1949.31 231.883 1947.13 233.018 Q1944.96 234.129 1941.81 234.129 Q1937.83 234.129 1935.47 231.907 Q1933.13 229.661 1933.13 225.911 Q1933.13 221.536 1936.05 219.314 Q1938.99 217.092 1944.8 217.092 L1950.77 217.092 L1950.77 216.675 Q1950.77 213.735 1948.82 212.138 Q1946.9 210.518 1943.41 210.518 Q1941.18 210.518 1939.08 211.05 Q1936.97 211.583 1935.03 212.647 L1935.03 208.712 Q1937.37 207.81 1939.56 207.37 Q1941.76 206.907 1943.85 206.907 Q1949.47 206.907 1952.25 209.823 Q1955.03 212.74 1955.03 218.666 Z" fill="#000000" fill-rule="evenodd" fill-opacity="1" /><path clip-path="url(#clip000)" d="M 0 0 M1976.02 208.296 L1976.02 212.323 Q1974.22 211.397 1972.27 210.935 Q1970.33 210.472 1968.24 210.472 Q1965.07 210.472 1963.48 211.444 Q1961.9 212.416 1961.9 214.36 Q1961.9 215.842 1963.04 216.698 Q1964.17 217.532 1967.6 218.296 L1969.05 218.62 Q1973.59 219.592 1975.49 221.374 Q1977.41 223.134 1977.41 226.305 Q1977.41 229.916 1974.54 232.022 Q1971.69 234.129 1966.69 234.129 Q1964.61 234.129 1962.34 233.712 Q1960.1 233.319 1957.6 232.508 L1957.6 228.11 Q1959.96 229.337 1962.25 229.962 Q1964.54 230.564 1966.79 230.564 Q1969.8 230.564 1971.42 229.546 Q1973.04 228.504 1973.04 226.629 Q1973.04 224.893 1971.86 223.967 Q1970.7 223.041 1966.74 222.184 L1965.26 221.837 Q1961.3 221.004 1959.54 219.291 Q1957.78 217.555 1957.78 214.546 Q1957.78 210.888 1960.37 208.898 Q1962.97 206.907 1967.74 206.907 Q1970.1 206.907 1972.18 207.254 Q1974.26 207.601 1976.02 208.296 Z" fill="#000000" fill-rule="evenodd" fill-opacity="1" /><path clip-path="url(#clip000)" d="M 0 0 M1998.41 208.296 L1998.41 212.323 Q1996.6 211.397 1994.66 210.935 Q1992.71 210.472 1990.63 210.472 Q1987.46 210.472 1985.86 211.444 Q1984.29 212.416 1984.29 214.36 Q1984.29 215.842 1985.42 216.698 Q1986.55 217.532 1989.98 218.296 L1991.44 218.62 Q1995.98 219.592 1997.87 221.374 Q1999.8 223.134 1999.8 226.305 Q1999.8 229.916 1996.93 232.022 Q1994.08 234.129 1989.08 234.129 Q1986.99 234.129 1984.73 233.712 Q1982.48 233.319 1979.98 232.508 L1979.98 228.11 Q1982.34 229.337 1984.63 229.962 Q1986.93 230.564 1989.17 230.564 Q1992.18 230.564 1993.8 229.546 Q1995.42 228.504 1995.42 226.629 Q1995.42 224.893 1994.24 223.967 Q1993.08 223.041 1989.12 222.184 L1987.64 221.837 Q1983.68 221.004 1981.93 219.291 Q1980.17 217.555 1980.17 214.546 Q1980.17 210.888 1982.76 208.898 Q1985.35 206.907 1990.12 206.907 Q1992.48 206.907 1994.56 207.254 Q1996.65 207.601 1998.41 208.296 Z" fill="#000000" fill-rule="evenodd" fill-opacity="1" /><path clip-path="url(#clip000)" d="M 0 0 M2023.55 200.171 L2023.55 207.532 L2032.32 207.532 L2032.32 210.842 L2023.55 210.842 L2023.55 224.916 Q2023.55 228.087 2024.4 228.99 Q2025.28 229.893 2027.94 229.893 L2032.32 229.893 L2032.32 233.458 L2027.94 233.458 Q2023.01 233.458 2021.14 231.629 Q2019.26 229.777 2019.26 224.916 L2019.26 210.842 L2016.14 210.842 L2016.14 207.532 L2019.26 207.532 L2019.26 200.171 L2023.55 200.171 Z" fill="#000000" fill-rule="evenodd" fill-opacity="1" /><path clip-path="url(#clip000)" d="M 0 0 M2051.81 211.513 Q2051.09 211.097 2050.23 210.911 Q2049.4 210.703 2048.38 210.703 Q2044.77 210.703 2042.83 213.064 Q2040.91 215.402 2040.91 219.8 L2040.91 233.458 L2036.62 233.458 L2036.62 207.532 L2040.91 207.532 L2040.91 211.56 Q2042.25 209.198 2044.4 208.064 Q2046.55 206.907 2049.63 206.907 Q2050.07 206.907 2050.61 206.976 Q2051.14 207.023 2051.79 207.138 L2051.81 211.513 Z" fill="#000000" fill-rule="evenodd" fill-opacity="1" /><path clip-path="url(#clip000)" d="M 0 0 M2055.84 223.226 L2055.84 207.532 L2060.1 207.532 L2060.1 223.064 Q2060.1 226.745 2061.53 228.596 Q2062.97 230.425 2065.84 230.425 Q2069.29 230.425 2071.28 228.226 Q2073.29 226.027 2073.29 222.231 L2073.29 207.532 L2077.55 207.532 L2077.55 233.458 L2073.29 233.458 L2073.29 229.476 Q2071.74 231.837 2069.68 232.995 Q2067.64 234.129 2064.93 234.129 Q2060.47 234.129 2058.15 231.351 Q2055.84 228.573 2055.84 223.226 M2066.55 206.907 L2066.55 206.907 Z" fill="#000000" fill-rule="evenodd" fill-opacity="1" /><path clip-path="url(#clip000)" d="M 0 0 M2104.19 219.43 L2104.19 221.513 L2084.61 221.513 Q2084.89 225.911 2087.25 228.226 Q2089.63 230.518 2093.87 230.518 Q2096.32 230.518 2098.61 229.916 Q2100.93 229.314 2103.2 228.11 L2103.2 232.138 Q2100.91 233.11 2098.5 233.62 Q2096.09 234.129 2093.61 234.129 Q2087.41 234.129 2083.78 230.518 Q2080.17 226.907 2080.17 220.749 Q2080.17 214.384 2083.59 210.657 Q2087.04 206.907 2092.87 206.907 Q2098.11 206.907 2101.14 210.286 Q2104.19 213.643 2104.19 219.43 M2099.93 218.18 Q2099.89 214.685 2097.97 212.601 Q2096.07 210.518 2092.92 210.518 Q2089.36 210.518 2087.2 212.532 Q2085.07 214.546 2084.75 218.203 L2099.93 218.18 Z" fill="#000000" fill-rule="evenodd" fill-opacity="1" /><path clip-path="url(#clip000)" d="M 0 0 M2120.67 207.532 L2125.19 207.532 L2133.29 229.291 L2141.39 207.532 L2145.91 207.532 L2136.18 233.458 L2130.4 233.458 L2120.67 207.532 Z" fill="#000000" fill-rule="evenodd" fill-opacity="1" /><path clip-path="url(#clip000)" d="M 0 0 M2162.16 220.425 Q2156.99 220.425 2155 221.606 Q2153.01 222.786 2153.01 225.634 Q2153.01 227.902 2154.49 229.245 Q2156 230.564 2158.57 230.564 Q2162.11 230.564 2164.24 228.064 Q2166.39 225.541 2166.39 221.374 L2166.39 220.425 L2162.16 220.425 M2170.65 218.666 L2170.65 233.458 L2166.39 233.458 L2166.39 229.522 Q2164.93 231.883 2162.76 233.018 Q2160.58 234.129 2157.43 234.129 Q2153.45 234.129 2151.09 231.907 Q2148.75 229.661 2148.75 225.911 Q2148.75 221.536 2151.67 219.314 Q2154.61 217.092 2160.42 217.092 L2166.39 217.092 L2166.39 216.675 Q2166.39 213.735 2164.45 212.138 Q2162.53 210.518 2159.03 210.518 Q2156.81 210.518 2154.7 211.05 Q2152.6 211.583 2150.65 212.647 L2150.65 208.712 Q2152.99 207.81 2155.19 207.37 Q2157.39 206.907 2159.47 206.907 Q2165.1 206.907 2167.87 209.823 Q2170.65 212.74 2170.65 218.666 Z" fill="#000000" fill-rule="evenodd" fill-opacity="1" /><path clip-path="url(#clip000)" d="M 0 0 M2175.12 197.439 L2179.38 197.439 L2179.38 233.458 L2175.12 233.458 L2175.12 197.439 Z" fill="#000000" fill-rule="evenodd" fill-opacity="1" /><path clip-path="url(#clip000)" d="M 0 0 M2183.41 223.226 L2183.41 207.532 L2187.66 207.532 L2187.66 223.064 Q2187.66 226.745 2189.1 228.596 Q2190.54 230.425 2193.41 230.425 Q2196.85 230.425 2198.85 228.226 Q2200.86 226.027 2200.86 222.231 L2200.86 207.532 L2205.12 207.532 L2205.12 233.458 L2200.86 233.458 L2200.86 229.476 Q2199.31 231.837 2197.25 232.995 Q2195.21 234.129 2192.5 234.129 Q2188.04 234.129 2185.72 231.351 Q2183.41 228.573 2183.41 223.226 M2194.12 206.907 L2194.12 206.907 Z" fill="#000000" fill-rule="evenodd" fill-opacity="1" /><path clip-path="url(#clip000)" d="M 0 0 M2231.76 219.43 L2231.76 221.513 L2212.18 221.513 Q2212.46 225.911 2214.82 228.226 Q2217.2 230.518 2221.44 230.518 Q2223.89 230.518 2226.18 229.916 Q2228.5 229.314 2230.77 228.11 L2230.77 232.138 Q2228.47 233.11 2226.07 233.62 Q2223.66 234.129 2221.18 234.129 Q2214.98 234.129 2211.35 230.518 Q2207.73 226.907 2207.73 220.749 Q2207.73 214.384 2211.16 210.657 Q2214.61 206.907 2220.44 206.907 Q2225.67 206.907 2228.71 210.286 Q2231.76 213.643 2231.76 219.43 M2227.5 218.18 Q2227.46 214.685 2225.53 212.601 Q2223.64 210.518 2220.49 210.518 Q2216.92 210.518 2214.77 212.532 Q2212.64 214.546 2212.32 218.203 L2227.5 218.18 Z" fill="#000000" fill-rule="evenodd" fill-opacity="1" /></svg>
