<?xml version="1.0" encoding="utf-8"?>
<svg xmlns="http://www.w3.org/2000/svg" xmlns:xlink="http://www.w3.org/1999/xlink" width="600" height="400" viewBox="0 0 2400 1600">
<defs>
  <clipPath id="clip1900">
    <rect x="0" y="0" width="2400" height="1600"/>
  </clipPath>
</defs>
<polygon clip-path="url(#clip1900)" points="
0,1600 2400,1600 2400,0 0,0 
  " fill="#ffffff" fill-rule="evenodd" fill-opacity="1"/>
<defs>
  <clipPath id="clip1901">
    <rect x="480" y="0" width="1681" height="1600"/>
  </clipPath>
</defs>
<polygon clip-path="url(#clip1900)" points="
203.721,1425.62 2352.76,1425.62 2352.76,47.2441 203.721,47.2441 
  " fill="#ffffff" fill-rule="evenodd" fill-opacity="1"/>
<defs>
  <clipPath id="clip1902">
    <rect x="203" y="47" width="2150" height="1379"/>
  </clipPath>
</defs>
<polyline clip-path="url(#clip1902)" style="stroke:#000000; stroke-width:2; stroke-opacity:0.1; fill:none" points="
  487.339,1425.62 487.339,47.2441 
  "/>
<polyline clip-path="url(#clip1902)" style="stroke:#000000; stroke-width:2; stroke-opacity:0.1; fill:none" points="
  915.821,1425.62 915.821,47.2441 
  "/>
<polyline clip-path="url(#clip1902)" style="stroke:#000000; stroke-width:2; stroke-opacity:0.1; fill:none" points="
  1344.3,1425.62 1344.3,47.2441 
  "/>
<polyline clip-path="url(#clip1902)" style="stroke:#000000; stroke-width:2; stroke-opacity:0.1; fill:none" points="
  1772.78,1425.62 1772.78,47.2441 
  "/>
<polyline clip-path="url(#clip1902)" style="stroke:#000000; stroke-width:2; stroke-opacity:0.1; fill:none" points="
  2201.27,1425.62 2201.27,47.2441 
  "/>
<polyline clip-path="url(#clip1902)" style="stroke:#000000; stroke-width:2; stroke-opacity:0.1; fill:none" points="
  203.721,1240.2 2352.76,1240.2 
  "/>
<polyline clip-path="url(#clip1902)" style="stroke:#000000; stroke-width:2; stroke-opacity:0.1; fill:none" points="
  203.721,966.642 2352.76,966.642 
  "/>
<polyline clip-path="url(#clip1902)" style="stroke:#000000; stroke-width:2; stroke-opacity:0.1; fill:none" points="
  203.721,693.088 2352.76,693.088 
  "/>
<polyline clip-path="url(#clip1902)" style="stroke:#000000; stroke-width:2; stroke-opacity:0.1; fill:none" points="
  203.721,419.535 2352.76,419.535 
  "/>
<polyline clip-path="url(#clip1902)" style="stroke:#000000; stroke-width:2; stroke-opacity:0.1; fill:none" points="
  203.721,145.981 2352.76,145.981 
  "/>
<polyline clip-path="url(#clip1900)" style="stroke:#000000; stroke-width:4; stroke-opacity:1; fill:none" points="
  203.721,1425.62 2352.76,1425.62 
  "/>
<polyline clip-path="url(#clip1900)" style="stroke:#000000; stroke-width:4; stroke-opacity:1; fill:none" points="
  203.721,1425.62 203.721,47.2441 
  "/>
<polyline clip-path="url(#clip1900)" style="stroke:#000000; stroke-width:4; stroke-opacity:1; fill:none" points="
  487.339,1425.62 487.339,1404.94 
  "/>
<polyline clip-path="url(#clip1900)" style="stroke:#000000; stroke-width:4; stroke-opacity:1; fill:none" points="
  915.821,1425.62 915.821,1404.94 
  "/>
<polyline clip-path="url(#clip1900)" style="stroke:#000000; stroke-width:4; stroke-opacity:1; fill:none" points="
  1344.3,1425.62 1344.3,1404.94 
  "/>
<polyline clip-path="url(#clip1900)" style="stroke:#000000; stroke-width:4; stroke-opacity:1; fill:none" points="
  1772.78,1425.62 1772.78,1404.94 
  "/>
<polyline clip-path="url(#clip1900)" style="stroke:#000000; stroke-width:4; stroke-opacity:1; fill:none" points="
  2201.27,1425.62 2201.27,1404.94 
  "/>
<polyline clip-path="url(#clip1900)" style="stroke:#000000; stroke-width:4; stroke-opacity:1; fill:none" points="
  203.721,1240.2 235.956,1240.2 
  "/>
<polyline clip-path="url(#clip1900)" style="stroke:#000000; stroke-width:4; stroke-opacity:1; fill:none" points="
  203.721,966.642 235.956,966.642 
  "/>
<polyline clip-path="url(#clip1900)" style="stroke:#000000; stroke-width:4; stroke-opacity:1; fill:none" points="
  203.721,693.088 235.956,693.088 
  "/>
<polyline clip-path="url(#clip1900)" style="stroke:#000000; stroke-width:4; stroke-opacity:1; fill:none" points="
  203.721,419.535 235.956,419.535 
  "/>
<polyline clip-path="url(#clip1900)" style="stroke:#000000; stroke-width:4; stroke-opacity:1; fill:none" points="
  203.721,145.981 235.956,145.981 
  "/>
<g clip-path="url(#clip1900)">
<text style="fill:#000000; fill-opacity:1; font-family:Arial,Helvetica Neue,Helvetica,sans-serif; font-size:48px; text-anchor:middle;" transform="rotate(0, 487.339, 1479.62)" x="487.339" y="1479.62">-2</text>
</g>
<g clip-path="url(#clip1900)">
<text style="fill:#000000; fill-opacity:1; font-family:Arial,Helvetica Neue,Helvetica,sans-serif; font-size:48px; text-anchor:middle;" transform="rotate(0, 915.821, 1479.62)" x="915.821" y="1479.62">-1</text>
</g>
<g clip-path="url(#clip1900)">
<text style="fill:#000000; fill-opacity:1; font-family:Arial,Helvetica Neue,Helvetica,sans-serif; font-size:48px; text-anchor:middle;" transform="rotate(0, 1344.3, 1479.62)" x="1344.3" y="1479.62">0</text>
</g>
<g clip-path="url(#clip1900)">
<text style="fill:#000000; fill-opacity:1; font-family:Arial,Helvetica Neue,Helvetica,sans-serif; font-size:48px; text-anchor:middle;" transform="rotate(0, 1772.78, 1479.62)" x="1772.78" y="1479.62">1</text>
</g>
<g clip-path="url(#clip1900)">
<text style="fill:#000000; fill-opacity:1; font-family:Arial,Helvetica Neue,Helvetica,sans-serif; font-size:48px; text-anchor:middle;" transform="rotate(0, 2201.27, 1479.62)" x="2201.27" y="1479.62">2</text>
</g>
<g clip-path="url(#clip1900)">
<text style="fill:#000000; fill-opacity:1; font-family:Arial,Helvetica Neue,Helvetica,sans-serif; font-size:48px; text-anchor:end;" transform="rotate(0, 179.721, 1257.7)" x="179.721" y="1257.7">-2</text>
</g>
<g clip-path="url(#clip1900)">
<text style="fill:#000000; fill-opacity:1; font-family:Arial,Helvetica Neue,Helvetica,sans-serif; font-size:48px; text-anchor:end;" transform="rotate(0, 179.721, 984.142)" x="179.721" y="984.142">-1</text>
</g>
<g clip-path="url(#clip1900)">
<text style="fill:#000000; fill-opacity:1; font-family:Arial,Helvetica Neue,Helvetica,sans-serif; font-size:48px; text-anchor:end;" transform="rotate(0, 179.721, 710.588)" x="179.721" y="710.588">0</text>
</g>
<g clip-path="url(#clip1900)">
<text style="fill:#000000; fill-opacity:1; font-family:Arial,Helvetica Neue,Helvetica,sans-serif; font-size:48px; text-anchor:end;" transform="rotate(0, 179.721, 437.035)" x="179.721" y="437.035">1</text>
</g>
<g clip-path="url(#clip1900)">
<text style="fill:#000000; fill-opacity:1; font-family:Arial,Helvetica Neue,Helvetica,sans-serif; font-size:48px; text-anchor:end;" transform="rotate(0, 179.721, 163.481)" x="179.721" y="163.481">2</text>
</g>
<g clip-path="url(#clip1900)">
<text style="fill:#000000; fill-opacity:1; font-family:Arial,Helvetica Neue,Helvetica,sans-serif; font-size:66px; text-anchor:middle;" transform="rotate(0, 1278.24, 1559.48)" x="1278.24" y="1559.48">true value</text>
</g>
<g clip-path="url(#clip1900)">
<text style="fill:#000000; fill-opacity:1; font-family:Arial,Helvetica Neue,Helvetica,sans-serif; font-size:66px; text-anchor:middle;" transform="rotate(-90, 89.2861, 736.431)" x="89.2861" y="736.431">estimated value (Direct)</text>
</g>
<circle clip-path="url(#clip1902)" style="fill:#000000; stroke:none; fill-opacity:1" cx="947.31" cy="946.373" r="18"/>
<circle clip-path="url(#clip1902)" style="fill:#009af9; stroke:none; fill-opacity:1" cx="947.31" cy="946.373" r="14"/>
<circle clip-path="url(#clip1902)" style="fill:#000000; stroke:none; fill-opacity:1" cx="1567.48" cy="553.912" r="18"/>
<circle clip-path="url(#clip1902)" style="fill:#009af9; stroke:none; fill-opacity:1" cx="1567.48" cy="553.912" r="14"/>
<circle clip-path="url(#clip1902)" style="fill:#000000; stroke:none; fill-opacity:1" cx="781.566" cy="1052.02" r="18"/>
<circle clip-path="url(#clip1902)" style="fill:#009af9; stroke:none; fill-opacity:1" cx="781.566" cy="1052.02" r="14"/>
<circle clip-path="url(#clip1902)" style="fill:#000000; stroke:none; fill-opacity:1" cx="860.956" cy="1000.32" r="18"/>
<circle clip-path="url(#clip1902)" style="fill:#009af9; stroke:none; fill-opacity:1" cx="860.956" cy="1000.32" r="14"/>
<circle clip-path="url(#clip1902)" style="fill:#000000; stroke:none; fill-opacity:1" cx="1223.22" cy="765.839" r="18"/>
<circle clip-path="url(#clip1902)" style="fill:#009af9; stroke:none; fill-opacity:1" cx="1223.22" cy="765.839" r="14"/>
<circle clip-path="url(#clip1902)" style="fill:#000000; stroke:none; fill-opacity:1" cx="510.993" cy="1226.42" r="18"/>
<circle clip-path="url(#clip1902)" style="fill:#009af9; stroke:none; fill-opacity:1" cx="510.993" cy="1226.42" r="14"/>
<circle clip-path="url(#clip1902)" style="fill:#000000; stroke:none; fill-opacity:1" cx="907.524" cy="969.871" r="18"/>
<circle clip-path="url(#clip1902)" style="fill:#009af9; stroke:none; fill-opacity:1" cx="907.524" cy="969.871" r="14"/>
<circle clip-path="url(#clip1902)" style="fill:#000000; stroke:none; fill-opacity:1" cx="1229.08" cy="770.745" r="18"/>
<circle clip-path="url(#clip1902)" style="fill:#009af9; stroke:none; fill-opacity:1" cx="1229.08" cy="770.745" r="14"/>
<circle clip-path="url(#clip1902)" style="fill:#000000; stroke:none; fill-opacity:1" cx="1008.87" cy="905.959" r="18"/>
<circle clip-path="url(#clip1902)" style="fill:#009af9; stroke:none; fill-opacity:1" cx="1008.87" cy="905.959" r="14"/>
<circle clip-path="url(#clip1902)" style="fill:#000000; stroke:none; fill-opacity:1" cx="1753.16" cy="434.695" r="18"/>
<circle clip-path="url(#clip1902)" style="fill:#009af9; stroke:none; fill-opacity:1" cx="1753.16" cy="434.695" r="14"/>
<circle clip-path="url(#clip1902)" style="fill:#000000; stroke:none; fill-opacity:1" cx="1116.58" cy="838.45" r="18"/>
<circle clip-path="url(#clip1902)" style="fill:#009af9; stroke:none; fill-opacity:1" cx="1116.58" cy="838.45" r="14"/>
<circle clip-path="url(#clip1902)" style="fill:#000000; stroke:none; fill-opacity:1" cx="1923.09" cy="327.961" r="18"/>
<circle clip-path="url(#clip1902)" style="fill:#009af9; stroke:none; fill-opacity:1" cx="1923.09" cy="327.961" r="14"/>
<circle clip-path="url(#clip1902)" style="fill:#000000; stroke:none; fill-opacity:1" cx="1844.44" cy="376.47" r="18"/>
<circle clip-path="url(#clip1902)" style="fill:#009af9; stroke:none; fill-opacity:1" cx="1844.44" cy="376.47" r="14"/>
<circle clip-path="url(#clip1902)" style="fill:#000000; stroke:none; fill-opacity:1" cx="1248.52" cy="751.053" r="18"/>
<circle clip-path="url(#clip1902)" style="fill:#009af9; stroke:none; fill-opacity:1" cx="1248.52" cy="751.053" r="14"/>
<circle clip-path="url(#clip1902)" style="fill:#000000; stroke:none; fill-opacity:1" cx="1838.32" cy="381.349" r="18"/>
<circle clip-path="url(#clip1902)" style="fill:#009af9; stroke:none; fill-opacity:1" cx="1838.32" cy="381.349" r="14"/>
<circle clip-path="url(#clip1902)" style="fill:#000000; stroke:none; fill-opacity:1" cx="1570.57" cy="547.813" r="18"/>
<circle clip-path="url(#clip1902)" style="fill:#009af9; stroke:none; fill-opacity:1" cx="1570.57" cy="547.813" r="14"/>
<circle clip-path="url(#clip1902)" style="fill:#000000; stroke:none; fill-opacity:1" cx="1301.59" cy="723.376" r="18"/>
<circle clip-path="url(#clip1902)" style="fill:#009af9; stroke:none; fill-opacity:1" cx="1301.59" cy="723.376" r="14"/>
<circle clip-path="url(#clip1902)" style="fill:#000000; stroke:none; fill-opacity:1" cx="2291.93" cy="86.2547" r="18"/>
<circle clip-path="url(#clip1902)" style="fill:#009af9; stroke:none; fill-opacity:1" cx="2291.93" cy="86.2547" r="14"/>
<circle clip-path="url(#clip1902)" style="fill:#000000; stroke:none; fill-opacity:1" cx="1292.18" cy="723.745" r="18"/>
<circle clip-path="url(#clip1902)" style="fill:#009af9; stroke:none; fill-opacity:1" cx="1292.18" cy="723.745" r="14"/>
<circle clip-path="url(#clip1902)" style="fill:#000000; stroke:none; fill-opacity:1" cx="1399.39" cy="657.838" r="18"/>
<circle clip-path="url(#clip1902)" style="fill:#009af9; stroke:none; fill-opacity:1" cx="1399.39" cy="657.838" r="14"/>
<circle clip-path="url(#clip1902)" style="fill:#000000; stroke:none; fill-opacity:1" cx="1159.14" cy="811.805" r="18"/>
<circle clip-path="url(#clip1902)" style="fill:#009af9; stroke:none; fill-opacity:1" cx="1159.14" cy="811.805" r="14"/>
<circle clip-path="url(#clip1902)" style="fill:#000000; stroke:none; fill-opacity:1" cx="1064.58" cy="873.382" r="18"/>
<circle clip-path="url(#clip1902)" style="fill:#009af9; stroke:none; fill-opacity:1" cx="1064.58" cy="873.382" r="14"/>
<circle clip-path="url(#clip1902)" style="fill:#000000; stroke:none; fill-opacity:1" cx="1431.15" cy="638.257" r="18"/>
<circle clip-path="url(#clip1902)" style="fill:#009af9; stroke:none; fill-opacity:1" cx="1431.15" cy="638.257" r="14"/>
<circle clip-path="url(#clip1902)" style="fill:#000000; stroke:none; fill-opacity:1" cx="507.929" cy="1223.99" r="18"/>
<circle clip-path="url(#clip1902)" style="fill:#009af9; stroke:none; fill-opacity:1" cx="507.929" cy="1223.99" r="14"/>
<circle clip-path="url(#clip1902)" style="fill:#000000; stroke:none; fill-opacity:1" cx="1611.98" cy="519.207" r="18"/>
<circle clip-path="url(#clip1902)" style="fill:#009af9; stroke:none; fill-opacity:1" cx="1611.98" cy="519.207" r="14"/>
<circle clip-path="url(#clip1902)" style="fill:#000000; stroke:none; fill-opacity:1" cx="1118.54" cy="837.913" r="18"/>
<circle clip-path="url(#clip1902)" style="fill:#009af9; stroke:none; fill-opacity:1" cx="1118.54" cy="837.913" r="14"/>
<circle clip-path="url(#clip1902)" style="fill:#000000; stroke:none; fill-opacity:1" cx="1824.51" cy="389.843" r="18"/>
<circle clip-path="url(#clip1902)" style="fill:#009af9; stroke:none; fill-opacity:1" cx="1824.51" cy="389.843" r="14"/>
<circle clip-path="url(#clip1902)" style="fill:#000000; stroke:none; fill-opacity:1" cx="1331.83" cy="701.549" r="18"/>
<circle clip-path="url(#clip1902)" style="fill:#009af9; stroke:none; fill-opacity:1" cx="1331.83" cy="701.549" r="14"/>
<circle clip-path="url(#clip1902)" style="fill:#000000; stroke:none; fill-opacity:1" cx="1935.92" cy="316.552" r="18"/>
<circle clip-path="url(#clip1902)" style="fill:#009af9; stroke:none; fill-opacity:1" cx="1935.92" cy="316.552" r="14"/>
<circle clip-path="url(#clip1902)" style="fill:#000000; stroke:none; fill-opacity:1" cx="1416.25" cy="646.477" r="18"/>
<circle clip-path="url(#clip1902)" style="fill:#009af9; stroke:none; fill-opacity:1" cx="1416.25" cy="646.477" r="14"/>
<circle clip-path="url(#clip1902)" style="fill:#000000; stroke:none; fill-opacity:1" cx="1163.4" cy="808.77" r="18"/>
<circle clip-path="url(#clip1902)" style="fill:#009af9; stroke:none; fill-opacity:1" cx="1163.4" cy="808.77" r="14"/>
<circle clip-path="url(#clip1902)" style="fill:#000000; stroke:none; fill-opacity:1" cx="1023.06" cy="891.139" r="18"/>
<circle clip-path="url(#clip1902)" style="fill:#009af9; stroke:none; fill-opacity:1" cx="1023.06" cy="891.139" r="14"/>
<circle clip-path="url(#clip1902)" style="fill:#000000; stroke:none; fill-opacity:1" cx="264.542" cy="1386.61" r="18"/>
<circle clip-path="url(#clip1902)" style="fill:#009af9; stroke:none; fill-opacity:1" cx="264.542" cy="1386.61" r="14"/>
<circle clip-path="url(#clip1902)" style="fill:#000000; stroke:none; fill-opacity:1" cx="1760.32" cy="433.654" r="18"/>
<circle clip-path="url(#clip1902)" style="fill:#009af9; stroke:none; fill-opacity:1" cx="1760.32" cy="433.654" r="14"/>
<circle clip-path="url(#clip1902)" style="fill:#000000; stroke:none; fill-opacity:1" cx="1466.66" cy="614.917" r="18"/>
<circle clip-path="url(#clip1902)" style="fill:#009af9; stroke:none; fill-opacity:1" cx="1466.66" cy="614.917" r="14"/>
<circle clip-path="url(#clip1902)" style="fill:#000000; stroke:none; fill-opacity:1" cx="1301.3" cy="719.557" r="18"/>
<circle clip-path="url(#clip1902)" style="fill:#009af9; stroke:none; fill-opacity:1" cx="1301.3" cy="719.557" r="14"/>
<circle clip-path="url(#clip1902)" style="fill:#000000; stroke:none; fill-opacity:1" cx="1432.38" cy="631.635" r="18"/>
<circle clip-path="url(#clip1902)" style="fill:#009af9; stroke:none; fill-opacity:1" cx="1432.38" cy="631.635" r="14"/>
<circle clip-path="url(#clip1902)" style="fill:#000000; stroke:none; fill-opacity:1" cx="1123.01" cy="835.23" r="18"/>
<circle clip-path="url(#clip1902)" style="fill:#009af9; stroke:none; fill-opacity:1" cx="1123.01" cy="835.23" r="14"/>
<circle clip-path="url(#clip1902)" style="fill:#000000; stroke:none; fill-opacity:1" cx="1585.42" cy="538.176" r="18"/>
<circle clip-path="url(#clip1902)" style="fill:#009af9; stroke:none; fill-opacity:1" cx="1585.42" cy="538.176" r="14"/>
<circle clip-path="url(#clip1902)" style="fill:#000000; stroke:none; fill-opacity:1" cx="1121" cy="832.635" r="18"/>
<circle clip-path="url(#clip1902)" style="fill:#009af9; stroke:none; fill-opacity:1" cx="1121" cy="832.635" r="14"/>
<circle clip-path="url(#clip1902)" style="fill:#000000; stroke:none; fill-opacity:1" cx="733.883" cy="1084.58" r="18"/>
<circle clip-path="url(#clip1902)" style="fill:#009af9; stroke:none; fill-opacity:1" cx="733.883" cy="1084.58" r="14"/>
<circle clip-path="url(#clip1902)" style="fill:#000000; stroke:none; fill-opacity:1" cx="1794.18" cy="403.029" r="18"/>
<circle clip-path="url(#clip1902)" style="fill:#009af9; stroke:none; fill-opacity:1" cx="1794.18" cy="403.029" r="14"/>
<circle clip-path="url(#clip1902)" style="fill:#000000; stroke:none; fill-opacity:1" cx="892.656" cy="984.845" r="18"/>
<circle clip-path="url(#clip1902)" style="fill:#009af9; stroke:none; fill-opacity:1" cx="892.656" cy="984.845" r="14"/>
<circle clip-path="url(#clip1902)" style="fill:#000000; stroke:none; fill-opacity:1" cx="1670.08" cy="484.108" r="18"/>
<circle clip-path="url(#clip1902)" style="fill:#009af9; stroke:none; fill-opacity:1" cx="1670.08" cy="484.108" r="14"/>
<circle clip-path="url(#clip1902)" style="fill:#000000; stroke:none; fill-opacity:1" cx="1426.85" cy="643.417" r="18"/>
<circle clip-path="url(#clip1902)" style="fill:#009af9; stroke:none; fill-opacity:1" cx="1426.85" cy="643.417" r="14"/>
<circle clip-path="url(#clip1902)" style="fill:#000000; stroke:none; fill-opacity:1" cx="1519.1" cy="579.295" r="18"/>
<circle clip-path="url(#clip1902)" style="fill:#009af9; stroke:none; fill-opacity:1" cx="1519.1" cy="579.295" r="14"/>
<circle clip-path="url(#clip1902)" style="fill:#000000; stroke:none; fill-opacity:1" cx="1928.87" cy="324.557" r="18"/>
<circle clip-path="url(#clip1902)" style="fill:#009af9; stroke:none; fill-opacity:1" cx="1928.87" cy="324.557" r="14"/>
<circle clip-path="url(#clip1902)" style="fill:#000000; stroke:none; fill-opacity:1" cx="1146.83" cy="823.69" r="18"/>
<circle clip-path="url(#clip1902)" style="fill:#009af9; stroke:none; fill-opacity:1" cx="1146.83" cy="823.69" r="14"/>
<circle clip-path="url(#clip1902)" style="fill:#000000; stroke:none; fill-opacity:1" cx="984.526" cy="921.067" r="18"/>
<circle clip-path="url(#clip1902)" style="fill:#009af9; stroke:none; fill-opacity:1" cx="984.526" cy="921.067" r="14"/>
<circle clip-path="url(#clip1902)" style="fill:#000000; stroke:none; fill-opacity:1" cx="1523.03" cy="575.706" r="18"/>
<circle clip-path="url(#clip1902)" style="fill:#009af9; stroke:none; fill-opacity:1" cx="1523.03" cy="575.706" r="14"/>
<circle clip-path="url(#clip1902)" style="fill:#000000; stroke:none; fill-opacity:1" cx="1489.86" cy="606.012" r="18"/>
<circle clip-path="url(#clip1902)" style="fill:#009af9; stroke:none; fill-opacity:1" cx="1489.86" cy="606.012" r="14"/>
<circle clip-path="url(#clip1902)" style="fill:#000000; stroke:none; fill-opacity:1" cx="1414.24" cy="649.21" r="18"/>
<circle clip-path="url(#clip1902)" style="fill:#009af9; stroke:none; fill-opacity:1" cx="1414.24" cy="649.21" r="14"/>
<circle clip-path="url(#clip1902)" style="fill:#000000; stroke:none; fill-opacity:1" cx="1302.74" cy="719.416" r="18"/>
<circle clip-path="url(#clip1902)" style="fill:#009af9; stroke:none; fill-opacity:1" cx="1302.74" cy="719.416" r="14"/>
<circle clip-path="url(#clip1902)" style="fill:#000000; stroke:none; fill-opacity:1" cx="1593.68" cy="531.116" r="18"/>
<circle clip-path="url(#clip1902)" style="fill:#009af9; stroke:none; fill-opacity:1" cx="1593.68" cy="531.116" r="14"/>
<circle clip-path="url(#clip1902)" style="fill:#000000; stroke:none; fill-opacity:1" cx="935.373" cy="952.188" r="18"/>
<circle clip-path="url(#clip1902)" style="fill:#009af9; stroke:none; fill-opacity:1" cx="935.373" cy="952.188" r="14"/>
<circle clip-path="url(#clip1902)" style="fill:#000000; stroke:none; fill-opacity:1" cx="870.833" cy="989.162" r="18"/>
<circle clip-path="url(#clip1902)" style="fill:#009af9; stroke:none; fill-opacity:1" cx="870.833" cy="989.162" r="14"/>
<circle clip-path="url(#clip1902)" style="fill:#000000; stroke:none; fill-opacity:1" cx="845.882" cy="1011.56" r="18"/>
<circle clip-path="url(#clip1902)" style="fill:#009af9; stroke:none; fill-opacity:1" cx="845.882" cy="1011.56" r="14"/>
<circle clip-path="url(#clip1902)" style="fill:#000000; stroke:none; fill-opacity:1" cx="1596.78" cy="530.098" r="18"/>
<circle clip-path="url(#clip1902)" style="fill:#009af9; stroke:none; fill-opacity:1" cx="1596.78" cy="530.098" r="14"/>
<circle clip-path="url(#clip1902)" style="fill:#000000; stroke:none; fill-opacity:1" cx="1251.18" cy="755.921" r="18"/>
<circle clip-path="url(#clip1902)" style="fill:#009af9; stroke:none; fill-opacity:1" cx="1251.18" cy="755.921" r="14"/>
<circle clip-path="url(#clip1902)" style="fill:#000000; stroke:none; fill-opacity:1" cx="1891.53" cy="344.414" r="18"/>
<circle clip-path="url(#clip1902)" style="fill:#009af9; stroke:none; fill-opacity:1" cx="1891.53" cy="344.414" r="14"/>
<circle clip-path="url(#clip1902)" style="fill:#000000; stroke:none; fill-opacity:1" cx="1529.35" cy="579.696" r="18"/>
<circle clip-path="url(#clip1902)" style="fill:#009af9; stroke:none; fill-opacity:1" cx="1529.35" cy="579.696" r="14"/>
<circle clip-path="url(#clip1902)" style="fill:#000000; stroke:none; fill-opacity:1" cx="2047.47" cy="248.434" r="18"/>
<circle clip-path="url(#clip1902)" style="fill:#009af9; stroke:none; fill-opacity:1" cx="2047.47" cy="248.434" r="14"/>
<circle clip-path="url(#clip1902)" style="fill:#000000; stroke:none; fill-opacity:1" cx="689.159" cy="1108.34" r="18"/>
<circle clip-path="url(#clip1902)" style="fill:#009af9; stroke:none; fill-opacity:1" cx="689.159" cy="1108.34" r="14"/>
<circle clip-path="url(#clip1902)" style="fill:#000000; stroke:none; fill-opacity:1" cx="1221.67" cy="771.104" r="18"/>
<circle clip-path="url(#clip1902)" style="fill:#009af9; stroke:none; fill-opacity:1" cx="1221.67" cy="771.104" r="14"/>
<circle clip-path="url(#clip1902)" style="fill:#000000; stroke:none; fill-opacity:1" cx="1295.25" cy="721.087" r="18"/>
<circle clip-path="url(#clip1902)" style="fill:#009af9; stroke:none; fill-opacity:1" cx="1295.25" cy="721.087" r="14"/>
<circle clip-path="url(#clip1902)" style="fill:#000000; stroke:none; fill-opacity:1" cx="1697.57" cy="465.516" r="18"/>
<circle clip-path="url(#clip1902)" style="fill:#009af9; stroke:none; fill-opacity:1" cx="1697.57" cy="465.516" r="14"/>
<circle clip-path="url(#clip1902)" style="fill:#000000; stroke:none; fill-opacity:1" cx="1133.66" cy="825.007" r="18"/>
<circle clip-path="url(#clip1902)" style="fill:#009af9; stroke:none; fill-opacity:1" cx="1133.66" cy="825.007" r="14"/>
<circle clip-path="url(#clip1902)" style="fill:#000000; stroke:none; fill-opacity:1" cx="823.461" cy="1028.79" r="18"/>
<circle clip-path="url(#clip1902)" style="fill:#009af9; stroke:none; fill-opacity:1" cx="823.461" cy="1028.79" r="14"/>
<circle clip-path="url(#clip1902)" style="fill:#000000; stroke:none; fill-opacity:1" cx="1248.34" cy="751.567" r="18"/>
<circle clip-path="url(#clip1902)" style="fill:#009af9; stroke:none; fill-opacity:1" cx="1248.34" cy="751.567" r="14"/>
<circle clip-path="url(#clip1902)" style="fill:#000000; stroke:none; fill-opacity:1" cx="1165.1" cy="807.992" r="18"/>
<circle clip-path="url(#clip1902)" style="fill:#009af9; stroke:none; fill-opacity:1" cx="1165.1" cy="807.992" r="14"/>
<circle clip-path="url(#clip1902)" style="fill:#000000; stroke:none; fill-opacity:1" cx="1114.35" cy="841.095" r="18"/>
<circle clip-path="url(#clip1902)" style="fill:#009af9; stroke:none; fill-opacity:1" cx="1114.35" cy="841.095" r="14"/>
<circle clip-path="url(#clip1902)" style="fill:#000000; stroke:none; fill-opacity:1" cx="1238.57" cy="757.94" r="18"/>
<circle clip-path="url(#clip1902)" style="fill:#009af9; stroke:none; fill-opacity:1" cx="1238.57" cy="757.94" r="14"/>
<circle clip-path="url(#clip1902)" style="fill:#000000; stroke:none; fill-opacity:1" cx="1955.22" cy="306.405" r="18"/>
<circle clip-path="url(#clip1902)" style="fill:#009af9; stroke:none; fill-opacity:1" cx="1955.22" cy="306.405" r="14"/>
<circle clip-path="url(#clip1902)" style="fill:#000000; stroke:none; fill-opacity:1" cx="1374.06" cy="677.603" r="18"/>
<circle clip-path="url(#clip1902)" style="fill:#009af9; stroke:none; fill-opacity:1" cx="1374.06" cy="677.603" r="14"/>
<circle clip-path="url(#clip1902)" style="fill:#000000; stroke:none; fill-opacity:1" cx="1058.73" cy="871.433" r="18"/>
<circle clip-path="url(#clip1902)" style="fill:#009af9; stroke:none; fill-opacity:1" cx="1058.73" cy="871.433" r="14"/>
<circle clip-path="url(#clip1902)" style="fill:#000000; stroke:none; fill-opacity:1" cx="1265.53" cy="747.954" r="18"/>
<circle clip-path="url(#clip1902)" style="fill:#009af9; stroke:none; fill-opacity:1" cx="1265.53" cy="747.954" r="14"/>
<circle clip-path="url(#clip1902)" style="fill:#000000; stroke:none; fill-opacity:1" cx="1691.61" cy="475.822" r="18"/>
<circle clip-path="url(#clip1902)" style="fill:#009af9; stroke:none; fill-opacity:1" cx="1691.61" cy="475.822" r="14"/>
<circle clip-path="url(#clip1902)" style="fill:#000000; stroke:none; fill-opacity:1" cx="890.329" cy="984.755" r="18"/>
<circle clip-path="url(#clip1902)" style="fill:#009af9; stroke:none; fill-opacity:1" cx="890.329" cy="984.755" r="14"/>
<circle clip-path="url(#clip1902)" style="fill:#000000; stroke:none; fill-opacity:1" cx="1872.6" cy="359.123" r="18"/>
<circle clip-path="url(#clip1902)" style="fill:#009af9; stroke:none; fill-opacity:1" cx="1872.6" cy="359.123" r="14"/>
<circle clip-path="url(#clip1902)" style="fill:#000000; stroke:none; fill-opacity:1" cx="1533.55" cy="575.073" r="18"/>
<circle clip-path="url(#clip1902)" style="fill:#009af9; stroke:none; fill-opacity:1" cx="1533.55" cy="575.073" r="14"/>
<circle clip-path="url(#clip1902)" style="fill:#000000; stroke:none; fill-opacity:1" cx="1630.26" cy="507.699" r="18"/>
<circle clip-path="url(#clip1902)" style="fill:#009af9; stroke:none; fill-opacity:1" cx="1630.26" cy="507.699" r="14"/>
<circle clip-path="url(#clip1902)" style="fill:#000000; stroke:none; fill-opacity:1" cx="988.569" cy="918.461" r="18"/>
<circle clip-path="url(#clip1902)" style="fill:#009af9; stroke:none; fill-opacity:1" cx="988.569" cy="918.461" r="14"/>
<circle clip-path="url(#clip1902)" style="fill:#000000; stroke:none; fill-opacity:1" cx="1328.57" cy="700.587" r="18"/>
<circle clip-path="url(#clip1902)" style="fill:#009af9; stroke:none; fill-opacity:1" cx="1328.57" cy="700.587" r="14"/>
<circle clip-path="url(#clip1902)" style="fill:#000000; stroke:none; fill-opacity:1" cx="1312" cy="718.463" r="18"/>
<circle clip-path="url(#clip1902)" style="fill:#009af9; stroke:none; fill-opacity:1" cx="1312" cy="718.463" r="14"/>
<circle clip-path="url(#clip1902)" style="fill:#000000; stroke:none; fill-opacity:1" cx="963.706" cy="935.369" r="18"/>
<circle clip-path="url(#clip1902)" style="fill:#009af9; stroke:none; fill-opacity:1" cx="963.706" cy="935.369" r="14"/>
<circle clip-path="url(#clip1902)" style="fill:#000000; stroke:none; fill-opacity:1" cx="1779.21" cy="420.482" r="18"/>
<circle clip-path="url(#clip1902)" style="fill:#009af9; stroke:none; fill-opacity:1" cx="1779.21" cy="420.482" r="14"/>
<circle clip-path="url(#clip1902)" style="fill:#000000; stroke:none; fill-opacity:1" cx="1936.93" cy="312.34" r="18"/>
<circle clip-path="url(#clip1902)" style="fill:#009af9; stroke:none; fill-opacity:1" cx="1936.93" cy="312.34" r="14"/>
<circle clip-path="url(#clip1902)" style="fill:#000000; stroke:none; fill-opacity:1" cx="1737.1" cy="444.705" r="18"/>
<circle clip-path="url(#clip1902)" style="fill:#009af9; stroke:none; fill-opacity:1" cx="1737.1" cy="444.705" r="14"/>
<circle clip-path="url(#clip1902)" style="fill:#000000; stroke:none; fill-opacity:1" cx="793.67" cy="1047.03" r="18"/>
<circle clip-path="url(#clip1902)" style="fill:#009af9; stroke:none; fill-opacity:1" cx="793.67" cy="1047.03" r="14"/>
<circle clip-path="url(#clip1902)" style="fill:#000000; stroke:none; fill-opacity:1" cx="2129.81" cy="188.444" r="18"/>
<circle clip-path="url(#clip1902)" style="fill:#009af9; stroke:none; fill-opacity:1" cx="2129.81" cy="188.444" r="14"/>
<circle clip-path="url(#clip1902)" style="fill:#000000; stroke:none; fill-opacity:1" cx="902.241" cy="972.113" r="18"/>
<circle clip-path="url(#clip1902)" style="fill:#009af9; stroke:none; fill-opacity:1" cx="902.241" cy="972.113" r="14"/>
<circle clip-path="url(#clip1902)" style="fill:#000000; stroke:none; fill-opacity:1" cx="2160.02" cy="174.588" r="18"/>
<circle clip-path="url(#clip1902)" style="fill:#009af9; stroke:none; fill-opacity:1" cx="2160.02" cy="174.588" r="14"/>
<circle clip-path="url(#clip1902)" style="fill:#000000; stroke:none; fill-opacity:1" cx="1813.59" cy="395.059" r="18"/>
<circle clip-path="url(#clip1902)" style="fill:#009af9; stroke:none; fill-opacity:1" cx="1813.59" cy="395.059" r="14"/>
<circle clip-path="url(#clip1902)" style="fill:#000000; stroke:none; fill-opacity:1" cx="1867.34" cy="359.671" r="18"/>
<circle clip-path="url(#clip1902)" style="fill:#009af9; stroke:none; fill-opacity:1" cx="1867.34" cy="359.671" r="14"/>
<circle clip-path="url(#clip1902)" style="fill:#000000; stroke:none; fill-opacity:1" cx="1387.58" cy="665.191" r="18"/>
<circle clip-path="url(#clip1902)" style="fill:#009af9; stroke:none; fill-opacity:1" cx="1387.58" cy="665.191" r="14"/>
<circle clip-path="url(#clip1902)" style="fill:#000000; stroke:none; fill-opacity:1" cx="1614.97" cy="519.82" r="18"/>
<circle clip-path="url(#clip1902)" style="fill:#009af9; stroke:none; fill-opacity:1" cx="1614.97" cy="519.82" r="14"/>
<circle clip-path="url(#clip1902)" style="fill:#000000; stroke:none; fill-opacity:1" cx="1097.64" cy="851.304" r="18"/>
<circle clip-path="url(#clip1902)" style="fill:#009af9; stroke:none; fill-opacity:1" cx="1097.64" cy="851.304" r="14"/>
<circle clip-path="url(#clip1902)" style="fill:#000000; stroke:none; fill-opacity:1" cx="1721.11" cy="453.349" r="18"/>
<circle clip-path="url(#clip1902)" style="fill:#009af9; stroke:none; fill-opacity:1" cx="1721.11" cy="453.349" r="14"/>
<circle clip-path="url(#clip1902)" style="fill:#000000; stroke:none; fill-opacity:1" cx="1284.53" cy="726.006" r="18"/>
<circle clip-path="url(#clip1902)" style="fill:#009af9; stroke:none; fill-opacity:1" cx="1284.53" cy="726.006" r="14"/>
<circle clip-path="url(#clip1902)" style="fill:#000000; stroke:none; fill-opacity:1" cx="1402.02" cy="654.69" r="18"/>
<circle clip-path="url(#clip1902)" style="fill:#009af9; stroke:none; fill-opacity:1" cx="1402.02" cy="654.69" r="14"/>
<circle clip-path="url(#clip1902)" style="fill:#000000; stroke:none; fill-opacity:1" cx="2019.66" cy="261.992" r="18"/>
<circle clip-path="url(#clip1902)" style="fill:#009af9; stroke:none; fill-opacity:1" cx="2019.66" cy="261.992" r="14"/>
<polyline clip-path="url(#clip1902)" style="stroke:#e26f46; stroke-width:4; stroke-opacity:1; fill:none" points="
  264.542,1382.43 507.929,1227.05 510.993,1225.09 689.159,1111.35 733.883,1082.8 781.566,1052.35 793.67,1044.63 823.461,1025.61 845.882,1011.29 860.956,1001.67 
  870.833,995.363 890.329,982.917 892.656,981.431 902.241,975.312 907.524,971.939 935.373,954.16 947.31,946.538 963.706,936.071 984.526,922.779 988.569,920.197 
  1008.87,907.236 1023.06,898.177 1058.73,875.407 1064.58,871.669 1097.64,850.564 1114.35,839.893 1116.58,838.472 1118.54,837.219 1121,835.653 1123.01,834.367 
  1133.66,827.566 1146.83,819.16 1159.14,811.3 1163.4,808.579 1165.1,807.496 1221.67,771.378 1223.22,770.392 1229.08,766.649 1238.57,760.589 1248.34,754.353 
  1248.52,754.236 1251.18,752.543 1265.53,743.381 1284.53,731.248 1292.18,726.363 1295.25,724.406 1301.3,720.543 1301.59,720.358 1302.74,719.621 1312,713.714 
  1328.57,703.131 1331.83,701.05 1374.06,674.09 1387.58,665.457 1399.39,657.917 1402.02,656.241 1414.24,648.436 1416.25,647.158 1426.85,640.387 1431.15,637.64 
  1432.38,636.859 1466.66,614.972 1489.86,600.16 1519.1,581.491 1523.03,578.983 1529.35,574.947 1533.55,572.27 1567.48,550.607 1570.57,548.632 1585.42,539.154 
  1593.68,533.879 1596.78,531.903 1611.98,522.193 1614.97,520.288 1630.26,510.526 1670.08,485.104 1691.61,471.357 1697.57,467.552 1721.11,452.524 1737.1,442.315 
  1753.16,432.065 1760.32,427.489 1779.21,415.431 1794.18,405.878 1813.59,393.482 1824.51,386.512 1838.32,377.695 1844.44,373.79 1867.34,359.166 1872.6,355.812 
  1891.53,343.722 1923.09,323.578 1928.87,319.885 1935.92,315.386 1936.93,314.742 1955.22,303.062 2019.66,261.921 2047.47,244.167 2129.81,191.599 2160.02,172.311 
  2291.93,88.096 
  "/>
<polygon clip-path="url(#clip1900)" points="
1773.33,312.204 2280.76,312.204 2280.76,130.764 1773.33,130.764 
  " fill="#ffffff" fill-rule="evenodd" fill-opacity="1"/>
<polyline clip-path="url(#clip1900)" style="stroke:#000000; stroke-width:4; stroke-opacity:1; fill:none" points="
  1773.33,312.204 2280.76,312.204 2280.76,130.764 1773.33,130.764 1773.33,312.204 
  "/>
<circle clip-path="url(#clip1900)" style="fill:#000000; stroke:none; fill-opacity:1" cx="1881.33" cy="191.244" r="25"/>
<circle clip-path="url(#clip1900)" style="fill:#009af9; stroke:none; fill-opacity:1" cx="1881.33" cy="191.244" r="21"/>
<g clip-path="url(#clip1900)">
<text style="fill:#000000; fill-opacity:1; font-family:Arial,Helvetica Neue,Helvetica,sans-serif; font-size:48px; text-anchor:start;" transform="rotate(0, 1965.33, 208.744)" x="1965.33" y="208.744">OLS (Direct)</text>
</g>
<polyline clip-path="url(#clip1900)" style="stroke:#e26f46; stroke-width:4; stroke-opacity:1; fill:none" points="
  1797.33,251.724 1941.33,251.724 
  "/>
<g clip-path="url(#clip1900)">
<text style="fill:#000000; fill-opacity:1; font-family:Arial,Helvetica Neue,Helvetica,sans-serif; font-size:48px; text-anchor:start;" transform="rotate(0, 1965.33, 269.224)" x="1965.33" y="269.224">true</text>
</g>
</svg>
