<?xml version="1.0" encoding="utf-8"?>
<svg xmlns="http://www.w3.org/2000/svg" xmlns:xlink="http://www.w3.org/1999/xlink" width="600" height="400" viewBox="0 0 2400 1600">
<defs>
  <clipPath id="clip9400">
    <rect x="0" y="0" width="2400" height="1600"/>
  </clipPath>
</defs>
<polygon clip-path="url(#clip9400)" points="
0,1600 2400,1600 2400,0 0,0 
  " fill="#ffffff" fill-rule="evenodd" fill-opacity="1"/>
<defs>
  <clipPath id="clip9401">
    <rect x="480" y="0" width="1681" height="1600"/>
  </clipPath>
</defs>
<polygon clip-path="url(#clip9400)" points="
182.008,1487.47 2352.76,1487.47 2352.76,121.675 182.008,121.675 
  " fill="#ffffff" fill-rule="evenodd" fill-opacity="1"/>
<defs>
  <clipPath id="clip9402">
    <rect x="182" y="121" width="2172" height="1367"/>
  </clipPath>
</defs>
<polyline clip-path="url(#clip9402)" style="stroke:#000000; stroke-width:2; stroke-opacity:0.1; fill:none" points="
  222.548,1487.47 222.548,121.675 
  "/>
<polyline clip-path="url(#clip9402)" style="stroke:#000000; stroke-width:2; stroke-opacity:0.1; fill:none" points="
  744.965,1487.47 744.965,121.675 
  "/>
<polyline clip-path="url(#clip9402)" style="stroke:#000000; stroke-width:2; stroke-opacity:0.1; fill:none" points="
  1267.38,1487.47 1267.38,121.675 
  "/>
<polyline clip-path="url(#clip9402)" style="stroke:#000000; stroke-width:2; stroke-opacity:0.1; fill:none" points="
  1789.8,1487.47 1789.8,121.675 
  "/>
<polyline clip-path="url(#clip9402)" style="stroke:#000000; stroke-width:2; stroke-opacity:0.1; fill:none" points="
  2312.22,1487.47 2312.22,121.675 
  "/>
<polyline clip-path="url(#clip9402)" style="stroke:#000000; stroke-width:2; stroke-opacity:0.1; fill:none" points="
  182.008,1288.06 2352.76,1288.06 
  "/>
<polyline clip-path="url(#clip9402)" style="stroke:#000000; stroke-width:2; stroke-opacity:0.1; fill:none" points="
  182.008,1088.01 2352.76,1088.01 
  "/>
<polyline clip-path="url(#clip9402)" style="stroke:#000000; stroke-width:2; stroke-opacity:0.1; fill:none" points="
  182.008,887.965 2352.76,887.965 
  "/>
<polyline clip-path="url(#clip9402)" style="stroke:#000000; stroke-width:2; stroke-opacity:0.1; fill:none" points="
  182.008,687.92 2352.76,687.92 
  "/>
<polyline clip-path="url(#clip9402)" style="stroke:#000000; stroke-width:2; stroke-opacity:0.1; fill:none" points="
  182.008,487.875 2352.76,487.875 
  "/>
<polyline clip-path="url(#clip9402)" style="stroke:#000000; stroke-width:2; stroke-opacity:0.1; fill:none" points="
  182.008,287.83 2352.76,287.83 
  "/>
<polyline clip-path="url(#clip9400)" style="stroke:#000000; stroke-width:4; stroke-opacity:1; fill:none" points="
  182.008,1487.47 2352.76,1487.47 
  "/>
<polyline clip-path="url(#clip9400)" style="stroke:#000000; stroke-width:4; stroke-opacity:1; fill:none" points="
  182.008,1487.47 182.008,121.675 
  "/>
<polyline clip-path="url(#clip9400)" style="stroke:#000000; stroke-width:4; stroke-opacity:1; fill:none" points="
  222.548,1487.47 222.548,1466.99 
  "/>
<polyline clip-path="url(#clip9400)" style="stroke:#000000; stroke-width:4; stroke-opacity:1; fill:none" points="
  744.965,1487.47 744.965,1466.99 
  "/>
<polyline clip-path="url(#clip9400)" style="stroke:#000000; stroke-width:4; stroke-opacity:1; fill:none" points="
  1267.38,1487.47 1267.38,1466.99 
  "/>
<polyline clip-path="url(#clip9400)" style="stroke:#000000; stroke-width:4; stroke-opacity:1; fill:none" points="
  1789.8,1487.47 1789.8,1466.99 
  "/>
<polyline clip-path="url(#clip9400)" style="stroke:#000000; stroke-width:4; stroke-opacity:1; fill:none" points="
  2312.22,1487.47 2312.22,1466.99 
  "/>
<polyline clip-path="url(#clip9400)" style="stroke:#000000; stroke-width:4; stroke-opacity:1; fill:none" points="
  182.008,1288.06 214.569,1288.06 
  "/>
<polyline clip-path="url(#clip9400)" style="stroke:#000000; stroke-width:4; stroke-opacity:1; fill:none" points="
  182.008,1088.01 214.569,1088.01 
  "/>
<polyline clip-path="url(#clip9400)" style="stroke:#000000; stroke-width:4; stroke-opacity:1; fill:none" points="
  182.008,887.965 214.569,887.965 
  "/>
<polyline clip-path="url(#clip9400)" style="stroke:#000000; stroke-width:4; stroke-opacity:1; fill:none" points="
  182.008,687.92 214.569,687.92 
  "/>
<polyline clip-path="url(#clip9400)" style="stroke:#000000; stroke-width:4; stroke-opacity:1; fill:none" points="
  182.008,487.875 214.569,487.875 
  "/>
<polyline clip-path="url(#clip9400)" style="stroke:#000000; stroke-width:4; stroke-opacity:1; fill:none" points="
  182.008,287.83 214.569,287.83 
  "/>
<g clip-path="url(#clip9400)">
<text style="fill:#000000; fill-opacity:1; font-family:Arial,Helvetica Neue,Helvetica,sans-serif; font-size:48px; text-anchor:middle;" transform="rotate(0, 222.548, 1541.47)" x="222.548" y="1541.47">0</text>
</g>
<g clip-path="url(#clip9400)">
<text style="fill:#000000; fill-opacity:1; font-family:Arial,Helvetica Neue,Helvetica,sans-serif; font-size:48px; text-anchor:middle;" transform="rotate(0, 744.965, 1541.47)" x="744.965" y="1541.47">25</text>
</g>
<g clip-path="url(#clip9400)">
<text style="fill:#000000; fill-opacity:1; font-family:Arial,Helvetica Neue,Helvetica,sans-serif; font-size:48px; text-anchor:middle;" transform="rotate(0, 1267.38, 1541.47)" x="1267.38" y="1541.47">50</text>
</g>
<g clip-path="url(#clip9400)">
<text style="fill:#000000; fill-opacity:1; font-family:Arial,Helvetica Neue,Helvetica,sans-serif; font-size:48px; text-anchor:middle;" transform="rotate(0, 1789.8, 1541.47)" x="1789.8" y="1541.47">75</text>
</g>
<g clip-path="url(#clip9400)">
<text style="fill:#000000; fill-opacity:1; font-family:Arial,Helvetica Neue,Helvetica,sans-serif; font-size:48px; text-anchor:middle;" transform="rotate(0, 2312.22, 1541.47)" x="2312.22" y="1541.47">100</text>
</g>
<g clip-path="url(#clip9400)">
<text style="fill:#000000; fill-opacity:1; font-family:Arial,Helvetica Neue,Helvetica,sans-serif; font-size:48px; text-anchor:end;" transform="rotate(0, 158.008, 1305.56)" x="158.008" y="1305.56">-1.5</text>
</g>
<g clip-path="url(#clip9400)">
<text style="fill:#000000; fill-opacity:1; font-family:Arial,Helvetica Neue,Helvetica,sans-serif; font-size:48px; text-anchor:end;" transform="rotate(0, 158.008, 1105.51)" x="158.008" y="1105.51">-1.0</text>
</g>
<g clip-path="url(#clip9400)">
<text style="fill:#000000; fill-opacity:1; font-family:Arial,Helvetica Neue,Helvetica,sans-serif; font-size:48px; text-anchor:end;" transform="rotate(0, 158.008, 905.465)" x="158.008" y="905.465">-0.5</text>
</g>
<g clip-path="url(#clip9400)">
<text style="fill:#000000; fill-opacity:1; font-family:Arial,Helvetica Neue,Helvetica,sans-serif; font-size:48px; text-anchor:end;" transform="rotate(0, 158.008, 705.42)" x="158.008" y="705.42">0.0</text>
</g>
<g clip-path="url(#clip9400)">
<text style="fill:#000000; fill-opacity:1; font-family:Arial,Helvetica Neue,Helvetica,sans-serif; font-size:48px; text-anchor:end;" transform="rotate(0, 158.008, 505.375)" x="158.008" y="505.375">0.5</text>
</g>
<g clip-path="url(#clip9400)">
<text style="fill:#000000; fill-opacity:1; font-family:Arial,Helvetica Neue,Helvetica,sans-serif; font-size:48px; text-anchor:end;" transform="rotate(0, 158.008, 305.33)" x="158.008" y="305.33">1.0</text>
</g>
<g clip-path="url(#clip9400)">
<text style="fill:#000000; fill-opacity:1; font-family:Arial,Helvetica Neue,Helvetica,sans-serif; font-size:84px; text-anchor:middle;" transform="rotate(0, 1267.38, 73.2)" x="1267.38" y="73.2">b=0.0</text>
</g>
<polyline clip-path="url(#clip9402)" style="stroke:#009af9; stroke-width:4; stroke-opacity:1; fill:none" points="
  243.444,434.855 264.341,404.069 285.238,516.279 306.134,566.362 327.031,450.153 347.928,738.567 368.824,642.243 389.721,802.639 410.618,696.791 431.515,551.086 
  452.411,408.834 473.308,323.991 494.205,318.618 515.101,160.37 535.998,547.152 556.895,231.136 577.791,702.535 598.688,855.552 619.585,756.047 640.481,509.196 
  661.378,941.231 682.275,387.4 703.171,463.751 724.068,676.192 744.965,861.964 765.861,354.563 786.758,804.213 807.655,655.462 828.552,543.422 849.448,652.396 
  870.345,481.539 891.242,754.025 912.138,1155.87 933.035,1430.57 953.932,1023.38 974.828,1021.21 995.725,1056.36 1016.62,1448.82 1037.52,873.4 1058.42,497.005 
  1079.31,604.77 1100.21,723.37 1121.11,528.533 1142,1020.47 1162.9,970.247 1183.8,595.863 1204.69,376.142 1225.59,432.8 1246.49,631.619 1267.38,667.451 
  1288.28,514.242 1309.18,488.635 1330.07,772.89 1350.97,746.017 1371.87,1036.76 1392.76,1435.97 1413.66,1098.45 1434.56,1074.74 1455.45,895.493 1476.35,860.185 
  1497.25,706.294 1518.14,823.145 1539.04,630.682 1559.94,416.049 1580.83,499.822 1601.73,621.584 1622.63,866.072 1643.52,323.459 1664.42,739.392 1685.32,639.845 
  1706.21,587.854 1727.11,292.545 1748.01,473.149 1768.9,860.111 1789.8,793.679 1810.7,464.844 1831.59,790.035 1852.49,1090.86 1873.39,721.999 1894.28,908.579 
  1915.18,827.754 1936.08,777.619 1956.97,478.238 1977.87,566.05 1998.77,742.715 2019.66,341.158 2040.56,452.593 2061.46,160.33 2082.35,275.253 2103.25,479.759 
  2124.15,786.714 2145.04,844.493 2165.94,609.102 2186.84,714.198 2207.73,706.566 2228.63,1253.26 2249.53,1172.66 2270.42,856.059 2291.32,805.589 
  "/>
<polyline clip-path="url(#clip9402)" style="stroke:#e26f46; stroke-width:4; stroke-opacity:1; fill:none" points="
  243.444,434.855 264.341,404.069 285.238,516.279 306.134,566.362 327.031,450.153 347.928,738.567 368.824,642.243 389.721,802.639 410.618,696.791 431.515,551.086 
  452.411,408.834 473.308,323.991 494.205,318.618 515.101,160.37 535.998,547.152 556.895,231.136 577.791,702.535 598.688,855.552 619.585,756.047 640.481,509.196 
  661.378,941.231 682.275,387.4 703.171,463.751 724.068,676.192 744.965,861.964 765.861,354.563 786.758,804.213 807.655,655.462 828.552,543.422 849.448,652.396 
  870.345,481.539 891.242,754.025 912.138,1155.87 933.035,1430.57 953.932,1023.38 974.828,1021.21 995.725,1056.36 1016.62,1448.82 1037.52,873.4 1058.42,497.005 
  1079.31,604.77 1100.21,723.37 1121.11,528.533 1142,1020.47 1162.9,970.247 1183.8,595.863 1204.69,376.142 1225.59,432.8 1246.49,631.619 1267.38,667.451 
  1288.28,514.242 1309.18,488.635 1330.07,772.89 1350.97,746.017 1371.87,1036.76 1392.76,1435.97 1413.66,1098.45 1434.56,1074.74 1455.45,895.493 1476.35,860.185 
  1497.25,706.294 1518.14,823.145 1539.04,630.682 1559.94,416.049 1580.83,499.822 1601.73,621.584 1622.63,866.072 1643.52,323.459 1664.42,739.392 1685.32,639.845 
  1706.21,587.854 1727.11,292.545 1748.01,473.149 1768.9,860.111 1789.8,793.679 1810.7,464.844 1831.59,790.035 1852.49,1090.86 1873.39,721.999 1894.28,908.579 
  1915.18,827.754 1936.08,777.619 1956.97,478.238 1977.87,566.05 1998.77,742.715 2019.66,341.158 2040.56,452.593 2061.46,160.33 2082.35,275.253 2103.25,479.759 
  2124.15,786.714 2145.04,844.493 2165.94,609.102 2186.84,714.198 2207.73,706.566 2228.63,1253.26 2249.53,1172.66 2270.42,856.059 2291.32,805.589 
  "/>
<polygon clip-path="url(#clip9400)" points="
1858.86,386.635 2280.76,386.635 2280.76,205.195 1858.86,205.195 
  " fill="#ffffff" fill-rule="evenodd" fill-opacity="1"/>
<polyline clip-path="url(#clip9400)" style="stroke:#000000; stroke-width:4; stroke-opacity:1; fill:none" points="
  1858.86,386.635 2280.76,386.635 2280.76,205.195 1858.86,205.195 1858.86,386.635 
  "/>
<polyline clip-path="url(#clip9400)" style="stroke:#009af9; stroke-width:4; stroke-opacity:1; fill:none" points="
  1882.86,265.675 2026.86,265.675 
  "/>
<g clip-path="url(#clip9400)">
<text style="fill:#000000; fill-opacity:1; font-family:Arial,Helvetica Neue,Helvetica,sans-serif; font-size:48px; text-anchor:start;" transform="rotate(0, 2050.86, 283.175)" x="2050.86" y="283.175">x_t BKM</text>
</g>
<polyline clip-path="url(#clip9400)" style="stroke:#e26f46; stroke-width:4; stroke-opacity:1; fill:none" points="
  1882.86,326.155 2026.86,326.155 
  "/>
<g clip-path="url(#clip9400)">
<text style="fill:#000000; fill-opacity:1; font-family:Arial,Helvetica Neue,Helvetica,sans-serif; font-size:48px; text-anchor:start;" transform="rotate(0, 2050.86, 343.655)" x="2050.86" y="343.655">x_t true</text>
</g>
</svg>
