<?xml version="1.0" encoding="utf-8"?>
<svg xmlns="http://www.w3.org/2000/svg" xmlns:xlink="http://www.w3.org/1999/xlink" width="600" height="400" viewBox="0 0 2400 1600">
<defs>
  <clipPath id="clip0200">
    <rect x="0" y="0" width="2400" height="1600"/>
  </clipPath>
</defs>
<polygon clip-path="url(#clip0200)" points="
0,1600 2400,1600 2400,0 0,0 
  " fill="#ffffff" fill-rule="evenodd" fill-opacity="1"/>
<defs>
  <clipPath id="clip0201">
    <rect x="480" y="0" width="1681" height="1600"/>
  </clipPath>
</defs>
<polygon clip-path="url(#clip0200)" points="
141.865,1487.47 2352.76,1487.47 2352.76,121.675 141.865,121.675 
  " fill="#ffffff" fill-rule="evenodd" fill-opacity="1"/>
<defs>
  <clipPath id="clip0202">
    <rect x="141" y="121" width="2212" height="1367"/>
  </clipPath>
</defs>
<polyline clip-path="url(#clip0202)" style="stroke:#000000; stroke-width:2; stroke-opacity:0.1; fill:none" points="
  183.154,1487.47 183.154,121.675 
  "/>
<polyline clip-path="url(#clip0202)" style="stroke:#000000; stroke-width:2; stroke-opacity:0.1; fill:none" points="
  715.232,1487.47 715.232,121.675 
  "/>
<polyline clip-path="url(#clip0202)" style="stroke:#000000; stroke-width:2; stroke-opacity:0.1; fill:none" points="
  1247.31,1487.47 1247.31,121.675 
  "/>
<polyline clip-path="url(#clip0202)" style="stroke:#000000; stroke-width:2; stroke-opacity:0.1; fill:none" points="
  1779.39,1487.47 1779.39,121.675 
  "/>
<polyline clip-path="url(#clip0202)" style="stroke:#000000; stroke-width:2; stroke-opacity:0.1; fill:none" points="
  2311.47,1487.47 2311.47,121.675 
  "/>
<polyline clip-path="url(#clip0202)" style="stroke:#000000; stroke-width:2; stroke-opacity:0.1; fill:none" points="
  141.865,1357.77 2352.76,1357.77 
  "/>
<polyline clip-path="url(#clip0202)" style="stroke:#000000; stroke-width:2; stroke-opacity:0.1; fill:none" points="
  141.865,991.806 2352.76,991.806 
  "/>
<polyline clip-path="url(#clip0202)" style="stroke:#000000; stroke-width:2; stroke-opacity:0.1; fill:none" points="
  141.865,625.844 2352.76,625.844 
  "/>
<polyline clip-path="url(#clip0202)" style="stroke:#000000; stroke-width:2; stroke-opacity:0.1; fill:none" points="
  141.865,259.882 2352.76,259.882 
  "/>
<polyline clip-path="url(#clip0200)" style="stroke:#000000; stroke-width:4; stroke-opacity:1; fill:none" points="
  141.865,1487.47 2352.76,1487.47 
  "/>
<polyline clip-path="url(#clip0200)" style="stroke:#000000; stroke-width:4; stroke-opacity:1; fill:none" points="
  141.865,1487.47 141.865,121.675 
  "/>
<polyline clip-path="url(#clip0200)" style="stroke:#000000; stroke-width:4; stroke-opacity:1; fill:none" points="
  183.154,1487.47 183.154,1466.99 
  "/>
<polyline clip-path="url(#clip0200)" style="stroke:#000000; stroke-width:4; stroke-opacity:1; fill:none" points="
  715.232,1487.47 715.232,1466.99 
  "/>
<polyline clip-path="url(#clip0200)" style="stroke:#000000; stroke-width:4; stroke-opacity:1; fill:none" points="
  1247.31,1487.47 1247.31,1466.99 
  "/>
<polyline clip-path="url(#clip0200)" style="stroke:#000000; stroke-width:4; stroke-opacity:1; fill:none" points="
  1779.39,1487.47 1779.39,1466.99 
  "/>
<polyline clip-path="url(#clip0200)" style="stroke:#000000; stroke-width:4; stroke-opacity:1; fill:none" points="
  2311.47,1487.47 2311.47,1466.99 
  "/>
<polyline clip-path="url(#clip0200)" style="stroke:#000000; stroke-width:4; stroke-opacity:1; fill:none" points="
  141.865,1357.77 175.028,1357.77 
  "/>
<polyline clip-path="url(#clip0200)" style="stroke:#000000; stroke-width:4; stroke-opacity:1; fill:none" points="
  141.865,991.806 175.028,991.806 
  "/>
<polyline clip-path="url(#clip0200)" style="stroke:#000000; stroke-width:4; stroke-opacity:1; fill:none" points="
  141.865,625.844 175.028,625.844 
  "/>
<polyline clip-path="url(#clip0200)" style="stroke:#000000; stroke-width:4; stroke-opacity:1; fill:none" points="
  141.865,259.882 175.028,259.882 
  "/>
<g clip-path="url(#clip0200)">
<text style="fill:#000000; fill-opacity:1; font-family:Arial,Helvetica Neue,Helvetica,sans-serif; font-size:48px; text-anchor:middle;" transform="rotate(0, 183.154, 1541.47)" x="183.154" y="1541.47">0</text>
</g>
<g clip-path="url(#clip0200)">
<text style="fill:#000000; fill-opacity:1; font-family:Arial,Helvetica Neue,Helvetica,sans-serif; font-size:48px; text-anchor:middle;" transform="rotate(0, 715.232, 1541.47)" x="715.232" y="1541.47">25</text>
</g>
<g clip-path="url(#clip0200)">
<text style="fill:#000000; fill-opacity:1; font-family:Arial,Helvetica Neue,Helvetica,sans-serif; font-size:48px; text-anchor:middle;" transform="rotate(0, 1247.31, 1541.47)" x="1247.31" y="1541.47">50</text>
</g>
<g clip-path="url(#clip0200)">
<text style="fill:#000000; fill-opacity:1; font-family:Arial,Helvetica Neue,Helvetica,sans-serif; font-size:48px; text-anchor:middle;" transform="rotate(0, 1779.39, 1541.47)" x="1779.39" y="1541.47">75</text>
</g>
<g clip-path="url(#clip0200)">
<text style="fill:#000000; fill-opacity:1; font-family:Arial,Helvetica Neue,Helvetica,sans-serif; font-size:48px; text-anchor:middle;" transform="rotate(0, 2311.47, 1541.47)" x="2311.47" y="1541.47">100</text>
</g>
<g clip-path="url(#clip0200)">
<text style="fill:#000000; fill-opacity:1; font-family:Arial,Helvetica Neue,Helvetica,sans-serif; font-size:48px; text-anchor:end;" transform="rotate(0, 117.865, 1375.27)" x="117.865" y="1375.27">-1</text>
</g>
<g clip-path="url(#clip0200)">
<text style="fill:#000000; fill-opacity:1; font-family:Arial,Helvetica Neue,Helvetica,sans-serif; font-size:48px; text-anchor:end;" transform="rotate(0, 117.865, 1009.31)" x="117.865" y="1009.31">0</text>
</g>
<g clip-path="url(#clip0200)">
<text style="fill:#000000; fill-opacity:1; font-family:Arial,Helvetica Neue,Helvetica,sans-serif; font-size:48px; text-anchor:end;" transform="rotate(0, 117.865, 643.344)" x="117.865" y="643.344">1</text>
</g>
<g clip-path="url(#clip0200)">
<text style="fill:#000000; fill-opacity:1; font-family:Arial,Helvetica Neue,Helvetica,sans-serif; font-size:48px; text-anchor:end;" transform="rotate(0, 117.865, 277.382)" x="117.865" y="277.382">2</text>
</g>
<g clip-path="url(#clip0200)">
<text style="fill:#000000; fill-opacity:1; font-family:Arial,Helvetica Neue,Helvetica,sans-serif; font-size:84px; text-anchor:middle;" transform="rotate(0, 1247.31, 73.2)" x="1247.31" y="73.2">b=0.2</text>
</g>
<polyline clip-path="url(#clip0202)" style="stroke:#009af9; stroke-width:4; stroke-opacity:1; fill:none" points="
  204.437,1038.87 225.72,900.426 247.003,854.281 268.286,785.872 289.569,915.465 310.853,1142.5 332.136,1116.36 353.419,1163.88 374.702,998.476 395.985,1002.9 
  417.268,795.656 438.551,905.142 459.834,1103.78 481.118,1302.37 502.401,1120.4 523.684,833.057 544.967,864.294 566.25,839.329 587.533,1103.64 608.816,1242.48 
  630.1,922.597 651.383,665.542 672.666,942.441 693.949,709.191 715.232,639.497 736.515,461.067 757.798,706.714 779.081,735.376 800.365,957.91 821.648,634.502 
  842.931,1122.11 864.214,1159.25 885.497,1281.41 906.78,1408.06 928.063,1003.92 949.346,1327.03 970.63,1310.9 991.913,1271.34 1013.2,918.104 1034.48,694.123 
  1055.76,715.877 1077.05,768.045 1098.33,961.676 1119.61,1116.28 1140.89,1296.01 1162.18,1293.92 1183.46,1157.72 1204.74,763.244 1226.03,1014.03 1247.31,949.422 
  1268.59,628.529 1289.88,791.268 1311.16,641.338 1332.44,314.258 1353.73,318.121 1375.01,795.007 1396.29,1048.4 1417.58,996.713 1438.86,968.596 1460.14,838.07 
  1481.42,841.437 1502.71,860.154 1523.99,684.846 1545.27,741.44 1566.56,456.684 1587.84,509.735 1609.12,677.488 1630.41,1250.29 1651.69,1061.86 1672.97,772.989 
  1694.26,821.787 1715.54,870.655 1736.82,616.557 1758.11,921.93 1779.39,1018.11 1800.67,1157.34 1821.95,1448.82 1843.24,1412.83 1864.52,1336.88 1885.8,1068.4 
  1907.09,1183.07 1928.37,1143.57 1949.65,1109.47 1970.94,1075.69 1992.22,1204.85 2013.5,1032.88 2034.79,627.07 2056.07,529.159 2077.35,476.66 2098.64,314.864 
  2119.92,920.724 2141.2,1072.87 2162.48,1040.36 2183.77,664.078 2205.05,677.176 2226.33,792.556 2247.62,892.115 2268.9,1330.32 2290.18,903.526 
  "/>
<polyline clip-path="url(#clip0202)" style="stroke:#e26f46; stroke-width:4; stroke-opacity:1; fill:none" points="
  204.437,1038.87 225.72,889.802 247.003,863.536 268.286,806.119 289.569,940.606 310.853,1156.98 332.136,1070.31 353.419,1116.07 374.702,939.435 395.985,981.22 
  417.268,787.184 438.551,918.942 459.834,1117.18 481.118,1270.49 502.401,1001.66 523.684,762.546 544.967,844.373 566.25,840.909 587.533,1114.91 608.816,1207.52 
  630.1,830.215 651.383,630.71 672.666,921.78 693.949,692.623 715.232,629.943 736.515,440.227 757.798,615.17 779.081,638.114 800.365,867.354 821.648,567.741 
  842.931,1053.45 864.214,1079.6 885.497,1202.02 906.78,1293.92 928.063,829.855 949.346,1247.76 970.63,1179.15 991.913,1139.41 1013.2,804.667 1034.48,652.978 
  1055.76,696.66 1077.05,753.799 1098.33,950.364 1119.61,1098.78 1140.89,1248.47 1162.18,1176.5 1183.46,1035.04 1204.74,687.355 1226.03,986.146 1247.31,926.73 
  1268.59,620.767 1289.88,782.046 1311.16,636.546 1332.44,297.065 1353.73,160.33 1375.01,436.111 1396.29,695.551 1417.58,735.054 1438.86,794.857 1460.14,734.651 
  1481.42,784.021 1502.71,831.277 1523.99,673.158 1545.27,732.002 1566.56,448.613 1587.84,433.961 1609.12,536.595 1630.41,1096.85 1651.69,901.288 1672.97,675.658 
  1694.26,768.412 1715.54,844.524 1736.82,605.132 1758.11,899.775 1779.39,996.959 1800.67,1130.24 1821.95,1389.14 1843.24,1212.2 1864.52,1148.59 1885.8,919.763 
  1907.09,1116.41 1928.37,1076.41 1949.65,1053.37 1970.94,1032.7 1992.22,1174.65 2013.5,963.721 2034.79,595.195 2056.07,506.7 2077.35,416.123 2098.64,180.093 
  2119.92,595.476 2141.2,796.783 2162.48,845.455 2183.77,542.994 2205.05,575.159 2226.33,697.581 2247.62,817.886 2268.9,1280 2290.18,754.953 
  "/>
<polygon clip-path="url(#clip0200)" points="
1858.86,386.635 2280.76,386.635 2280.76,205.195 1858.86,205.195 
  " fill="#ffffff" fill-rule="evenodd" fill-opacity="1"/>
<polyline clip-path="url(#clip0200)" style="stroke:#000000; stroke-width:4; stroke-opacity:1; fill:none" points="
  1858.86,386.635 2280.76,386.635 2280.76,205.195 1858.86,205.195 1858.86,386.635 
  "/>
<polyline clip-path="url(#clip0200)" style="stroke:#009af9; stroke-width:4; stroke-opacity:1; fill:none" points="
  1882.86,265.675 2026.86,265.675 
  "/>
<g clip-path="url(#clip0200)">
<text style="fill:#000000; fill-opacity:1; font-family:Arial,Helvetica Neue,Helvetica,sans-serif; font-size:48px; text-anchor:start;" transform="rotate(0, 2050.86, 283.175)" x="2050.86" y="283.175">x_t BKM</text>
</g>
<polyline clip-path="url(#clip0200)" style="stroke:#e26f46; stroke-width:4; stroke-opacity:1; fill:none" points="
  1882.86,326.155 2026.86,326.155 
  "/>
<g clip-path="url(#clip0200)">
<text style="fill:#000000; fill-opacity:1; font-family:Arial,Helvetica Neue,Helvetica,sans-serif; font-size:48px; text-anchor:start;" transform="rotate(0, 2050.86, 343.655)" x="2050.86" y="343.655">x_t true</text>
</g>
</svg>
