<?xml version="1.0" encoding="utf-8"?>
<svg xmlns="http://www.w3.org/2000/svg" xmlns:xlink="http://www.w3.org/1999/xlink" width="600" height="400" viewBox="0 0 2400 1600">
<defs>
  <clipPath id="clip5400">
    <rect x="0" y="0" width="2400" height="1600"/>
  </clipPath>
</defs>
<polygon clip-path="url(#clip5400)" points="
0,1600 2400,1600 2400,0 0,0 
  " fill="#ffffff" fill-rule="evenodd" fill-opacity="1"/>
<defs>
  <clipPath id="clip5401">
    <rect x="480" y="0" width="1681" height="1600"/>
  </clipPath>
</defs>
<polygon clip-path="url(#clip5400)" points="
182.008,1487.47 2352.76,1487.47 2352.76,121.675 182.008,121.675 
  " fill="#ffffff" fill-rule="evenodd" fill-opacity="1"/>
<defs>
  <clipPath id="clip5402">
    <rect x="182" y="121" width="2172" height="1367"/>
  </clipPath>
</defs>
<polyline clip-path="url(#clip5402)" style="stroke:#000000; stroke-width:2; stroke-opacity:0.1; fill:none" points="
  222.548,1487.47 222.548,121.675 
  "/>
<polyline clip-path="url(#clip5402)" style="stroke:#000000; stroke-width:2; stroke-opacity:0.1; fill:none" points="
  744.965,1487.47 744.965,121.675 
  "/>
<polyline clip-path="url(#clip5402)" style="stroke:#000000; stroke-width:2; stroke-opacity:0.1; fill:none" points="
  1267.38,1487.47 1267.38,121.675 
  "/>
<polyline clip-path="url(#clip5402)" style="stroke:#000000; stroke-width:2; stroke-opacity:0.1; fill:none" points="
  1789.8,1487.47 1789.8,121.675 
  "/>
<polyline clip-path="url(#clip5402)" style="stroke:#000000; stroke-width:2; stroke-opacity:0.1; fill:none" points="
  2312.22,1487.47 2312.22,121.675 
  "/>
<polyline clip-path="url(#clip5402)" style="stroke:#000000; stroke-width:2; stroke-opacity:0.1; fill:none" points="
  182.008,1316.58 2352.76,1316.58 
  "/>
<polyline clip-path="url(#clip5402)" style="stroke:#000000; stroke-width:2; stroke-opacity:0.1; fill:none" points="
  182.008,1065.15 2352.76,1065.15 
  "/>
<polyline clip-path="url(#clip5402)" style="stroke:#000000; stroke-width:2; stroke-opacity:0.1; fill:none" points="
  182.008,813.71 2352.76,813.71 
  "/>
<polyline clip-path="url(#clip5402)" style="stroke:#000000; stroke-width:2; stroke-opacity:0.1; fill:none" points="
  182.008,562.274 2352.76,562.274 
  "/>
<polyline clip-path="url(#clip5402)" style="stroke:#000000; stroke-width:2; stroke-opacity:0.1; fill:none" points="
  182.008,310.837 2352.76,310.837 
  "/>
<polyline clip-path="url(#clip5400)" style="stroke:#000000; stroke-width:4; stroke-opacity:1; fill:none" points="
  182.008,1487.47 2352.76,1487.47 
  "/>
<polyline clip-path="url(#clip5400)" style="stroke:#000000; stroke-width:4; stroke-opacity:1; fill:none" points="
  182.008,1487.47 182.008,121.675 
  "/>
<polyline clip-path="url(#clip5400)" style="stroke:#000000; stroke-width:4; stroke-opacity:1; fill:none" points="
  222.548,1487.47 222.548,1466.99 
  "/>
<polyline clip-path="url(#clip5400)" style="stroke:#000000; stroke-width:4; stroke-opacity:1; fill:none" points="
  744.965,1487.47 744.965,1466.99 
  "/>
<polyline clip-path="url(#clip5400)" style="stroke:#000000; stroke-width:4; stroke-opacity:1; fill:none" points="
  1267.38,1487.47 1267.38,1466.99 
  "/>
<polyline clip-path="url(#clip5400)" style="stroke:#000000; stroke-width:4; stroke-opacity:1; fill:none" points="
  1789.8,1487.47 1789.8,1466.99 
  "/>
<polyline clip-path="url(#clip5400)" style="stroke:#000000; stroke-width:4; stroke-opacity:1; fill:none" points="
  2312.22,1487.47 2312.22,1466.99 
  "/>
<polyline clip-path="url(#clip5400)" style="stroke:#000000; stroke-width:4; stroke-opacity:1; fill:none" points="
  182.008,1316.58 214.569,1316.58 
  "/>
<polyline clip-path="url(#clip5400)" style="stroke:#000000; stroke-width:4; stroke-opacity:1; fill:none" points="
  182.008,1065.15 214.569,1065.15 
  "/>
<polyline clip-path="url(#clip5400)" style="stroke:#000000; stroke-width:4; stroke-opacity:1; fill:none" points="
  182.008,813.71 214.569,813.71 
  "/>
<polyline clip-path="url(#clip5400)" style="stroke:#000000; stroke-width:4; stroke-opacity:1; fill:none" points="
  182.008,562.274 214.569,562.274 
  "/>
<polyline clip-path="url(#clip5400)" style="stroke:#000000; stroke-width:4; stroke-opacity:1; fill:none" points="
  182.008,310.837 214.569,310.837 
  "/>
<g clip-path="url(#clip5400)">
<text style="fill:#000000; fill-opacity:1; font-family:Arial,Helvetica Neue,Helvetica,sans-serif; font-size:48px; text-anchor:middle;" transform="rotate(0, 222.548, 1541.47)" x="222.548" y="1541.47">0</text>
</g>
<g clip-path="url(#clip5400)">
<text style="fill:#000000; fill-opacity:1; font-family:Arial,Helvetica Neue,Helvetica,sans-serif; font-size:48px; text-anchor:middle;" transform="rotate(0, 744.965, 1541.47)" x="744.965" y="1541.47">25</text>
</g>
<g clip-path="url(#clip5400)">
<text style="fill:#000000; fill-opacity:1; font-family:Arial,Helvetica Neue,Helvetica,sans-serif; font-size:48px; text-anchor:middle;" transform="rotate(0, 1267.38, 1541.47)" x="1267.38" y="1541.47">50</text>
</g>
<g clip-path="url(#clip5400)">
<text style="fill:#000000; fill-opacity:1; font-family:Arial,Helvetica Neue,Helvetica,sans-serif; font-size:48px; text-anchor:middle;" transform="rotate(0, 1789.8, 1541.47)" x="1789.8" y="1541.47">75</text>
</g>
<g clip-path="url(#clip5400)">
<text style="fill:#000000; fill-opacity:1; font-family:Arial,Helvetica Neue,Helvetica,sans-serif; font-size:48px; text-anchor:middle;" transform="rotate(0, 2312.22, 1541.47)" x="2312.22" y="1541.47">100</text>
</g>
<g clip-path="url(#clip5400)">
<text style="fill:#000000; fill-opacity:1; font-family:Arial,Helvetica Neue,Helvetica,sans-serif; font-size:48px; text-anchor:end;" transform="rotate(0, 158.008, 1334.08)" x="158.008" y="1334.08">-1.0</text>
</g>
<g clip-path="url(#clip5400)">
<text style="fill:#000000; fill-opacity:1; font-family:Arial,Helvetica Neue,Helvetica,sans-serif; font-size:48px; text-anchor:end;" transform="rotate(0, 158.008, 1082.65)" x="158.008" y="1082.65">-0.5</text>
</g>
<g clip-path="url(#clip5400)">
<text style="fill:#000000; fill-opacity:1; font-family:Arial,Helvetica Neue,Helvetica,sans-serif; font-size:48px; text-anchor:end;" transform="rotate(0, 158.008, 831.21)" x="158.008" y="831.21">0.0</text>
</g>
<g clip-path="url(#clip5400)">
<text style="fill:#000000; fill-opacity:1; font-family:Arial,Helvetica Neue,Helvetica,sans-serif; font-size:48px; text-anchor:end;" transform="rotate(0, 158.008, 579.774)" x="158.008" y="579.774">0.5</text>
</g>
<g clip-path="url(#clip5400)">
<text style="fill:#000000; fill-opacity:1; font-family:Arial,Helvetica Neue,Helvetica,sans-serif; font-size:48px; text-anchor:end;" transform="rotate(0, 158.008, 328.337)" x="158.008" y="328.337">1.0</text>
</g>
<g clip-path="url(#clip5400)">
<text style="fill:#000000; fill-opacity:1; font-family:Arial,Helvetica Neue,Helvetica,sans-serif; font-size:84px; text-anchor:middle;" transform="rotate(0, 1267.38, 73.2)" x="1267.38" y="73.2">b=0.1</text>
</g>
<polyline clip-path="url(#clip5402)" style="stroke:#009af9; stroke-width:4; stroke-opacity:1; fill:none" points="
  243.444,682.273 264.341,838.005 285.238,697.803 306.134,581.784 327.031,640.915 347.928,714.884 368.824,1051.49 389.721,1034.18 410.618,1102.38 431.515,1294.1 
  452.411,971.282 473.308,846.563 494.205,739.776 515.101,777.309 535.998,716.338 556.895,924.747 577.791,343.037 598.688,479.876 619.585,584.901 640.481,213.543 
  661.378,339.798 682.275,189.025 703.171,768.411 724.068,1166.18 744.965,749.966 765.861,662.999 786.758,586.007 807.655,737.568 828.552,508.608 849.448,848.355 
  870.345,681.341 891.242,796.487 912.138,955.938 933.035,1071.38 953.932,427.755 974.828,1072.4 995.725,680.2 1016.62,838.235 1037.52,1060.85 1058.42,676.597 
  1079.31,912.045 1100.21,936.55 1121.11,1090.47 1142,873.489 1162.9,921.032 1183.8,530.015 1204.69,679.237 1225.59,673.659 1246.49,703.223 1267.38,924.532 
  1288.28,1131.33 1309.18,835.104 1330.07,716.851 1350.97,847.598 1371.87,672.03 1392.76,751.154 1413.66,979.261 1434.56,980.073 1455.45,1187.44 1476.35,1071.84 
  1497.25,1100.73 1518.14,1179.1 1539.04,773.253 1559.94,774.037 1580.83,529.441 1601.73,693.079 1622.63,358.562 1643.52,761.134 1664.42,823.657 1685.32,1196.96 
  1706.21,1349.8 1727.11,1208.46 1748.01,1162.4 1768.9,627.143 1789.8,494.882 1810.7,725.14 1831.59,1148.75 1852.49,938.777 1873.39,1106.27 1894.28,882.092 
  1915.18,850.84 1936.08,506.024 1956.97,1041.92 1977.87,1247.97 1998.77,1174.92 2019.66,1448.82 2040.56,1208.72 2061.46,985.501 2082.35,802.591 2103.25,507.456 
  2124.15,989.984 2145.04,739.666 2165.94,268.472 2186.84,467.611 2207.73,673.365 2228.63,983.589 2249.53,750.686 2270.42,581.533 2291.32,1076.81 
  "/>
<polyline clip-path="url(#clip5402)" style="stroke:#e26f46; stroke-width:4; stroke-opacity:1; fill:none" points="
  243.444,682.273 264.341,847.713 285.238,696.843 306.134,589.722 327.031,655.26 347.928,727.865 368.824,1060.2 389.721,998.463 410.618,1060.2 431.515,1238.99 
  452.411,868.811 473.308,793.274 494.205,717.972 515.101,775.026 535.998,717.484 556.895,931.882 577.791,329.97 598.688,475.677 619.585,582.844 640.481,213.241 
  661.378,318.967 682.275,160.33 703.171,714.962 724.068,1122.08 744.965,666.634 765.861,630.151 786.758,578.917 807.655,742.353 828.552,510.94 849.448,857.878 
  870.345,673.841 891.242,800.279 912.138,956.007 933.035,1051.68 953.932,383.902 974.828,1059.57 995.725,628.934 1016.62,822.855 1037.52,1048.88 1058.42,634.81 
  1079.31,904.44 1100.21,919.953 1121.11,1069.39 1142,825.819 1162.9,898.954 1183.8,510.683 1204.69,683.298 1225.59,680 1246.49,711.603 1267.38,932.766 
  1288.28,1117.44 1309.18,779.52 1330.07,694.929 1350.97,846.717 1371.87,666.466 1392.76,758.423 1413.66,985.242 1434.56,958.067 1455.45,1158.87 1476.35,1001.63 
  1497.25,1043.37 1518.14,1120.75 1539.04,698.492 1559.94,749.717 1580.83,522.991 1601.73,700.994 1622.63,364.966 1643.52,764.582 1664.42,817.723 1685.32,1187.81 
  1706.21,1277.97 1727.11,1085.11 1748.01,1062.49 1768.9,544.461 1789.8,470.418 1810.7,720.57 1831.59,1145.27 1852.49,876.788 1873.39,1068.66 1894.28,826.476 
  1915.18,824.773 1936.08,493.554 1956.97,1048.11 1977.87,1210.45 1998.77,1084.58 2019.66,1364.59 2040.56,1055.19 2061.46,876.63 2082.35,745.527 2103.25,487.696 
  2124.15,991.648 2145.04,709.605 2165.94,260.538 2186.84,456.349 2207.73,663.513 2228.63,975.498 2249.53,717.285 2270.42,571.417 2291.32,1082.74 
  "/>
<polygon clip-path="url(#clip5400)" points="
1858.86,386.635 2280.76,386.635 2280.76,205.195 1858.86,205.195 
  " fill="#ffffff" fill-rule="evenodd" fill-opacity="1"/>
<polyline clip-path="url(#clip5400)" style="stroke:#000000; stroke-width:4; stroke-opacity:1; fill:none" points="
  1858.86,386.635 2280.76,386.635 2280.76,205.195 1858.86,205.195 1858.86,386.635 
  "/>
<polyline clip-path="url(#clip5400)" style="stroke:#009af9; stroke-width:4; stroke-opacity:1; fill:none" points="
  1882.86,265.675 2026.86,265.675 
  "/>
<g clip-path="url(#clip5400)">
<text style="fill:#000000; fill-opacity:1; font-family:Arial,Helvetica Neue,Helvetica,sans-serif; font-size:48px; text-anchor:start;" transform="rotate(0, 2050.86, 283.175)" x="2050.86" y="283.175">x_t BKM</text>
</g>
<polyline clip-path="url(#clip5400)" style="stroke:#e26f46; stroke-width:4; stroke-opacity:1; fill:none" points="
  1882.86,326.155 2026.86,326.155 
  "/>
<g clip-path="url(#clip5400)">
<text style="fill:#000000; fill-opacity:1; font-family:Arial,Helvetica Neue,Helvetica,sans-serif; font-size:48px; text-anchor:start;" transform="rotate(0, 2050.86, 343.655)" x="2050.86" y="343.655">x_t true</text>
</g>
</svg>
