<?xml version="1.0" encoding="utf-8" standalone="no"?>
<!DOCTYPE svg PUBLIC "-//W3C//DTD SVG 1.1//EN"
  "http://www.w3.org/Graphics/SVG/1.1/DTD/svg11.dtd">
<!-- Created with matplotlib (http://matplotlib.org/) -->
<svg height="288pt" version="1.1" viewBox="0 0 432 288" width="432pt" xmlns="http://www.w3.org/2000/svg" xmlns:xlink="http://www.w3.org/1999/xlink">
 <defs>
  <style type="text/css">
*{stroke-linecap:butt;stroke-linejoin:round;}
  </style>
 </defs>
 <g id="figure_1">
  <g id="patch_1">
   <path d="M 0 288 
L 432 288 
L 432 0 
L 0 0 
z
" style="fill:#ffffff;"/>
  </g>
  <g id="axes_1">
   <g id="patch_2">
    <path d="M 37.514646 71.229071 
L 423.000354 71.229071 
L 423.000354 2.834646 
L 37.514646 2.834646 
z
" style="fill:#ffffff;"/>
   </g>
   <g id="matplotlib.axis_1">
    <g id="xtick_1">
     <g id="line2d_1">
      <path clip-path="url(#p32f505beca)" d="M 132.433237 71.229071 
L 132.433237 2.834646 
" style="fill:none;opacity:0.1;stroke:#000000;stroke-linecap:square;stroke-width:0.5;"/>
     </g>
     <g id="line2d_2">
      <defs>
       <path d="M 0 0 
L 0 -3.5 
" id="m8066edaa12" style="stroke:#000000;stroke-width:0.8;"/>
      </defs>
      <g>
       <use style="stroke:#000000;stroke-width:0.8;" x="132.433237" xlink:href="#m8066edaa12" y="71.229071"/>
      </g>
     </g>
     <g id="text_1">
      <!-- 50 -->
      <defs>
       <path d="M 10.796875 72.90625 
L 49.515625 72.90625 
L 49.515625 64.59375 
L 19.828125 64.59375 
L 19.828125 46.734375 
Q 21.96875 47.46875 24.109375 47.828125 
Q 26.265625 48.1875 28.421875 48.1875 
Q 40.625 48.1875 47.75 41.5 
Q 54.890625 34.8125 54.890625 23.390625 
Q 54.890625 11.625 47.5625 5.09375 
Q 40.234375 -1.421875 26.90625 -1.421875 
Q 22.3125 -1.421875 17.546875 -0.640625 
Q 12.796875 0.140625 7.71875 1.703125 
L 7.71875 11.625 
Q 12.109375 9.234375 16.796875 8.0625 
Q 21.484375 6.890625 26.703125 6.890625 
Q 35.15625 6.890625 40.078125 11.328125 
Q 45.015625 15.765625 45.015625 23.390625 
Q 45.015625 31 40.078125 35.4375 
Q 35.15625 39.890625 26.703125 39.890625 
Q 22.75 39.890625 18.8125 39.015625 
Q 14.890625 38.140625 10.796875 36.28125 
z
" id="DejaVuSans-35"/>
       <path d="M 31.78125 66.40625 
Q 24.171875 66.40625 20.328125 58.90625 
Q 16.5 51.421875 16.5 36.375 
Q 16.5 21.390625 20.328125 13.890625 
Q 24.171875 6.390625 31.78125 6.390625 
Q 39.453125 6.390625 43.28125 13.890625 
Q 47.125 21.390625 47.125 36.375 
Q 47.125 51.421875 43.28125 58.90625 
Q 39.453125 66.40625 31.78125 66.40625 
M 31.78125 74.21875 
Q 44.046875 74.21875 50.515625 64.515625 
Q 56.984375 54.828125 56.984375 36.375 
Q 56.984375 17.96875 50.515625 8.265625 
Q 44.046875 -1.421875 31.78125 -1.421875 
Q 19.53125 -1.421875 13.0625 8.265625 
Q 6.59375 17.96875 6.59375 36.375 
Q 6.59375 54.828125 13.0625 64.515625 
Q 19.53125 74.21875 31.78125 74.21875 
" id="DejaVuSans-30"/>
      </defs>
      <g transform="translate(127.343237 80.807821)scale(0.08 -0.08)">
       <use xlink:href="#DejaVuSans-35"/>
       <use x="63.623047" xlink:href="#DejaVuSans-30"/>
      </g>
     </g>
    </g>
    <g id="xtick_2">
     <g id="line2d_3">
      <path clip-path="url(#p32f505beca)" d="M 229.288943 71.229071 
L 229.288943 2.834646 
" style="fill:none;opacity:0.1;stroke:#000000;stroke-linecap:square;stroke-width:0.5;"/>
     </g>
     <g id="line2d_4">
      <g>
       <use style="stroke:#000000;stroke-width:0.8;" x="229.288943" xlink:href="#m8066edaa12" y="71.229071"/>
      </g>
     </g>
     <g id="text_2">
      <!-- 100 -->
      <defs>
       <path d="M 12.40625 8.296875 
L 28.515625 8.296875 
L 28.515625 63.921875 
L 10.984375 60.40625 
L 10.984375 69.390625 
L 28.421875 72.90625 
L 38.28125 72.90625 
L 38.28125 8.296875 
L 54.390625 8.296875 
L 54.390625 0 
L 12.40625 0 
z
" id="DejaVuSans-31"/>
      </defs>
      <g transform="translate(221.653943 80.807821)scale(0.08 -0.08)">
       <use xlink:href="#DejaVuSans-31"/>
       <use x="63.623047" xlink:href="#DejaVuSans-30"/>
       <use x="127.246094" xlink:href="#DejaVuSans-30"/>
      </g>
     </g>
    </g>
    <g id="xtick_3">
     <g id="line2d_5">
      <path clip-path="url(#p32f505beca)" d="M 326.144649 71.229071 
L 326.144649 2.834646 
" style="fill:none;opacity:0.1;stroke:#000000;stroke-linecap:square;stroke-width:0.5;"/>
     </g>
     <g id="line2d_6">
      <g>
       <use style="stroke:#000000;stroke-width:0.8;" x="326.144649" xlink:href="#m8066edaa12" y="71.229071"/>
      </g>
     </g>
     <g id="text_3">
      <!-- 150 -->
      <g transform="translate(318.509649 80.807821)scale(0.08 -0.08)">
       <use xlink:href="#DejaVuSans-31"/>
       <use x="63.623047" xlink:href="#DejaVuSans-35"/>
       <use x="127.246094" xlink:href="#DejaVuSans-30"/>
      </g>
     </g>
    </g>
    <g id="xtick_4">
     <g id="line2d_7">
      <path clip-path="url(#p32f505beca)" d="M 423.000354 71.229071 
L 423.000354 2.834646 
" style="fill:none;opacity:0.1;stroke:#000000;stroke-linecap:square;stroke-width:0.5;"/>
     </g>
     <g id="line2d_8">
      <g>
       <use style="stroke:#000000;stroke-width:0.8;" x="423.000354" xlink:href="#m8066edaa12" y="71.229071"/>
      </g>
     </g>
     <g id="text_4">
      <!-- 200 -->
      <defs>
       <path d="M 19.1875 8.296875 
L 53.609375 8.296875 
L 53.609375 0 
L 7.328125 0 
L 7.328125 8.296875 
Q 12.9375 14.109375 22.625 23.890625 
Q 32.328125 33.6875 34.8125 36.53125 
Q 39.546875 41.84375 41.421875 45.53125 
Q 43.3125 49.21875 43.3125 52.78125 
Q 43.3125 58.59375 39.234375 62.25 
Q 35.15625 65.921875 28.609375 65.921875 
Q 23.96875 65.921875 18.8125 64.3125 
Q 13.671875 62.703125 7.8125 59.421875 
L 7.8125 69.390625 
Q 13.765625 71.78125 18.9375 73 
Q 24.125 74.21875 28.421875 74.21875 
Q 39.75 74.21875 46.484375 68.546875 
Q 53.21875 62.890625 53.21875 53.421875 
Q 53.21875 48.921875 51.53125 44.890625 
Q 49.859375 40.875 45.40625 35.40625 
Q 44.1875 33.984375 37.640625 27.21875 
Q 31.109375 20.453125 19.1875 8.296875 
" id="DejaVuSans-32"/>
      </defs>
      <g transform="translate(415.365354 80.807821)scale(0.08 -0.08)">
       <use xlink:href="#DejaVuSans-32"/>
       <use x="63.623047" xlink:href="#DejaVuSans-30"/>
       <use x="127.246094" xlink:href="#DejaVuSans-30"/>
      </g>
     </g>
    </g>
    <g id="text_5">
     <!-- iteration -->
     <defs>
      <path d="M 9.421875 54.6875 
L 18.40625 54.6875 
L 18.40625 0 
L 9.421875 0 
z
M 9.421875 75.984375 
L 18.40625 75.984375 
L 18.40625 64.59375 
L 9.421875 64.59375 
z
" id="DejaVuSans-69"/>
      <path d="M 18.3125 70.21875 
L 18.3125 54.6875 
L 36.8125 54.6875 
L 36.8125 47.703125 
L 18.3125 47.703125 
L 18.3125 18.015625 
Q 18.3125 11.328125 20.140625 9.421875 
Q 21.96875 7.515625 27.59375 7.515625 
L 36.8125 7.515625 
L 36.8125 0 
L 27.59375 0 
Q 17.1875 0 13.234375 3.875 
Q 9.28125 7.765625 9.28125 18.015625 
L 9.28125 47.703125 
L 2.6875 47.703125 
L 2.6875 54.6875 
L 9.28125 54.6875 
L 9.28125 70.21875 
z
" id="DejaVuSans-74"/>
      <path d="M 56.203125 29.59375 
L 56.203125 25.203125 
L 14.890625 25.203125 
Q 15.484375 15.921875 20.484375 11.0625 
Q 25.484375 6.203125 34.421875 6.203125 
Q 39.59375 6.203125 44.453125 7.46875 
Q 49.3125 8.734375 54.109375 11.28125 
L 54.109375 2.78125 
Q 49.265625 0.734375 44.1875 -0.34375 
Q 39.109375 -1.421875 33.890625 -1.421875 
Q 20.796875 -1.421875 13.15625 6.1875 
Q 5.515625 13.8125 5.515625 26.8125 
Q 5.515625 40.234375 12.765625 48.109375 
Q 20.015625 56 32.328125 56 
Q 43.359375 56 49.78125 48.890625 
Q 56.203125 41.796875 56.203125 29.59375 
M 47.21875 32.234375 
Q 47.125 39.59375 43.09375 43.984375 
Q 39.0625 48.390625 32.421875 48.390625 
Q 24.90625 48.390625 20.390625 44.140625 
Q 15.875 39.890625 15.1875 32.171875 
z
" id="DejaVuSans-65"/>
      <path d="M 41.109375 46.296875 
Q 39.59375 47.171875 37.8125 47.578125 
Q 36.03125 48 33.890625 48 
Q 26.265625 48 22.1875 43.046875 
Q 18.109375 38.09375 18.109375 28.8125 
L 18.109375 0 
L 9.078125 0 
L 9.078125 54.6875 
L 18.109375 54.6875 
L 18.109375 46.1875 
Q 20.953125 51.171875 25.484375 53.578125 
Q 30.03125 56 36.53125 56 
Q 37.453125 56 38.578125 55.875 
Q 39.703125 55.765625 41.0625 55.515625 
z
" id="DejaVuSans-72"/>
      <path d="M 34.28125 27.484375 
Q 23.390625 27.484375 19.1875 25 
Q 14.984375 22.515625 14.984375 16.5 
Q 14.984375 11.71875 18.140625 8.90625 
Q 21.296875 6.109375 26.703125 6.109375 
Q 34.1875 6.109375 38.703125 11.40625 
Q 43.21875 16.703125 43.21875 25.484375 
L 43.21875 27.484375 
z
M 52.203125 31.203125 
L 52.203125 0 
L 43.21875 0 
L 43.21875 8.296875 
Q 40.140625 3.328125 35.546875 0.953125 
Q 30.953125 -1.421875 24.3125 -1.421875 
Q 15.921875 -1.421875 10.953125 3.296875 
Q 6 8.015625 6 15.921875 
Q 6 25.140625 12.171875 29.828125 
Q 18.359375 34.515625 30.609375 34.515625 
L 43.21875 34.515625 
L 43.21875 35.40625 
Q 43.21875 41.609375 39.140625 45 
Q 35.0625 48.390625 27.6875 48.390625 
Q 23 48.390625 18.546875 47.265625 
Q 14.109375 46.140625 10.015625 43.890625 
L 10.015625 52.203125 
Q 14.9375 54.109375 19.578125 55.046875 
Q 24.21875 56 28.609375 56 
Q 40.484375 56 46.34375 49.84375 
Q 52.203125 43.703125 52.203125 31.203125 
" id="DejaVuSans-61"/>
      <path d="M 30.609375 48.390625 
Q 23.390625 48.390625 19.1875 42.75 
Q 14.984375 37.109375 14.984375 27.296875 
Q 14.984375 17.484375 19.15625 11.84375 
Q 23.34375 6.203125 30.609375 6.203125 
Q 37.796875 6.203125 41.984375 11.859375 
Q 46.1875 17.53125 46.1875 27.296875 
Q 46.1875 37.015625 41.984375 42.703125 
Q 37.796875 48.390625 30.609375 48.390625 
M 30.609375 56 
Q 42.328125 56 49.015625 48.375 
Q 55.71875 40.765625 55.71875 27.296875 
Q 55.71875 13.875 49.015625 6.21875 
Q 42.328125 -1.421875 30.609375 -1.421875 
Q 18.84375 -1.421875 12.171875 6.21875 
Q 5.515625 13.875 5.515625 27.296875 
Q 5.515625 40.765625 12.171875 48.375 
Q 18.84375 56 30.609375 56 
" id="DejaVuSans-6f"/>
      <path d="M 54.890625 33.015625 
L 54.890625 0 
L 45.90625 0 
L 45.90625 32.71875 
Q 45.90625 40.484375 42.875 44.328125 
Q 39.84375 48.1875 33.796875 48.1875 
Q 26.515625 48.1875 22.3125 43.546875 
Q 18.109375 38.921875 18.109375 30.90625 
L 18.109375 0 
L 9.078125 0 
L 9.078125 54.6875 
L 18.109375 54.6875 
L 18.109375 46.1875 
Q 21.34375 51.125 25.703125 53.5625 
Q 30.078125 56 35.796875 56 
Q 45.21875 56 50.046875 50.171875 
Q 54.890625 44.34375 54.890625 33.015625 
" id="DejaVuSans-6e"/>
     </defs>
     <g transform="translate(207.022578 94.829852)scale(0.11 -0.11)">
      <use xlink:href="#DejaVuSans-69"/>
      <use x="27.783203" xlink:href="#DejaVuSans-74"/>
      <use x="66.992188" xlink:href="#DejaVuSans-65"/>
      <use x="128.515625" xlink:href="#DejaVuSans-72"/>
      <use x="169.628906" xlink:href="#DejaVuSans-61"/>
      <use x="230.908203" xlink:href="#DejaVuSans-74"/>
      <use x="270.117188" xlink:href="#DejaVuSans-69"/>
      <use x="297.900391" xlink:href="#DejaVuSans-6f"/>
      <use x="359.082031" xlink:href="#DejaVuSans-6e"/>
     </g>
    </g>
   </g>
   <g id="matplotlib.axis_2">
    <g id="ytick_1">
     <g id="line2d_9">
      <path clip-path="url(#p32f505beca)" d="M 37.514646 69.012982 
L 423.000354 69.012982 
" style="fill:none;opacity:0.1;stroke:#000000;stroke-linecap:square;stroke-width:0.5;"/>
     </g>
     <g id="line2d_10">
      <defs>
       <path d="M 0 0 
L 3.5 0 
" id="mdb39048f24" style="stroke:#000000;stroke-width:0.8;"/>
      </defs>
      <g>
       <use style="stroke:#000000;stroke-width:0.8;" x="37.514646" xlink:href="#mdb39048f24" y="69.012982"/>
      </g>
     </g>
     <g id="text_6">
      <!-- 0.00 -->
      <defs>
       <path d="M 10.6875 12.40625 
L 21 12.40625 
L 21 0 
L 10.6875 0 
z
" id="DejaVuSans-2e"/>
      </defs>
      <g transform="translate(16.202146 72.052357)scale(0.08 -0.08)">
       <use xlink:href="#DejaVuSans-30"/>
       <use x="63.623047" xlink:href="#DejaVuSans-2e"/>
       <use x="95.410156" xlink:href="#DejaVuSans-30"/>
       <use x="159.033203" xlink:href="#DejaVuSans-30"/>
      </g>
     </g>
    </g>
    <g id="ytick_2">
     <g id="line2d_11">
      <path clip-path="url(#p32f505beca)" d="M 37.514646 52.805641 
L 423.000354 52.805641 
" style="fill:none;opacity:0.1;stroke:#000000;stroke-linecap:square;stroke-width:0.5;"/>
     </g>
     <g id="line2d_12">
      <g>
       <use style="stroke:#000000;stroke-width:0.8;" x="37.514646" xlink:href="#mdb39048f24" y="52.805641"/>
      </g>
     </g>
     <g id="text_7">
      <!-- 0.02 -->
      <g transform="translate(16.202146 55.845016)scale(0.08 -0.08)">
       <use xlink:href="#DejaVuSans-30"/>
       <use x="63.623047" xlink:href="#DejaVuSans-2e"/>
       <use x="95.410156" xlink:href="#DejaVuSans-30"/>
       <use x="159.033203" xlink:href="#DejaVuSans-32"/>
      </g>
     </g>
    </g>
    <g id="ytick_3">
     <g id="line2d_13">
      <path clip-path="url(#p32f505beca)" d="M 37.514646 36.598299 
L 423.000354 36.598299 
" style="fill:none;opacity:0.1;stroke:#000000;stroke-linecap:square;stroke-width:0.5;"/>
     </g>
     <g id="line2d_14">
      <g>
       <use style="stroke:#000000;stroke-width:0.8;" x="37.514646" xlink:href="#mdb39048f24" y="36.598299"/>
      </g>
     </g>
     <g id="text_8">
      <!-- 0.04 -->
      <defs>
       <path d="M 37.796875 64.3125 
L 12.890625 25.390625 
L 37.796875 25.390625 
z
M 35.203125 72.90625 
L 47.609375 72.90625 
L 47.609375 25.390625 
L 58.015625 25.390625 
L 58.015625 17.1875 
L 47.609375 17.1875 
L 47.609375 0 
L 37.796875 0 
L 37.796875 17.1875 
L 4.890625 17.1875 
L 4.890625 26.703125 
z
" id="DejaVuSans-34"/>
      </defs>
      <g transform="translate(16.202146 39.637674)scale(0.08 -0.08)">
       <use xlink:href="#DejaVuSans-30"/>
       <use x="63.623047" xlink:href="#DejaVuSans-2e"/>
       <use x="95.410156" xlink:href="#DejaVuSans-30"/>
       <use x="159.033203" xlink:href="#DejaVuSans-34"/>
      </g>
     </g>
    </g>
    <g id="ytick_4">
     <g id="line2d_15">
      <path clip-path="url(#p32f505beca)" d="M 37.514646 20.390958 
L 423.000354 20.390958 
" style="fill:none;opacity:0.1;stroke:#000000;stroke-linecap:square;stroke-width:0.5;"/>
     </g>
     <g id="line2d_16">
      <g>
       <use style="stroke:#000000;stroke-width:0.8;" x="37.514646" xlink:href="#mdb39048f24" y="20.390958"/>
      </g>
     </g>
     <g id="text_9">
      <!-- 0.06 -->
      <defs>
       <path d="M 33.015625 40.375 
Q 26.375 40.375 22.484375 35.828125 
Q 18.609375 31.296875 18.609375 23.390625 
Q 18.609375 15.53125 22.484375 10.953125 
Q 26.375 6.390625 33.015625 6.390625 
Q 39.65625 6.390625 43.53125 10.953125 
Q 47.40625 15.53125 47.40625 23.390625 
Q 47.40625 31.296875 43.53125 35.828125 
Q 39.65625 40.375 33.015625 40.375 
M 52.59375 71.296875 
L 52.59375 62.3125 
Q 48.875 64.0625 45.09375 64.984375 
Q 41.3125 65.921875 37.59375 65.921875 
Q 27.828125 65.921875 22.671875 59.328125 
Q 17.53125 52.734375 16.796875 39.40625 
Q 19.671875 43.65625 24.015625 45.921875 
Q 28.375 48.1875 33.59375 48.1875 
Q 44.578125 48.1875 50.953125 41.515625 
Q 57.328125 34.859375 57.328125 23.390625 
Q 57.328125 12.15625 50.6875 5.359375 
Q 44.046875 -1.421875 33.015625 -1.421875 
Q 20.359375 -1.421875 13.671875 8.265625 
Q 6.984375 17.96875 6.984375 36.375 
Q 6.984375 53.65625 15.1875 63.9375 
Q 23.390625 74.21875 37.203125 74.21875 
Q 40.921875 74.21875 44.703125 73.484375 
Q 48.484375 72.75 52.59375 71.296875 
" id="DejaVuSans-36"/>
      </defs>
      <g transform="translate(16.202146 23.430333)scale(0.08 -0.08)">
       <use xlink:href="#DejaVuSans-30"/>
       <use x="63.623047" xlink:href="#DejaVuSans-2e"/>
       <use x="95.410156" xlink:href="#DejaVuSans-30"/>
       <use x="159.033203" xlink:href="#DejaVuSans-36"/>
      </g>
     </g>
    </g>
    <g id="ytick_5">
     <g id="line2d_17">
      <path clip-path="url(#p32f505beca)" d="M 37.514646 4.183617 
L 423.000354 4.183617 
" style="fill:none;opacity:0.1;stroke:#000000;stroke-linecap:square;stroke-width:0.5;"/>
     </g>
     <g id="line2d_18">
      <g>
       <use style="stroke:#000000;stroke-width:0.8;" x="37.514646" xlink:href="#mdb39048f24" y="4.183617"/>
      </g>
     </g>
     <g id="text_10">
      <!-- 0.08 -->
      <defs>
       <path d="M 31.78125 34.625 
Q 24.75 34.625 20.71875 30.859375 
Q 16.703125 27.09375 16.703125 20.515625 
Q 16.703125 13.921875 20.71875 10.15625 
Q 24.75 6.390625 31.78125 6.390625 
Q 38.8125 6.390625 42.859375 10.171875 
Q 46.921875 13.96875 46.921875 20.515625 
Q 46.921875 27.09375 42.890625 30.859375 
Q 38.875 34.625 31.78125 34.625 
M 21.921875 38.8125 
Q 15.578125 40.375 12.03125 44.71875 
Q 8.5 49.078125 8.5 55.328125 
Q 8.5 64.0625 14.71875 69.140625 
Q 20.953125 74.21875 31.78125 74.21875 
Q 42.671875 74.21875 48.875 69.140625 
Q 55.078125 64.0625 55.078125 55.328125 
Q 55.078125 49.078125 51.53125 44.71875 
Q 48 40.375 41.703125 38.8125 
Q 48.828125 37.15625 52.796875 32.3125 
Q 56.78125 27.484375 56.78125 20.515625 
Q 56.78125 9.90625 50.3125 4.234375 
Q 43.84375 -1.421875 31.78125 -1.421875 
Q 19.734375 -1.421875 13.25 4.234375 
Q 6.78125 9.90625 6.78125 20.515625 
Q 6.78125 27.484375 10.78125 32.3125 
Q 14.796875 37.15625 21.921875 38.8125 
M 18.3125 54.390625 
Q 18.3125 48.734375 21.84375 45.5625 
Q 25.390625 42.390625 31.78125 42.390625 
Q 38.140625 42.390625 41.71875 45.5625 
Q 45.3125 48.734375 45.3125 54.390625 
Q 45.3125 60.0625 41.71875 63.234375 
Q 38.140625 66.40625 31.78125 66.40625 
Q 25.390625 66.40625 21.84375 63.234375 
Q 18.3125 60.0625 18.3125 54.390625 
" id="DejaVuSans-38"/>
      </defs>
      <g transform="translate(16.202146 7.222992)scale(0.08 -0.08)">
       <use xlink:href="#DejaVuSans-30"/>
       <use x="63.623047" xlink:href="#DejaVuSans-2e"/>
       <use x="95.410156" xlink:href="#DejaVuSans-30"/>
       <use x="159.033203" xlink:href="#DejaVuSans-38"/>
      </g>
     </g>
    </g>
    <g id="text_11">
     <!-- Obj Value -->
     <defs>
      <path d="M 39.40625 66.21875 
Q 28.65625 66.21875 22.328125 58.203125 
Q 16.015625 50.203125 16.015625 36.375 
Q 16.015625 22.609375 22.328125 14.59375 
Q 28.65625 6.59375 39.40625 6.59375 
Q 50.140625 6.59375 56.421875 14.59375 
Q 62.703125 22.609375 62.703125 36.375 
Q 62.703125 50.203125 56.421875 58.203125 
Q 50.140625 66.21875 39.40625 66.21875 
M 39.40625 74.21875 
Q 54.734375 74.21875 63.90625 63.9375 
Q 73.09375 53.65625 73.09375 36.375 
Q 73.09375 19.140625 63.90625 8.859375 
Q 54.734375 -1.421875 39.40625 -1.421875 
Q 24.03125 -1.421875 14.8125 8.828125 
Q 5.609375 19.09375 5.609375 36.375 
Q 5.609375 53.65625 14.8125 63.9375 
Q 24.03125 74.21875 39.40625 74.21875 
" id="DejaVuSans-4f"/>
      <path d="M 48.6875 27.296875 
Q 48.6875 37.203125 44.609375 42.84375 
Q 40.53125 48.484375 33.40625 48.484375 
Q 26.265625 48.484375 22.1875 42.84375 
Q 18.109375 37.203125 18.109375 27.296875 
Q 18.109375 17.390625 22.1875 11.75 
Q 26.265625 6.109375 33.40625 6.109375 
Q 40.53125 6.109375 44.609375 11.75 
Q 48.6875 17.390625 48.6875 27.296875 
M 18.109375 46.390625 
Q 20.953125 51.265625 25.265625 53.625 
Q 29.59375 56 35.59375 56 
Q 45.5625 56 51.78125 48.09375 
Q 58.015625 40.1875 58.015625 27.296875 
Q 58.015625 14.40625 51.78125 6.484375 
Q 45.5625 -1.421875 35.59375 -1.421875 
Q 29.59375 -1.421875 25.265625 0.953125 
Q 20.953125 3.328125 18.109375 8.203125 
L 18.109375 0 
L 9.078125 0 
L 9.078125 75.984375 
L 18.109375 75.984375 
z
" id="DejaVuSans-62"/>
      <path d="M 9.421875 54.6875 
L 18.40625 54.6875 
L 18.40625 -0.984375 
Q 18.40625 -11.421875 14.421875 -16.109375 
Q 10.453125 -20.796875 1.609375 -20.796875 
L -1.8125 -20.796875 
L -1.8125 -13.1875 
L 0.59375 -13.1875 
Q 5.71875 -13.1875 7.5625 -10.8125 
Q 9.421875 -8.453125 9.421875 -0.984375 
z
M 9.421875 75.984375 
L 18.40625 75.984375 
L 18.40625 64.59375 
L 9.421875 64.59375 
z
" id="DejaVuSans-6a"/>
      <path id="DejaVuSans-20"/>
      <path d="M 28.609375 0 
L 0.78125 72.90625 
L 11.078125 72.90625 
L 34.1875 11.53125 
L 57.328125 72.90625 
L 67.578125 72.90625 
L 39.796875 0 
z
" id="DejaVuSans-56"/>
      <path d="M 9.421875 75.984375 
L 18.40625 75.984375 
L 18.40625 0 
L 9.421875 0 
z
" id="DejaVuSans-6c"/>
      <path d="M 8.5 21.578125 
L 8.5 54.6875 
L 17.484375 54.6875 
L 17.484375 21.921875 
Q 17.484375 14.15625 20.5 10.265625 
Q 23.53125 6.390625 29.59375 6.390625 
Q 36.859375 6.390625 41.078125 11.03125 
Q 45.3125 15.671875 45.3125 23.6875 
L 45.3125 54.6875 
L 54.296875 54.6875 
L 54.296875 0 
L 45.3125 0 
L 45.3125 8.40625 
Q 42.046875 3.421875 37.71875 1 
Q 33.40625 -1.421875 27.6875 -1.421875 
Q 18.265625 -1.421875 13.375 4.4375 
Q 8.5 10.296875 8.5 21.578125 
M 31.109375 56 
z
" id="DejaVuSans-75"/>
     </defs>
     <g transform="translate(9.914489 63.653577)rotate(-90)scale(0.11 -0.11)">
      <use xlink:href="#DejaVuSans-4f"/>
      <use x="78.710938" xlink:href="#DejaVuSans-62"/>
      <use x="142.1875" xlink:href="#DejaVuSans-6a"/>
      <use x="169.970703" xlink:href="#DejaVuSans-20"/>
      <use x="201.757812" xlink:href="#DejaVuSans-56"/>
      <use x="270.056641" xlink:href="#DejaVuSans-61"/>
      <use x="331.335938" xlink:href="#DejaVuSans-6c"/>
      <use x="359.119141" xlink:href="#DejaVuSans-75"/>
      <use x="422.498047" xlink:href="#DejaVuSans-65"/>
     </g>
    </g>
   </g>
   <g id="line2d_19">
    <path clip-path="url(#p32f505beca)" d="M 37.514646 8.781987 
L 423.000354 8.781987 
L 423.000354 8.781987 
" style="fill:none;stroke:#ff0000;stroke-linecap:round;stroke-width:1.5;"/>
   </g>
   <g id="line2d_20">
    <path clip-path="url(#p32f505beca)" d="M 80.14469 -1 
L 82.06827 19.557059 
L 84.005384 65.784034 
L 85.942499 58.86637 
L 87.879613 58.86637 
L 89.816727 60.250032 
L 91.753841 58.86637 
L 93.690955 40.007315 
L 95.628069 22.479344 
L 97.565183 58.417786 
L 99.502297 22.479344 
L 101.129316 -1 
M 101.657508 -1 
L 103.376526 34.271232 
L 105.31364 34.002141 
L 107.250754 34.002141 
L 109.187868 67.533074 
L 111.124982 67.593253 
L 113.062096 60.776316 
L 114.99921 28.990412 
L 116.936324 60.786075 
L 118.873438 48.66734 
L 120.810553 23.617076 
L 122.747667 26.899041 
L 124.684781 57.49762 
L 126.030998 -1 
M 127.478339 -1 
L 128.559009 31.398803 
L 130.496123 26.814227 
L 132.085575 -1 
M 132.671822 -1 
L 134.370351 42.311852 
L 135.530503 -1 
M 141.659418 -1 
L 142.118808 19.193825 
L 142.521896 -1 
M 167.027881 -1 
L 167.301291 20.219855 
L 169.238405 67.082963 
L 170.936753 -1 
M 171.548361 -1 
L 173.112634 39.158165 
L 175.049748 20.219855 
L 176.986862 20.219855 
L 178.923976 53.899724 
L 180.76261 -1 
M 181.027485 -1 
L 182.798204 30.292116 
L 184.735318 27.132008 
L 186.672432 -0.157947 
L 188.609547 20.219855 
L 189.406887 -1 
M 199.543104 -1 
L 202.169345 68.2554 
L 204.106459 57.377205 
L 206.043574 68.2554 
L 207.980688 36.883607 
L 209.917802 23.571687 
L 211.854916 68.2554 
L 213.79203 41.132111 
L 215.729144 39.319275 
L 217.666258 63.868858 
L 219.603372 37.445469 
L 221.540486 63.868858 
L 223.477601 37.445469 
L 225.414715 53.852685 
L 227.351829 53.852685 
L 229.288943 33.966751 
L 231.226057 25.024828 
L 233.163171 56.293309 
L 235.100285 57.464848 
L 237.037399 57.314169 
L 238.974514 57.314169 
L 240.911628 55.228688 
L 242.848742 50.759278 
L 244.785856 41.309833 
L 246.72297 17.867658 
L 248.660084 47.897185 
L 250.597198 61.354395 
L 252.534312 41.922531 
L 254.471426 41.922531 
L 256.408541 67.301076 
L 258.345655 29.351829 
L 260.007807 -1 
M 260.924974 -1 
L 262.219883 9.124 
L 264.156997 67.301076 
L 266.094111 67.314495 
L 268.031225 27.807189 
L 269.968339 51.898691 
L 271.905453 44.389457 
L 273.842568 44.389457 
L 275.779682 61.940956 
L 277.716796 21.319695 
L 279.65391 0.857057 
L 281.591024 21.319695 
L 283.528138 0.857057 
L 285.465252 47.936642 
L 287.402366 61.948773 
L 289.113252 -1 
M 290.247171 -1 
L 291.276595 8.439974 
L 295.150823 8.439974 
L 296.057169 -1 
M 299.951035 -1 
L 300.962165 10.72306 
L 302.442931 -1 
M 303.037619 -1 
L 304.836393 45.976717 
L 306.773507 53.657821 
L 308.710622 47.637842 
L 310.386027 -1 
M 353.957107 -1 
L 355.20136 9.897762 
L 357.138474 9.897762 
L 359.075589 58.6511 
L 361.012703 40.626566 
L 362.949817 14.594646 
L 364.886931 58.976249 
L 366.824045 40.626566 
L 368.188309 -1 
M 370.065588 -1 
L 370.698273 7.47776 
L 372.635387 23.454846 
L 374.572501 7.422909 
L 376.509616 23.454846 
L 378.44673 7.422909 
L 380.383844 29.326604 
L 382.320958 14.453676 
L 384.258072 29.326604 
L 385.000719 -1 
M 406.278513 -1 
L 407.503441 65.835015 
L 409.440556 65.835015 
L 411.37767 67.79454 
L 413.314784 60.678256 
L 415.251898 29.178096 
L 417.189012 50.671588 
L 419.057828 -1 
M 421.463412 -1 
L 423.000354 6.252818 
L 423.000354 6.252818 
" style="fill:none;stroke:#000000;stroke-linecap:round;"/>
   </g>
   <g id="patch_3">
    <path d="M 37.514646 71.229071 
L 37.514646 2.834646 
" style="fill:none;stroke:#000000;stroke-linecap:square;stroke-linejoin:miter;stroke-width:0.8;"/>
   </g>
   <g id="patch_4">
    <path d="M 37.514646 71.229071 
L 423.000354 71.229071 
" style="fill:none;stroke:#000000;stroke-linecap:square;stroke-linejoin:miter;stroke-width:0.8;"/>
   </g>
  </g>
  <g id="axes_2">
   <g id="patch_5">
    <path d="M 37.514646 275.905354 
L 218.562854 275.905354 
L 218.562854 116.318362 
L 37.514646 116.318362 
z
" style="fill:#ffffff;"/>
   </g>
   <g id="matplotlib.axis_3">
    <g id="xtick_5">
     <g id="line2d_21">
      <path clip-path="url(#p035333a37a)" d="M 59.424938 275.905354 
L 59.424938 116.318362 
" style="fill:none;opacity:0.1;stroke:#000000;stroke-linecap:square;stroke-width:0.5;"/>
     </g>
     <g id="line2d_22">
      <g>
       <use style="stroke:#000000;stroke-width:0.8;" x="59.424938" xlink:href="#m8066edaa12" y="275.905354"/>
      </g>
     </g>
     <g id="text_12">
      <!-- 20 -->
      <g transform="translate(54.334938 285.484104)scale(0.08 -0.08)">
       <use xlink:href="#DejaVuSans-32"/>
       <use x="63.623047" xlink:href="#DejaVuSans-30"/>
      </g>
     </g>
    </g>
    <g id="xtick_6">
     <g id="line2d_23">
      <path clip-path="url(#p035333a37a)" d="M 82.488405 275.905354 
L 82.488405 116.318362 
" style="fill:none;opacity:0.1;stroke:#000000;stroke-linecap:square;stroke-width:0.5;"/>
     </g>
     <g id="line2d_24">
      <g>
       <use style="stroke:#000000;stroke-width:0.8;" x="82.488405" xlink:href="#m8066edaa12" y="275.905354"/>
      </g>
     </g>
     <g id="text_13">
      <!-- 40 -->
      <g transform="translate(77.398405 285.484104)scale(0.08 -0.08)">
       <use xlink:href="#DejaVuSans-34"/>
       <use x="63.623047" xlink:href="#DejaVuSans-30"/>
      </g>
     </g>
    </g>
    <g id="xtick_7">
     <g id="line2d_25">
      <path clip-path="url(#p035333a37a)" d="M 105.551871 275.905354 
L 105.551871 116.318362 
" style="fill:none;opacity:0.1;stroke:#000000;stroke-linecap:square;stroke-width:0.5;"/>
     </g>
     <g id="line2d_26">
      <g>
       <use style="stroke:#000000;stroke-width:0.8;" x="105.551871" xlink:href="#m8066edaa12" y="275.905354"/>
      </g>
     </g>
     <g id="text_14">
      <!-- 60 -->
      <g transform="translate(100.461871 285.484104)scale(0.08 -0.08)">
       <use xlink:href="#DejaVuSans-36"/>
       <use x="63.623047" xlink:href="#DejaVuSans-30"/>
      </g>
     </g>
    </g>
    <g id="xtick_8">
     <g id="line2d_27">
      <path clip-path="url(#p035333a37a)" d="M 128.615337 275.905354 
L 128.615337 116.318362 
" style="fill:none;opacity:0.1;stroke:#000000;stroke-linecap:square;stroke-width:0.5;"/>
     </g>
     <g id="line2d_28">
      <g>
       <use style="stroke:#000000;stroke-width:0.8;" x="128.615337" xlink:href="#m8066edaa12" y="275.905354"/>
      </g>
     </g>
     <g id="text_15">
      <!-- 80 -->
      <g transform="translate(123.525337 285.484104)scale(0.08 -0.08)">
       <use xlink:href="#DejaVuSans-38"/>
       <use x="63.623047" xlink:href="#DejaVuSans-30"/>
      </g>
     </g>
    </g>
    <g id="xtick_9">
     <g id="line2d_29">
      <path clip-path="url(#p035333a37a)" d="M 151.678803 275.905354 
L 151.678803 116.318362 
" style="fill:none;opacity:0.1;stroke:#000000;stroke-linecap:square;stroke-width:0.5;"/>
     </g>
     <g id="line2d_30">
      <g>
       <use style="stroke:#000000;stroke-width:0.8;" x="151.678803" xlink:href="#m8066edaa12" y="275.905354"/>
      </g>
     </g>
     <g id="text_16">
      <!-- 100 -->
      <g transform="translate(144.043803 285.484104)scale(0.08 -0.08)">
       <use xlink:href="#DejaVuSans-31"/>
       <use x="63.623047" xlink:href="#DejaVuSans-30"/>
       <use x="127.246094" xlink:href="#DejaVuSans-30"/>
      </g>
     </g>
    </g>
    <g id="xtick_10">
     <g id="line2d_31">
      <path clip-path="url(#p035333a37a)" d="M 174.742269 275.905354 
L 174.742269 116.318362 
" style="fill:none;opacity:0.1;stroke:#000000;stroke-linecap:square;stroke-width:0.5;"/>
     </g>
     <g id="line2d_32">
      <g>
       <use style="stroke:#000000;stroke-width:0.8;" x="174.742269" xlink:href="#m8066edaa12" y="275.905354"/>
      </g>
     </g>
     <g id="text_17">
      <!-- 120 -->
      <g transform="translate(167.107269 285.484104)scale(0.08 -0.08)">
       <use xlink:href="#DejaVuSans-31"/>
       <use x="63.623047" xlink:href="#DejaVuSans-32"/>
       <use x="127.246094" xlink:href="#DejaVuSans-30"/>
      </g>
     </g>
    </g>
    <g id="xtick_11">
     <g id="line2d_33">
      <path clip-path="url(#p035333a37a)" d="M 197.805735 275.905354 
L 197.805735 116.318362 
" style="fill:none;opacity:0.1;stroke:#000000;stroke-linecap:square;stroke-width:0.5;"/>
     </g>
     <g id="line2d_34">
      <g>
       <use style="stroke:#000000;stroke-width:0.8;" x="197.805735" xlink:href="#m8066edaa12" y="275.905354"/>
      </g>
     </g>
     <g id="text_18">
      <!-- 140 -->
      <g transform="translate(190.170735 285.484104)scale(0.08 -0.08)">
       <use xlink:href="#DejaVuSans-31"/>
       <use x="63.623047" xlink:href="#DejaVuSans-34"/>
       <use x="127.246094" xlink:href="#DejaVuSans-30"/>
      </g>
     </g>
    </g>
   </g>
   <g id="matplotlib.axis_4">
    <g id="ytick_6">
     <g id="line2d_35">
      <path clip-path="url(#p035333a37a)" d="M 37.514646 255.957162 
L 218.562854 255.957162 
" style="fill:none;opacity:0.1;stroke:#000000;stroke-linecap:square;stroke-width:0.5;"/>
     </g>
     <g id="line2d_36">
      <g>
       <use style="stroke:#000000;stroke-width:0.8;" x="37.514646" xlink:href="#mdb39048f24" y="255.957162"/>
      </g>
     </g>
     <g id="text_19">
      <!-- 0.25 -->
      <g transform="translate(16.202146 258.996537)scale(0.08 -0.08)">
       <use xlink:href="#DejaVuSans-30"/>
       <use x="63.623047" xlink:href="#DejaVuSans-2e"/>
       <use x="95.410156" xlink:href="#DejaVuSans-32"/>
       <use x="159.033203" xlink:href="#DejaVuSans-35"/>
      </g>
     </g>
    </g>
    <g id="ytick_7">
     <g id="line2d_37">
      <path clip-path="url(#p035333a37a)" d="M 37.514646 234.845235 
L 218.562854 234.845235 
" style="fill:none;opacity:0.1;stroke:#000000;stroke-linecap:square;stroke-width:0.5;"/>
     </g>
     <g id="line2d_38">
      <g>
       <use style="stroke:#000000;stroke-width:0.8;" x="37.514646" xlink:href="#mdb39048f24" y="234.845235"/>
      </g>
     </g>
     <g id="text_20">
      <!-- 0.50 -->
      <g transform="translate(16.202146 237.88461)scale(0.08 -0.08)">
       <use xlink:href="#DejaVuSans-30"/>
       <use x="63.623047" xlink:href="#DejaVuSans-2e"/>
       <use x="95.410156" xlink:href="#DejaVuSans-35"/>
       <use x="159.033203" xlink:href="#DejaVuSans-30"/>
      </g>
     </g>
    </g>
    <g id="ytick_8">
     <g id="line2d_39">
      <path clip-path="url(#p035333a37a)" d="M 37.514646 213.733307 
L 218.562854 213.733307 
" style="fill:none;opacity:0.1;stroke:#000000;stroke-linecap:square;stroke-width:0.5;"/>
     </g>
     <g id="line2d_40">
      <g>
       <use style="stroke:#000000;stroke-width:0.8;" x="37.514646" xlink:href="#mdb39048f24" y="213.733307"/>
      </g>
     </g>
     <g id="text_21">
      <!-- 0.75 -->
      <defs>
       <path d="M 8.203125 72.90625 
L 55.078125 72.90625 
L 55.078125 68.703125 
L 28.609375 0 
L 18.3125 0 
L 43.21875 64.59375 
L 8.203125 64.59375 
z
" id="DejaVuSans-37"/>
      </defs>
      <g transform="translate(16.202146 216.772682)scale(0.08 -0.08)">
       <use xlink:href="#DejaVuSans-30"/>
       <use x="63.623047" xlink:href="#DejaVuSans-2e"/>
       <use x="95.410156" xlink:href="#DejaVuSans-37"/>
       <use x="159.033203" xlink:href="#DejaVuSans-35"/>
      </g>
     </g>
    </g>
    <g id="ytick_9">
     <g id="line2d_41">
      <path clip-path="url(#p035333a37a)" d="M 37.514646 192.62138 
L 218.562854 192.62138 
" style="fill:none;opacity:0.1;stroke:#000000;stroke-linecap:square;stroke-width:0.5;"/>
     </g>
     <g id="line2d_42">
      <g>
       <use style="stroke:#000000;stroke-width:0.8;" x="37.514646" xlink:href="#mdb39048f24" y="192.62138"/>
      </g>
     </g>
     <g id="text_22">
      <!-- 1.00 -->
      <g transform="translate(16.202146 195.660755)scale(0.08 -0.08)">
       <use xlink:href="#DejaVuSans-31"/>
       <use x="63.623047" xlink:href="#DejaVuSans-2e"/>
       <use x="95.410156" xlink:href="#DejaVuSans-30"/>
       <use x="159.033203" xlink:href="#DejaVuSans-30"/>
      </g>
     </g>
    </g>
    <g id="ytick_10">
     <g id="line2d_43">
      <path clip-path="url(#p035333a37a)" d="M 37.514646 171.509453 
L 218.562854 171.509453 
" style="fill:none;opacity:0.1;stroke:#000000;stroke-linecap:square;stroke-width:0.5;"/>
     </g>
     <g id="line2d_44">
      <g>
       <use style="stroke:#000000;stroke-width:0.8;" x="37.514646" xlink:href="#mdb39048f24" y="171.509453"/>
      </g>
     </g>
     <g id="text_23">
      <!-- 1.25 -->
      <g transform="translate(16.202146 174.548828)scale(0.08 -0.08)">
       <use xlink:href="#DejaVuSans-31"/>
       <use x="63.623047" xlink:href="#DejaVuSans-2e"/>
       <use x="95.410156" xlink:href="#DejaVuSans-32"/>
       <use x="159.033203" xlink:href="#DejaVuSans-35"/>
      </g>
     </g>
    </g>
    <g id="ytick_11">
     <g id="line2d_45">
      <path clip-path="url(#p035333a37a)" d="M 37.514646 150.397525 
L 218.562854 150.397525 
" style="fill:none;opacity:0.1;stroke:#000000;stroke-linecap:square;stroke-width:0.5;"/>
     </g>
     <g id="line2d_46">
      <g>
       <use style="stroke:#000000;stroke-width:0.8;" x="37.514646" xlink:href="#mdb39048f24" y="150.397525"/>
      </g>
     </g>
     <g id="text_24">
      <!-- 1.50 -->
      <g transform="translate(16.202146 153.4369)scale(0.08 -0.08)">
       <use xlink:href="#DejaVuSans-31"/>
       <use x="63.623047" xlink:href="#DejaVuSans-2e"/>
       <use x="95.410156" xlink:href="#DejaVuSans-35"/>
       <use x="159.033203" xlink:href="#DejaVuSans-30"/>
      </g>
     </g>
    </g>
    <g id="ytick_12">
     <g id="line2d_47">
      <path clip-path="url(#p035333a37a)" d="M 37.514646 129.285598 
L 218.562854 129.285598 
" style="fill:none;opacity:0.1;stroke:#000000;stroke-linecap:square;stroke-width:0.5;"/>
     </g>
     <g id="line2d_48">
      <g>
       <use style="stroke:#000000;stroke-width:0.8;" x="37.514646" xlink:href="#mdb39048f24" y="129.285598"/>
      </g>
     </g>
     <g id="text_25">
      <!-- 1.75 -->
      <g transform="translate(16.202146 132.324973)scale(0.08 -0.08)">
       <use xlink:href="#DejaVuSans-31"/>
       <use x="63.623047" xlink:href="#DejaVuSans-2e"/>
       <use x="95.410156" xlink:href="#DejaVuSans-37"/>
       <use x="159.033203" xlink:href="#DejaVuSans-35"/>
      </g>
     </g>
    </g>
   </g>
   <g id="patch_6">
    <path d="M 37.514646 275.905354 
L 37.514646 116.318362 
" style="fill:none;stroke:#000000;stroke-linecap:square;stroke-linejoin:miter;stroke-width:0.8;"/>
   </g>
   <g id="patch_7">
    <path d="M 37.514646 275.905354 
L 218.562854 275.905354 
" style="fill:none;stroke:#000000;stroke-linecap:square;stroke-linejoin:miter;stroke-width:0.8;"/>
   </g>
   <g id="text_26">
    <!-- p1 -->
    <defs>
     <path d="M 18.109375 8.203125 
L 18.109375 -20.796875 
L 9.078125 -20.796875 
L 9.078125 54.6875 
L 18.109375 54.6875 
L 18.109375 46.390625 
Q 20.953125 51.265625 25.265625 53.625 
Q 29.59375 56 35.59375 56 
Q 45.5625 56 51.78125 48.09375 
Q 58.015625 40.1875 58.015625 27.296875 
Q 58.015625 14.40625 51.78125 6.484375 
Q 45.5625 -1.421875 35.59375 -1.421875 
Q 29.59375 -1.421875 25.265625 0.953125 
Q 20.953125 3.328125 18.109375 8.203125 
M 48.6875 27.296875 
Q 48.6875 37.203125 44.609375 42.84375 
Q 40.53125 48.484375 33.40625 48.484375 
Q 26.265625 48.484375 22.1875 42.84375 
Q 18.109375 37.203125 18.109375 27.296875 
Q 18.109375 17.390625 22.1875 11.75 
Q 26.265625 6.109375 33.40625 6.109375 
Q 40.53125 6.109375 44.609375 11.75 
Q 48.6875 17.390625 48.6875 27.296875 
" id="DejaVuSans-70"/>
    </defs>
    <g transform="translate(119.141094 110.318362)scale(0.14 -0.14)">
     <use xlink:href="#DejaVuSans-70"/>
     <use x="63.476562" xlink:href="#DejaVuSans-31"/>
    </g>
   </g>
   <g id="line2d_49">
    <path clip-path="url(#p035333a37a)" d="M 37.514646 260.179547 
L 38.667819 273.417579 
L 39.820992 275.905354 
L 40.974166 270.517516 
L 42.127339 270.123624 
L 43.280512 254.894052 
L 44.433685 230.336951 
L 45.586859 239.994452 
L 46.740032 167.424994 
L 47.893205 167.288584 
L 49.046379 198.358867 
L 50.199552 185.967853 
L 51.352725 196.88161 
L 52.505899 179.983168 
L 53.659072 196.88161 
L 54.812245 169.050029 
L 55.965419 198.390015 
L 57.118592 197.439674 
L 58.271765 198.390015 
L 59.424938 215.864768 
L 60.578112 206.541072 
L 61.731285 211.967061 
L 62.884458 192.620608 
L 64.037632 188.146535 
L 65.190805 199.642718 
L 66.343978 200.943086 
L 67.497152 184.260425 
L 68.650325 199.184493 
L 69.803498 166.35484 
L 70.956671 209.549559 
L 72.109845 202.889661 
L 73.263018 157.384984 
L 74.416191 197.267544 
L 75.569365 183.56945 
L 76.722538 208.882881 
L 77.875711 191.001527 
L 79.028885 207.554431 
L 80.182058 215.224759 
L 81.335231 240.068244 
L 82.488405 221.982581 
L 83.641578 163.331822 
L 84.794751 234.364117 
L 85.947924 234.688942 
L 87.101098 244.929896 
L 88.254271 214.988361 
L 89.407444 250.771699 
L 90.560618 247.535391 
L 91.713791 212.549878 
L 92.866964 191.549041 
L 94.020138 185.310056 
L 95.173311 193.834186 
L 96.326484 212.549878 
L 97.479657 212.549878 
L 98.632831 181.299527 
L 99.786004 213.270317 
L 100.939177 218.252415 
L 102.092351 219.777973 
L 103.245524 210.161698 
L 104.398697 212.549878 
L 105.551871 190.752403 
L 106.705044 215.901858 
L 107.858217 190.752403 
L 109.01139 215.901858 
L 110.164564 162.624908 
L 111.317737 193.465057 
L 112.47091 205.551726 
L 113.624084 193.465057 
L 114.777257 194.225187 
L 115.93043 197.488027 
L 117.083604 193.465057 
L 118.236777 180.66862 
L 119.38995 184.447867 
L 120.543124 198.855946 
L 121.696297 175.811891 
L 122.84947 198.855946 
L 124.002643 175.811891 
L 125.155817 197.226842 
L 126.30899 214.322748 
L 127.462163 196.894638 
L 128.615337 205.076103 
L 129.76851 202.06595 
L 130.921683 188.312163 
L 132.074857 183.549233 
L 133.22803 173.798749 
L 134.381203 190.465691 
L 135.534376 169.800449 
L 136.68755 184.64728 
L 137.840723 185.420376 
L 138.993896 170.84457 
L 140.14707 189.048263 
L 141.300243 189.835829 
L 142.453416 177.955812 
L 143.60659 216.57242 
L 144.759763 189.048263 
L 145.912936 186.638109 
L 147.06611 170.432744 
L 148.219283 195.356471 
L 149.372456 172.01809 
L 150.525629 203.288232 
L 151.678803 200.748799 
L 152.831976 187.503828 
L 153.985149 200.748799 
L 155.138323 187.503828 
L 156.291496 178.936988 
L 157.444669 181.424049 
L 158.597843 182.027861 
L 159.751016 182.148741 
L 160.904189 195.34522 
L 162.057362 199.712974 
L 163.210536 208.973566 
L 164.363709 208.001132 
L 165.516882 175.632802 
L 166.670056 174.148436 
L 167.823229 230.421632 
L 168.976402 169.956578 
L 170.129576 148.644903 
L 171.282749 149.399363 
L 172.435922 137.774792 
L 173.589095 116.318362 
L 174.742269 135.209403 
L 175.895442 131.709871 
L 177.048615 133.977607 
L 178.201789 140.982668 
L 179.354962 233.407308 
L 180.508135 236.459943 
L 181.661309 236.242916 
L 182.814482 207.755463 
L 183.967655 152.177809 
L 185.120829 148.402511 
L 186.274002 159.366702 
L 187.427175 160.901296 
L 188.580348 183.258378 
L 189.733522 207.786499 
L 190.886695 224.024178 
L 192.039868 181.998971 
L 193.193042 207.786499 
L 194.346215 202.162832 
L 195.499388 165.265698 
L 197.805735 206.65146 
L 198.958908 186.645839 
L 200.112081 206.65146 
L 201.265255 166.423822 
L 202.418428 183.647485 
L 203.571601 166.423822 
L 204.724775 165.498977 
L 205.877948 162.556937 
L 207.031121 237.588371 
L 208.184295 162.556937 
L 209.337468 140.446409 
L 210.490641 148.912733 
L 211.643815 185.64808 
L 212.796988 196.356422 
L 215.103334 171.901098 
L 216.256508 178.651624 
L 217.409681 202.10144 
L 218.562854 162.554073 
L 218.562854 162.554073 
" style="fill:none;stroke:#000000;stroke-linecap:round;"/>
   </g>
  </g>
  <g id="axes_3">
   <g id="patch_8">
    <path d="M 241.952146 275.905354 
L 423.000354 275.905354 
L 423.000354 116.318362 
L 241.952146 116.318362 
z
" style="fill:#ffffff;"/>
   </g>
   <g id="matplotlib.axis_5">
    <g id="xtick_12">
     <g id="line2d_50">
      <path clip-path="url(#pd92a4ad952)" d="M 263.862438 275.905354 
L 263.862438 116.318362 
" style="fill:none;opacity:0.1;stroke:#000000;stroke-linecap:square;stroke-width:0.5;"/>
     </g>
     <g id="line2d_51">
      <g>
       <use style="stroke:#000000;stroke-width:0.8;" x="263.862438" xlink:href="#m8066edaa12" y="275.905354"/>
      </g>
     </g>
     <g id="text_27">
      <!-- 20 -->
      <g transform="translate(258.772438 285.484104)scale(0.08 -0.08)">
       <use xlink:href="#DejaVuSans-32"/>
       <use x="63.623047" xlink:href="#DejaVuSans-30"/>
      </g>
     </g>
    </g>
    <g id="xtick_13">
     <g id="line2d_52">
      <path clip-path="url(#pd92a4ad952)" d="M 286.925905 275.905354 
L 286.925905 116.318362 
" style="fill:none;opacity:0.1;stroke:#000000;stroke-linecap:square;stroke-width:0.5;"/>
     </g>
     <g id="line2d_53">
      <g>
       <use style="stroke:#000000;stroke-width:0.8;" x="286.925905" xlink:href="#m8066edaa12" y="275.905354"/>
      </g>
     </g>
     <g id="text_28">
      <!-- 40 -->
      <g transform="translate(281.835905 285.484104)scale(0.08 -0.08)">
       <use xlink:href="#DejaVuSans-34"/>
       <use x="63.623047" xlink:href="#DejaVuSans-30"/>
      </g>
     </g>
    </g>
    <g id="xtick_14">
     <g id="line2d_54">
      <path clip-path="url(#pd92a4ad952)" d="M 309.989371 275.905354 
L 309.989371 116.318362 
" style="fill:none;opacity:0.1;stroke:#000000;stroke-linecap:square;stroke-width:0.5;"/>
     </g>
     <g id="line2d_55">
      <g>
       <use style="stroke:#000000;stroke-width:0.8;" x="309.989371" xlink:href="#m8066edaa12" y="275.905354"/>
      </g>
     </g>
     <g id="text_29">
      <!-- 60 -->
      <g transform="translate(304.899371 285.484104)scale(0.08 -0.08)">
       <use xlink:href="#DejaVuSans-36"/>
       <use x="63.623047" xlink:href="#DejaVuSans-30"/>
      </g>
     </g>
    </g>
    <g id="xtick_15">
     <g id="line2d_56">
      <path clip-path="url(#pd92a4ad952)" d="M 333.052837 275.905354 
L 333.052837 116.318362 
" style="fill:none;opacity:0.1;stroke:#000000;stroke-linecap:square;stroke-width:0.5;"/>
     </g>
     <g id="line2d_57">
      <g>
       <use style="stroke:#000000;stroke-width:0.8;" x="333.052837" xlink:href="#m8066edaa12" y="275.905354"/>
      </g>
     </g>
     <g id="text_30">
      <!-- 80 -->
      <g transform="translate(327.962837 285.484104)scale(0.08 -0.08)">
       <use xlink:href="#DejaVuSans-38"/>
       <use x="63.623047" xlink:href="#DejaVuSans-30"/>
      </g>
     </g>
    </g>
    <g id="xtick_16">
     <g id="line2d_58">
      <path clip-path="url(#pd92a4ad952)" d="M 356.116303 275.905354 
L 356.116303 116.318362 
" style="fill:none;opacity:0.1;stroke:#000000;stroke-linecap:square;stroke-width:0.5;"/>
     </g>
     <g id="line2d_59">
      <g>
       <use style="stroke:#000000;stroke-width:0.8;" x="356.116303" xlink:href="#m8066edaa12" y="275.905354"/>
      </g>
     </g>
     <g id="text_31">
      <!-- 100 -->
      <g transform="translate(348.481303 285.484104)scale(0.08 -0.08)">
       <use xlink:href="#DejaVuSans-31"/>
       <use x="63.623047" xlink:href="#DejaVuSans-30"/>
       <use x="127.246094" xlink:href="#DejaVuSans-30"/>
      </g>
     </g>
    </g>
    <g id="xtick_17">
     <g id="line2d_60">
      <path clip-path="url(#pd92a4ad952)" d="M 379.179769 275.905354 
L 379.179769 116.318362 
" style="fill:none;opacity:0.1;stroke:#000000;stroke-linecap:square;stroke-width:0.5;"/>
     </g>
     <g id="line2d_61">
      <g>
       <use style="stroke:#000000;stroke-width:0.8;" x="379.179769" xlink:href="#m8066edaa12" y="275.905354"/>
      </g>
     </g>
     <g id="text_32">
      <!-- 120 -->
      <g transform="translate(371.544769 285.484104)scale(0.08 -0.08)">
       <use xlink:href="#DejaVuSans-31"/>
       <use x="63.623047" xlink:href="#DejaVuSans-32"/>
       <use x="127.246094" xlink:href="#DejaVuSans-30"/>
      </g>
     </g>
    </g>
    <g id="xtick_18">
     <g id="line2d_62">
      <path clip-path="url(#pd92a4ad952)" d="M 402.243235 275.905354 
L 402.243235 116.318362 
" style="fill:none;opacity:0.1;stroke:#000000;stroke-linecap:square;stroke-width:0.5;"/>
     </g>
     <g id="line2d_63">
      <g>
       <use style="stroke:#000000;stroke-width:0.8;" x="402.243235" xlink:href="#m8066edaa12" y="275.905354"/>
      </g>
     </g>
     <g id="text_33">
      <!-- 140 -->
      <g transform="translate(394.608235 285.484104)scale(0.08 -0.08)">
       <use xlink:href="#DejaVuSans-31"/>
       <use x="63.623047" xlink:href="#DejaVuSans-34"/>
       <use x="127.246094" xlink:href="#DejaVuSans-30"/>
      </g>
     </g>
    </g>
   </g>
   <g id="matplotlib.axis_6">
    <g id="ytick_13">
     <g id="line2d_64">
      <path clip-path="url(#pd92a4ad952)" d="M 241.952146 260.891163 
L 423.000354 260.891163 
" style="fill:none;opacity:0.1;stroke:#000000;stroke-linecap:square;stroke-width:0.5;"/>
     </g>
     <g id="line2d_65">
      <g>
       <use style="stroke:#000000;stroke-width:0.8;" x="241.952146" xlink:href="#mdb39048f24" y="260.891163"/>
      </g>
     </g>
     <g id="text_34">
      <!-- -1.4 -->
      <defs>
       <path d="M 4.890625 31.390625 
L 31.203125 31.390625 
L 31.203125 23.390625 
L 4.890625 23.390625 
z
" id="DejaVuSans-2d"/>
      </defs>
      <g transform="translate(222.843396 263.930538)scale(0.08 -0.08)">
       <use xlink:href="#DejaVuSans-2d"/>
       <use x="36.083984" xlink:href="#DejaVuSans-31"/>
       <use x="99.707031" xlink:href="#DejaVuSans-2e"/>
       <use x="131.494141" xlink:href="#DejaVuSans-34"/>
      </g>
     </g>
    </g>
    <g id="ytick_14">
     <g id="line2d_66">
      <path clip-path="url(#pd92a4ad952)" d="M 241.952146 236.795696 
L 423.000354 236.795696 
" style="fill:none;opacity:0.1;stroke:#000000;stroke-linecap:square;stroke-width:0.5;"/>
     </g>
     <g id="line2d_67">
      <g>
       <use style="stroke:#000000;stroke-width:0.8;" x="241.952146" xlink:href="#mdb39048f24" y="236.795696"/>
      </g>
     </g>
     <g id="text_35">
      <!-- -1.2 -->
      <g transform="translate(222.843396 239.835071)scale(0.08 -0.08)">
       <use xlink:href="#DejaVuSans-2d"/>
       <use x="36.083984" xlink:href="#DejaVuSans-31"/>
       <use x="99.707031" xlink:href="#DejaVuSans-2e"/>
       <use x="131.494141" xlink:href="#DejaVuSans-32"/>
      </g>
     </g>
    </g>
    <g id="ytick_15">
     <g id="line2d_68">
      <path clip-path="url(#pd92a4ad952)" d="M 241.952146 212.700229 
L 423.000354 212.700229 
" style="fill:none;opacity:0.1;stroke:#000000;stroke-linecap:square;stroke-width:0.5;"/>
     </g>
     <g id="line2d_69">
      <g>
       <use style="stroke:#000000;stroke-width:0.8;" x="241.952146" xlink:href="#mdb39048f24" y="212.700229"/>
      </g>
     </g>
     <g id="text_36">
      <!-- -1.0 -->
      <g transform="translate(222.843396 215.739604)scale(0.08 -0.08)">
       <use xlink:href="#DejaVuSans-2d"/>
       <use x="36.083984" xlink:href="#DejaVuSans-31"/>
       <use x="99.707031" xlink:href="#DejaVuSans-2e"/>
       <use x="131.494141" xlink:href="#DejaVuSans-30"/>
      </g>
     </g>
    </g>
    <g id="ytick_16">
     <g id="line2d_70">
      <path clip-path="url(#pd92a4ad952)" d="M 241.952146 188.604762 
L 423.000354 188.604762 
" style="fill:none;opacity:0.1;stroke:#000000;stroke-linecap:square;stroke-width:0.5;"/>
     </g>
     <g id="line2d_71">
      <g>
       <use style="stroke:#000000;stroke-width:0.8;" x="241.952146" xlink:href="#mdb39048f24" y="188.604762"/>
      </g>
     </g>
     <g id="text_37">
      <!-- -0.8 -->
      <g transform="translate(222.843396 191.644137)scale(0.08 -0.08)">
       <use xlink:href="#DejaVuSans-2d"/>
       <use x="36.083984" xlink:href="#DejaVuSans-30"/>
       <use x="99.707031" xlink:href="#DejaVuSans-2e"/>
       <use x="131.494141" xlink:href="#DejaVuSans-38"/>
      </g>
     </g>
    </g>
    <g id="ytick_17">
     <g id="line2d_72">
      <path clip-path="url(#pd92a4ad952)" d="M 241.952146 164.509296 
L 423.000354 164.509296 
" style="fill:none;opacity:0.1;stroke:#000000;stroke-linecap:square;stroke-width:0.5;"/>
     </g>
     <g id="line2d_73">
      <g>
       <use style="stroke:#000000;stroke-width:0.8;" x="241.952146" xlink:href="#mdb39048f24" y="164.509296"/>
      </g>
     </g>
     <g id="text_38">
      <!-- -0.6 -->
      <g transform="translate(222.843396 167.548671)scale(0.08 -0.08)">
       <use xlink:href="#DejaVuSans-2d"/>
       <use x="36.083984" xlink:href="#DejaVuSans-30"/>
       <use x="99.707031" xlink:href="#DejaVuSans-2e"/>
       <use x="131.494141" xlink:href="#DejaVuSans-36"/>
      </g>
     </g>
    </g>
    <g id="ytick_18">
     <g id="line2d_74">
      <path clip-path="url(#pd92a4ad952)" d="M 241.952146 140.413829 
L 423.000354 140.413829 
" style="fill:none;opacity:0.1;stroke:#000000;stroke-linecap:square;stroke-width:0.5;"/>
     </g>
     <g id="line2d_75">
      <g>
       <use style="stroke:#000000;stroke-width:0.8;" x="241.952146" xlink:href="#mdb39048f24" y="140.413829"/>
      </g>
     </g>
     <g id="text_39">
      <!-- -0.4 -->
      <g transform="translate(222.843396 143.453204)scale(0.08 -0.08)">
       <use xlink:href="#DejaVuSans-2d"/>
       <use x="36.083984" xlink:href="#DejaVuSans-30"/>
       <use x="99.707031" xlink:href="#DejaVuSans-2e"/>
       <use x="131.494141" xlink:href="#DejaVuSans-34"/>
      </g>
     </g>
    </g>
    <g id="ytick_19">
     <g id="line2d_76">
      <path clip-path="url(#pd92a4ad952)" d="M 241.952146 116.318362 
L 423.000354 116.318362 
" style="fill:none;opacity:0.1;stroke:#000000;stroke-linecap:square;stroke-width:0.5;"/>
     </g>
     <g id="line2d_77">
      <g>
       <use style="stroke:#000000;stroke-width:0.8;" x="241.952146" xlink:href="#mdb39048f24" y="116.318362"/>
      </g>
     </g>
     <g id="text_40">
      <!-- -0.2 -->
      <g transform="translate(222.843396 119.357737)scale(0.08 -0.08)">
       <use xlink:href="#DejaVuSans-2d"/>
       <use x="36.083984" xlink:href="#DejaVuSans-30"/>
       <use x="99.707031" xlink:href="#DejaVuSans-2e"/>
       <use x="131.494141" xlink:href="#DejaVuSans-32"/>
      </g>
     </g>
    </g>
   </g>
   <g id="patch_9">
    <path d="M 241.952146 275.905354 
L 241.952146 116.318362 
" style="fill:none;stroke:#000000;stroke-linecap:square;stroke-linejoin:miter;stroke-width:0.8;"/>
   </g>
   <g id="patch_10">
    <path d="M 241.952146 275.905354 
L 423.000354 275.905354 
" style="fill:none;stroke:#000000;stroke-linecap:square;stroke-linejoin:miter;stroke-width:0.8;"/>
   </g>
   <g id="line2d_78">
    <path clip-path="url(#pd92a4ad952)" d="M 241.952146 116.318362 
L 243.105319 124.032805 
L 244.258492 157.576992 
L 245.411666 163.520955 
L 246.564839 165.760953 
L 247.718012 218.247216 
L 248.871185 165.606937 
L 250.024359 227.073282 
L 251.177532 259.967529 
L 252.330705 249.344516 
L 253.483879 254.087136 
L 254.637052 212.311125 
L 255.790225 194.556884 
L 256.943399 214.651781 
L 258.096572 194.556884 
L 259.249745 211.719231 
L 260.402919 173.691364 
L 261.556092 196.394644 
L 262.709265 173.691364 
L 263.862438 172.733509 
L 265.015612 241.453376 
L 266.168785 238.410899 
L 267.321958 202.779766 
L 268.475132 211.392712 
L 269.628305 228.105061 
L 270.781478 247.785413 
L 271.934652 199.979476 
L 273.087825 238.345147 
L 274.240998 203.52213 
L 275.394171 243.192019 
L 276.547345 225.207557 
L 277.700518 185.482956 
L 278.853691 178.674163 
L 280.006865 176.134496 
L 281.160038 164.534117 
L 282.313211 181.888293 
L 283.466385 159.105138 
L 284.619558 157.760309 
L 285.772731 207.128249 
L 286.925905 202.194599 
L 288.079078 273.628257 
L 289.232251 187.385609 
L 290.385424 211.456174 
L 291.538598 193.19687 
L 292.691771 275.511354 
L 293.844944 222.460874 
L 294.998118 245.53162 
L 296.151291 243.933711 
L 297.304464 219.202734 
L 298.457638 163.083614 
L 299.610811 179.551785 
L 300.763984 243.933711 
L 301.917157 243.933711 
L 303.070331 228.300777 
L 304.223504 256.648144 
L 305.376677 213.868655 
L 306.529851 214.150425 
L 307.683024 256.557642 
L 308.836197 243.933711 
L 309.989371 272.357811 
L 311.142544 161.980721 
L 312.295717 272.357811 
L 313.44889 161.980721 
L 314.602064 211.081426 
L 315.755237 217.794878 
L 316.90841 208.0452 
L 318.061584 217.794878 
L 319.214757 247.404236 
L 320.36793 252.853671 
L 321.521104 217.794878 
L 322.674277 237.988545 
L 323.82745 182.058801 
L 324.980624 221.162318 
L 326.133797 186.91608 
L 327.28697 221.162318 
L 328.440143 186.91608 
L 329.593317 236.119719 
L 330.74649 225.788624 
L 331.899663 251.453925 
L 333.052837 227.368306 
L 334.20601 197.133493 
L 335.359183 231.360784 
L 336.512357 230.766273 
L 337.66553 211.482884 
L 338.818703 181.715091 
L 339.971876 240.455343 
L 341.12505 189.162335 
L 342.278223 227.480917 
L 343.431396 206.010815 
L 344.58457 218.413035 
L 345.737743 250.371193 
L 346.890916 167.578143 
L 348.04409 181.666075 
L 349.197263 218.413035 
L 350.350436 210.115043 
L 351.50361 193.059034 
L 352.656783 237.585583 
L 353.809956 212.454422 
L 354.963129 211.813553 
L 356.116303 252.625766 
L 357.269476 163.986855 
L 358.422649 252.625766 
L 359.575823 163.986855 
L 360.728996 193.941198 
L 361.882169 212.645626 
L 363.035343 261.451237 
L 364.188516 258.569852 
L 365.341689 267.126599 
L 366.494862 256.836457 
L 367.648036 165.863888 
L 368.801209 231.189821 
L 369.954382 202.179545 
L 371.107556 202.547759 
L 372.260729 209.856153 
L 373.413902 158.601971 
L 374.567076 163.126081 
L 375.720249 149.298734 
L 376.873422 180.195113 
L 378.026595 161.982591 
L 379.179769 129.743722 
L 380.332942 196.17253 
L 381.486115 208.139668 
L 382.639289 226.344948 
L 383.792462 193.886382 
L 384.945635 197.088108 
L 386.098809 187.906049 
L 387.251982 161.726846 
L 388.405155 205.878647 
L 389.558329 223.846905 
L 390.711502 229.983085 
L 391.864675 204.687307 
L 393.017848 226.811631 
L 394.171022 236.327664 
L 396.477368 199.516315 
L 397.630542 236.327664 
L 398.783715 158.009575 
L 399.936888 236.852882 
L 401.090062 173.772078 
L 402.243235 172.144441 
L 403.396408 173.772078 
L 404.549581 172.144441 
L 405.702755 220.565804 
L 406.855928 169.555807 
L 408.009101 220.565804 
L 409.162275 265.248454 
L 410.315448 272.409629 
L 411.468621 162.495563 
L 412.621795 272.409629 
L 413.774968 275.905354 
L 414.928141 208.241211 
L 416.081315 219.049906 
L 417.234488 209.844213 
L 418.387661 203.496975 
L 419.540834 190.1138 
L 420.694008 195.381807 
L 421.847181 164.007603 
L 423.000354 192.8316 
L 423.000354 192.8316 
" style="fill:none;stroke:#000000;stroke-linecap:round;"/>
   </g>
   <g id="text_41">
    <!-- p2 -->
    <g transform="translate(323.578594 110.318362)scale(0.14 -0.14)">
     <use xlink:href="#DejaVuSans-70"/>
     <use x="63.476562" xlink:href="#DejaVuSans-32"/>
    </g>
   </g>
  </g>
 </g>
 <defs>
  <clipPath id="p32f505beca">
   <rect height="68.394425" width="385.485709" x="37.514646" y="2.834646"/>
  </clipPath>
  <clipPath id="p035333a37a">
   <rect height="159.586992" width="181.048209" x="37.514646" y="116.318362"/>
  </clipPath>
  <clipPath id="pd92a4ad952">
   <rect height="159.586992" width="181.048209" x="241.952146" y="116.318362"/>
  </clipPath>
 </defs>
</svg>
